<?xml version="1.0" encoding="UTF-8"?>
<svg version="1.1" xmlns="http://www.w3.org/2000/svg" width="512" height="512">
<path d="M0 0 C0.88528118 -0.00199105 1.77056236 -0.0039821 2.68267024 -0.00603348 C3.66125447 -0.00312064 4.63983871 -0.0002078 5.64807701 0.00279331 C6.68292461 0.00193889 7.7177722 0.00108446 8.78397882 0.00020415 C12.27412638 -0.00145149 15.76422656 0.00407211 19.25436974 0.00952244 C21.74724387 0.00980432 24.24011809 0.00964656 26.73299217 0.00907993 C32.11158045 0.00885174 37.49015379 0.01170006 42.86873817 0.01731777 C50.64532661 0.02543483 58.42190918 0.0280482 66.19850139 0.02930576 C78.81462098 0.03149596 91.43073412 0.03815517 104.0468502 0.04760838 C116.30433685 0.05678333 128.56182175 0.06386376 140.81931114 0.06811619 C141.57449558 0.06837891 142.32968001 0.06864164 143.10774882 0.06891232 C146.89617757 0.07021733 150.68460633 0.07148104 154.4730351 0.07272422 C185.91626462 0.08309583 217.35948612 0.10078745 248.80270958 0.12304783 C248.80635521 1.37061863 248.81000084 2.61818943 248.81375694 3.90356541 C248.85073555 15.67414506 248.90853993 27.4444638 248.98661232 39.2148447 C249.026082 45.26579958 249.05827319 51.31660903 249.07370567 57.36767673 C249.08887529 63.20985954 249.12332711 69.05164253 249.1710186 74.89364719 C249.18582909 77.11986912 249.1937504 79.34614813 249.19459343 81.57241917 C249.19696574 84.69649728 249.22406813 87.81947289 249.25681114 90.94336033 C249.25178078 91.85902271 249.24675041 92.7746851 249.24156761 93.71809483 C249.34730553 100.260413 250.70500303 105.68802239 255.17899513 110.64920139 C261.31549308 116.1720636 267.75546081 116.4232209 275.57175255 116.44189548 C276.53823219 116.45194111 277.50471184 116.46198673 278.50047874 116.47233677 C281.6819457 116.50312613 284.86332866 116.52019224 288.04489708 116.53711033 C290.25593346 116.55582537 292.46696273 116.57539904 294.67798424 116.59579563 C300.48772546 116.64708715 306.29748984 116.68672895 312.10733604 116.72393894 C319.08335765 116.77104441 326.05926466 116.83262956 333.03519249 116.89178562 C343.62431852 116.97996154 354.21342299 117.04975222 364.80270958 117.12304783 C364.80270958 132.30304783 364.80270958 147.48304783 364.80270958 163.12304783 C361.37895958 163.51492283 357.95520958 163.90679783 354.42770958 164.31054783 C337.79548907 166.40387488 322.85939914 170.78506577 307.80270958 178.12304783 C306.68251427 178.66832127 305.56231895 179.2135947 304.40817833 179.77539158 C272.04909472 196.40490855 248.27743361 225.40109087 235.95895958 259.44336033 C231.70640778 272.97681911 229.49768802 286.20771204 228.65817833 300.37304783 C228.57306519 301.71554045 228.48725345 303.05798898 228.40073204 304.40039158 C228.19455677 307.64091319 227.99534881 310.88169825 227.80270958 314.12304783 C226.80565089 314.12543618 225.80859221 314.12782454 224.78131962 314.13028526 C200.54573279 314.18902139 176.31024584 314.26486754 152.07476902 314.35876274 C140.35477852 314.40377124 128.63481875 314.44317417 116.91477013 314.46948338 C106.70224501 314.49242259 96.48981674 314.52577474 86.27736837 314.57174939 C80.86753376 314.59573672 75.4577954 314.61442932 70.04790878 314.62066174 C64.95979759 314.62668774 59.87193282 314.64659704 54.78391266 314.67732334 C52.91301112 314.68614359 51.04207743 314.68981796 49.17115593 314.68805599 C46.62330358 314.68641359 44.07621176 314.70301313 41.52846336 314.72432041 C40.4093052 314.71704905 40.4093052 314.71704905 39.26753777 314.70963079 C36.33547223 314.7503013 34.28625485 314.80071121 31.80813122 316.45265579 C30.514173 318.24572916 30.514173 318.24572916 30.99020958 321.24804783 C31.25833458 322.19679783 31.52645958 323.14554783 31.80270958 324.12304783 C34.87783448 325.66061028 38.1089162 325.276904 41.48413658 325.28126621 C42.68726425 325.28867318 42.68726425 325.28867318 43.91469753 325.29622978 C46.61711214 325.31165505 49.31950291 325.31997897 52.02194786 325.32837009 C53.95325495 325.33794467 55.88455992 325.3479545 57.81586266 325.35836887 C63.07176146 325.38546958 68.3276693 325.40645112 73.58359957 325.42637086 C79.0716006 325.44819862 84.55957364 325.47560297 90.04755211 325.5024271 C100.44559821 325.5523975 110.84365981 325.59732017 121.24173629 325.64044946 C133.07712615 325.68978475 144.91248793 325.7447166 156.74785066 325.80012906 C181.09944412 325.91401582 205.4510645 326.02084024 229.80270958 326.12304783 C229.93846397 326.74759861 230.07421837 327.37214939 230.21408653 328.01562595 C230.84167997 330.88614217 231.47837778 333.75456763 232.11520958 336.62304783 C232.32854942 337.60531345 232.54188927 338.58757908 232.76169395 339.59961033 C233.76005379 344.06987827 234.80659912 348.38110678 236.47067833 352.65429783 C237.80270958 356.12304783 237.80270958 356.12304783 237.80270958 359.12304783 C236.23892885 359.12939574 236.23892885 359.12939574 234.64355659 359.13587189 C209.29775101 359.23898329 183.95197435 359.34772113 158.60621834 359.46238708 C146.34929678 359.51770746 134.09237231 359.57118754 121.83542442 359.62036228 C111.15451601 359.66321861 100.47362892 359.7095003 89.79275346 359.75992638 C84.13530984 359.7865156 78.47787043 359.81136844 72.82040215 359.83212185 C67.49845361 359.85169852 62.17654563 359.87584548 56.85463333 359.9035387 C54.89867641 359.91290366 52.94271059 359.92058094 50.98674011 359.92646694 C48.32124636 359.93473751 45.65585079 359.94901697 42.99039268 359.96482944 C41.82307598 359.96629661 41.82307598 359.96629661 40.63217711 359.96779341 C37.22160385 359.99390327 34.06257475 360.04952143 30.80270958 361.12304783 C30.45348181 365.13409388 30.45348181 365.13409388 31.7986517 368.80533695 C34.98958167 370.90344159 38.36651378 370.47601191 42.05513573 370.39392185 C43.33259945 370.38378347 43.33259945 370.38378347 44.63587052 370.37344027 C47.50097565 370.34752105 50.36536066 370.3004219 53.23019981 370.2539072 C55.28009523 370.23182661 57.33000825 370.21133136 59.37993431 370.19230747 C63.80147895 370.14974487 68.22285208 370.0995719 72.64426041 370.04469395 C79.64173264 369.96160239 86.63908778 369.9181523 93.63695335 369.88464451 C94.81780351 369.87884074 95.99865366 369.87303697 97.21528715 369.86705732 C99.63046208 369.85531549 102.04563759 369.84369059 104.46081364 369.83218002 C120.75497318 369.75343847 137.04766715 369.65103016 153.34055138 369.42724705 C164.32684996 369.2766434 175.31137795 369.19366527 186.29873806 369.18834448 C192.11265205 369.18284952 197.92177653 369.14308116 203.73450089 369.02067661 C209.21024721 368.90593131 214.67927487 368.88071781 220.15599442 368.92248058 C222.15887515 368.92208414 224.16206555 368.88942313 226.16378212 368.82114315 C238.4914026 368.42259752 238.4914026 368.42259752 243.80270958 371.12304783 C248.69579354 375.79095239 251.55013939 381.76834827 254.50457108 387.76016998 C256.55264227 391.48807886 259.2227 394.59363956 262.05270958 397.74804783 C262.76796912 398.55027185 262.76796912 398.55027185 263.49767834 399.36870241 C263.9334949 399.85740202 264.36931146 400.34610164 264.81833458 400.84961033 C266.80270958 403.12304783 266.80270958 403.12304783 266.80270958 404.12304783 C265.61680638 404.12543618 264.43090319 404.12782454 263.20906353 404.13028526 C235.063966 404.18763364 206.91893871 404.260356 178.77393179 404.35203411 C175.3104616 404.3633024 171.846991 404.37444083 168.38352013 404.385499 C167.34923944 404.38880453 167.34923944 404.38880453 166.29406419 404.39217683 C155.1265293 404.42755814 143.95899448 404.45241756 132.79142431 404.47339485 C121.33415594 404.49515029 109.87697447 404.52842115 98.4197647 404.57174939 C91.98370347 404.59572301 85.54772293 404.61442467 79.11161804 404.62066174 C73.05664487 404.62669383 67.00187826 404.6466258 60.94698143 404.67732334 C58.72215456 404.68613368 56.49730074 404.68981999 54.27245712 404.68805599 C51.23927602 404.68641008 48.20672971 404.70304452 45.17363548 404.72432041 C43.84726821 404.71704905 43.84726821 404.71704905 42.49410564 404.70963079 C37.75037067 404.7646986 34.70637953 405.11506991 30.80270958 408.12304783 C31.1449853 411.09370292 31.1449853 411.09370292 31.80270958 414.12304783 C34.08863271 415.2660094 35.32823718 415.24323344 37.86718941 415.23377991 C38.72293643 415.23308736 39.57868345 415.23239482 40.4603622 415.23168129 C41.40605107 415.2258382 42.35173994 415.21999511 43.32608604 415.21397495 C44.32655441 415.21185727 45.32702277 415.20973959 46.35780835 415.20755774 C49.73237457 415.19945791 53.10687729 415.18442378 56.48142052 415.16967869 C58.89246535 415.1628924 61.30351186 415.1566803 63.71455956 415.15100193 C68.24405153 415.14014144 72.77353553 415.12805391 77.30301973 415.11433394 C86.21578617 415.08789092 95.12849359 415.0798108 104.04129601 415.0789957 C104.7344174 415.078902 105.4275388 415.07880829 106.14166388 415.07871174 C111.85198963 415.07798964 117.56231534 415.07798657 123.27264112 415.07821183 C128.41987124 415.07837306 133.56710075 415.07786106 138.71433067 415.07641697 C139.44820917 415.07621898 140.18208767 415.07602099 140.93820491 415.075817 C152.8045298 415.07162715 164.67055704 415.03512696 176.53677723 414.98746078 C188.72984459 414.93931399 200.92253205 414.92944669 213.1156714 414.95380026 C220.62932832 414.96754901 228.14168738 414.95146195 235.65515992 414.89633209 C241.42866518 414.85710118 247.20113243 414.87092399 252.97463226 414.90386295 C255.33278844 414.90911033 257.69105621 414.89744432 260.04902267 414.86707592 C275.00058751 414.68643886 283.60158426 416.11503126 294.80270958 426.12304783 C315.44704171 440.41540961 340.25455299 445.84430216 364.80270958 448.12304783 C364.90172706 452.74944936 364.97424607 457.3752317 365.02243614 462.00244236 C365.04252838 463.57579387 365.06980757 465.14907091 365.10446739 466.72216892 C365.15309451 468.98619055 365.17570093 471.24922355 365.19333458 473.51367283 C365.21397972 474.2148624 365.23462486 474.91605198 365.25589561 475.63848972 C365.25744562 479.02648882 365.04393306 480.80616149 362.96579552 483.53613377 C359.2805468 486.23975867 356.24786616 486.2494131 351.80966187 486.25447559 C350.54926641 486.25831674 349.28887096 486.26215788 347.9902817 486.26611543 C346.58373295 486.26533514 345.17718424 486.26445634 343.7706356 486.26348972 C342.28255619 486.2660726 340.79447746 486.26908554 339.3063997 486.27249312 C335.2068592 486.2805754 331.10733619 486.28235338 327.00778866 486.28309059 C322.59052178 486.28493899 318.17326404 486.29248519 313.75600243 486.29922581 C304.09293064 486.31281782 294.42986299 486.31883505 284.76678324 486.32323647 C278.73620993 486.32599712 272.70563822 486.33023411 266.67506599 486.33474064 C249.98661525 486.34693386 233.2981658 486.35723345 216.60971069 486.36061573 C215.5412662 486.3608353 214.47282172 486.36105486 213.37200012 486.36128108 C212.30096549 486.36149936 211.22993087 486.36171764 210.12644064 486.36194253 C207.95603029 486.362386 205.78561993 486.36283256 203.61520958 486.3632822 C202.00030377 486.36361435 202.00030377 486.36361435 200.35277359 486.3639532 C182.8999347 486.36790295 165.44713752 486.38536211 147.99431475 486.40864173 C130.08688745 486.43233548 112.1794811 486.44481666 94.27203786 486.44598365 C84.21313289 486.44690146 74.15428226 486.45268055 64.09539223 486.47080326 C55.53170224 486.48617752 46.9680834 486.49134053 38.40438224 486.48306516 C34.03316317 486.47914929 29.6620875 486.48013373 25.29088593 486.49412251 C21.29127909 486.50680536 17.29192424 486.5057137 13.29231803 486.49353179 C11.84346996 486.49156502 10.39460437 486.4946982 8.94578095 486.50337616 C6.97969612 486.51440912 5.0135287 486.50522175 3.04743958 486.49498463 C1.95433208 486.49558172 0.86122459 486.4961788 -0.26500738 486.49679399 C-4.57148509 485.94789421 -7.16994165 484.1503966 -10.19729042 481.12304783 C-10.39620656 478.5316936 -10.46863318 476.0469737 -10.45455933 473.45425701 C-10.4580654 472.64948183 -10.46157148 471.84470666 -10.46518379 471.01554435 C-10.47456714 468.28984736 -10.46955677 465.5643608 -10.46471596 462.83865452 C-10.46844873 460.87637242 -10.47304875 458.91409181 -10.4784466 456.95181358 C-10.49073813 451.5368887 -10.49040894 446.12202532 -10.48805785 440.70708966 C-10.48765123 434.87603654 -10.49867396 429.04500354 -10.50817299 423.21395969 C-10.52481758 411.78140423 -10.53028409 400.34886938 -10.53139775 388.91630282 C-10.53234657 379.62766961 -10.53644857 370.33904323 -10.542799 361.05041218 C-10.54458796 358.3795633 -10.54637363 355.70871441 -10.54814875 353.03786552 C-10.54859085 352.37393989 -10.54903294 351.71001426 -10.54948844 351.02596967 C-10.56180202 332.34329839 -10.56968904 313.66062943 -10.56880188 294.97795391 C-10.56877072 294.27314533 -10.56873956 293.56833676 -10.56870746 292.84217034 C-10.56854124 289.26966639 -10.56834316 285.69716243 -10.56813805 282.12465848 C-10.56809816 281.41510867 -10.56805827 280.70555886 -10.56801717 279.97450753 C-10.56793629 278.539624 -10.5678527 277.10474047 -10.56776639 275.66985694 C-10.56654065 253.34123959 -10.58155612 231.01268296 -10.60891151 208.68408298 C-10.63961111 183.61529795 -10.65684529 158.54655282 -10.65498507 133.4777478 C-10.65424305 120.19783713 -10.65986968 106.91799203 -10.68134117 93.63809681 C-10.69950282 82.33243622 -10.70394173 71.02687514 -10.69032232 59.72120632 C-10.68376728 53.94861764 -10.6837665 48.17622013 -10.70102882 42.40364933 C-10.71665301 37.12476231 -10.71400585 31.84621974 -10.69646056 26.56734167 C-10.69336701 24.65213285 -10.69711059 22.73689899 -10.70818071 20.82171966 C-10.72218327 18.22856287 -10.71181006 15.63663424 -10.69506836 13.04352093 C-10.70500472 12.29093225 -10.71494108 11.53834357 -10.72517854 10.76294917 C-10.67740309 7.28959678 -10.46387376 5.46325457 -8.2911793 2.69051826 C-5.29596443 0.44832155 -3.67984437 -0.0018199 0 0 Z M139.57712364 56.70214939 C137.22076461 59.91701677 137.34261316 61.89755174 137.41208458 65.85742283 C137.43142052 67.80068455 137.43142052 67.80068455 137.45114708 69.78320408 C137.48456592 71.14649607 137.51842567 72.50977732 137.55270958 73.87304783 C137.57278251 75.25192847 137.5910319 76.63083695 137.60739708 78.00976658 C137.6545551 81.38156527 137.7203642 84.75195469 137.80270958 88.12304783 C136.63173225 88.11416538 135.46075493 88.10528294 134.25429344 88.09613132 C123.23288945 88.01513569 112.21154564 87.95512579 101.18991184 87.91579914 C95.52320223 87.89490136 89.85673236 87.8665435 84.19016075 87.82129002 C78.7242331 87.77791078 73.25853642 87.75392724 67.79244995 87.74353886 C65.70436846 87.73613325 63.61629997 87.72167229 61.5283165 87.7001276 C58.60932782 87.67119912 55.69130036 87.66708742 52.772192 87.66894627 C51.90400841 87.65456516 51.03582481 87.64018406 50.14133263 87.62536716 C45.57275879 87.60923165 45.57275879 87.60923165 41.76737022 89.8688364 C40.72172877 92.31228314 40.4170617 93.99272433 40.39865685 96.6445322 C40.38597267 97.53225315 40.3732885 98.4199741 40.36021996 99.33459568 C40.36315559 100.28572239 40.36609123 101.2368491 40.36911583 102.21679783 C40.36387398 103.20047337 40.35863213 104.1841489 40.35323143 105.19763279 C40.34681367 107.27546336 40.34814504 109.35333028 40.35666466 111.4311533 C40.36517909 114.61166038 40.33640203 117.79037421 40.3046627 120.97070408 C40.30305072 122.99023479 40.30362818 125.00976868 40.30661583 127.02929783 C40.29538185 127.98042454 40.28414787 128.93155125 40.27257347 129.91149998 C40.28195442 130.79922092 40.29133537 131.68694187 40.3010006 132.60156345 C40.30116676 133.38003635 40.30133293 134.15850925 40.30150414 134.96057224 C41.04894458 138.18544086 42.07158717 139.23892002 44.80270958 141.12304783 C47.80241703 141.69182169 50.74908977 141.62834923 53.79392052 141.57714939 C54.70158669 141.5777335 55.60925285 141.5783176 56.54442406 141.57891941 C59.54236758 141.57613432 62.5393149 141.54502202 65.53708458 141.51367283 C67.6164451 141.50621196 69.69581266 141.5005183 71.77518272 141.49652195 C77.24653112 141.48125358 82.71745438 141.44196109 88.18863487 141.39770603 C93.77217419 141.35677946 99.35578223 141.3385165 104.93942833 141.31836033 C115.89404214 141.27546826 126.8483405 141.20720211 137.80270958 141.12304783 C137.78699913 141.98583347 137.77128868 142.84861912 137.75510216 143.73754978 C137.70395003 146.9411405 137.66634798 150.14452298 137.63791466 153.34838963 C137.62283561 154.73452702 137.60236908 156.12061677 137.57639122 157.50659275 C137.53997242 159.49962929 137.5245794 161.49301505 137.50974083 163.48632908 C137.49403038 164.68556004 137.47831993 165.88479099 137.46213341 167.12036228 C137.54258867 170.10673017 137.54258867 170.10673017 139.20651817 171.97900486 C141.23788267 173.43495072 142.27231685 174.05465884 144.80270958 174.12304783 C147.59880565 172.50956152 147.59880565 172.50956152 150.49020958 170.06054783 C151.05054893 169.61300144 151.61088829 169.16545506 152.18820763 168.70434666 C154.07197334 167.1917461 155.93814036 165.65923581 157.80270958 164.12304783 C159.1594556 163.01364248 160.51622707 161.90426825 161.87302208 160.79492283 C164.74038438 158.44354602 167.59986452 156.08293747 170.45505333 153.71679783 C174.6750138 150.2220692 178.92179939 146.76135455 183.17770958 143.31054783 C184.50195541 142.23636247 185.82617497 141.16214471 187.15036583 140.08789158 C187.77185509 139.58370701 188.39334435 139.07952244 189.03366661 138.56005955 C192.42800614 135.80280279 195.81126019 133.03204271 199.19333458 130.25976658 C201.0763839 128.71780853 202.96213931 127.17915311 204.84958458 125.64257908 C205.84474083 124.83175877 206.83989708 124.02093845 207.86520958 123.18554783 C208.76368614 122.45464939 209.6621627 121.72375095 210.58786583 120.97070408 C213.8458327 118.4594015 213.8458327 118.4594015 215.21677208 114.78711033 C214.63524226 111.04556939 213.02342164 109.95011673 210.17770958 107.49804783 C209.44161461 106.8568198 209.44161461 106.8568198 208.69064903 106.20263767 C204.3186368 102.44154674 199.77018947 98.89721836 195.2084713 95.37060642 C190.96073805 92.07679862 186.85949203 88.64858496 182.80270958 85.12304783 C177.65691237 80.65535106 172.39256179 76.39097935 167.006567 72.21704197 C162.21714812 68.49043407 157.57569593 64.60825074 152.97629356 60.65014744 C146.91207415 54.89262958 146.91207415 54.89262958 139.57712364 56.70214939 Z M89.30270958 173.87304783 C88.69104942 174.37384861 88.07938927 174.87464939 87.44919395 175.39062595 C85.55237877 176.95144504 83.67541975 178.53342176 81.80270958 180.12304783 C81.24454552 180.59420017 80.68638145 181.06535252 80.11130333 181.5507822 C77.96914693 183.36000104 75.82966735 185.17214912 73.69919395 186.99511814 C69.24405705 190.79572163 64.65659583 194.40545851 60.03317833 197.99804783 C55.49189412 201.54246477 51.09200687 205.22865336 46.72141075 208.9804697 C42.03472723 212.98183968 37.19917109 216.77698698 32.29489708 220.50781345 C29.59726519 222.58555071 27.71085268 224.26083318 25.80270958 227.12304783 C25.80896077 230.89251468 26.71455781 232.0340983 29.39255333 234.73632908 C30.49799022 235.64887544 31.61458142 236.54802723 32.74020958 237.43554783 C33.62265343 238.1555698 33.62265343 238.1555698 34.52292442 238.89013767 C36.27319784 240.31363005 38.03610756 241.71990204 39.80270958 243.12304783 C40.69345177 243.84105564 41.58419395 244.55906345 42.50192833 245.29882908 C44.11895433 246.59817847 45.74006326 247.89246301 47.36520958 249.18164158 C50.83362313 251.94414403 54.25701301 254.76050064 57.68552208 257.57226658 C62.07197538 261.16628192 66.47771321 264.73661667 70.88132286 268.30957127 C73.92432765 270.77969827 76.96520118 273.25199112 79.99020958 275.74414158 C81.79009828 277.22654991 83.59438942 278.70363911 85.40427208 280.17382908 C86.97310262 281.44882328 88.53097876 282.73744674 90.07614708 284.04101658 C93.89576838 287.24345888 93.89576838 287.24345888 98.61520958 288.31054783 C101.55851544 286.71275322 102.3367506 285.12102332 103.80270958 282.12304783 C104.21256308 279.03304225 104.21256308 279.03304225 104.09567833 275.72851658 C104.08601036 274.5264658 104.07634239 273.32441502 104.06638145 272.08593845 C104.04124474 270.84005955 104.01610802 269.59418064 103.99020958 268.31054783 C103.97667442 267.04533298 103.96313927 265.78011814 103.94919395 264.47656345 C103.91389276 261.3582914 103.86457777 258.24088741 103.80270958 255.12304783 C104.96115883 255.12970966 106.11960808 255.1363715 107.31316185 255.14323521 C118.21686105 255.203983 129.12052602 255.24899 140.02435589 255.27848434 C145.63047703 255.2941573 151.23646183 255.31542538 156.8425045 255.34936619 C162.25006708 255.38190139 167.65749833 255.39988856 173.06515121 255.40767956 C175.13088805 255.41323357 177.19661749 255.42407884 179.26229858 255.440238 C182.15003323 255.46193458 185.03722133 255.46501801 187.92502403 255.463624 C189.21327332 255.47980274 189.21327332 255.47980274 190.52754784 255.49630833 C194.79594637 255.61424496 194.79594637 255.61424496 198.48342228 253.78800011 C200.66475963 251.03513301 200.93114096 248.48235748 200.96384239 245.09814548 C200.97344994 244.29365971 200.98305748 243.48917393 200.99295616 242.66030979 C200.99720604 241.79465397 201.00145592 240.92899815 201.00583458 240.03711033 C201.01153465 239.1431757 201.01723473 238.24924107 201.02310753 237.32821751 C201.03255214 235.43692297 201.03908937 233.54561202 201.04294395 231.65429783 C201.05264931 228.76598407 201.08367744 225.87838209 201.11520958 222.99023533 C201.12173994 221.15169788 201.12699028 219.31315535 201.13083458 217.47461033 C201.14935478 216.18219929 201.14935478 216.18219929 201.16824913 214.86367893 C201.14900383 209.66428247 200.66581344 205.98615169 196.80270958 202.12304783 C193.91127807 202.02780878 191.04378894 201.99751755 188.15207481 202.00952244 C187.24484673 202.00937641 186.33761864 202.00923038 185.40289879 202.00907993 C182.38900973 202.00977942 179.37518165 202.01757348 176.36130333 202.02539158 C174.27764991 202.02725563 172.19399604 202.02867959 170.11034203 202.0296793 C164.61447512 202.03350549 159.11863445 202.04333663 153.62277794 202.05438328 C148.01934731 202.06459523 142.41591245 202.06917645 136.8124752 202.0742197 C125.80920844 202.08495881 114.80596119 202.10203644 103.80270958 202.12304783 C103.81842003 201.33132175 103.83413048 200.53959568 103.850317 199.72387791 C103.91277657 196.12784088 103.95173593 192.53191813 103.99020958 188.93554783 C104.0153463 187.68966892 104.04048302 186.44379002 104.06638145 185.1601572 C104.07604942 183.95810642 104.08571739 182.75605564 104.09567833 181.51757908 C104.11138878 180.41261082 104.12709923 179.30764256 104.14328575 178.16919041 C103.75857397 174.72829518 102.86552231 172.87852908 100.80270958 170.12304783 C95.85763446 167.71825102 93.01692 170.70785843 89.30270958 173.87304783 Z M30.5523119 452.48959351 C29.56268978 455.13471898 29.56268978 455.13471898 30.49020958 457.87304783 C31.60218561 460.25080641 31.60218561 460.25080641 33.80270958 461.12304783 C35.37271964 461.22007978 36.94681503 461.25403103 38.51981735 461.25726891 C39.52106718 461.26172675 40.52231702 461.26618459 41.55390775 461.27077752 C42.66205575 461.27059316 43.77020375 461.2704088 44.91193199 461.27021885 C46.66823116 461.27573388 46.66823116 461.27573388 48.46001112 461.28136033 C51.72002797 461.29049866 54.98001522 461.29509936 58.24004269 461.29774964 C61.75205394 461.30164845 65.26405055 461.31122699 68.77605247 461.3199625 C77.26177296 461.3397375 85.74749466 461.34979382 94.23323244 461.35869029 C98.22647107 461.36307095 102.21970836 461.36843828 106.21294594 461.37367916 C119.48202235 461.39069145 132.75109792 461.40518699 146.02018356 461.4124279 C149.46461933 461.41433788 152.90905509 461.4162582 156.35349083 461.41821384 C157.63768012 461.41893945 157.63768012 461.41893945 158.94781263 461.41967972 C172.82542348 461.42798515 186.70294827 461.45333067 200.58052151 461.48579452 C214.81876213 461.5188314 229.05695897 461.53687355 243.29523814 461.54007214 C251.29344304 461.54224023 259.2915224 461.55103248 267.28969002 461.57653332 C274.09932202 461.59819425 280.908798 461.60631353 287.71846054 461.59656654 C291.19444935 461.59200852 294.67011593 461.59399431 298.14606094 461.61332798 C301.91082326 461.63088981 305.67475861 461.62401759 309.43951988 461.61079502 C310.54320644 461.62176427 311.64689299 461.63273351 312.7840246 461.64403516 C313.79048992 461.63545427 314.79695525 461.62687338 315.83391953 461.61803246 C317.1377718 461.61949767 317.1377718 461.61949767 318.46796453 461.62099248 C321.60725877 460.95145694 322.84137032 459.61096937 324.80270958 457.12304783 C324.64120753 453.73150487 324.21974201 452.54008026 321.80270958 450.12304783 C319.61793608 449.81650543 319.61793608 449.81650543 317.05157375 449.86298561 C316.04274043 449.85592002 315.03390711 449.84885443 313.99450308 449.84157473 C312.87789107 449.84398981 311.76127905 449.8464049 310.61083031 449.84889317 C309.43109152 449.84365649 308.25135274 449.83841981 307.03586429 449.83302444 C303.7510518 449.82057615 300.46645294 449.81718201 297.18163145 449.81762135 C293.64304214 449.81597719 290.10449219 449.80291832 286.56592369 449.79142857 C278.82435265 449.7685493 271.08280896 449.76065501 263.3412087 449.75560212 C258.51052519 449.75234887 253.67984968 449.74582871 248.84917068 449.73860073 C235.48315658 449.71903196 222.11714992 449.70262905 208.75112057 449.6997242 C207.89530584 449.69953663 207.03949112 449.69934906 206.15774262 449.6991558 C204.42268622 449.69878955 202.68762982 449.69842585 200.95257343 449.69806469 C199.66058931 449.69779048 199.66058931 449.69779048 198.3425045 449.69751072 C197.48013477 449.69733017 196.61776503 449.69714962 195.72926288 449.6969636 C181.7474842 449.69341996 167.76585934 449.66638699 153.78413404 449.62901283 C139.44080056 449.59097776 125.0975435 449.57156708 110.75415844 449.57126468 C102.69615906 449.57067907 94.63834322 449.56212042 86.58039093 449.53326702 C79.72056026 449.50881728 72.86098006 449.50142663 66.00111765 449.51651455 C62.49886296 449.52370971 58.99710349 449.52271559 55.49490356 449.50010395 C51.70357035 449.47585925 47.91295274 449.49007658 44.12157249 449.50831699 C42.45000055 449.48851704 42.45000055 449.48851704 40.74465948 449.46831709 C34.99335285 449.3232812 34.99335285 449.3232812 30.5523119 452.48959351 Z " fill="#3681BA" transform="translate(10.197290420532227,12.876952171325684)"/>
<path d="M0 0 C24.04927039 21.21180252 41.64434429 51.05597045 44.71484375 83.39453125 C45.76391796 101.16681259 45.90239135 119.21939162 40.71484375 136.39453125 C40.47878418 137.17892578 40.24272461 137.96332031 39.99951172 138.77148438 C29.44281637 172.50390357 6.45917555 199.98776172 -24.59765625 216.70703125 C-56.19297443 233.10940833 -92.86259967 235.84179363 -126.86132812 225.64697266 C-159.96276813 214.91450296 -186.78490221 191.42265745 -203.44140625 161.11328125 C-218.37728237 131.8111175 -222.24310683 96.10435139 -213.28515625 64.39453125 C-213.01227783 63.39196289 -213.01227783 63.39196289 -212.73388672 62.36914062 C-203.45174998 29.08948683 -179.99943539 1.54715631 -150.28515625 -15.41796875 C-101.88282348 -42.14289577 -42.04563297 -35.41002375 0 0 Z M-89.859375 -5.71875 C-93.19354733 -1.43962706 -93.06220171 1.92430436 -93.09765625 7.20703125 C-93.12279297 8.09068359 -93.14792969 8.97433594 -93.17382812 9.88476562 C-93.23246183 12.05421259 -93.26173011 14.22441852 -93.28515625 16.39453125 C-93.96320313 16.55308594 -94.64125 16.71164063 -95.33984375 16.875 C-109.27164123 20.36759743 -119.95334026 26.66788002 -128.22265625 38.70703125 C-133.8097907 48.14190924 -135.91767946 58.84987598 -133.59375 69.58984375 C-131.60804214 76.75168548 -128.98383671 82.63096293 -124.28515625 88.39453125 C-123.45757812 89.42513672 -123.45757812 89.42513672 -122.61328125 90.4765625 C-114.44703801 99.60251381 -104.03616022 103.04433046 -92.28515625 105.39453125 C-92.28515625 127.17453125 -92.28515625 148.95453125 -92.28515625 171.39453125 C-103.39641379 167.69077874 -110.71401774 164.88617576 -117.28515625 155.39453125 C-120.17942801 149.58581859 -121.79228018 143.83832539 -122.6953125 137.42578125 C-123.15941374 135.01299098 -123.15941374 135.01299098 -126.28515625 133.39453125 C-129.36180652 133.47674834 -129.36180652 133.47674834 -132.28515625 134.39453125 C-135.47200069 139.17479791 -134.19910993 143.89736866 -133.28515625 149.39453125 C-130.14385199 161.17442222 -121.81414597 170.87505471 -111.4609375 177.08984375 C-105.16921676 180.42501966 -99.31626152 182.39498553 -92.28515625 183.39453125 C-92.34316406 184.70808594 -92.40117187 186.02164063 -92.4609375 187.375 C-92.50784673 189.11064148 -92.55334564 190.84632148 -92.59765625 192.58203125 C-92.66049805 193.87850586 -92.66049805 193.87850586 -92.72460938 195.20117188 C-92.90472004 199.90145187 -92.90472004 199.90145187 -91.14990234 204.12353516 C-89.65803541 205.6775643 -89.65803541 205.6775643 -87.28515625 207.39453125 C-84.36998333 206.32052017 -82.50705449 205.61642949 -80.28515625 203.39453125 C-80.00800729 201.26201032 -80.00800729 201.26201032 -80.08984375 198.82421875 C-80.09951172 197.48037109 -80.09951172 197.48037109 -80.109375 196.109375 C-80.12613281 195.17222656 -80.14289063 194.23507812 -80.16015625 193.26953125 C-80.16917969 192.32464844 -80.17820312 191.37976563 -80.1875 190.40625 C-80.21111103 188.06875833 -80.24404109 185.73177002 -80.28515625 183.39453125 C-79.64094727 183.30308838 -78.99673828 183.21164551 -78.33300781 183.11743164 C-65.25320971 181.13711797 -54.96637764 174.21328817 -46.47265625 164.2734375 C-40.0209152 155.48294032 -36.81466627 144.22814113 -38.28515625 133.39453125 C-40.06600731 125.05054369 -42.88454341 118.01911476 -48.28515625 111.39453125 C-48.836875 110.70746094 -49.38859375 110.02039063 -49.95703125 109.3125 C-58.12327449 100.18654869 -68.53415228 96.74473204 -80.28515625 94.39453125 C-80.28515625 72.61453125 -80.28515625 50.83453125 -80.28515625 28.39453125 C-59.78749292 35.7151253 -59.78749292 35.7151253 -53.84765625 46.08203125 C-51.74113014 50.93491616 -50.98758485 56.23261624 -50.09375 61.41796875 C-49.55535638 64.68928368 -49.55535638 64.68928368 -46.28515625 66.39453125 C-43.78515625 66.89453125 -43.78515625 66.89453125 -41.28515625 66.39453125 C-38.77535072 64.2309058 -38.33423001 62.7240265 -37.84765625 59.45703125 C-38.45417049 47.19489549 -44.5697233 36.31958984 -53.30859375 28.0234375 C-61.03285347 21.65779263 -69.54852155 18.24670085 -79.28515625 16.39453125 C-79.29933594 15.08097656 -79.31351563 13.76742187 -79.328125 12.4140625 C-79.37503613 10.67835074 -79.42328346 8.94267473 -79.47265625 7.20703125 C-79.47845703 6.34271484 -79.48425781 5.47839844 -79.49023438 4.58789062 C-79.64737376 0.03084842 -79.82789476 -2.01861303 -82.7109375 -5.71875 C-86.14636334 -8.23667212 -86.42394916 -8.23667212 -89.859375 -5.71875 Z " fill="#4376B4" transform="translate(467.28515625,218.60546875)"/>
<path d="M0 0 C0.01401855 0.97610229 0.01401855 0.97610229 0.02832031 1.97192383 C0.08199493 4.91955506 0.1656455 7.86559393 0.25 10.8125 C0.26417969 11.83666016 0.27835938 12.86082031 0.29296875 13.91601562 C0.32519531 14.89892578 0.35742188 15.88183594 0.390625 16.89453125 C0.41157227 17.80050049 0.43251953 18.70646973 0.45410156 19.63989258 C0.81031452 22.05782623 0.81031452 22.05782623 2.47790527 23.6204834 C6.17377662 25.6420236 9.79033306 25.43934431 13.89941406 25.43237305 C14.79732666 25.4425647 15.69523926 25.45275635 16.62036133 25.46325684 C19.58551235 25.49342856 22.55034053 25.50265921 25.515625 25.51171875 C27.57258176 25.52856232 29.6295282 25.54671213 31.6864624 25.56611633 C37.09839658 25.61365726 42.51028895 25.64344023 47.92236328 25.66955566 C53.44572203 25.69934047 58.96893665 25.74587795 64.4921875 25.79101562 C75.32806628 25.87709549 86.16392987 25.9428717 97 26 C97 35.57 97 45.14 97 55 C92.85099121 55.03758423 92.85099121 55.03758423 88.61816406 55.07592773 C79.48583777 55.15935259 70.35356813 55.24804487 61.22131729 55.33933926 C55.68369788 55.39453615 50.14607316 55.44795106 44.60839844 55.49731445 C39.2656366 55.54500559 33.92293888 55.59735025 28.5802536 55.65294075 C26.54050032 55.67334275 24.50072948 55.69205939 22.46094513 55.70907402 C19.60703678 55.73316563 16.75324932 55.76321385 13.89941406 55.79467773 C13.05352722 55.8004332 12.20764038 55.80618866 11.33612061 55.81211853 C7.66901145 55.85816346 4.58006732 56.10498317 1 57 C0.67 64.92 0.34 72.84 0 81 C-3.36509346 79.31745327 -5.69007382 77.77992332 -8.5625 75.4375 C-9.89087891 74.35855469 -9.89087891 74.35855469 -11.24609375 73.2578125 C-12.15488281 72.51273437 -13.06367187 71.76765625 -14 71 C-14.83660156 70.31679688 -15.67320313 69.63359375 -16.53515625 68.9296875 C-18.31605054 67.47381313 -20.09594311 66.01671282 -21.875 64.55859375 C-35.81008754 53.11939292 -35.81008754 53.11939292 -50 42 C-49.78367169 38.6700893 -48.8405852 37.85786282 -46.296875 35.58984375 C-45.12152393 34.69652296 -43.93869646 33.81298438 -42.75 32.9375 C-41.46188046 31.95921474 -40.17545928 30.97868974 -38.890625 29.99609375 C-38.23771484 29.49835449 -37.58480469 29.00061523 -36.91210938 28.48779297 C-34.03158299 26.24648452 -31.26528538 23.88094453 -28.5 21.5 C-23.38925728 17.12037414 -18.16063567 12.91764394 -12.84375 8.79101562 C-12.29847656 8.36755859 -11.75320312 7.94410156 -11.19140625 7.5078125 C-10.66305176 7.09821289 -10.13469727 6.68861328 -9.59033203 6.26660156 C-7.92892214 4.94339086 -6.32377513 3.56600863 -4.71484375 2.1796875 C-2 0 -2 0 0 0 Z " fill="#3285BB" transform="translate(102,201)"/>
<path d="M0 0 C2.91675252 1.34696832 5.25935235 2.88444687 7.72265625 4.94140625 C8.76885132 5.80971069 8.76885132 5.80971069 9.83618164 6.69555664 C10.5708667 7.31164795 11.30555176 7.92773926 12.0625 8.5625 C13.60407214 9.84386374 15.14573866 11.12511393 16.6875 12.40625 C17.43257813 13.02757813 18.17765625 13.64890625 18.9453125 14.2890625 C21.47317505 16.39401268 24.0151792 18.48115252 26.5625 20.5625 C27.3978125 21.24699219 28.233125 21.93148437 29.09375 22.63671875 C31.44043514 24.5449775 33.79563856 26.44110081 36.15625 28.33203125 C37.24764282 29.20976196 37.24764282 29.20976196 38.36108398 30.10522461 C39.80309487 31.26449454 41.24782642 32.42039025 42.69555664 33.57250977 C43.35418701 34.10287842 44.01281738 34.63324707 44.69140625 35.1796875 C45.28123291 35.65132324 45.87105957 36.12295898 46.47875977 36.60888672 C48 38 48 38 50 41 C42.54002464 47.49630073 35.01542895 53.85150852 27.19628906 59.91210938 C23.08343966 63.11278836 19.08475519 66.42469021 15.125 69.8125 C2.03755049 81 2.03755049 81 0 81 C-0.029729 80.12263184 -0.029729 80.12263184 -0.06005859 79.22753906 C-0.15553481 76.56791975 -0.26512142 73.90906162 -0.375 71.25 C-0.4059375 70.32960938 -0.436875 69.40921875 -0.46875 68.4609375 C-0.50742188 67.57148438 -0.54609375 66.68203125 -0.5859375 65.765625 C-0.6173584 64.94868164 -0.6487793 64.13173828 -0.68115234 63.29003906 C-1.02868454 60.79398083 -1.67095532 59.13379275 -3 57 C-6.31536462 55.34231769 -10.02552869 55.81928186 -13.67236328 55.79467773 C-15.0187941 55.77982834 -15.0187941 55.77982834 -16.39242554 55.76467896 C-19.36836075 55.733015 -22.34431194 55.70828719 -25.3203125 55.68359375 C-27.38012107 55.66302845 -29.43992539 55.64203209 -31.49972534 55.62062073 C-36.92812658 55.56535628 -42.35656617 55.5159663 -47.78503418 55.46777344 C-53.32156804 55.41759032 -58.85804601 55.36188763 -64.39453125 55.30664062 C-75.26297492 55.19900555 -86.13146592 55.09808235 -97 55 C-97 45.43 -97 35.86 -97 26 C-94.29981689 25.98018066 -91.59963379 25.96036133 -88.81762695 25.93994141 C-79.89681141 25.87303846 -70.97611259 25.7953988 -62.05543232 25.71247292 C-56.64676288 25.66252437 -51.23811284 25.61619407 -45.8293457 25.578125 C-40.60971872 25.54125418 -35.39025457 25.49488908 -30.17076683 25.44193649 C-28.17930138 25.42340215 -26.18780105 25.40829064 -24.19628334 25.39665604 C-21.40713447 25.37977733 -18.61835772 25.35073806 -15.8293457 25.31884766 C-14.59396057 25.31560738 -14.59396057 25.31560738 -13.33361816 25.31230164 C-9.18697574 25.25172303 -5.68360411 25.13902922 -2 23 C-1.0699111 20.2097333 -0.81301231 18.23470458 -0.68359375 15.33203125 C-0.64169922 14.43935547 -0.59980469 13.54667969 -0.55664062 12.62695312 C-0.51732422 11.69818359 -0.47800781 10.76941406 -0.4375 9.8125 C-0.37272461 8.40194336 -0.37272461 8.40194336 -0.30664062 6.96289062 C-0.20061335 4.64207146 -0.09854971 2.32114675 0 0 Z " fill="#199BC7" transform="translate(160,87)"/>
<path d="M0 0 C3.35046377 1.45503494 5.52965102 3.29100152 8.09082031 5.87963867 C8.88554749 6.6777446 9.68027466 7.47585052 10.49908447 8.29814148 C11.35016785 9.16268448 12.20125122 10.02722748 13.078125 10.91796875 C14.40623199 12.2538781 14.40623199 12.2538781 15.76116943 13.61677551 C18.11577764 15.98618777 20.46624855 18.35954285 22.81439209 20.73535156 C26.10391159 24.06277165 29.39842732 27.38521159 32.69598389 30.70466614 C34.44852819 32.46934753 36.19839351 34.23669491 37.94512939 36.00712585 C41.51574111 39.60662191 45.08904358 43.13918752 48.93652344 46.44311523 C54.08457973 50.86716358 58.83373576 55.68937783 63.625 60.4921875 C64.62233161 61.48884405 65.61981151 62.48535223 66.61743164 63.48171997 C68.68977652 65.5526022 70.76033074 67.62525331 72.82958984 69.69921875 C75.48715963 72.36253752 78.14926498 75.02127086 80.81268311 77.67873955 C82.86471798 79.72717433 84.91438201 81.77796796 86.96331787 83.82950211 C87.94503315 84.8118855 88.92749465 85.79352375 89.91070557 86.77441025 C91.27491316 88.13609484 92.63559953 89.50130449 93.99609375 90.86669922 C94.77138428 91.64278534 95.5466748 92.41887146 96.34545898 93.21847534 C98 95 98 95 98 96 C86.09111027 96.09266923 74.18230628 96.16374957 62.27312946 96.20724869 C56.74323608 96.22812584 51.21358933 96.2564462 45.68383789 96.30175781 C40.34757754 96.34521042 35.01155446 96.36913614 29.67513084 96.37950897 C27.63894096 96.38690135 25.6027641 96.40133688 23.56667519 96.42292023 C20.71514419 96.45194616 17.86459434 96.45595631 15.01293945 96.45410156 C14.17064789 96.46848267 13.32835632 96.48286377 12.46054077 96.49768066 C8.47989701 96.46965393 6.46904834 96.28774321 2.99919128 94.15911865 C-0.74803712 90.11212685 -0.1362895 85.6905268 -0.11352539 80.48950195 C-0.11367142 79.62099609 -0.11381744 78.75249023 -0.1139679 77.85766602 C-0.11327076 74.98451243 -0.10548761 72.11142352 -0.09765625 69.23828125 C-0.09579137 67.24716731 -0.09436779 65.25605292 -0.09336853 63.26493835 C-0.0895489 58.02227514 -0.07972332 52.77963959 -0.06866455 47.5369873 C-0.05843854 42.18807347 -0.05386835 36.83915517 -0.04882812 31.49023438 C-0.03810058 20.99347742 -0.02103077 10.49674101 0 0 Z " fill="#0FA3CB" transform="translate(270,22)"/>
<path d="M0 0 C11.22485745 1.60355106 18.93181047 6.03160474 26 15 C30.86222289 22.64063596 30.93832342 31.19717208 30 40 C27.6121742 49.69259465 20.36873857 56.66293232 12.140625 61.8125 C7.9550921 64.13440146 4.77535291 65 0 65 C0 43.55 0 22.1 0 0 Z " fill="#4C6EB0" transform="translate(387,325)"/>
<path d="M0 0 C0 21.45 0 42.9 0 65 C-10.67162018 63.47548283 -18.23171147 59.50334633 -25 51 C-30.01889483 42.8533881 -31.25895702 34.44925045 -30 25 C-27.11394014 15.48261176 -21.21689504 8.76083774 -12.78515625 3.66015625 C-8.55908763 1.44874977 -4.81838312 0 0 0 Z " fill="#3B7DB8" transform="translate(375,247)"/>
</svg>
