<?xml version="1.0" encoding="UTF-8"?>
<svg version="1.1" xmlns="http://www.w3.org/2000/svg" width="512" height="512">
<path d="M0 0 C111.21 0 222.42 0 337 0 C337 130 337 130 334 134 C333.25727554 136.26559286 333.25727554 136.26559286 332.8671875 138.6953125 C332.70089844 139.57574219 332.53460938 140.45617187 332.36328125 141.36328125 C332.20214844 142.27464844 332.04101562 143.18601563 331.875 144.125 C331.54142942 145.94054064 331.20560131 147.75566839 330.8671875 149.5703125 C330.65231689 150.77324951 330.65231689 150.77324951 330.43310547 152.00048828 C330 154 330 154 329 156 C326.41297892 157.37682139 323.83041439 158.67731772 321.1875 159.9375 C319.74162445 160.63023504 318.29755363 161.32675174 316.85546875 162.02734375 C316.17274902 162.35847168 315.4900293 162.68959961 314.78662109 163.03076172 C312.85094625 163.99594059 312.85094625 163.99594059 310.92578125 165.81640625 C307.80749081 167.73292147 305.47214323 166.79342476 302 166 C298.77234874 164.95517268 295.60192758 163.83817748 292.4296875 162.640625 C289.72163553 161.67504909 287.22956301 161.01356355 284.35546875 160.84375 C280.4304374 162.77046523 278.9648699 166.37734251 276.9375 170.125 C276.51662109 170.87265625 276.09574219 171.6203125 275.66210938 172.390625 C274.82763911 173.8758527 274.00372627 175.36706557 273.19091797 176.86425781 C272.42096675 178.24505593 271.6144347 179.60634607 270.76611328 180.94042969 C269.109474 183.56516087 268.01542305 185.48255652 267.921875 188.62109375 C269.41951612 191.92567144 271.51427359 193.6961698 274.25 196.0625 C275.68085937 197.31740234 275.68085937 197.31740234 277.140625 198.59765625 C279.88901783 200.99119017 279.88901783 200.99119017 282.6262207 202.77636719 C285.62346764 205.58403201 285.69585596 206.93363781 285.83984375 210.98046875 C285.89965664 213.38228838 285.9311204 215.78494419 285.9375 218.1875 C286.0293457 219.97897461 286.0293457 219.97897461 286.12304688 221.80664062 C286.16602343 227.01253347 286.11089914 230.57861976 282.83276367 234.77294922 C280.3190046 237.05099307 277.77724918 239.05592557 275 241 C270.77954912 243.9890727 270.77954912 243.9890727 268.18261719 248.30004883 C267.94563013 251.80384542 268.90047327 253.41768848 270.640625 256.44921875 C271.21683594 257.46177734 271.79304688 258.47433594 272.38671875 259.51757812 C273.00160156 260.56365234 273.61648438 261.60972656 274.25 262.6875 C275.14912109 264.27401367 275.14912109 264.27401367 276.06640625 265.89257812 C279.21489186 271.67633616 279.21489186 271.67633616 284 276 C285.9353441 275.95356053 285.9353441 275.95356053 288 275.375 C288.79148437 275.18035156 289.58296875 274.98570312 290.3984375 274.78515625 C293.20921594 273.93685825 295.89511495 272.89166943 298.625 271.8125 C303.24478934 270.11216087 306.1828208 269.3942736 311 271 C313.30436753 272.39542256 315.48149929 273.89036849 317.65625 275.48046875 C320.04511047 277.02924662 322.17477688 277.77022158 324.875 278.625 C327.86027717 279.87923103 328.77534039 280.50231655 330.125 283.4921875 C330.91216833 286.64906049 331.47499098 289.78951316 332 293 C332.4984208 295.21349953 333.01845244 297.42227085 333.5625 299.625 C333.90474609 301.09839844 333.90474609 301.09839844 334.25390625 302.6015625 C334.84400475 305.15410951 334.84400475 305.15410951 337 307 C337.24050903 309.29055786 337.24050903 309.29055786 337.22705078 312.18408203 C337.22689972 313.26505157 337.22674866 314.34602112 337.22659302 315.45974731 C337.21627045 316.63060883 337.20594788 317.80147034 337.1953125 319.0078125 C337.19106766 320.8014473 337.19106766 320.8014473 337.18673706 322.63131714 C337.17551305 326.46264519 337.15040431 330.29374222 337.125 334.125 C337.11497308 336.71744455 337.10584673 339.30989275 337.09765625 341.90234375 C337.07556646 348.26830842 337.04206706 354.63413771 337 361 C329.45788325 360.4355719 329.45788325 360.4355719 327.43676758 358.51293945 C327.17532959 357.88605225 326.9138916 357.25916504 326.64453125 356.61328125 C326.33193359 355.92169922 326.01933594 355.23011719 325.69726562 354.51757812 C325.40529297 353.78990234 325.11332031 353.06222656 324.8125 352.3125 C324.20217206 350.88840148 323.58374091 349.46774694 322.95703125 348.05078125 C322.6535376 347.36113281 322.35004395 346.67148437 322.03735352 345.9609375 C320.96321268 343.93045992 319.7547702 342.45434303 318.203125 340.76953125 C316 338 316 338 316.02734375 335.6484375 C316.47787109 334.52308594 316.47787109 334.52308594 316.9375 333.375 C317.25074219 332.52164062 317.56398438 331.66828125 317.88671875 330.7890625 C318.25410156 329.86867188 318.62148438 328.94828125 319 328 C319.76655937 325.92270259 320.51645303 323.83918324 321.25 321.75 C321.78367187 320.31914063 321.78367187 320.31914063 322.328125 318.859375 C323.13931897 315.40708437 322.98220416 313.41015828 322 310 C319.6718924 307.88709424 319.6718924 307.88709424 316.609375 306.31640625 C315.50722656 305.69958984 314.40507812 305.08277344 313.26953125 304.44726562 C312.10808594 303.82529297 310.94664062 303.20332031 309.75 302.5625 C308.60402344 301.91345703 307.45804687 301.26441406 306.27734375 300.59570312 C300.63210513 297.15483436 300.63210513 297.15483436 294.31787109 296.13696289 C291.74461676 297.0950895 290.71096827 297.94238525 288.9921875 300.0546875 C288.48042969 300.66957031 287.96867187 301.28445313 287.44140625 301.91796875 C286.66603516 302.88669922 286.66603516 302.88669922 285.875 303.875 C284.83162663 305.14396761 283.78738413 306.41222121 282.7421875 307.6796875 C282.05938721 308.52635986 282.05938721 308.52635986 281.36279297 309.39013672 C280.68821045 310.18701904 280.68821045 310.18701904 280 311 C279.5683252 311.54873779 279.13665039 312.09747559 278.69189453 312.6628418 C272.96772591 317.18683481 260.00026201 315.15967811 253.10498047 314.59472656 C246.95529378 313.41681834 244.28478734 310.07802616 240.84765625 305.11328125 C239.93306641 303.57220703 239.93306641 303.57220703 239 302 C236.52042246 298.25266873 236.52042246 298.25266873 232.7097168 296.19946289 C229.19839844 295.94099392 227.61893665 296.8875632 224.5859375 298.640625 C223.57789063 299.21683594 222.56984375 299.79304688 221.53125 300.38671875 C220.4896875 301.00160156 219.448125 301.61648438 218.375 302.25 C217.32570313 302.84941406 216.27640625 303.44882812 215.1953125 304.06640625 C209.01710764 307.31602995 209.01710764 307.31602995 204 312 C204.91415702 318.97044729 207.52996116 325.34854843 210.07421875 331.86328125 C211.00562985 335.01907499 211.3051359 336.0709623 210 339 C208.42218181 341.65514566 206.70439994 344.19299655 204.984375 346.7578125 C202.98827705 349.78357794 202.98827705 349.78357794 202.07885742 352.4934082 C199.4006577 359.34529646 199.4006577 359.34529646 195.38427734 361.22265625 C192.19518164 361.99812025 189.0672487 362.51747056 185.8125 362.9375 C183.62991982 363.26965943 181.44880294 363.61162846 179.26953125 363.96484375 C177.82477417 364.16001587 177.82477417 364.16001587 176.35083008 364.35913086 C173.64549799 364.8201544 173.64549799 364.8201544 172 368 C171.69015808 371.05443825 171.69015808 371.05443825 171.734375 374.53125 C171.73179687 375.81644531 171.72921875 377.10164063 171.7265625 378.42578125 C171.73075195 379.09432129 171.73494141 379.76286133 171.73925781 380.45166016 C171.74996232 382.49281547 171.73935337 384.53309075 171.7265625 386.57421875 C171.72914063 387.85941406 171.73171875 389.14460938 171.734375 390.46875 C171.73775879 392.23895508 171.73775879 392.23895508 171.74121094 394.04492188 C171.77818231 397.18727004 171.77818231 397.18727004 174 400 C176.36094989 400.60153315 176.36094989 400.60153315 179.12890625 400.7890625 C195.68716687 402.84785279 195.68716687 402.84785279 199.94677734 406.81152344 C202.85311941 410.90892737 204.61878494 415.37433837 206.20117188 420.1171875 C206.97452084 422.2750207 206.97452084 422.2750207 209.390625 424.34375 C209.92171875 425.2203125 210.4528125 426.096875 211 427 C210.01 430.63 209.02 434.26 208 438 C139.36 438 70.72 438 0 438 C0 293.46 0 148.92 0 0 Z M252 22 C251.49989476 25.04230823 251.49989476 25.04230823 252 28 C254.60186108 30.60186108 255.82354355 30.29810177 259.4375 30.3125 C260.88962891 30.33763672 260.88962891 30.33763672 262.37109375 30.36328125 C265.0214346 30.21326066 265.0214346 30.21326066 266.8203125 28.63671875 C268.1893684 26.98807111 268.1893684 26.98807111 268.4375 24.5 C268.2020974 21.93963041 268.2020974 21.93963041 266.5 20.1875 C261.72990276 17.92170381 255.55222567 17.55971791 252 22 Z M283.3671875 20.86328125 C281.74382542 22.94663356 281.74382542 22.94663356 282.125 25.625 C282.86467913 28.14405125 282.86467913 28.14405125 285 30 C288.62644504 30.45295333 292.28601738 30.32404802 295.9375 30.3125 C296.95263672 30.32861328 297.96777344 30.34472656 299.01367188 30.36132812 C299.98755859 30.36197266 300.96144531 30.36261719 301.96484375 30.36328125 C302.8580835 30.36626221 303.75132324 30.36924316 304.67163086 30.37231445 C307.45707232 29.92691252 308.33602418 29.24152652 310 27 C310.58333333 24.5 310.58333333 24.5 310 22 C305.72130791 17.98992805 301.56791188 18.51875212 296 18.5625 C295.09765625 18.54251953 294.1953125 18.52253906 293.265625 18.50195312 C287.97049316 18.4766148 287.97049316 18.4766148 283.3671875 20.86328125 Z M142.93359375 29.96484375 C138.09213341 33.32356657 132.61473492 34.43737254 127 36 C124.49875731 36.85469599 122.35204783 37.77052045 120 39 C119.10687506 41.67937483 118.86556576 43.25572179 118.83886719 46.00561523 C118.82925964 46.80752792 118.8196521 47.60944061 118.80975342 48.43565369 C118.80550354 49.30122391 118.80125366 50.16679413 118.796875 51.05859375 C118.79117493 51.95812271 118.78547485 52.85765167 118.77960205 53.78443909 C118.77015028 55.69343898 118.76361737 57.6024552 118.75976562 59.51147461 C118.75014077 62.39532205 118.71915344 65.27843167 118.6875 68.16210938 C118.57673495 87.3333033 122.03429237 102.14726428 135.48876953 116.49316406 C144.36917253 125.34774359 156.92791173 136.05235636 169.71801758 137.10253906 C173.62610119 136.92693244 176.4124865 135.33728877 179.6875 133.3125 C180.368125 132.90894287 181.04875 132.50538574 181.75 132.08959961 C197.40614341 122.47697445 212.63939497 108.42358987 217.05786133 89.95068359 C218.16102784 84.82519978 218.30605514 79.86454464 218.30078125 74.63671875 C218.30720894 73.20511162 218.30720894 73.20511162 218.31376648 71.74458313 C218.31947135 69.74371124 218.32003867 67.74281862 218.31567383 65.74194336 C218.31249067 62.67851928 218.33610061 59.61604103 218.36132812 56.55273438 C218.36359917 54.60156371 218.36430552 52.65039046 218.36328125 50.69921875 C218.372491 49.78565109 218.38170074 48.87208344 218.39118958 47.93083191 C218.37155872 43.00528445 218.37155872 43.00528445 216.67431641 38.4597168 C214.08396138 36.2013714 211.39107618 35.84636326 208.0625 35.125 C199.97740743 33.21806447 192.62252619 30.17434388 185.73461914 25.44433594 C173.84162535 19.16284756 153.52293114 22.31623955 142.93359375 29.96484375 Z M252 49 C251.41654524 51.95746492 251.41654524 51.95746492 252 55 C256.32947123 58.69126232 260.67008669 58.42130576 266.0625 58.3125 C267.26616211 58.31733398 267.26616211 58.31733398 268.49414062 58.32226562 C274.08525127 58.37149774 274.08525127 58.37149774 279 56 C280.08223366 53.08995097 280.08223366 53.08995097 280 50 C278.89046786 48.22155683 278.89046786 48.22155683 277 47 C274.521137 46.5545727 274.521137 46.5545727 271.74609375 46.63671875 C270.21758789 46.63768555 270.21758789 46.63768555 268.65820312 46.63867188 C267.59537109 46.65478516 266.53253906 46.67089844 265.4375 46.6875 C264.37080078 46.68427734 263.30410156 46.68105469 262.20507812 46.67773438 C256.54472326 46.33282793 256.54472326 46.33282793 252 49 Z M294 49 C293.41654524 51.95746492 293.41654524 51.95746492 294 55 C296.32111824 57.32111824 297.98213989 57.98947041 301.265625 58.0234375 C306.1445133 57.71810518 306.1445133 57.71810518 310 55 C310.33333333 52 310.33333333 52 310 49 C308.14362178 46.71972351 308.14362178 46.71972351 305.25 46.734375 C303.64125 46.74210937 303.64125 46.74210937 302 46.75 C300.9275 46.74484375 299.855 46.7396875 298.75 46.734375 C295.85637822 46.71972351 295.85637822 46.71972351 294 49 Z M25.70874023 149.70874023 C22.93473601 155.05183938 23.32862784 160.32546631 23.40625 166.25390625 C23.40620972 167.54691147 23.40616943 168.83991669 23.40612793 170.17210388 C23.40777799 172.90340254 23.42641742 175.63387721 23.45800781 178.36499023 C23.49772542 181.86115823 23.50204695 185.35625019 23.49454498 188.85260105 C23.49073365 192.19483336 23.51155587 195.53672715 23.53125 198.87890625 C23.53145142 200.13312881 23.53165283 201.38735138 23.53186035 202.67958069 C23.54777222 203.84436447 23.56368408 205.00914825 23.58007812 206.20922852 C23.58849731 207.23339371 23.5969165 208.2575589 23.60559082 209.3127594 C24.07174401 212.48881575 24.60889087 213.84879464 27 216 C29.8250937 216.59495304 29.8250937 216.59495304 33.09204102 216.48583984 C34.34666641 216.4919931 35.60129181 216.49814636 36.89393616 216.50448608 C38.26393364 216.49069115 39.63392385 216.47615725 41.00390625 216.4609375 C42.40730114 216.45855311 43.81069925 216.45764774 45.21409607 216.4581604 C48.15392057 216.45503288 51.0932572 216.43847072 54.03295898 216.41162109 C57.80498389 216.37760953 61.57647347 216.36999338 65.34863377 216.37151146 C68.24567291 216.3709682 71.14259454 216.36000882 74.03959465 216.34550858 C75.4306849 216.33913603 76.82178848 216.33520061 78.21289253 216.33372116 C80.15442809 216.32939495 82.09591404 216.31032177 84.03735352 216.29052734 C85.69590111 216.27909195 85.69590111 216.27909195 87.38795471 216.26742554 C90.15951151 216.26142943 90.15951151 216.26142943 92 214 C92.32128571 211.27001807 92.32128571 211.27001807 92.29052734 208.03735352 C92.30328705 206.78588028 92.31604675 205.53440704 92.32919312 204.24501038 C92.33225033 202.87297723 92.33447833 201.50094202 92.3359375 200.12890625 C92.342362 198.72647463 92.34909009 197.32404437 92.35610962 195.9216156 C92.3680941 192.98018282 92.37178924 190.03886759 92.37060547 187.09741211 C92.37040217 183.32640093 92.39770917 179.55614248 92.43214989 175.78530979 C92.4543768 172.88824495 92.45844433 169.9913625 92.45738602 167.09422112 C92.45974816 165.70392193 92.46860622 164.31361819 92.48405075 162.92340279 C92.50362236 160.97971397 92.49537296 159.03580499 92.48583984 157.09204102 C92.48868988 155.98554703 92.49153992 154.87905304 92.49447632 153.73902893 C92.23639548 150.93571084 92.23639548 150.93571084 90.33155823 149.14549255 C87.45498789 147.73223602 85.41310801 147.60641574 82.20922852 147.58007812 C80.46205284 147.55621033 80.46205284 147.55621033 78.67958069 147.53186035 C77.42535812 147.53165894 76.17113556 147.53145752 74.87890625 147.53125 C73.58685776 147.52363647 72.29480927 147.51602295 70.96360779 147.50817871 C68.23077712 147.49474557 65.49823527 147.49315967 62.76538086 147.49902344 C59.27014871 147.50491896 55.77630596 147.4743323 52.28134251 147.43390656 C48.93881983 147.40177881 45.59658284 147.40614586 42.25390625 147.40625 C41.00170792 147.38985474 39.74950958 147.37345947 38.45936584 147.35656738 C33.60833375 147.39521753 30.0497774 147.45498168 25.70874023 149.70874023 Z M130.18359375 163.36865234 C128.49097004 165.70159616 128.57807212 167.18714748 129 170 C130.13791184 171.73600773 130.13791184 171.73600773 132 173 C134.55949448 173.46205033 134.55949448 173.46205033 137.4375 173.3984375 C138.49710938 173.40230469 139.55671875 173.40617188 140.6484375 173.41015625 C141.75445312 173.39855469 142.86046875 173.38695312 144 173.375 C145.10601562 173.38660156 146.21203125 173.39820313 147.3515625 173.41015625 C148.41117188 173.40628906 149.47078125 173.40242187 150.5625 173.3984375 C151.53316406 173.39505371 152.50382812 173.39166992 153.50390625 173.38818359 C156.03830323 173.1951123 156.03830323 173.1951123 157.81640625 171.63134766 C159.50902996 169.29840384 159.42192788 167.81285252 159 165 C157.86208816 163.26399227 157.86208816 163.26399227 156 162 C153.44050552 161.53794967 153.44050552 161.53794967 150.5625 161.6015625 C149.50289062 161.59769531 148.44328125 161.59382812 147.3515625 161.58984375 C145.69253906 161.60724609 145.69253906 161.60724609 144 161.625 C142.34097656 161.60759766 142.34097656 161.60759766 140.6484375 161.58984375 C139.58882812 161.59371094 138.52921875 161.59757813 137.4375 161.6015625 C135.98150391 161.60663818 135.98150391 161.60663818 134.49609375 161.61181641 C131.96169677 161.8048877 131.96169677 161.8048877 130.18359375 163.36865234 Z M171 165 C170.51856488 167.75105785 170.52925738 169.24048351 172.01087952 171.6309967 C175.16846804 173.80419292 178.56171232 173.4249755 182.26342773 173.40405273 C183.10600128 173.41091599 183.94857483 173.41777924 184.81668091 173.42485046 C187.6058226 173.44317286 190.3944047 173.43927319 193.18359375 173.43359375 C195.12028691 173.43815306 197.05697844 173.44345788 198.9936676 173.44947815 C203.05484586 173.45842003 207.1158276 173.45597402 211.17700195 173.44604492 C216.38383599 173.43455597 221.5899918 173.45476016 226.79673672 173.48396206 C230.79702572 173.50230058 234.79715152 173.50203626 238.797472 173.49632454 C240.71723443 173.49617103 242.63700772 173.50224013 244.55673027 173.51461601 C247.24064652 173.52947936 249.92330121 173.51888357 252.60717773 173.50170898 C253.40159775 173.51137695 254.19601776 173.52104492 255.01451111 173.53100586 C258.69687706 173.4816153 260.60892928 173.31467142 263.52455139 170.96864319 C264.01144943 170.31899094 264.49834747 169.66933868 265 169 C264.39816251 166.97954558 263.72693904 164.97888961 263 163 C259.83253334 161.41626667 256.42066984 161.84378541 252.94189453 161.83886719 C252.10922058 161.83390228 251.27654663 161.82893738 250.41864014 161.82382202 C247.65668927 161.80918501 244.89479583 161.80239594 242.1328125 161.796875 C240.2171122 161.79112494 238.30141192 161.78536719 236.38571167 161.77960205 C232.36569958 161.76908776 228.34570751 161.76324786 224.32568359 161.75976562 C219.17164814 161.75427915 214.01787665 161.73024964 208.86392403 161.70179367 C204.90570296 161.68318084 200.94754565 161.67796242 196.98928452 161.67642975 C195.08905468 161.67339976 193.18882606 161.66535962 191.28863907 161.65224457 C188.63118591 161.63521188 185.97437995 161.6370574 183.31689453 161.64355469 C182.53025421 161.6343399 181.74361389 161.62512512 180.93313599 161.6156311 C176.7258959 161.64789486 173.93733247 161.81631906 171 165 Z M129 195 C128.41666667 197.5 128.41666667 197.5 129 200 C131.93402803 202.79017199 133.97524676 203.37574707 137.97180176 203.38095093 C138.97280411 203.3894104 139.97380646 203.39786987 141.00514221 203.40658569 C142.09721481 203.400513 143.18928741 203.39444031 144.31445312 203.38818359 C146.04670387 203.39606903 146.04670387 203.39606903 147.81394958 203.40411377 C151.63652008 203.41733238 155.45867516 203.4085687 159.28125 203.3984375 C161.93396525 203.40045769 164.58666781 203.40336393 167.23937988 203.40713501 C172.80107129 203.41259135 178.36264315 203.40540422 183.92431641 203.39111328 C190.35232706 203.37478688 196.78005224 203.38007548 203.20805597 203.3965925 C208.72919739 203.41021091 214.25025291 203.41212532 219.7714057 203.40427649 C223.06800149 203.39960187 226.36443384 203.4001488 229.661026 203.40888596 C233.3360638 203.41648811 237.01055023 203.40491267 240.68554688 203.38818359 C242.32365578 203.39729263 242.32365578 203.39729263 243.99485779 203.40658569 C245.49636131 203.39389648 245.49636131 203.39389648 247.02819824 203.38095093 C247.89686272 203.37981985 248.76552719 203.37868877 249.66051483 203.37752342 C252.47534168 202.92329397 253.876739 201.85544761 256 200 C255.74438677 197.6568787 255.40729228 195.32156597 255 193 C252.54285877 191.77142938 250.93427058 191.86877922 248.18605042 191.85955811 C247.16952393 191.85384796 246.15299744 191.84813782 245.10566711 191.84225464 C243.98613144 191.84113678 242.86659576 191.84001892 241.71313477 191.83886719 C240.53747955 191.83390228 239.36182434 191.82893738 238.15054321 191.82382202 C234.9212185 191.81170211 231.69193001 191.80425251 228.46258664 191.79981136 C226.44606766 191.79688177 224.42955437 191.79277722 222.41303825 191.78830719 C216.10672137 191.77463231 209.80041749 191.76496515 203.4940868 191.7611053 C196.20867998 191.75662193 188.92346053 191.73906125 181.6381107 191.7101047 C176.01004066 191.68850974 170.38202343 191.67840222 164.75391239 191.67706418 C161.39079048 191.67601473 158.0278447 191.67007742 154.66476631 191.65224457 C150.91511801 191.63526713 147.16593047 191.63704401 143.41625977 191.64355469 C142.29874832 191.6343399 141.18123688 191.62512512 140.02986145 191.6156311 C138.50084198 191.62398483 138.50084198 191.62398483 136.94093323 191.63250732 C136.05400064 191.63104076 135.16706804 191.6295742 134.25325871 191.6280632 C131.52118128 192.07903677 130.63926775 192.80278359 129 195 Z M25 252 C23.95806436 255.12580691 23.86709416 257.32159518 23.85473633 260.60131836 C23.84835648 261.74938461 23.84197662 262.89745087 23.83540344 264.08030701 C23.83429062 265.32095413 23.8331778 266.56160126 23.83203125 267.83984375 C23.82870285 269.11348282 23.82537445 270.38712189 23.82194519 271.69935608 C23.81687829 274.39522797 23.81410471 277.09099905 23.81469727 279.78686523 C23.8147989 283.23803768 23.80114306 286.68900444 23.78392506 290.14012814 C23.77012102 293.43585899 23.77071609 296.7315879 23.76953125 300.02734375 C23.76234573 301.26596664 23.75516022 302.50458954 23.74775696 303.78074646 C23.75083359 304.93196487 23.75391022 306.08318329 23.75708008 307.26928711 C23.75565506 308.28171982 23.75423004 309.29415253 23.75276184 310.33726501 C24.00733325 313.07897855 24.50490933 314.70401122 26 317 C28.6844536 318.3422268 30.77320481 318.14195458 33.77905273 318.16113281 C34.99048447 318.17074036 36.2019162 318.1803479 37.45005798 318.19024658 C38.76462479 318.19449646 40.07919159 318.19874634 41.43359375 318.203125 C42.7911835 318.20887623 44.14877322 318.21463397 45.50636292 318.22039795 C48.35361103 318.23090614 51.20083092 318.23675019 54.0480957 318.24023438 C57.69789123 318.2457231 61.34731442 318.2697594 64.99699306 318.29820633 C67.80138747 318.31682114 70.60569192 318.32203764 73.4101429 318.32357025 C75.41047095 318.32807295 77.41075086 318.34672369 79.41099548 318.36553955 C80.62557938 318.36253845 81.84016327 318.35953735 83.09155273 318.35644531 C84.16251694 318.36009094 85.23348114 318.36373657 86.3368988 318.36749268 C88.97838884 318.1872341 88.97838884 318.1872341 90.84501648 316.85174561 C92.50434393 314.19140261 92.3813152 312.13996304 92.38818359 309.015625 C92.40236832 307.16855957 92.40236832 307.16855957 92.4168396 305.28417969 C92.41146989 303.93944986 92.40531694 302.59472296 92.3984375 301.25 C92.40045847 299.8714177 92.4033701 298.49283645 92.40713501 297.11425781 C92.41155735 294.22580786 92.40513058 291.33763633 92.39111328 288.44921875 C92.37402099 284.74670246 92.38386272 281.04483854 92.40183067 277.34234619 C92.41267121 274.49588098 92.40922103 271.64957045 92.4014473 268.80310059 C92.39944601 267.43794681 92.40190208 266.07277898 92.40888596 264.7076416 C92.4165039 262.7998888 92.40283406 260.89208676 92.38818359 258.984375 C92.38460342 257.35580566 92.38460342 257.35580566 92.38095093 255.69433594 C92.18934021 253.02455375 92.18934021 253.02455375 90.84402466 251.14924622 C88.20883882 249.50692688 86.20200487 249.62586167 83.10742188 249.62768555 C81.29038757 249.61834236 81.29038757 249.61834236 79.43664551 249.60881042 C77.47253723 249.62262505 77.47253723 249.62262505 75.46875 249.63671875 C74.11258952 249.63723745 72.75642829 249.63671937 71.40026855 249.63520813 C68.55888637 249.63529782 65.71778812 249.64572037 62.87646484 249.66381836 C59.23458695 249.6865057 55.59312388 249.6870494 51.95119476 249.68030071 C49.15106521 249.67695899 46.3510302 249.68359459 43.55091858 249.69342995 C41.55507183 249.69915047 39.55920896 249.69784612 37.56335449 249.69645691 C35.74632019 249.71075493 35.74632019 249.71075493 33.89257812 249.7253418 C32.82463013 249.72994919 31.75668213 249.73455658 30.65637207 249.73930359 C27.7720902 249.81193134 27.7720902 249.81193134 25 252 Z M130.17163086 265.36645508 C128.81122201 267.01369896 128.81122201 267.01369896 128.5625 269.5 C128.7617774 272.09620575 128.7617774 272.09620575 130.7109375 273.63134766 C133.39402942 275.23559396 134.95644856 275.38642957 138.0625 275.3984375 C139.02414063 275.40230469 139.98578125 275.40617187 140.9765625 275.41015625 C141.97429687 275.39855469 142.97203125 275.38695312 144 275.375 C145.49660156 275.39240234 145.49660156 275.39240234 147.0234375 275.41015625 C148.46589844 275.40435547 148.46589844 275.40435547 149.9375 275.3984375 C150.81277344 275.39505371 151.68804687 275.39166992 152.58984375 275.38818359 C155.50859546 274.91808481 156.8944789 274.05553305 159 272 C159.50010524 268.95769177 159.50010524 268.95769177 159 266 C155.85125961 262.85125961 152.38099849 263.70523127 148.08398438 263.67773438 C146.92189453 263.68095703 145.75980469 263.68417969 144.5625 263.6875 C142.82516602 263.66333008 142.82516602 263.66333008 141.05273438 263.63867188 C139.94349609 263.63802734 138.83425781 263.63738281 137.69140625 263.63671875 C136.67248291 263.63373779 135.65355957 263.63075684 134.60375977 263.62768555 C131.97454515 263.79141881 131.97454515 263.79141881 130.17163086 265.36645508 Z M171.97190857 265.3318634 C170.73642801 267.11941099 170.73642801 267.11941099 171.0625 270.0625 C171.68754541 272.9995619 171.68754541 272.9995619 173.55224609 274.16642761 C177.04766567 275.35677818 180.45155431 275.28648173 184.1015625 275.2746582 C185.32175079 275.2823246 185.32175079 275.2823246 186.56658936 275.29014587 C189.25280127 275.30403473 191.93875647 275.30308586 194.625 275.30078125 C196.49300227 275.30466814 198.36100366 275.3090028 200.22900391 275.31376648 C204.1429328 275.32122685 208.05677149 275.32093842 211.97070312 275.31567383 C216.98794634 275.30987484 222.00482093 275.32682142 227.02200317 275.3500185 C230.87900961 275.36474362 234.73592698 275.36562929 238.59295654 275.36250877 C240.44293957 275.36302245 242.29292752 275.36826886 244.1428833 275.37832069 C246.72831262 275.39064623 249.31301989 275.38391737 251.8984375 275.37231445 C252.66323425 275.37995819 253.42803101 275.38760193 254.21600342 275.39547729 C257.39047915 275.3639606 259.66114524 275.18176584 262.48291016 273.6681366 C264.30030729 271.99258803 264.30030729 271.99258803 264.375 268.9375 C264.28930236 265.88138759 264.28930236 265.88138759 262 264 C259.21498272 263.79612045 256.52899424 263.71682909 253.74243164 263.7253418 C252.88864426 263.72023087 252.03485687 263.71511993 251.15519714 263.70985413 C248.3234462 263.69591588 245.49193749 263.69691808 242.66015625 263.69921875 C240.69721892 263.69533409 238.73428243 263.6909999 236.77134705 263.68623352 C232.65295693 263.67876216 228.53465252 263.67906917 224.41625977 263.68432617 C219.13206888 263.69012147 213.84822842 263.67319275 208.5640955 263.6499815 C204.50896647 263.63526719 200.45392228 263.63436932 196.39877129 263.63749123 C194.45027408 263.63697684 192.50177227 263.63171711 190.55330086 263.62167931 C187.83095497 263.60937699 185.10929732 263.6160691 182.38696289 263.62768555 C181.57802582 263.62004181 180.76908875 263.61239807 179.93563843 263.60452271 C175.72446678 263.62284186 175.72446678 263.62284186 171.97190857 265.3318634 Z M129 296 C129.25561323 298.3431213 129.59270772 300.67843403 130 303 C132.81693141 304.40846571 135.17924952 304.14285191 138.32983398 304.16113281 C139.30327759 304.16858017 139.30327759 304.16858017 140.29638672 304.17617798 C142.44629978 304.19080054 144.5961391 304.19760119 146.74609375 304.203125 C148.23820498 304.20887574 149.73031619 304.21463348 151.22242737 304.22039795 C154.35214584 304.23090776 157.48183862 304.23675076 160.61157227 304.24023438 C164.62455796 304.24572354 168.6372051 304.2697603 172.6500845 304.29820633 C175.73241677 304.31681582 178.81466715 304.32203736 181.89705086 304.32357025 C183.37665727 304.32660042 184.85626212 304.33464125 186.33581352 304.34775543 C188.40439629 304.36478383 190.47214734 304.36294438 192.54077148 304.35644531 C194.30710182 304.36191376 194.30710182 304.36191376 196.1091156 304.36749268 C198.99107839 304.23708126 198.99107839 304.23708126 200.87635803 302.63397217 C202.50671193 300.26315213 202.49131267 298.80750098 202 296 C198.75227904 292.74832671 196.12663382 292.6212561 191.64257812 292.61181641 C190.35444214 292.60235992 189.06630615 292.59290344 187.73913574 292.5831604 C186.33650403 292.58853025 184.93387512 292.59468324 183.53125 292.6015625 C182.0892319 292.59954084 180.6472148 292.59662862 179.2052002 292.59286499 C176.18569182 292.58844595 173.16645001 292.59485888 170.14697266 292.60888672 C166.27980582 292.62597872 162.41326362 292.61613524 158.54611969 292.59816933 C155.56922717 292.58731994 152.59248233 292.59078305 149.61558533 292.5985527 C148.18985418 292.60055153 146.76410956 292.59810655 145.33839417 292.59111404 C143.3447394 292.58348151 141.35103753 292.59718085 139.35742188 292.61181641 C137.65676575 292.61539658 137.65676575 292.61539658 135.92175293 292.61904907 C132.71965112 293.03655311 131.34655839 293.8392771 129 296 Z M25.70874023 352.70874023 C22.93473601 358.05183938 23.32862784 363.32546631 23.40625 369.25390625 C23.40620972 370.54691147 23.40616943 371.83991669 23.40612793 373.17210388 C23.40777799 375.90340254 23.42641742 378.63387721 23.45800781 381.36499023 C23.49772542 384.86115823 23.50204695 388.35625019 23.49454498 391.85260105 C23.49073365 395.19483336 23.51155587 398.53672715 23.53125 401.87890625 C23.53145142 403.13312881 23.53165283 404.38735138 23.53186035 405.67958069 C23.54777222 406.84436447 23.56368408 408.00914825 23.58007812 409.20922852 C23.58849731 410.23339371 23.5969165 411.2575589 23.60559082 412.3127594 C24.06005574 415.40917968 24.82649864 416.77505187 27 419 C30.09086765 420.03028922 32.2530868 420.13880203 35.49365234 420.16113281 C36.61847015 420.17074036 37.74328796 420.1803479 38.90219116 420.19024658 C40.11782745 420.19449646 41.33346375 420.19874634 42.5859375 420.203125 C43.83500885 420.20882507 45.0840802 420.21452515 46.3710022 420.22039795 C49.01560103 420.22985098 51.6600863 420.23674638 54.3046875 420.24023438 C57.68635086 420.245717 61.06761115 420.26974456 64.44914818 420.29820633 C67.68221396 420.32135692 70.91530043 420.32328384 74.1484375 420.328125 C75.96581924 420.3466452 75.96581924 420.3466452 77.81991577 420.36553955 C79.51659897 420.3610379 79.51659897 420.3610379 81.24755859 420.35644531 C82.2400058 420.36009094 83.232453 420.36373657 84.25497437 420.36749268 C87.60948379 419.91840483 89.41726861 419.20071717 92 417 C92.75265679 414.1918221 92.75265679 414.1918221 92.63110352 410.92382812 C92.64990318 409.04673157 92.64990318 409.04673157 92.66908264 407.13171387 C92.65681468 405.76488203 92.64339471 404.39806011 92.62890625 403.03125 C92.62973486 401.63024715 92.63219393 400.22924439 92.63621521 398.82824707 C92.63907405 395.89252446 92.62436564 392.95756445 92.59692383 390.02197266 C92.56283911 386.25871485 92.56885741 382.4968207 92.5875864 378.73349762 C92.59815473 375.84064364 92.58922047 372.94810706 92.57420158 370.05528259 C92.56901796 368.66781049 92.56950381 367.28030527 92.57574654 365.89283752 C92.58119554 363.95390536 92.55798242 362.01495645 92.53344727 360.07617188 C92.52724869 358.97269409 92.52105011 357.86921631 92.5146637 356.7322998 C92.2333267 353.93535313 92.2333267 353.93535313 90.32858276 352.14648438 C87.45342663 350.73089304 85.41281805 350.60641336 82.20922852 350.58007812 C80.46205284 350.55621033 80.46205284 350.55621033 78.67958069 350.53186035 C77.42535812 350.53165894 76.17113556 350.53145752 74.87890625 350.53125 C73.58685776 350.52363647 72.29480927 350.51602295 70.96360779 350.50817871 C68.23077712 350.49474557 65.49823527 350.49315967 62.76538086 350.49902344 C59.27014871 350.50491896 55.77630596 350.4743323 52.28134251 350.43390656 C48.93881983 350.40177881 45.59658284 350.40614586 42.25390625 350.40625 C41.00170792 350.38985474 39.74950958 350.37345947 38.45936584 350.35656738 C33.60833375 350.39521753 30.0497774 350.45498168 25.70874023 352.70874023 Z M129 368 C128.41666667 370.5 128.41666667 370.5 129 373 C130.14189661 374.73473014 130.14189661 374.73473014 132 376 C134.55949448 376.46205033 134.55949448 376.46205033 137.4375 376.3984375 C138.49710938 376.40230469 139.55671875 376.40617187 140.6484375 376.41015625 C141.75445312 376.39855469 142.86046875 376.38695312 144 376.375 C145.10601562 376.38660156 146.21203125 376.39820313 147.3515625 376.41015625 C148.41117188 376.40628906 149.47078125 376.40242188 150.5625 376.3984375 C151.53316406 376.39505371 152.50382812 376.39166992 153.50390625 376.38818359 C156.03830323 376.1951123 156.03830323 376.1951123 157.81640625 374.63134766 C159.50902996 372.29840384 159.42192788 370.81285252 159 368 C157.32568234 365.72281892 156.42965012 365.06982967 153.61157227 364.61181641 C152.22796509 364.60674072 152.22796509 364.60674072 150.81640625 364.6015625 C149.80642578 364.59769531 148.79644531 364.59382813 147.75585938 364.58984375 C146.70205078 364.60144531 145.64824219 364.61304688 144.5625 364.625 C143.51255859 364.61339844 142.46261719 364.60179687 141.38085938 364.58984375 C140.36958984 364.59371094 139.35832031 364.59757812 138.31640625 364.6015625 C136.93110718 364.60663818 136.93110718 364.60663818 135.51782227 364.61181641 C132.54228807 365.07056744 131.1562108 365.92484509 129 368 Z M130.10327148 396.36645508 C128.49955353 398.74097971 128.51051534 400.2029448 129 403 C133.11804363 407.11866085 137.60755227 406.42157658 143.109375 406.45898438 C144.39328125 406.45189453 145.6771875 406.44480469 147 406.4375 C148.28390625 406.45748047 149.5678125 406.47746094 150.890625 406.49804688 C152.73914063 406.49708008 152.73914063 406.49708008 154.625 406.49609375 C155.75164062 406.49794678 156.87828125 406.4997998 158.0390625 406.50170898 C161.62882449 405.89345034 162.84246178 404.8876243 165 402 C164.83849795 398.60845705 164.41703243 397.41703243 162 395 C157.74257862 394.60136504 153.47052426 394.67097459 149.1965332 394.68432617 C147.07385794 394.68748311 144.95258064 394.66404239 142.83007812 394.63867188 C141.48177259 394.63639854 140.13346331 394.63569554 138.78515625 394.63671875 C137.55676025 394.63373779 136.32836426 394.63075684 135.06274414 394.62768555 C132.03045149 394.74644059 132.03045149 394.74644059 130.10327148 396.36645508 Z " fill="#693A8D" transform="translate(44,33)"/>
<path d="M0 0 C2.81488126 2.30411652 5.26236871 4.88710373 7.6875 7.5859375 C8.19410156 8.1325 8.70070313 8.6790625 9.22265625 9.2421875 C12.9375 13.32751432 12.9375 13.32751432 12.9375 15.5859375 C16.04174063 16.25113192 18.50773278 16.65941782 21.65625 16.12109375 C25.39579929 15.51119107 29.03657336 15.43815597 32.8125 15.4609375 C33.87368042 15.45839966 33.87368042 15.45839966 34.95629883 15.45581055 C38.60771335 15.4713843 42.04701236 15.68010346 45.625 16.3984375 C47.2646875 16.49125 47.2646875 16.49125 48.9375 16.5859375 C51.41724983 14.4416465 51.41724983 14.4416465 53.9375 11.5859375 C54.64579956 10.82446411 54.64579956 10.82446411 55.3684082 10.04760742 C56.83900535 8.46515168 58.29597257 6.87112051 59.75 5.2734375 C60.50313477 4.44875977 60.50313477 4.44875977 61.27148438 3.60742188 C62.49453968 2.26788511 63.71617008 0.92704758 64.9375 -0.4140625 C68.84864026 0.25994468 71.80869182 2.12849783 75.1875 4.1484375 C76.26515625 4.78910156 77.3428125 5.42976563 78.453125 6.08984375 C79.27296875 6.58355469 80.0928125 7.07726562 80.9375 7.5859375 C79.2709766 13.24738934 77.54722017 18.85007408 75.48828125 24.3828125 C74.75659596 27.30955367 74.60496171 29.57398148 74.9375 32.5859375 C76.6760814 35.40495521 76.6760814 35.40495521 79.0625 38.0859375 C83.54032887 43.67622698 85.95437111 48.90009888 88.2578125 55.65234375 C90.43350518 59.45221632 92.88313569 60.47380631 96.9375 61.5859375 C99.71397631 62.24616889 102.49598957 62.75448645 105.3125 63.2109375 C112.82052998 64.46896748 112.82052998 64.46896748 113.9375 65.5859375 C114.01075168 68.44861317 114.02988205 71.2866565 114 74.1484375 C113.99548828 74.95474609 113.99097656 75.76105469 113.98632812 76.59179688 C113.97450518 78.58987506 113.95656914 80.58791533 113.9375 82.5859375 C110.26696071 83.69429642 106.67099338 84.67212673 102.89453125 85.33984375 C95.38742488 86.48017125 95.38742488 86.48017125 89.2578125 90.42578125 C88.32543341 92.5902349 88.32543341 92.5902349 87.7109375 94.94921875 C86.75154936 98.21986015 85.22784256 100.83902134 83.5 103.7734375 C82.60474609 105.30484375 82.60474609 105.30484375 81.69140625 106.8671875 C80.22901136 109.13406243 78.826138 110.87953867 76.9375 112.7734375 C74.85103948 115.70752261 74.60231412 116.20441755 74.8125 119.5859375 C75.75802405 125.12670844 77.92291956 130.33901805 79.9765625 135.546875 C80.9375 138.5859375 80.9375 138.5859375 79.9375 141.5859375 C77.35546875 143.4453125 77.35546875 143.4453125 74.125 145.3359375 C73.06667969 145.97015625 72.00835937 146.604375 70.91796875 147.2578125 C67.9375 148.5859375 67.9375 148.5859375 65.859375 148.6171875 C62.9430108 147.05230915 61.16041717 144.82590983 59 142.3359375 C54.20050737 136.73303583 54.20050737 136.73303583 48.9375 131.5859375 C45.30452953 131.68072068 45.30452953 131.68072068 42.7265625 132.18359375 C35.23253485 133.26466497 27.26286607 133.08161214 19.8125 131.7734375 C15.89531087 131.13321975 15.89531087 131.13321975 13.55859375 133.6796875 C12.69363281 134.63875 11.82867187 135.5978125 10.9375 136.5859375 C9.97321052 137.62421296 9.00835308 138.6619612 8.04296875 139.69921875 C7.06913691 140.76455157 6.09648858 141.8309674 5.125 142.8984375 C4.62291016 143.44822266 4.12082031 143.99800781 3.60351562 144.56445312 C2.38046032 145.90398989 1.15882992 147.24482742 -0.0625 148.5859375 C-4.1655686 147.3609634 -7.42688139 145.90773229 -10.9375 143.4609375 C-11.71867187 142.92210937 -12.49984375 142.38328125 -13.3046875 141.828125 C-13.88476562 141.41820312 -14.46484375 141.00828125 -15.0625 140.5859375 C-14.36162332 134.21284956 -12.38682608 128.85785472 -10.0234375 122.890625 C-9.03101563 119.47766197 -8.87059829 117.89231869 -10.0625 114.5859375 C-11.46992077 113.01096664 -12.87976499 111.43806059 -14.3046875 109.87890625 C-18.49362181 104.41467416 -21.91876332 97.31596164 -23.9296875 90.7578125 C-24.8893498 88.36197352 -24.8893498 88.36197352 -27.4609375 87.546875 C-28.44320312 87.35351562 -29.42546875 87.16015625 -30.4375 86.9609375 C-31.50226563 86.73535156 -32.56703125 86.50976562 -33.6640625 86.27734375 C-34.78554687 86.04917969 -35.90703125 85.82101562 -37.0625 85.5859375 C-39.3151663 85.03421223 -41.5653542 84.47223364 -43.8125 83.8984375 C-45.545 83.4653125 -47.2775 83.0321875 -49.0625 82.5859375 C-49.0625 76.9759375 -49.0625 71.3659375 -49.0625 65.5859375 C-41.1875 63.3359375 -41.1875 63.3359375 -37.66015625 62.734375 C-36.91572266 62.60546875 -36.17128906 62.4765625 -35.40429688 62.34375 C-34.65212891 62.21742188 -33.89996094 62.09109375 -33.125 61.9609375 C-31.95614258 61.75984375 -31.95614258 61.75984375 -30.76367188 61.5546875 C-28.86386729 61.2283407 -26.96326363 60.90665127 -25.0625 60.5859375 C-24.69125 59.3278125 -24.32 58.0696875 -23.9375 56.7734375 C-21.22725236 48.69359126 -17.30658725 41.27948429 -11.26171875 35.21875 C-9.55181142 32.89060256 -9.21496081 31.49874141 -9.0625 28.5859375 C-9.81196961 25.66192415 -10.89294778 22.89111578 -12 20.0859375 C-15.50103504 11.09658366 -15.50103504 11.09658366 -15.0625 6.5859375 C-12.98892695 5.35737543 -10.90653246 4.15368404 -8.8125 2.9609375 C-8.22597656 2.6103125 -7.63945312 2.2596875 -7.03515625 1.8984375 C-2.69344059 -0.5407286 -2.69344059 -0.5407286 0 0 Z M-2.5 45.5234375 C-10.92333217 56.90957772 -13.00516037 67.47595771 -12.0625 81.5859375 C-10.8229015 89.1589468 -7.28413691 95.27045923 -3.0625 101.5859375 C-2.19625 102.91625 -2.19625 102.91625 -1.3125 104.2734375 C6.92459286 112.7393385 17.86413639 118.56992316 29.72412109 118.87890625 C43.37993022 118.99940754 53.52838584 115.82602807 63.9375 106.5859375 C72.95677641 97.58205235 77.37156813 87.21303586 77.5 74.5234375 C77.27214909 61.46908139 73.03430819 51.14012834 64.05859375 41.5859375 C53.81679551 31.9855448 41.83403251 28.94526177 28.1640625 29.27734375 C16.32330407 29.91120043 4.98975595 36.4941206 -2.5 45.5234375 Z " fill="#333B8D" transform="translate(275.0625,341.4140625)"/>
<path d="M0 0 C5.61 0 11.22 0 17 0 C17.24492187 1.53011719 17.48984375 3.06023437 17.7421875 4.63671875 C18.11750901 6.65407185 18.4952406 8.67097761 18.875 10.6875 C19.0296875 11.69490234 19.184375 12.70230469 19.34375 13.74023438 C20.45115223 19.50971688 20.45115223 19.50971688 24.26416016 23.73706055 C26.8053133 25.00434973 29.33816481 26.0169709 32 27 C33.55418744 27.78828533 35.0981682 28.59745416 36.625 29.4375 C37.35847656 29.84097656 38.09195313 30.24445313 38.84765625 30.66015625 C41.10415745 32.06483849 43.03319576 33.66215646 45.0625 35.375 C47.99765112 37.5979031 48.77947633 37.9885936 52.625 38.1875 C57.89395213 37.04940634 62.98916355 34.96126902 68.0234375 33.05859375 C71 32 71 32 73 32 C74.76171875 34.484375 74.76171875 34.484375 76.6875 37.75 C77.65236328 39.35101563 77.65236328 39.35101563 78.63671875 40.984375 C80 44 80 44 79.79858398 46.01879883 C78.80797436 48.47639501 77.75777126 49.22480014 75.5859375 50.71484375 C67.76862565 56.31182809 67.76862565 56.31182809 63.40820312 64.51318359 C63.11560471 69.96132608 63.91641989 75.25230531 64.73828125 80.62695312 C65.09040821 83.81974608 64.66383319 86.72124105 64.125 89.875 C63.79828552 92.90570668 63.64020892 94.37756142 65.171875 97.02734375 C66.99370716 98.93692471 68.86941116 100.44288516 71 102 C72.22396484 102.97839844 72.22396484 102.97839844 73.47265625 103.9765625 C75.62347962 105.68767713 77.79722371 107.35665896 80 109 C79.40165275 113.14298667 77.99335715 116.18194377 75.9375 119.8125 C75.38964844 120.78832031 74.84179688 121.76414062 74.27734375 122.76953125 C73.85582031 123.50558594 73.43429687 124.24164063 73 125 C68.04130474 123.54034231 63.11783183 122.05397306 58.25 120.3125 C54.63903993 119.13418671 51.81428023 118.25372778 48 119 C46.39258258 120.37300238 44.79336893 121.75801191 43.2578125 123.2109375 C39.34268715 126.31323406 34.79286925 128.25065851 30.3046875 130.38671875 C29.21414063 130.91910156 28.12359375 131.45148438 27 132 C26.09121094 132.33257812 25.18242187 132.66515625 24.24609375 133.0078125 C20.3938039 136.4246261 20.12886994 141.28311691 19.1875 146.1875 C18.97158203 147.22326172 18.75566406 148.25902344 18.53320312 149.32617188 C18.00353926 151.88032874 17.49930475 154.4397352 17 157 C11.39 157 5.78 157 0 157 C-0.25394531 155.60265625 -0.50789063 154.2053125 -0.76953125 152.765625 C-1.11662302 150.92697668 -1.46431046 149.08844075 -1.8125 147.25 C-1.97814453 146.32960938 -2.14378906 145.40921875 -2.31445312 144.4609375 C-2.48525391 143.57148438 -2.65605469 142.68203125 -2.83203125 141.765625 C-2.98389893 140.94868164 -3.1357666 140.13173828 -3.29223633 139.29003906 C-4.10505051 136.66009874 -5.17307017 135.04806083 -7 133 C-9.59712081 131.69148382 -9.59712081 131.69148382 -12.5625 130.6875 C-19.49775389 127.97407138 -25.70850562 124.29149438 -31 119 C-39.46507854 119.14347591 -47.11387557 122.18426914 -55 125 C-61.51936219 115.77448747 -61.51936219 115.77448747 -63 110 C-58.70328082 105.5824356 -54.27195049 101.40403459 -49.6015625 97.3828125 C-48.71147181 96.61429517 -47.83152881 95.83152881 -47 95 C-46.99549732 93.66045299 -47.06093311 92.32053411 -47.15625 90.984375 C-47.20918213 90.15131836 -47.26211426 89.31826172 -47.31665039 88.45996094 C-47.37715576 87.56567383 -47.43766113 86.67138672 -47.5 85.75 C-47.90776025 79.57048397 -47.99837112 73.902083 -47.0625 67.75 C-46.71602289 64.27634483 -46.58769728 62.66914704 -48.4296875 59.6796875 C-50.49932605 57.56173054 -52.64580039 55.79404895 -55 54 C-56.50642971 52.6739354 -58.00679871 51.34094284 -59.5 50 C-60.6641345 48.99705335 -61.82982562 47.99589309 -63 47 C-61.45454854 41.52067211 -58.84456788 36.88570819 -56 32 C-45.49676863 34.72234489 -45.49676863 34.72234489 -40.75 36.75 C-36.36530041 38.21156653 -34.40665157 38.39157418 -30 37 C-27.8371326 35.43642711 -25.83423129 33.74167156 -23.80859375 32.00390625 C-21.46114686 30.32902412 -19.59108139 29.30984357 -16.97265625 28.21484375 C-8.87403586 25.1457497 -8.87403586 25.1457497 -3.375 18.91796875 C-2.63024571 15.58596907 -2.25245534 12.40193911 -2 9 C-1.63519923 7.22251438 -1.24342507 5.45012256 -0.8125 3.6875 C-0.544375 2.470625 -0.27625 1.25375 0 0 Z M-24 49 C-32.17445523 59.21806903 -36.16753107 70.9433849 -35 84 C-32.15385035 97.69404576 -25.44586706 107.35085905 -14.25 115.578125 C-4.74423826 121.58523832 6.22238152 123.56685032 17.21875 121.3515625 C30.7498233 117.58219208 39.89730087 110.80075263 47.30859375 98.8984375 C52.58603201 89.19413711 53.71782724 77.44335648 50.8125 66.8125 C46.45050645 54.13228619 39.02120002 45.02000627 27 39 C9.25304103 31.20716725 -10.52685084 34.74955377 -24 49 Z " fill="#613A8D" transform="translate(387,173)"/>
<path d="M0 0 C1.06347656 -0.02320312 2.12695312 -0.04640625 3.22265625 -0.0703125 C10.02161605 -0.02025881 14.07490457 1.22924225 19.65039062 5.04199219 C25.48126916 8.53692247 32.10435343 10.51231721 38.5 12.75 C38.57476069 17.97864743 38.62888763 23.20697628 38.66479492 28.43603516 C38.67978093 30.21082996 38.70017682 31.98558837 38.72631836 33.76025391 C38.9398977 48.64380233 37.93133099 58.70565956 28.5 70.75 C28.04882812 71.36617188 27.59765625 71.98234375 27.1328125 72.6171875 C21.13505949 80.31844432 10.84266914 88.62979956 1.5 91.75 C-8.59659271 90.93837679 -17.65120914 81.48502357 -24.5 74.75 C-25.23476562 74.028125 -25.96953125 73.30625 -26.7265625 72.5625 C-35.48828564 63.37417611 -38.6800431 53.67493581 -38.59765625 41.16796875 C-38.59553383 39.94670036 -38.59553383 39.94670036 -38.59336853 38.70075989 C-38.58779317 36.11296844 -38.57524524 33.52526508 -38.5625 30.9375 C-38.55748181 29.17773563 -38.55291946 27.41796989 -38.54882812 25.65820312 C-38.53783181 21.35543506 -38.52058421 17.05273244 -38.5 12.75 C-37.46101562 12.38648437 -36.42203125 12.02296875 -35.3515625 11.6484375 C-25.9429459 8.31883328 -25.9429459 8.31883328 -17.28125 3.421875 C-11.69751904 -0.1496586 -6.48753344 -0.14154618 0 0 Z M-3.671875 16.140625 C-6.44829817 20.1035538 -5.93093044 23.78884965 -5.75 28.5 C-5.72292969 29.83224609 -5.72292969 29.83224609 -5.6953125 31.19140625 C-5.64827374 33.37870848 -5.58257009 35.56379816 -5.5 37.75 C-6.05985596 37.73428955 -6.61971191 37.7185791 -7.1965332 37.70239258 C-9.7350859 37.64000152 -12.27347729 37.60099782 -14.8125 37.5625 C-16.13411133 37.52479492 -16.13411133 37.52479492 -17.48242188 37.48632812 C-18.32998047 37.47666016 -19.17753906 37.46699219 -20.05078125 37.45703125 C-20.83106689 37.4413208 -21.61135254 37.42561035 -22.4152832 37.40942383 C-25.04438705 37.83893546 -25.90231099 38.6552383 -27.5 40.75 C-28.08333333 43.25 -28.08333333 43.25 -27.5 45.75 C-25.68582204 47.80867633 -24.22031854 48.66503085 -21.48413086 48.98779297 C-19.06598966 49.04549542 -16.66765434 49.01116291 -14.25 48.9375 C-13.40953125 48.92396484 -12.5690625 48.91042969 -11.703125 48.89648438 C-9.63514062 48.86123464 -7.56748729 48.8074302 -5.5 48.75 C-5.53480469 50.00296875 -5.56960937 51.2559375 -5.60546875 52.546875 C-5.63361128 54.19790324 -5.66091094 55.84894601 -5.6875 57.5 C-5.71263672 58.325 -5.73777344 59.15 -5.76367188 60 C-5.8369835 64.84107277 -5.8369835 64.84107277 -4.14453125 69.30078125 C-2.54250259 70.9666903 -2.54250259 70.9666903 0 71.1875 C2.95425127 70.67050603 3.68362484 70.08468834 5.5 67.75 C5.91121443 65.62826415 5.91121443 65.62826415 5.79296875 63.30078125 C5.78330078 62.45322266 5.77363281 61.60566406 5.76367188 60.73242188 C5.73853516 59.85134766 5.71339844 58.97027344 5.6875 58.0625 C5.67396484 57.16982422 5.66042969 56.27714844 5.64648438 55.35742188 C5.61114079 53.15433834 5.56180493 50.95247418 5.5 48.75 C6.75296875 48.78480469 8.0059375 48.81960937 9.296875 48.85546875 C10.94790324 48.88361128 12.59894601 48.91091094 14.25 48.9375 C15.075 48.96263672 15.9 48.98777344 16.75 49.01367188 C21.58352672 49.08044399 21.58352672 49.08044399 26.0546875 47.4296875 C27.79051419 45.72679 27.79051419 45.72679 27.875 42.6875 C27.78930236 39.63138759 27.78930236 39.63138759 25.5 37.75 C23.36747907 37.47285104 23.36747907 37.47285104 20.9296875 37.5546875 C19.58583984 37.56435547 19.58583984 37.56435547 18.21484375 37.57421875 C16.80912109 37.59935547 16.80912109 37.59935547 15.375 37.625 C13.95767578 37.63853516 13.95767578 37.63853516 12.51171875 37.65234375 C10.17422708 37.67595478 7.83723877 37.70888484 5.5 37.75 C5.52094727 37.19538086 5.54189453 36.64076172 5.56347656 36.06933594 C5.64683548 33.54640977 5.69871868 31.02377351 5.75 28.5 C5.78351563 27.62730469 5.81703125 26.75460938 5.8515625 25.85546875 C5.97645978 20.6662561 5.97645978 20.6662561 3.671875 16.140625 C0.70229104 14.23923671 -0.70229104 14.23923671 -3.671875 16.140625 Z " fill="#8A398D" transform="translate(212.5,67.25)"/>
<path d="M0 0 C0.96486328 0.62068359 0.96486328 0.62068359 1.94921875 1.25390625 C2.64402344 1.67800781 3.33882813 2.10210937 4.0546875 2.5390625 C11.15292937 7.32005468 15.75593891 13.98922903 17.94921875 22.25390625 C18.9727635 31.2469665 19.0504299 40.49943358 13.94921875 48.25390625 C13.27826172 49.31158203 13.27826172 49.31158203 12.59375 50.390625 C7.46224018 57.83337784 0.91193054 62.57742779 -8.05078125 64.25390625 C-18.17412843 65.16511862 -26.9332746 64.74362418 -35.296875 58.60546875 C-43.11761461 52.03317748 -48.32585199 44.99574838 -49.44140625 34.62109375 C-49.74502089 23.88614757 -47.62232779 15.51937323 -40.88671875 7.07421875 C-30.77576576 -2.95068358 -12.86378342 -7.0322016 0 0 Z " fill="#333B8D" transform="translate(323.05078125,384.74609375)"/>
<path d="M0 0 C15.18 0 30.36 0 46 0 C46 15.18 46 30.36 46 46 C30.82 46 15.64 46 0 46 C0 30.82 0 15.64 0 0 Z " fill="#333C8C" transform="translate(79,395)"/>
<path d="M0 0 C15.18 0 30.36 0 46 0 C46 15.18 46 30.36 46 46 C30.82 46 15.64 46 0 46 C0 30.82 0 15.64 0 0 Z " fill="#4F3B8C" transform="translate(79,294)"/>
<path d="M0 0 C15.18 0 30.36 0 46 0 C46 15.18 46 30.36 46 46 C30.82 46 15.64 46 0 46 C0 30.82 0 15.64 0 0 Z " fill="#6C3B8C" transform="translate(79,192)"/>
<path d="M0 0 C0 11.22 0 22.44 0 34 C-5.61 34 -11.22 34 -17 34 C-20.3203125 27.359375 -20.3203125 27.359375 -21 25 C-20.36328125 23.09765625 -20.36328125 23.09765625 -19 21 C-18.08927734 19.52080078 -18.08927734 19.52080078 -17.16015625 18.01171875 C-15.76598588 15.80233517 -14.37016196 13.59399413 -12.97265625 11.38671875 C-11.53529482 8.91901111 -10.44502485 6.75600009 -9.40234375 4.140625 C-8.93957031 3.10421875 -8.47679687 2.0678125 -8 1 C-5.13487957 -0.07442016 -3.05533672 0 0 0 Z " fill="#283B8D" transform="translate(381,437)"/>
</svg>
