<?xml version="1.0" encoding="UTF-8"?>
<svg version="1.1" xmlns="http://www.w3.org/2000/svg" width="512" height="512">
<path d="M0 0 C5.47055572 3.80090675 9.01471316 7.52364978 11 14 C11.42116589 17.17573264 11.43769418 20.31491677 11.43237305 23.51538086 C11.44766052 24.90679794 11.44766052 24.90679794 11.46325684 26.32632446 C11.49329438 29.37255974 11.50263872 32.41848007 11.51171875 35.46484375 C11.52857227 37.58477313 11.54672341 39.70469255 11.56611633 41.82460022 C11.61354922 47.38938283 11.64340211 52.95412508 11.66955566 58.51904297 C11.69939497 64.20353158 11.74591376 69.88788124 11.79101562 75.57226562 C11.87697246 86.71477096 11.94435173 97.85730495 12 109 C13.16559448 107.56587769 13.16559448 107.56587769 14.35473633 106.1027832 C18.79509067 100.63946698 25.10477891 98.00985128 32 97 C40.72764649 96.51970499 47.88860523 99.79525366 54.51953125 105.25 C61.0666962 111.61483883 62.46769732 121.40989819 64.80078125 129.92138672 C65.37811965 132.01753373 65.96101758 134.11215633 66.54907227 136.20532227 C67.12654856 138.26560662 67.69032867 140.3297964 68.23803711 142.39819336 C72.33900417 157.08041192 79.88101796 166.00485661 92.99926758 173.44213867 C94.11325928 174.05935791 95.22725098 174.67657715 96.375 175.3125 C97.53677967 175.96786761 98.69782569 176.62453739 99.8581543 177.2824707 C102.16217883 178.58782516 104.46899799 179.88767933 106.77783203 181.18457031 C111.14628442 183.64583808 115.48564867 186.15398256 119.8125 188.6875 C120.48007324 189.07268799 121.14764648 189.45787598 121.83544922 189.85473633 C132.95689911 196.35844881 136.62447666 202.85354088 140.01196289 215.05419922 C141.52914813 220.91138373 142.55191804 226.86409248 143.58123779 232.82220459 C145.4490261 243.58446676 147.50509352 254.09319214 151.1171875 264.4296875 C152 267 152 267 152 269 C153.051875 268.67 154.10375 268.34 155.1875 268 C160.73098751 266.54597049 160.73098751 266.54597049 164 267 C167.83104225 270.13766273 168.45383898 274.07711122 169.6875 278.6875 C170.02491211 279.85442383 170.02491211 279.85442383 170.36914062 281.04492188 C171.77656579 286.17410964 172.40472958 290.67985901 172 296 C169.85836911 298.14163089 168.98706626 298.45221758 166.14720154 299.20497131 C165.34231293 299.42189636 164.53742432 299.63882141 163.70814514 299.86231995 C162.82275558 300.09345993 161.93736603 300.32459991 161.02514648 300.56274414 C160.09275146 300.81192596 159.16035645 301.06110779 158.19970703 301.31784058 C155.09184267 302.14671584 151.9814998 302.96587519 148.87109375 303.78515625 C146.68839663 304.36545827 144.50586854 304.94639638 142.32350159 305.52793884 C136.53938244 307.06756158 130.753165 308.59914638 124.96643066 310.12890625 C118.08031804 311.95065689 111.19644334 313.78083977 104.3125248 315.61086082 C98.74469661 317.09087476 93.17628131 318.56857132 87.60629272 320.04043579 C77.92138216 322.60278736 68.24620152 325.18744349 58.60595703 327.91357422 C57.0568132 328.34876664 55.50766482 328.78394286 53.95851135 329.21910095 C51.19398505 329.99653921 48.43531128 330.79120339 45.67906189 331.59742737 C34.9486999 334.62506692 34.9486999 334.62506692 29 333 C26.90405643 327.86493825 25.24108697 322.65295938 23.75 317.3125 C23.39421875 316.05050781 23.0384375 314.78851563 22.671875 313.48828125 C22.02409193 310.12508192 21.91201676 308.21186543 23 305 C25.76223278 302.23776722 28.20706617 302.42143709 32 302 C25.84361009 283.62484035 19.07618582 267.54590588 6 253 C5.16855469 252.06027344 4.33710937 251.12054688 3.48046875 250.15234375 C-1.65164506 244.44916018 -6.96504054 238.9398134 -12.375 233.5 C-12.95789795 232.9124292 -13.5407959 232.3248584 -14.14135742 231.71948242 C-16.58226888 229.28771427 -18.98508632 227.01179674 -21.69140625 224.87109375 C-29.73071884 218.35530572 -34.08876031 208.11950161 -35.22617078 197.98473001 C-35.59907243 192.56127293 -35.55599621 187.13376229 -35.53344727 181.70043945 C-35.54051933 179.89210308 -35.54926971 178.08377261 -35.55955505 176.27545166 C-35.58190762 171.40164011 -35.57914366 166.52815542 -35.57023358 161.65431237 C-35.56509783 157.57367158 -35.57243667 153.49309082 -35.57970566 149.41245621 C-35.59665778 139.78427535 -35.59318391 130.15625318 -35.57641602 120.52807617 C-35.5594748 110.6150236 -35.57536741 100.70241075 -35.6076389 90.78940612 C-35.63436669 82.25399351 -35.6416029 73.71871753 -35.63312382 65.1832673 C-35.62820695 60.09581139 -35.6303439 55.0086203 -35.65091133 49.92119789 C-35.66932033 45.13975346 -35.66324619 40.35894078 -35.63871193 35.57752991 C-35.63372178 33.82887267 -35.6371469 32.08016683 -35.64986038 30.33154869 C-35.71720682 20.26872642 -35.53074215 11.42598754 -28.62819767 3.40614796 C-20.61040418 -4.07154293 -9.46173191 -5.1792459 0 0 Z " fill="#FDDEC5" transform="translate(43,172)"/>
<path d="M0 0 C5.45425398 4.61953586 8.65418443 10.62270868 9.38031673 17.71423531 C9.39789289 19.06858452 9.39946756 20.42320644 9.38768005 21.77761841 C9.39575836 22.90601712 9.39575836 22.90601712 9.40399987 24.05721176 C9.4182342 26.56191096 9.41118697 29.06607826 9.40405273 31.57080078 C9.40975891 33.37338178 9.41672413 35.17595917 9.42485046 36.97853088 C9.44277581 41.86524924 9.44161389 46.75178795 9.43590808 51.6385293 C9.43281338 55.72603322 9.43891227 59.81350278 9.44494683 63.90100181 C9.45899025 73.55219443 9.45743406 83.20329854 9.44604492 92.85449219 C9.43458139 102.78774873 9.4486101 112.72073471 9.4754414 122.65395558 C9.49765412 131.19947138 9.50422273 139.74490261 9.49836498 148.29044521 C9.4950054 153.38643612 9.49734305 158.48225391 9.51461601 163.57822037 C9.53017054 168.37674678 9.52603589 173.17487558 9.50731087 177.97338676 C9.5036475 179.7256189 9.50666701 181.47788104 9.51719666 183.23008537 C9.60217186 198.55154903 7.59392637 211.13827588 -3 223 C-5.83516139 225.77352744 -8.75486002 228.43332687 -11.72265625 231.0625 C-33.9007945 250.76447093 -48.88181657 272.67836964 -58 301 C-56.906875 301.0825 -55.81375 301.165 -54.6875 301.25 C-51 302 -51 302 -49.234375 303.7421875 C-46.891341 308.02786361 -48.87353399 312.47773112 -50 317 C-50.30679688 318.24136719 -50.61359375 319.48273438 -50.9296875 320.76171875 C-53.56811798 330.71207865 -53.56811798 330.71207865 -57 333 C-63.38994187 332.6241357 -69.4044118 330.98328037 -75.56494141 329.31958008 C-76.59391037 329.04621826 -77.62287933 328.77285645 -78.68302917 328.49121094 C-82.07390364 327.58901402 -85.46272248 326.67933736 -88.8515625 325.76953125 C-91.23111359 325.13470426 -93.61078487 324.50032763 -95.99057007 323.86637878 C-102.26005296 322.19487927 -108.52779861 320.51695242 -114.79522705 318.83776855 C-121.09936272 317.15008833 -127.4052606 315.46901985 -133.7109375 313.78710938 C-157.66619524 307.39368985 -157.66619524 307.39368985 -167.86505127 304.64736938 C-172.04666972 303.52149283 -176.23187916 302.41035148 -180.4196167 301.3074646 C-182.44042668 300.76981528 -184.46120058 300.23203034 -186.48193359 299.6940918 C-187.88252486 299.32973258 -187.88252486 299.32973258 -189.3114109 298.95801258 C-190.16435423 298.72945922 -191.01729755 298.50090586 -191.89608765 298.26542664 C-192.64365011 298.06841502 -193.39121258 297.87140341 -194.16142845 297.66842175 C-196 297 -196 297 -198 295 C-198.52788855 289.09376873 -197.21011884 283.89546927 -195.6875 278.25 C-195.47416016 277.40050781 -195.26082031 276.55101562 -195.04101562 275.67578125 C-194.71713867 274.45181641 -194.71713867 274.45181641 -194.38671875 273.203125 C-194.19295654 272.46739258 -193.99919434 271.73166016 -193.79956055 270.97363281 C-192.88248198 268.70991887 -191.89693895 267.52449154 -190 266 C-187.84375 265.890625 -187.84375 265.890625 -185.5 266.25 C-184.33984375 266.41242188 -184.33984375 266.41242188 -183.15625 266.578125 C-181 267 -181 267 -178 268 C-176.97632319 264.33957987 -175.9851021 260.67097876 -175 257 C-174.69835937 255.8965625 -174.39671875 254.793125 -174.0859375 253.65625 C-171.49733782 243.8069439 -169.61776821 233.88621362 -167.92626953 223.84375 C-163.92967352 201.00988714 -163.92967352 201.00988714 -156 194 C-150.52386835 190.32514095 -144.76991663 187.18565561 -139 184 C-135.66249374 182.14074524 -132.33082551 180.27224354 -129.00683594 178.38891602 C-126.76575648 177.11921456 -124.51798728 175.86122511 -122.26269531 174.61694336 C-108.00555748 166.55074874 -98.69849045 157.37023426 -94.23828125 141.3984375 C-93.97402344 140.40070313 -93.70976562 139.40296875 -93.4375 138.375 C-92.84297704 136.25766386 -92.24792355 134.14047661 -91.65234375 132.0234375 C-90.86685267 129.17272773 -90.08649023 126.32086081 -89.31689453 123.46582031 C-86.56719353 113.34709235 -83.74730702 105.44134704 -74.5625 99.625 C-66.36304139 95.88489607 -58.9840847 94.82238548 -50.31640625 97.9765625 C-44.71894441 100.55488816 -41.84136812 103.27366351 -38 108 C-37.99635437 106.82759766 -37.99270874 105.65519531 -37.98895264 104.44726562 C-37.95196561 93.38305143 -37.89415211 82.3191146 -37.81609726 71.25511169 C-37.77663635 65.56736113 -37.74444091 59.87976506 -37.72900391 54.19189453 C-37.71382844 48.69982784 -37.67936643 43.20818594 -37.63169098 37.71630859 C-37.61688648 35.62406106 -37.60895952 33.53175287 -37.60811615 31.43945312 C-37.605742 28.50214678 -37.57862556 25.56601012 -37.54589844 22.62890625 C-37.55344398 21.33956932 -37.55344398 21.33956932 -37.56114197 20.02418518 C-37.44362653 13.17958082 -35.54089877 8.00716679 -31.10546875 2.7578125 C-21.51505932 -5.40673158 -10.92083968 -6.21957369 0 0 Z " fill="#FDDEC5" transform="translate(495,173)"/>
<path d="M0 0 C1.92005859 -0.0309375 1.92005859 -0.0309375 3.87890625 -0.0625 C5.72935547 -0.07023437 5.72935547 -0.07023437 7.6171875 -0.078125 C8.74495605 -0.0874707 9.87272461 -0.09681641 11.03466797 -0.10644531 C14.772891 0.32472909 17.44515886 1.57015886 20.125 4.25 C20.58809656 7.96852784 20.96241524 11.68887255 21.33203125 15.41796875 C22.63815771 21.72984095 25.86784296 25.65974641 31.125 29.25 C35.58563291 31.7281294 40.14835757 32.02047545 45.125 31.25 C50.14726077 29.44407562 54.13505555 27.26244319 57.875 23.4375 C60.125 21.25 60.125 21.25 62.97265625 20.875 C66.84482362 21.33562958 68.03727182 22.37208355 70.8125 25.0625 C72.08673828 26.28839844 72.08673828 26.28839844 73.38671875 27.5390625 C74.74216797 28.88097656 74.74216797 28.88097656 76.125 30.25 C77.12968802 31.19724914 78.13623183 32.14253344 79.14453125 33.0859375 C80.13922864 34.03519432 81.13274447 34.98569101 82.125 35.9375 C83.48625 37.24267578 83.48625 37.24267578 84.875 38.57421875 C87.29712223 41.45469397 88.32265061 43.58928089 89.125 47.25 C87.55324854 51.86701992 84.68824152 55.11067149 81.4296875 58.63671875 C78.28336482 62.52723152 78.73707549 67.41056094 78.77734375 72.16796875 C79.43813245 78.02597195 82.44150911 81.52100935 86.4375 85.625 C91.92171267 88.94103557 97.87345444 89.46451697 104.14453125 89.80859375 C106.79844202 90.40009654 107.52150951 91.03517702 109.125 93.25 C109.4231684 95.80187144 109.54566726 98.10502507 109.5234375 100.65625 C109.52774277 101.73791443 109.52774277 101.73791443 109.53213501 102.84143066 C109.53417452 104.36450995 109.52865247 105.8876155 109.51611328 107.41064453 C109.50005643 109.74180678 109.5159641 112.07123542 109.53515625 114.40234375 C109.5331738 115.88281633 109.52933007 117.36328782 109.5234375 118.84375 C109.52951019 119.5406897 109.53558289 120.23762939 109.5418396 120.95568848 C109.47174742 125.77928464 109.47174742 125.77928464 107.72509766 128.15039062 C104.54571407 130.33530726 102.3244785 130.36444886 98.5 130.5 C92.58195994 130.96123813 88.55198927 132.2497085 84.125 136.25 C79.05673666 142.74777351 78.50206934 148.23265175 79.125 156.25 C80.7282464 160.88160072 83.5043609 164.02514364 86.8203125 167.5390625 C88.34654103 169.54052387 88.89175804 170.74031651 89.125 173.25 C87.84570288 177.41226906 85.92000243 179.82032495 82.84375 182.859375 C82.00199219 183.69597656 81.16023437 184.53257812 80.29296875 185.39453125 C79.41253906 186.25433594 78.53210938 187.11414063 77.625 188 C76.74457031 188.87527344 75.86414063 189.75054687 74.95703125 190.65234375 C67.40581144 198.11105244 67.40581144 198.11105244 63.31640625 198.5546875 C59.36467898 198.17741121 57.99718547 196.98877692 55.0625 194.375 C50.07954777 189.98244496 46.13205733 187.73111925 39.30859375 187.9375 C33.84661865 188.71917801 28.88810914 190.98902508 25.1875 195.125 C21.38637248 200.88428413 20.87230669 205.90559186 20.6640625 212.6640625 C19.94974836 216.09069989 18.88675025 217.11361479 16.125 219.25 C12.796875 219.76757812 12.796875 219.76757812 8.875 219.78125 C8.17987305 219.7850769 7.48474609 219.78890381 6.76855469 219.79284668 C5.30271959 219.7955618 3.83683572 219.78822835 2.37109375 219.77148438 C0.13171025 219.75006419 -2.10446587 219.77129443 -4.34375 219.796875 C-5.77084039 219.79423165 -7.19792879 219.7891065 -8.625 219.78125 C-9.91921875 219.77673828 -11.2134375 219.77222656 -12.546875 219.76757812 C-15.875 219.25 -15.875 219.25 -18.28515625 217.43310547 C-20.54598289 214.32863499 -20.57181136 211.67243771 -20.875 207.875 C-21.43318105 200.91169146 -23.1496142 196.83194444 -28.25 192 C-33.39413794 188.57057471 -38.72836285 187.32395297 -44.875 188.25 C-49.48753952 189.80221215 -52.95474974 192.21187778 -56.5 195.5 C-58.77446472 197.50748467 -59.81017654 198.23207011 -62.8125 199.0625 C-67.67756344 197.77176888 -70.34763783 194.73872127 -73.875 191.25 C-75.07090653 190.11383758 -76.26758444 188.9784868 -77.46484375 187.84375 C-78.74893075 186.60575676 -80.03147182 185.36615812 -81.3125 184.125 C-81.94027344 183.5273584 -82.56804687 182.9297168 -83.21484375 182.31396484 C-88.82716001 176.77087946 -88.82716001 176.77087946 -88.875 172.25 C-86.98852289 168.14413806 -83.95502453 164.66575276 -81.1796875 161.1171875 C-77.74079189 156.19565426 -78.24961421 149.98027908 -78.875 144.25 C-80.79300666 138.76485947 -84.49062937 134.99642608 -89.48828125 132.140625 C-93.30591541 130.71604138 -97.09415766 130.58787047 -101.140625 130.48828125 C-103.9269735 130.24547088 -105.54341981 129.76338806 -107.875 128.25 C-109.36510906 125.26978188 -109.05833533 122.21075809 -109.078125 118.94140625 C-109.08382507 118.21888168 -109.08952515 117.49635712 -109.09539795 116.75193787 C-109.10484718 115.22290512 -109.11138163 113.69385201 -109.11523438 112.16479492 C-109.12494812 109.82499759 -109.15597377 107.48607577 -109.1875 105.14648438 C-109.19402937 103.66146355 -109.1992801 102.17643645 -109.203125 100.69140625 C-109.2216452 99.64129112 -109.2216452 99.64129112 -109.24053955 98.56996155 C-109.22736572 95.69910501 -109.20455409 93.72941218 -107.55102539 91.32397461 C-104.87756855 89.6108593 -102.18940032 89.5696831 -99.0625 89.25 C-93.36883467 88.66415662 -88.61653901 87.74533284 -84.265625 83.78515625 C-78.92156949 76.88546814 -77.94713041 71.96739212 -78.875 63.25 C-80.23429673 59.24558531 -82.84839177 56.24210935 -85.5625 53.0625 C-88.875 49.03378378 -88.875 49.03378378 -88.875 46.25 C-86.53801789 40.03061212 -82.03434771 36.03489101 -77.375 31.5 C-76.60285156 30.73300781 -75.83070313 29.96601562 -75.03515625 29.17578125 C-67.30049468 21.54835935 -67.30049468 21.54835935 -63.1875 20.6875 C-58.81613056 21.42980802 -57.04545818 23.52588761 -53.875 26.4921875 C-49.21146467 30.59099785 -44.19875678 31.83487463 -38.14453125 31.59765625 C-32.83125069 30.7837458 -28.58237555 28.35541727 -25 24.375 C-21.09860319 18.63765175 -20.60726721 13.52190955 -20.31640625 6.73828125 C-19.80550784 3.85826104 -19.1938011 2.97676678 -16.875 1.25 C-11.47062705 -0.55145765 -5.65531834 0.02264392 0 0 Z " fill="#FED54F" transform="translate(255.875,60.75)"/>
<path d="M0 0 C11.00985363 8.20704028 19.24775241 20.53066267 22.16015625 34.06640625 C24.0027479 48.80713943 21.18404291 63.87798495 12.25 75.97265625 C2.68055448 87.38556639 -9.04377996 95.71432069 -24.11132812 97.60498047 C-26.68669 97.75661857 -29.23281228 97.80442563 -31.8125 97.78515625 C-32.72563965 97.77871094 -33.6387793 97.77226562 -34.57958984 97.765625 C-50.00891548 97.35250936 -61.76523789 90.55162591 -72.375 79.53515625 C-81.56890254 68.79523075 -86.25624413 55.69645755 -85.83984375 41.60546875 C-84.54194554 26.0672507 -77.99795852 12.3856946 -66.1328125 2.19921875 C-59.47117355 -2.99492872 -52.58531753 -6.15062361 -44.5625 -8.71484375 C-43.93214844 -8.91722656 -43.30179688 -9.11960937 -42.65234375 -9.328125 C-27.66236202 -12.10197209 -12.52661053 -8.38289942 0 0 Z " fill="#F0EFEF" transform="translate(287.5625,126.71484375)"/>
<path d="M0 0 C3.83565582 3.12603848 4.45549874 7.08331403 5.6875 11.6875 C6.02491211 12.85442383 6.02491211 12.85442383 6.36914062 14.04492188 C7.77656579 19.17410964 8.40472958 23.67985901 8 29 C5.85836911 31.14163089 4.98706626 31.45221758 2.14720154 32.20497131 C0.93986862 32.53035889 0.93986862 32.53035889 -0.29185486 32.86231995 C-1.17724442 33.09345993 -2.06263397 33.32459991 -2.97485352 33.56274414 C-3.90724854 33.81192596 -4.83964355 34.06110779 -5.80029297 34.31784058 C-8.90815733 35.14671584 -12.0185002 35.96587519 -15.12890625 36.78515625 C-17.31160337 37.36545827 -19.49413146 37.94639638 -21.67649841 38.52793884 C-27.46061756 40.06756158 -33.246835 41.59914638 -39.03356934 43.12890625 C-45.91968196 44.95065689 -52.80355666 46.78083977 -59.6874752 48.61086082 C-65.25530339 50.09087476 -70.82371869 51.56857132 -76.39370728 53.04043579 C-86.07861784 55.60278736 -95.75379848 58.18744349 -105.39404297 60.91357422 C-106.9431868 61.34876664 -108.49233518 61.78394286 -110.04148865 62.21910095 C-112.80601495 62.99653921 -115.56468872 63.79120339 -118.32093811 64.59742737 C-129.0513001 67.62506692 -129.0513001 67.62506692 -135 66 C-137.09594357 60.86493825 -138.75891303 55.65295938 -140.25 50.3125 C-140.60578125 49.05050781 -140.9615625 47.78851563 -141.328125 46.48828125 C-141.97590807 43.12508192 -142.08798324 41.21186543 -141 38 C-138.13608187 35.13608187 -134.78258395 34.95428267 -130.9375 34.1875 C-124.8293021 32.90316239 -118.84214117 31.45623235 -112.875 29.625 C-106.05123225 27.54065499 -99.17990298 25.75949561 -92.25 24.0625 C-83.65667487 21.95517646 -75.14657715 19.657797 -66.65332031 17.17993164 C-60.79874852 15.4831715 -54.92122088 13.94587276 -49 12.5 C-35.05282083 9.08673132 -21.22792952 5.17213799 -7.59375 0.6640625 C-4.87341376 -0.03240913 -2.79013402 -0.34411653 0 0 Z " fill="#43A2FE" transform="translate(207,439)"/>
<path d="M0 0 C0.72832031 0.10054688 1.45664062 0.20109375 2.20703125 0.3046875 C2.92246094 0.38976562 3.63789063 0.47484375 4.375 0.5625 C7.27339648 1.23893522 9.94329417 2.2964849 12.71459961 3.36816406 C17.11741571 4.91831349 21.67127366 5.90960738 26.20703125 6.9921875 C34.11153754 8.91986475 41.95974238 10.96055182 49.76953125 13.2421875 C57.3075739 15.44181771 64.87307873 17.42345484 72.50097656 19.28540039 C79.43169416 20.99358962 86.27861252 22.94432219 93.13110352 24.94042969 C100.19526628 26.98272901 107.30139094 28.80591225 114.44921875 30.53125 C117.77540631 31.3392756 121.01311633 32.17753889 124.26171875 33.265625 C127.71879754 34.41145565 131.15437121 34.9026905 134.75 35.421875 C137.70013626 36.40694631 138.59053032 37.43677297 140.01953125 40.1796875 C140.01316281 43.93706631 138.92508682 47.54427752 138.01953125 51.1796875 C137.55933594 53.04173828 137.55933594 53.04173828 137.08984375 54.94140625 C134.45141327 64.89176615 134.45141327 64.89176615 131.01953125 67.1796875 C124.62958938 66.8038232 118.61511945 65.16296787 112.45458984 63.49926758 C110.9111364 63.08922485 110.9111364 63.08922485 109.33650208 62.67089844 C105.94562761 61.76870152 102.55680877 60.85902486 99.16796875 59.94921875 C96.78841766 59.31439176 94.40874638 58.68001513 92.02896118 58.04606628 C85.75947829 56.37456677 79.49173264 54.69663992 73.2243042 53.01745605 C66.92016853 51.32977583 60.61427065 49.64870735 54.30859375 47.96679688 C30.35333601 41.57337735 30.35333601 41.57337735 20.15447998 38.82705688 C15.97286153 37.70118033 11.78765209 36.59003898 7.59991455 35.4871521 C5.57910457 34.94950278 3.55833067 34.41171784 1.53759766 33.8737793 C0.60387014 33.63087316 -0.32985737 33.38796701 -1.29187965 33.13770008 C-2.14482298 32.90914672 -2.9977663 32.68059336 -3.8765564 32.44511414 C-4.62411886 32.24810252 -5.37168133 32.05109091 -6.1418972 31.84810925 C-7.98046875 31.1796875 -7.98046875 31.1796875 -9.98046875 29.1796875 C-10.5083573 23.27345623 -9.19058759 18.07515677 -7.66796875 12.4296875 C-7.34795898 11.15544922 -7.34795898 11.15544922 -7.02148438 9.85546875 C-6.69760742 8.63150391 -6.69760742 8.63150391 -6.3671875 7.3828125 C-6.17342529 6.64708008 -5.97966309 5.91134766 -5.7800293 5.15332031 C-4.59816819 2.23601797 -3.23717453 0.29370814 0 0 Z " fill="#43A2FE" transform="translate(306.98046875,438.8203125)"/>
<path d="M0 0 C4.28447619 3.36831137 5.69636739 8.85949884 7.6875 13.75 C8.10322266 14.72710937 8.51894531 15.70421875 8.94726562 16.7109375 C13.00914661 26.60885437 13.00914661 26.60885437 12 32 C8.19361356 37.50537438 2.1261658 39.46502061 -3.875 41.875 C-5.32712891 42.49761719 -5.32712891 42.49761719 -6.80859375 43.1328125 C-12.37612429 45.40527395 -16.13929396 46.65101332 -22 45 C-23.9375 43.9375 -23.9375 43.9375 -25 42 C-25.70533643 36.53364269 -25.70533643 36.53364269 -25 34 C-22.46875 31.2421875 -22.46875 31.2421875 -20 29 C-34.37001558 25.6169011 -34.37001558 25.6169011 -49 24 C-50.27359375 23.9484375 -51.5471875 23.896875 -52.859375 23.84375 C-77.4470402 23.17526163 -101.21398647 28.61020427 -123 40 C-124.16917969 40.60585938 -125.33835938 41.21171875 -126.54296875 41.8359375 C-143.78549283 51.06678372 -158.70240078 64.45014602 -170.4140625 80.07421875 C-172 82 -172 82 -175 84 C-177.80078401 84.22022294 -180.32539309 83.85075854 -183 83 C-185.0625 80.875 -185.0625 80.875 -186 78 C-185.79101568 71.9754864 -183.71127121 68.67951518 -179.75 64.375 C-178.94199951 63.47213257 -178.94199951 63.47213257 -178.11767578 62.55102539 C-176.42956658 60.68345998 -174.71753412 58.84049732 -173 57 C-172.48856445 56.43941895 -171.97712891 55.87883789 -171.45019531 55.30126953 C-144.37095249 25.77066112 -105.43176905 8.95268799 -65.67871094 6.87890625 C-47.08963504 6.12417316 -28.77848158 8.54460923 -11 14 C-11.33386719 13.23945313 -11.66773438 12.47890625 -12.01171875 11.6953125 C-13.24734111 8.32543333 -12.9689413 6.42856154 -12 3 C-8.42421759 -1.50859521 -5.44862731 -1.14707943 0 0 Z " fill="#C8C9CD" transform="translate(314,7)"/>
<path d="M0 0 C21.74124268 11.91614882 37.85473923 35.54362401 49 57 C49.31952637 57.60247559 49.63905273 58.20495117 49.96826172 58.82568359 C55.67811362 69.70514527 59.08276103 81.09600592 62 93 C62.18079102 93.70866211 62.36158203 94.41732422 62.54785156 95.14746094 C68.72870397 120.3255257 66.30954224 149.40437813 59 174 C59.99 173.67 60.98 173.34 62 173 C65.81546222 172.6531398 68.13278796 172.46633105 71.4375 174.5 C73.31357498 177.50171997 73.51362658 179.52804752 73.62890625 183 C72.60800952 186.24657841 70.84770275 187.14280255 68 189 C64.43997571 190.7713579 60.80286087 192.30394544 57.125 193.8125 C55.67287109 194.44188477 55.67287109 194.44188477 54.19140625 195.08398438 C44.54985015 199.06522557 44.54985015 199.06522557 39 197 C34.94292796 192.44673929 32.98103582 186.61890502 30.75 181 C30.38648438 180.1234375 30.02296875 179.246875 29.6484375 178.34375 C27.83152734 173.80830509 26.30199244 169.96951031 27 165 C29 162.0625 29 162.0625 32 160 C34.88020861 159.67499592 37.28198798 159.99986571 40 161 C42 163.0625 42 163.0625 43 165 C53.89931671 135.77001428 49.36642512 99.40554965 37.03125 71.3828125 C36.36071682 69.91885708 35.68406638 68.45768083 35 67 C34.70867187 66.37706055 34.41734375 65.75412109 34.1171875 65.11230469 C27.37663948 51.04062325 17.76818354 39.15157088 7 28 C6.37351562 27.33355469 5.74703125 26.66710937 5.1015625 25.98046875 C1.0637656 21.78153911 -3.37618587 18.18902677 -7.9609375 14.6015625 C-10 13 -10 13 -11 12 C-11.57971014 4.92753623 -11.57971014 4.92753623 -9.4375 1.5 C-6.0674064 -0.57390375 -3.91670245 -0.36204813 0 0 Z " fill="#C8C9CD" transform="translate(347,43)"/>
<path d="M0 0 C1.56640625 1.85546875 1.56640625 1.85546875 2.5625 4.1875 C2.94921875 5.07308594 3.3359375 5.95867187 3.734375 6.87109375 C4.15203125 7.90363281 4.5696875 8.93617187 5 10 C5.54528924 11.26240489 6.09225183 12.52408792 6.640625 13.78515625 C7.20033083 15.10575024 7.75763586 16.42736442 8.3125 17.75 C8.5794165 18.37543701 8.84633301 19.00087402 9.12133789 19.64526367 C10.7049626 23.57071447 11.46600813 26.77566656 11 31 C8.54405875 34.32274404 7.0743356 35.77618008 3 36.625 C-0.92660732 35.80695681 -2.44578533 34.00495843 -5 31 C-9.54175889 43.18017156 -10.36764666 55.32650103 -10.3125 68.25 C-10.30976578 69.26963837 -10.30976578 69.26963837 -10.30697632 70.30987549 C-10.25941777 80.86477402 -9.63130405 90.75288909 -7 101 C-6.8443457 101.65967773 -6.68869141 102.31935547 -6.52832031 102.99902344 C-2.44237292 120.16652696 5.35431067 136.91817728 16 151 C16.66128906 151.88171875 17.32257813 152.7634375 18.00390625 153.671875 C26.15751731 164.06284895 35.66794146 174.0502057 46.42578125 181.765625 C48 183 48 183 49 185 C49.35173852 188.79877599 49.52701444 191.14360153 47.5 194.4375 C44.06299162 196.58563024 40.90897098 196.62175567 37 196 C33.9375 194.15625 33.9375 194.15625 31 191.5 C30.45802979 191.01225098 29.91605957 190.52450195 29.35766602 190.02197266 C27.54818569 188.37169389 25.77395327 186.68836576 24 185 C23.03102783 184.10039551 23.03102783 184.10039551 22.04248047 183.18261719 C11.87704933 173.70933196 3.45796791 163.72007554 -4 152 C-4.38091797 151.41041504 -4.76183594 150.82083008 -5.15429688 150.21337891 C-20.54942232 126.06975768 -27.43729312 97.44201526 -27.375 69.0625 C-27.37578552 68.29941528 -27.37657104 67.53633057 -27.37738037 66.75012207 C-27.35842459 51.32011266 -25.39539923 36.80972355 -21 22 C-21.99 22.33 -22.98 22.66 -24 23 C-30.23121387 23.56647399 -30.23121387 23.56647399 -33.375 21.25 C-35.02009172 18.9721807 -35.83099388 17.78860101 -36 15 C-34.90562102 10.92095108 -33.45544274 9.30224847 -30 7 C-26.31119822 5.19871402 -22.49740098 3.71288821 -18.6875 2.1875 C-17.66720703 1.75501953 -16.64691406 1.32253906 -15.59570312 0.87695312 C-5.82890304 -3.03102958 -5.82890304 -3.03102958 0 0 Z " fill="#C8C9CD" transform="translate(127,102)"/>
<path d="M0 0 C2.4375 2.125 2.4375 2.125 4 5 C3.25442395 18.70590859 -13.39612309 31.24358774 -23 40 C-54.57406622 66.9722726 -96.04690653 78.32353437 -137 76 C-161.33115824 73.83442088 -161.33115824 73.83442088 -171 69 C-170.649375 69.680625 -170.29875 70.36125 -169.9375 71.0625 C-168.73890496 74.8180978 -169.01508338 77.20103588 -170 81 C-172.36493426 83.81972931 -173.8280665 83.97850831 -177.5 84.4375 C-181.65700799 83.917874 -182.36089519 83.1231634 -185 80 C-186.88230927 76.52648612 -188.27690815 72.85103625 -189.75 69.1875 C-190.36681641 67.72860352 -190.36681641 67.72860352 -190.99609375 66.24023438 C-194.94026757 56.56324978 -194.94026757 56.56324978 -194 51 C-190.94535261 46.20359092 -184.85559632 44.40181455 -179.8125 42.25 C-178.90435547 41.83878906 -177.99621094 41.42757812 -177.06054688 41.00390625 C-171.55992104 38.63355782 -166.03568936 36.58094341 -160 38 C-157.88437044 39.70830577 -157.10038767 40.45672554 -156.6015625 43.15625 C-156.60929687 43.9296875 -156.61703125 44.703125 -156.625 45.5 C-156.61339844 46.66015625 -156.61339844 46.66015625 -156.6015625 47.84375 C-157.09315776 50.50414788 -157.83356136 51.41331254 -160 53 C-160.99 53 -161.98 53 -163 53 C-163 53.66 -163 54.32 -163 55 C-161.8553125 55.13277344 -160.710625 55.26554687 -159.53125 55.40234375 C-156.63323351 55.76268922 -153.77434383 56.20514979 -150.90625 56.75390625 C-114.48372554 63.57898312 -76.3683957 56.5498991 -45.5625 35.625 C-38.4823557 30.64641958 -32.17763912 25.05461359 -26 19 C-25.10410156 18.14277344 -24.20820313 17.28554688 -23.28515625 16.40234375 C-18.54537553 11.79085784 -14.32231411 7.09679786 -10.47265625 1.71484375 C-7.44395296 -1.81194868 -4.11308466 -1.17516705 0 0 Z " fill="#C8C9CD" transform="translate(380,251)"/>
<path d="M0 0 C7.14685759 -0.66174607 12.01905481 1.0427582 18 5 C23.7429726 9.85202926 26.54789277 16.00792053 27.22192383 23.45043945 C27.35581862 30.76384189 25.9540438 36.97665941 23.8125 43.9375 C23.16274889 46.13724991 22.51564652 48.3377838 21.87109375 50.5390625 C21.55124512 51.62477539 21.23139648 52.71048828 20.90185547 53.82910156 C19.58531141 58.45803339 18.48196193 63.13003299 17.375 67.8125 C14.31520405 80.39386518 9.78946506 94.84211179 -1 103 C-4.99048721 103.63007693 -7.01685857 103.63021887 -10.4375 101.4375 C-12.68144979 97.93693832 -12.68412591 96.10475544 -12 92 C-10.71038832 89.96158153 -9.30400921 88.18582856 -7.703125 86.3828125 C-2.68393643 79.36055326 -0.73232814 70.99577306 1.375 62.75 C3.33924362 55.20333851 5.36091426 47.69736581 7.63232422 40.23706055 C10.87348934 29.47084956 13.26007757 21.25265364 8.3125 10.625 C5.99338282 6.38338425 3.72729697 3.06953868 0 0 Z " fill="#FECBAA" transform="translate(434,270)"/>
<path d="M0 0 C-0.886875 0.94875 -1.77375 1.8975 -2.6875 2.875 C-8.18641139 9.36658898 -11.49751027 15.46169142 -11.29833984 24.06665039 C-10.69750003 29.97425295 -8.98909995 35.61467269 -7.375 41.3125 C-7.00651225 42.64192393 -6.63892739 43.97159843 -6.2722168 45.30151367 C-5.53772223 47.9569661 -4.79555412 50.61009439 -4.04736328 53.26171875 C-3.11035257 56.60612623 -2.20244341 59.95635776 -1.30859375 63.3125 C-0.81069345 65.14605011 -0.31205319 66.97939953 0.1875 68.8125 C0.40035645 69.62178955 0.61321289 70.4310791 0.83251953 71.26489258 C2.73845135 78.08071732 5.60849005 84.28531303 10.3125 89.625 C12.66158249 92.93111609 12.57634356 95.03763805 12 99 C10.4375 101.4375 10.4375 101.4375 8 103 C4.54146865 103.71780839 2.31712047 103.80896312 -0.76171875 101.91796875 C-13.23102238 90.84971047 -16.55723391 71.23530125 -20.5625 55.875 C-21.16293566 53.58207573 -21.76422168 51.28937755 -22.36619568 48.99685669 C-22.73791583 47.58020425 -23.10864186 46.16329042 -23.47816467 44.74606323 C-24.31554643 41.54539417 -25.18549473 38.36084657 -26.10766602 35.18334961 C-28.52795099 26.54912368 -27.17481903 18.8260634 -23 11 C-17.73325029 2.79006662 -9.54770961 -0.88404719 0 0 Z " fill="#FECBAA" transform="translate(78,270)"/>
</svg>
