<?xml version="1.0" encoding="UTF-8"?>
<svg version="1.1" xmlns="http://www.w3.org/2000/svg" width="512" height="512">
<path d="M0 0 C7.25639062 5.1868318 12.06050047 11.81561282 15.1875 20.1875 C15.5443973 22.51734546 15.88016618 24.85060003 16.1875 27.1875 C17.34797852 27.16655273 18.50845703 27.14560547 19.70410156 27.12402344 C24.01273238 27.05158193 28.32130945 27.00568529 32.63037109 26.96777344 C34.49472101 26.94766739 36.35900794 26.9203782 38.22314453 26.88574219 C40.90412948 26.83717879 43.58428023 26.81452162 46.265625 26.796875 C47.09805725 26.77622986 47.9304895 26.75558472 48.78814697 26.73431396 C49.95890778 26.73386078 49.95890778 26.73386078 51.15332031 26.73339844 C51.83726868 26.72451599 52.52121704 26.71563354 53.22589111 26.70648193 C56.26844256 27.45256451 57.36831904 28.65394438 59.1875 31.1875 C59.4786521 33.92432971 59.57072418 36.22690039 59.4375 38.9375 C59.41945313 39.63488281 59.40140625 40.33226562 59.3828125 41.05078125 C59.33588554 42.76361539 59.26414605 44.47573824 59.1875 46.1875 C60.03195175 46.18083817 60.8764035 46.17417633 61.7464447 46.16731262 C69.73447658 46.10701001 77.72243115 46.06142869 85.710639 46.03206348 C89.81671356 46.01645862 93.92259881 45.99531602 98.02856445 45.96118164 C101.99674381 45.92840206 105.96474196 45.91060811 109.93304634 45.90286827 C111.44119681 45.89735793 112.94933823 45.88659815 114.45741081 45.87030983 C134.00457022 45.66772928 134.00457022 45.66772928 141.5 52.3125 C142.11488281 52.83070312 142.72976563 53.34890625 143.36328125 53.8828125 C149.40833933 61.52003791 149.7666821 69.26927729 149.70507812 78.72192383 C149.71050831 80.06650548 149.71763597 81.41108117 149.72631836 82.75564575 C149.74443985 86.38144933 149.73753343 90.00679399 149.72480202 93.63260484 C149.71462639 97.43572047 149.72407933 101.23879861 149.73034668 105.04191589 C149.73760545 111.42116307 149.72807748 117.80022444 149.70898438 124.17944336 C149.68717216 131.55225755 149.69430533 138.92462999 149.71629 146.29743367 C149.73443902 152.63821563 149.73700622 158.97886465 149.72653532 165.31966418 C149.72030358 169.10245842 149.71945674 172.88504485 149.73268127 176.6678257 C149.74423375 180.21966532 149.73622612 183.77093402 149.71310425 187.32271194 C149.70529346 189.24699875 149.71717496 191.17133386 149.72961426 193.09559631 C149.71833496 194.24082764 149.70705566 195.38605896 149.69543457 196.56599426 C149.69317242 198.05835712 149.69317242 198.05835712 149.69086456 199.58086872 C149.04500661 202.92539009 147.86486045 204.13993525 145.1875 206.1875 C144.1975 206.1875 143.2075 206.1875 142.1875 206.1875 C142.1875 210.1475 142.1875 214.1075 142.1875 218.1875 C143.734375 218.331875 145.28125 218.47625 146.875 218.625 C149.64871339 218.88387992 152.08750475 219.15645125 154.75390625 219.984375 C157.32815591 220.48153271 157.32815591 220.48153271 159.328125 218.45703125 C160.02421875 217.64621094 160.7203125 216.83539063 161.4375 216 C167.57120039 209.4810424 173.70599407 206.70002513 182.6484375 206.16015625 C192.76023261 206.2690525 199.97826879 210.05386681 207.25 216.9375 C209.1875 219.1875 209.1875 219.1875 209.1875 221.1875 C209.74695313 220.9709375 210.30640625 220.754375 210.8828125 220.53125 C219.54389765 217.52354197 229.3461032 216.25741959 238.0625 219.75 C246.03732975 223.98940763 251.7518636 229.80009617 255.1875 238.1875 C256.05851772 241.19273914 256.64789578 244.09703948 257.1875 247.1875 C258.156875 247.435 259.12625 247.6825 260.125 247.9375 C269.63899928 250.71881027 278.29100489 254.95769081 283.5625 263.75 C288.79815307 274.82541996 287.98639427 284.70036732 284.1875 296.1875 C284.77402344 296.44144531 285.36054688 296.69539063 285.96484375 296.95703125 C288.43181831 298.3227553 289.89336574 299.760846 291.75 301.875 C292.61818359 302.83986328 292.61818359 302.83986328 293.50390625 303.82421875 C297.37736496 309.26144037 298.72590646 314.46464779 298.625 321.0625 C298.61670166 321.76503906 298.60840332 322.46757812 298.59985352 323.19140625 C298.2796851 333.05396078 294.17308624 339.44279604 287.1875 346.1875 C286.5275 346.5175 285.8675 346.8475 285.1875 347.1875 C285.74748969 351.6669348 285.74748969 351.6669348 286.703125 356.0703125 C288.63008415 364.49298878 287.43820631 372.72989987 283.1875 380.1875 C279.10809218 386.20092759 274.01716337 390.56167748 267.1875 393.1875 C265.8675 393.1875 264.5475 393.1875 263.1875 393.1875 C267.12092528 401.28746227 271.35555511 409.12531442 275.9375 416.875 C276.54223145 417.90939209 277.14696289 418.94378418 277.77001953 420.00952148 C280.57214534 424.7949124 283.40101683 429.55852089 286.3203125 434.2734375 C286.78727539 435.03696533 287.25423828 435.80049316 287.73535156 436.5871582 C288.59121396 437.9819494 289.45951556 439.36922011 290.34277344 440.74682617 C292.97479859 445.05657169 293.73536495 448.16437865 293.1875 453.1875 C291.75 455.625 291.75 455.625 289.1875 457.1875 C280.77861695 457.8377632 272.80396723 455.91549166 264.625 454.1875 C263.22087007 453.89762766 261.81657404 453.60855865 260.41210938 453.3203125 C257.00194185 452.61862496 253.59414945 451.90609758 250.1875 451.1875 C247.96062081 456.58694025 245.86577724 462.01506086 243.93359375 467.52734375 C243.55396484 468.60951172 243.17433594 469.69167969 242.78320312 470.80664062 C242.00213417 473.04447562 241.22620245 475.28410942 240.45507812 477.52539062 C240.07673828 478.59853516 239.69839844 479.67167969 239.30859375 480.77734375 C238.80477173 482.22935181 238.80477173 482.22935181 238.29077148 483.71069336 C237.17885743 486.20690228 236.37502638 487.56994191 234.1875 489.1875 C228.61357683 489.89529977 228.61357683 489.89529977 226.1875 489.1875 C221.89015454 484.89015454 219.23165624 479.15249807 216.3125 473.875 C210.84626296 464.07819266 205.23851029 454.37492448 199.50634766 444.73120117 C198.6582251 443.29224487 198.6582251 443.29224487 197.79296875 441.82421875 C197.28918701 440.97561279 196.78540527 440.12700684 196.26635742 439.25268555 C195.1875 437.1875 195.1875 437.1875 195.1875 435.1875 C194.6821875 435.34992188 194.176875 435.51234375 193.65625 435.6796875 C190.30752792 436.36850691 187.10408646 436.31922556 183.6875 436.3125 C182.3778125 436.31507813 181.068125 436.31765625 179.71875 436.3203125 C176.96514076 436.21674755 174.78397153 436.02208014 172.1875 435.1875 C171.91744141 435.90196289 171.64738281 436.61642578 171.36914062 437.35253906 C170.175565 440.21613414 168.79923477 442.84218893 167.28125 445.546875 C166.70689209 446.57248535 166.13253418 447.5980957 165.54077148 448.65478516 C164.92919189 449.73808105 164.3176123 450.82137695 163.6875 451.9375 C163.06109619 453.05044434 162.43469238 454.16338867 161.78930664 455.31005859 C158.10769952 461.83391346 154.40374124 468.34435777 150.625 474.8125 C150.24472656 475.46702148 149.86445313 476.12154297 149.47265625 476.79589844 C148.40275848 478.61036159 147.30748963 480.40355704 146.1875 482.1875 C145.77717529 482.84306885 145.36685059 483.4986377 144.9440918 484.17407227 C141.72853605 489.02592455 141.72853605 489.02592455 139.24755859 489.7668457 C135.71117785 489.94704086 133.54734132 489.44838496 130.6875 487.375 C129.1875 485.1875 129.1875 485.1875 129.1875 482.1875 C123.5775 482.1875 117.9675 482.1875 112.1875 482.1875 C111.5275 484.1675 110.8675 486.1475 110.1875 488.1875 C107.74295183 489.40977408 106.16831068 489.31613884 103.43471336 489.32172108 C102.42548014 489.32617892 101.41624692 489.33063676 100.37643087 489.33522969 C99.2593385 489.33504533 98.14224614 489.33486097 96.99130249 489.33467102 C95.81100798 489.33834771 94.63071347 489.3420244 93.41465247 489.3458125 C90.12814568 489.3549512 86.84168887 489.35955163 83.55517411 489.36220181 C80.0144563 489.36610065 76.473753 489.3756794 72.93304443 489.38441467 C64.37611173 489.40419284 55.81917781 489.41424782 47.26222795 489.42314246 C43.23364175 489.42752388 39.20505687 489.43289113 35.17647171 489.43813133 C21.78559072 489.45514633 8.39471056 489.46964013 -4.99617958 489.47688007 C-8.47255072 489.47879001 -11.94892185 489.48071033 -15.42529297 489.48266602 C-16.72136616 489.48339163 -16.72136616 489.48339163 -18.04362266 489.4841319 C-32.03816171 489.49243075 -46.03261525 489.51776399 -60.02711697 489.55024669 C-74.39193828 489.58331728 -88.75671613 489.6013289 -103.12157571 489.60452431 C-111.1880952 489.60668961 -119.25449004 489.61544085 -127.32097244 489.64098549 C-134.19160807 489.66269265 -141.0620888 489.67074294 -147.93275483 489.66101871 C-151.4375921 489.65647375 -154.94210979 489.65837103 -158.44690323 489.67778015 C-162.24967296 489.6954264 -166.05163085 489.68842735 -169.85440063 489.67524719 C-171.50996269 489.69170106 -171.50996269 489.69170106 -173.19897044 489.70848733 C-180.67961813 489.64585497 -186.01235668 488.46677425 -191.8359375 483.44140625 C-192.28195313 482.88324219 -192.72796875 482.32507813 -193.1875 481.75 C-193.64898437 481.19441406 -194.11046875 480.63882812 -194.5859375 480.06640625 C-197.56326181 475.50560053 -198.06363113 471.59037745 -198.06976891 466.1914854 C-198.07327498 465.49587974 -198.07678105 464.80027408 -198.08039337 464.08358946 C-198.08971453 461.74727178 -198.08478227 459.41120298 -198.07992554 457.07487488 C-198.08366144 455.38509093 -198.08826272 453.6953087 -198.09365618 452.00552922 C-198.10590902 447.35760585 -198.10562303 442.70975433 -198.10326743 438.06181848 C-198.10285984 433.0507886 -198.11389287 428.03978193 -198.12338257 423.02876282 C-198.14000602 413.20953339 -198.14549272 403.39032797 -198.14660732 393.57108565 C-198.14755715 385.59072001 -198.15166419 377.6103623 -198.15800858 369.62999916 C-198.17562459 347.01167454 -198.18484687 324.3933689 -198.18334763 301.77503737 C-198.18326772 300.55529799 -198.1831878 299.3355586 -198.18310547 298.07885742 C-198.18302371 296.85763136 -198.18294195 295.63640529 -198.18285771 294.37817238 C-198.18204469 274.58335807 -198.20118549 254.78861984 -198.2293822 234.99382754 C-198.25809593 214.67600223 -198.27192333 194.35821403 -198.27019465 174.0403679 C-198.26953023 162.63049344 -198.2750453 151.22069872 -198.29655075 139.81084251 C-198.31474265 130.09663647 -198.31912625 120.38254632 -198.3055319 110.66833063 C-198.29899223 105.71139641 -198.29892112 100.75468465 -198.3162384 95.79777145 C-198.33192995 91.25956204 -198.32914564 86.72175222 -198.31167014 82.18355278 C-198.3085916 80.54225002 -198.31226473 78.90091772 -198.32339029 77.25964978 C-198.38261323 67.90287144 -198.2509943 60.80738458 -192.2421875 53.19921875 C-183.12785164 45.43600303 -172.35843373 45.76910137 -160.9609375 45.89453125 C-159.4506574 45.90013835 -157.94037178 45.90440317 -156.43008423 45.90739441 C-152.48777752 45.91875565 -148.54581141 45.94814564 -144.6036377 45.98150635 C-140.56783656 46.01239726 -136.53197947 46.02594006 -132.49609375 46.04101562 C-124.60140758 46.07302545 -116.70699636 46.12411367 -108.8125 46.1875 C-108.85890625 45.23488281 -108.9053125 44.28226563 -108.953125 43.30078125 C-108.98921875 42.04652344 -109.0253125 40.79226562 -109.0625 39.5 C-109.10890625 38.25863281 -109.1553125 37.01726563 -109.203125 35.73828125 C-108.74681785 31.59044929 -107.84658237 30.0071481 -104.8125 27.1875 C-102.85089111 26.58622742 -102.85089111 26.58622742 -100.77832031 26.61987305 C-99.99781311 26.6202507 -99.21730591 26.62062836 -98.41314697 26.62101746 C-97.58071472 26.64682388 -96.74828247 26.67263031 -95.890625 26.69921875 C-95.03063904 26.70629349 -94.17065308 26.71336823 -93.28460693 26.72065735 C-90.5430125 26.74860389 -87.803475 26.8113402 -85.0625 26.875 C-83.20185245 26.90008266 -81.34117283 26.92289589 -79.48046875 26.94335938 C-74.92368894 26.99843113 -70.36844296 27.08470345 -65.8125 27.1875 C-65.68235504 26.57012466 -65.55221008 25.95274933 -65.41812134 25.31666565 C-65.24356415 24.50648483 -65.06900696 23.69630402 -64.88916016 22.86157227 C-64.7177652 22.05857193 -64.54637024 21.25557159 -64.36978149 20.42823792 C-62.37785489 12.41902621 -56.22083349 5.15874874 -49.8125 0.1875 C-33.71488688 -9.30967792 -16.07694237 -9.92831044 0 0 Z " fill="#F2F4F6" transform="translate(205.8125,14.8125)"/>
<path d="M0 0 C1.73301682 1.66689771 3.36446399 3.26977965 4.8203125 5.18359375 C4.8203125 5.84359375 4.8203125 6.50359375 4.8203125 7.18359375 C5.65949219 6.85875 5.65949219 6.85875 6.515625 6.52734375 C15.17671015 3.51963572 24.9789157 2.25351334 33.6953125 5.74609375 C41.67014225 9.98550138 47.3846761 15.79618992 50.8203125 24.18359375 C51.69133022 27.18883289 52.28070828 30.09313323 52.8203125 33.18359375 C53.7896875 33.43109375 54.7590625 33.67859375 55.7578125 33.93359375 C65.27181178 36.71490402 73.92381739 40.95378456 79.1953125 49.74609375 C84.43096557 60.82151371 83.61920677 70.69646107 79.8203125 82.18359375 C80.40683594 82.43753906 80.99335938 82.69148438 81.59765625 82.953125 C84.06463081 84.31884905 85.52617824 85.75693975 87.3828125 87.87109375 C88.25099609 88.83595703 88.25099609 88.83595703 89.13671875 89.8203125 C93.01017746 95.25753412 94.35871896 100.46074154 94.2578125 107.05859375 C94.24951416 107.76113281 94.24121582 108.46367187 94.23266602 109.1875 C93.9124976 119.05005453 89.80589874 125.43888979 82.8203125 132.18359375 C82.1603125 132.51359375 81.5003125 132.84359375 80.8203125 133.18359375 C81.38030219 137.66302855 81.38030219 137.66302855 82.3359375 142.06640625 C84.26289665 150.48908253 83.07101881 158.72599362 78.8203125 166.18359375 C74.74090468 172.19702134 69.64997587 176.55777123 62.8203125 179.18359375 C61.5003125 179.18359375 60.1803125 179.18359375 58.8203125 179.18359375 C62.75373778 187.28355602 66.98836761 195.12140817 71.5703125 202.87109375 C72.47740967 204.42268188 72.47740967 204.42268188 73.40283203 206.00561523 C76.20495784 210.79100615 79.03382933 215.55461464 81.953125 220.26953125 C82.42008789 221.03305908 82.88705078 221.79658691 83.36816406 222.58325195 C84.22402646 223.97804315 85.09232806 225.36531386 85.97558594 226.74291992 C88.60761109 231.05266544 89.36817745 234.1604724 88.8203125 239.18359375 C87.3828125 241.62109375 87.3828125 241.62109375 84.8203125 243.18359375 C76.41142945 243.83385695 68.43677973 241.91158541 60.2578125 240.18359375 C58.85368257 239.89372141 57.44938654 239.6046524 56.04492188 239.31640625 C52.63475435 238.61471871 49.22696195 237.90219133 45.8203125 237.18359375 C43.59343331 242.583034 41.49858974 248.01115461 39.56640625 253.5234375 C39.18677734 254.60560547 38.80714844 255.68777344 38.41601562 256.80273438 C37.63494667 259.04056937 36.85901495 261.28020317 36.08789062 263.52148438 C35.70955078 264.59462891 35.33121094 265.66777344 34.94140625 266.7734375 C34.43758423 268.22544556 34.43758423 268.22544556 33.92358398 269.70678711 C32.81166993 272.20299603 32.00783888 273.56603566 29.8203125 275.18359375 C24.24638933 275.89139352 24.24638933 275.89139352 21.8203125 275.18359375 C17.52296704 270.88624829 14.86446874 265.14859182 11.9453125 259.87109375 C6.47907546 250.07428641 0.87132279 240.37101823 -4.86083984 230.72729492 C-5.42625488 229.76799072 -5.99166992 228.80868652 -6.57421875 227.8203125 C-7.32989136 226.54740356 -7.32989136 226.54740356 -8.10083008 225.2487793 C-9.1796875 223.18359375 -9.1796875 223.18359375 -9.1796875 221.18359375 C-9.685 221.34601563 -10.1903125 221.5084375 -10.7109375 221.67578125 C-14.05965958 222.36460066 -17.26310104 222.31531931 -20.6796875 222.30859375 C-21.989375 222.31117188 -23.2990625 222.31375 -24.6484375 222.31640625 C-27.40204674 222.2128413 -29.58321597 222.01817389 -32.1796875 221.18359375 C-32.44974609 221.89805664 -32.71980469 222.61251953 -32.99804688 223.34863281 C-34.1916225 226.21222789 -35.56795273 228.83828268 -37.0859375 231.54296875 C-37.66029541 232.5685791 -38.23465332 233.59418945 -38.82641602 234.65087891 C-39.43799561 235.7341748 -40.0495752 236.8174707 -40.6796875 237.93359375 C-41.61929321 239.60301025 -41.61929321 239.60301025 -42.57788086 241.30615234 C-46.25948798 247.83000721 -49.96344626 254.34045152 -53.7421875 260.80859375 C-54.12246094 261.46311523 -54.50273437 262.11763672 -54.89453125 262.79199219 C-55.96442902 264.60645534 -57.05969787 266.39965079 -58.1796875 268.18359375 C-58.79517456 269.16694702 -58.79517456 269.16694702 -59.4230957 270.17016602 C-62.63865145 275.0220183 -62.63865145 275.0220183 -65.11962891 275.76293945 C-68.51032713 275.9357114 -70.68103706 275.58233408 -73.34375 273.453125 C-75.39802237 270.91369468 -75.88597274 269.36737816 -76.4921875 266.18359375 C-78.02879572 259.217061 -80.39849275 252.63951903 -82.84301758 245.95117188 C-83.14361084 245.11908203 -83.4442041 244.28699219 -83.75390625 243.4296875 C-84.02807373 242.68388428 -84.30224121 241.93808105 -84.5847168 241.16967773 C-85.1796875 239.18359375 -85.1796875 239.18359375 -85.1796875 236.18359375 C-86.17299072 236.39564453 -87.16629395 236.60769531 -88.18969727 236.82617188 C-91.89881978 237.61603161 -95.60986147 238.39653202 -99.3215332 239.17431641 C-100.92330339 239.51131011 -102.52455249 239.8507911 -104.12524414 240.19287109 C-106.43501177 240.68602409 -108.74654702 241.17000364 -111.05859375 241.65234375 C-111.76617325 241.80546021 -112.47375275 241.95857666 -113.20277405 242.11633301 C-117.59277899 243.02086012 -121.70128436 243.51458046 -126.1796875 243.18359375 C-128.80910581 240.82385937 -130.05331305 239.35517767 -130.43579102 235.80932617 C-130.13371992 232.71230556 -129.24843188 231.01745543 -127.64453125 228.359375 C-127.08926758 227.42512695 -126.53400391 226.49087891 -125.96191406 225.52832031 C-125.3531543 224.52768555 -124.74439453 223.52705078 -124.1171875 222.49609375 C-122.83900289 220.35206356 -121.56169113 218.20751283 -120.28515625 216.0625 C-119.61532715 214.94375488 -118.94549805 213.82500977 -118.25537109 212.67236328 C-115.08838553 207.36636697 -112.00563341 202.01152849 -108.9223938 196.65658569 C-107.94364756 194.95782354 -106.96195687 193.26075895 -105.98022461 191.5637207 C-105.38089111 190.52562256 -104.78155762 189.48752441 -104.1640625 188.41796875 C-103.63522461 187.50241211 -103.10638672 186.58685547 -102.56152344 185.64355469 C-101.36676933 183.51663908 -100.24626616 181.37693019 -99.1796875 179.18359375 C-100.0046875 179.12171875 -100.8296875 179.05984375 -101.6796875 178.99609375 C-109.70783925 177.13241567 -115.55405714 171.85855401 -120.1796875 165.18359375 C-123.97481389 158.44416576 -125.20393756 151.85958273 -124.1796875 144.18359375 C-123.37387866 141.6970979 -122.3350609 139.54248111 -121.1796875 137.18359375 C-121.1796875 135.86359375 -121.1796875 134.54359375 -121.1796875 133.18359375 C-122.7649689 131.52408316 -122.7649689 131.52408316 -124.8671875 130.05859375 C-130.4517821 125.47407726 -133.80088815 119.28649948 -135.1796875 112.18359375 C-135.90783239 104.07598049 -135.1743871 96.99552822 -130.046875 90.46875 C-127.18961502 87.2669651 -124.21305394 84.21696019 -121.1796875 81.18359375 C-121.51134162 78.28162016 -122.33426162 75.71077879 -123.2421875 72.93359375 C-125.13177022 65.37526286 -124.59290692 59.1765311 -121.1796875 52.18359375 C-120.86257813 51.51328125 -120.54546875 50.84296875 -120.21875 50.15234375 C-116.40615703 43.12203047 -110.42094693 38.5923513 -102.86328125 36.08203125 C-99.97768994 35.35296804 -97.10807972 34.71191193 -94.1796875 34.18359375 C-94.03273438 33.50554687 -93.88578125 32.8275 -93.734375 32.12890625 C-91.16855666 21.48223476 -87.25733745 13.53404537 -77.82421875 7.5234375 C-71.22608139 4.18051119 -63.50041084 3.3960027 -56.1796875 4.18359375 C-54.67755285 4.69823814 -53.17754105 5.21911928 -51.6796875 5.74609375 C-49.45197051 6.43668796 -49.45197051 6.43668796 -47.1796875 6.18359375 C-44.59451719 4.19534644 -42.59635573 1.96406382 -40.44140625 -0.48046875 C-29.64728579 -11.62880041 -11.10516587 -9.25430489 0 0 Z " fill="#F9C954" transform="translate(410.1796875,228.81640625)"/>
<path d="M0 0 C7.25639062 5.1868318 12.06050047 11.81561282 15.1875 20.1875 C15.5443973 22.51734546 15.88016618 24.85060003 16.1875 27.1875 C17.34797852 27.16655273 18.50845703 27.14560547 19.70410156 27.12402344 C24.01273238 27.05158193 28.32130945 27.00568529 32.63037109 26.96777344 C34.49472101 26.94766739 36.35900794 26.9203782 38.22314453 26.88574219 C40.90412948 26.83717879 43.58428023 26.81452162 46.265625 26.796875 C47.09805725 26.77622986 47.9304895 26.75558472 48.78814697 26.73431396 C49.95890778 26.73386078 49.95890778 26.73386078 51.15332031 26.73339844 C51.83726868 26.72451599 52.52121704 26.71563354 53.22589111 26.70648193 C56.26844256 27.45256451 57.36831904 28.65394438 59.1875 31.1875 C59.4786521 33.92432971 59.57072418 36.22690039 59.4375 38.9375 C59.41945313 39.63488281 59.40140625 40.33226562 59.3828125 41.05078125 C59.33588554 42.76361539 59.26414605 44.47573824 59.1875 46.1875 C60.03195175 46.18083817 60.8764035 46.17417633 61.7464447 46.16731262 C69.73447658 46.10701001 77.72243115 46.06142869 85.710639 46.03206348 C89.81671356 46.01645862 93.92259881 45.99531602 98.02856445 45.96118164 C101.99674381 45.92840206 105.96474196 45.91060811 109.93304634 45.90286827 C111.44119681 45.89735793 112.94933823 45.88659815 114.45741081 45.87030983 C134.00457022 45.66772928 134.00457022 45.66772928 141.5 52.3125 C142.11488281 52.83070312 142.72976563 53.34890625 143.36328125 53.8828125 C149.40833933 61.52003791 149.7666821 69.26927729 149.70507812 78.72192383 C149.71050831 80.06650548 149.71763597 81.41108117 149.72631836 82.75564575 C149.74443985 86.38144933 149.73753343 90.00679399 149.72480202 93.63260484 C149.71462639 97.43572047 149.72407933 101.23879861 149.73034668 105.04191589 C149.73760545 111.42116307 149.72807748 117.80022444 149.70898438 124.17944336 C149.68717216 131.55225755 149.69430533 138.92462999 149.71629 146.29743367 C149.73443902 152.63821563 149.73700622 158.97886465 149.72653532 165.31966418 C149.72030358 169.10245842 149.71945674 172.88504485 149.73268127 176.6678257 C149.74423375 180.21966532 149.73622612 183.77093402 149.71310425 187.32271194 C149.70529346 189.24699875 149.71717496 191.17133386 149.72961426 193.09559631 C149.71833496 194.24082764 149.70705566 195.38605896 149.69543457 196.56599426 C149.69317242 198.05835712 149.69317242 198.05835712 149.69086456 199.58086872 C149.04238876 202.93894644 147.89736319 204.15316457 145.1875 206.1875 C141.59679502 206.12450518 139.20295397 205.96601471 136.3125 203.75 C134.10127277 200.67885107 134.05921474 198.6257463 134.04946899 194.88002014 C134.04401566 193.75410965 134.03856232 192.62819916 134.03294373 191.46817017 C134.0319014 190.22707489 134.03085907 188.98597961 134.02978516 187.70727539 C134.02198629 185.70802187 134.01418336 183.70876836 134.00622725 181.70951545 C133.99850626 179.55683897 133.99312788 177.40416675 133.98826981 175.25148201 C133.97760182 170.76839899 133.95736097 166.28539175 133.93515015 161.80235291 C133.873183 149.05324771 133.81918233 136.304147 133.78613281 123.55493164 C133.76780608 116.51616133 133.73889625 109.4775179 133.6981281 102.43884081 C133.6770278 98.71246591 133.66159657 94.9862511 133.65932083 91.25981331 C133.65678073 87.10540343 133.63135111 82.95143977 133.60400391 78.79711914 C133.60701004 77.5580481 133.61001617 76.31897705 133.6131134 75.0423584 C133.60202042 73.91362808 133.59092743 72.78489777 133.57949829 71.6219635 C133.57453307 70.14776491 133.57453307 70.14776491 133.56946754 68.64378452 C133.12330353 65.77467753 132.46239486 64.92561056 130.1875 63.1875 C127.32061096 61.75405548 124.83073922 62.02295941 121.62646484 61.98217773 C120.95317642 61.97227814 120.279888 61.96237854 119.5861969 61.95217896 C117.35697974 61.92054885 115.12774126 61.89580066 112.8984375 61.87109375 C111.35429322 61.85052552 109.81015459 61.82952908 108.26602173 61.80812073 C104.19885833 61.75288651 100.13164401 61.70348322 96.06439209 61.65527344 C91.91527771 61.60506825 87.76623741 61.54937707 83.6171875 61.49414062 C75.47401923 61.38654252 67.33078814 61.2856081 59.1875 61.1875 C59.1875 67.1275 59.1875 73.0675 59.1875 79.1875 C61.56437012 79.1560791 61.56437012 79.1560791 63.98925781 79.12402344 C69.86335223 79.05167097 75.73740719 79.00571692 81.61181641 78.96777344 C84.15517803 78.94764728 86.69849333 78.92034363 89.24169922 78.88574219 C92.89562404 78.8372703 96.54893756 78.81454084 100.203125 78.796875 C101.91112274 78.76590729 101.91112274 78.76590729 103.65362549 78.73431396 C105.24482208 78.73386078 105.24482208 78.73386078 106.86816406 78.73339844 C107.80082092 78.72451599 108.73347778 78.71563354 109.69439697 78.70648193 C113.02280609 79.34866354 114.06700174 80.57730141 116.1875 83.1875 C116.69086456 85.71439362 116.69086456 85.71439362 116.69543457 88.61486816 C116.71235352 90.26782646 116.71235352 90.26782646 116.72961426 91.95417786 C116.71746887 93.76060005 116.71746887 93.76060005 116.70507812 95.60351562 C116.71559204 97.51133064 116.71559204 97.51133064 116.72631836 99.45768738 C116.74454791 102.94330029 116.73748614 106.42843944 116.72480202 109.91406059 C116.71467225 113.56238961 116.72406762 117.21067817 116.73034668 120.85900879 C116.73762319 126.98566976 116.72803544 133.11213784 116.70898438 139.23876953 C116.68721543 146.32121886 116.69426681 153.4032076 116.71629 160.48564577 C116.73444404 166.56730735 116.73700236 172.64883031 116.72653532 178.73051023 C116.72030033 182.36247526 116.71946466 185.99422382 116.73268127 189.62617493 C116.74638544 193.67488874 116.72739026 197.72280898 116.70507812 201.77148438 C116.71317505 202.97576584 116.72127197 204.1800473 116.72961426 205.42082214 C116.71833496 206.52279434 116.70705566 207.62476654 116.69543457 208.76013184 C116.69317242 210.19586674 116.69317242 210.19586674 116.69086456 211.66060638 C116.03337362 214.96121551 114.84321238 216.17437371 112.1875 218.1875 C108.625 218.1875 108.625 218.1875 105.1875 217.1875 C80.380243 184.11115733 102.1875 134.53292834 102.1875 93.1875 C18.3675 93.1875 -65.4525 93.1875 -151.8125 93.1875 C-151.8125 208.6875 -151.8125 324.1875 -151.8125 443.1875 C-82.8812855 443.02906055 -82.8812855 443.02906055 -13.95019531 442.82714844 C-0.63818359 442.80908203 -0.63818359 442.80908203 5.58770752 442.8057251 C9.94928067 442.80198856 14.31066038 442.78695955 18.67218018 442.76519775 C24.22974234 442.7378341 29.78702174 442.72952174 35.34464502 442.7352109 C37.38791944 442.73402065 39.43120339 442.72604566 41.47442007 442.71063948 C44.22799815 442.69083595 46.98046799 442.69550433 49.73406982 442.70648193 C50.53928699 442.69483128 51.34450417 442.68318062 52.17412186 442.67117691 C55.71401508 442.7092864 57.79939142 442.91005691 60.71583939 444.99490738 C62.1875 447.1875 62.1875 447.1875 62.1875 450.75 C61.1875 454.1875 61.1875 454.1875 59.67021847 455.87769318 C56.02788218 457.79927912 52.48449736 457.60761944 48.46400452 457.58190918 C47.57390023 457.58800028 46.68379595 457.59409139 45.7667188 457.60036707 C42.7780254 457.61704333 39.78975588 457.61221465 36.80102539 457.60742188 C34.66078751 457.61475949 32.5205536 457.62334481 30.38032532 457.63308716 C24.56219528 457.65534357 18.7442067 457.65823179 12.92603993 457.65633965 C8.07245159 457.65622014 3.21889344 457.66477602 -1.63468653 457.67311716 C-13.08289409 457.69236589 -24.53102873 457.6952296 -35.97924805 457.68847656 C-47.79793973 457.68183343 -59.6163195 457.70470794 -71.43494791 457.74179029 C-81.5751685 457.77245452 -91.71528859 457.78385091 -101.85555464 457.77995348 C-107.91493179 457.7778827 -113.97406624 457.78341617 -120.03339958 457.80784607 C-125.73064197 457.83005652 -131.42737604 457.82828263 -137.12462044 457.80791855 C-139.21723955 457.80449848 -141.30989251 457.80964024 -143.40246582 457.82390213 C-146.25624863 457.84201208 -149.10829181 457.82940708 -151.96202087 457.80895996 C-152.79295492 457.82147781 -153.62388896 457.83399566 -154.48000282 457.84689283 C-155.2468715 457.83508749 -156.01374019 457.82328216 -156.80384731 457.81111908 C-157.79109536 457.81152766 -157.79109536 457.81152766 -158.79828781 457.81194448 C-162.11915266 456.78241257 -163.672297 454.86106211 -165.8125 452.1875 C-166.43809515 449.20507139 -166.43809515 449.20507139 -166.43891239 445.82062435 C-166.45133443 444.52776294 -166.46375647 443.23490152 -166.47655493 441.90286249 C-166.46505398 440.47006358 -166.45308176 439.0372684 -166.44068909 437.60447693 C-166.44573369 436.08095259 -166.45296186 434.55743417 -166.46218723 433.03392941 C-166.48114883 428.84556893 -166.46885407 424.65779083 -166.4514643 420.46944487 C-166.43811415 415.95336334 -166.45351885 411.43736835 -166.46528625 406.92129517 C-166.48368438 398.07389581 -166.47513625 389.22671701 -166.45719803 380.37932449 C-166.44318452 373.19076957 -166.43927654 366.00227462 -166.4426403 358.81370735 C-166.44311775 357.7914314 -166.44359519 356.76915544 -166.4440871 355.71590142 C-166.44511341 353.639319 -166.44616876 351.5627366 -166.44725286 349.48615421 C-166.45582421 331.11613217 -166.43913033 312.74621679 -166.40942383 294.3762207 C-166.38058117 276.54023764 -166.37350432 258.70440819 -166.38891602 240.8684082 C-166.40566613 221.4568027 -166.40972487 202.04527016 -166.39220566 182.63366276 C-166.39036122 180.56493414 -166.38852649 178.49620552 -166.38670158 176.42747688 C-166.38578949 175.40955798 -166.3848774 174.39163908 -166.38393768 173.34287415 C-166.37832519 166.1602001 -166.38164604 158.97756159 -166.38824654 151.79488945 C-166.39596729 143.04562784 -166.38927251 134.2965176 -166.3640715 125.54728656 C-166.35154763 121.08096795 -166.34546476 116.61488536 -166.35661316 112.14855766 C-166.36661818 108.06325444 -166.35827649 103.97842296 -166.33503198 99.8931774 C-166.32985185 98.41211597 -166.33147183 96.93101264 -166.34042663 95.44996922 C-166.35155653 93.44284206 -166.33584337 91.43561896 -166.31865788 89.42853451 C-166.31746639 88.31182934 -166.31627491 87.19512417 -166.31504732 86.04457945 C-165.69622895 82.52647644 -164.60869108 81.3439204 -161.8125 79.1875 C-159.28143311 78.70648193 -159.28143311 78.70648193 -156.40136719 78.73339844 C-155.32054871 78.73370056 -154.23973022 78.73400269 -153.12615967 78.73431396 C-151.96562073 78.75495911 -150.80508179 78.77560425 -149.609375 78.796875 C-148.41644836 78.80253479 -147.22352173 78.80819458 -145.9944458 78.81402588 C-142.18338944 78.83642074 -138.37327233 78.88662571 -134.5625 78.9375 C-131.97918024 78.95756085 -129.39584575 78.97581234 -126.8125 78.9921875 C-120.47880463 79.03629618 -114.14581157 79.10534768 -107.8125 79.1875 C-107.8125 73.2475 -107.8125 67.3075 -107.8125 61.1875 C-116.85336382 61.20523741 -125.89347031 61.24399076 -134.93403912 61.31959057 C-139.13212392 61.35385918 -143.32984488 61.37897027 -147.52807617 61.38305664 C-151.58086752 61.38733999 -155.63283814 61.41580446 -159.68537331 61.46093178 C-161.23024525 61.47390583 -162.77521543 61.47821474 -164.32013512 61.47365379 C-166.48735162 61.4687465 -168.65217041 61.49483839 -170.8190918 61.52807617 C-172.05153122 61.53473801 -173.28397064 61.54139984 -174.55375671 61.54826355 C-178.80816781 62.38281062 -180.10744545 63.84103982 -182.8125 67.1875 C-183.55493198 70.43423995 -183.55493198 70.43423995 -183.43611908 74.0513382 C-183.44278709 74.73264728 -183.4494551 75.41395637 -183.45632517 76.11591119 C-183.47259724 78.40406847 -183.45317047 80.69052328 -183.43395996 82.9786377 C-183.43828801 84.63344138 -183.44480314 86.28824055 -183.45332003 87.94302797 C-183.47034635 92.4943016 -183.4561062 97.04502683 -183.43680525 101.59627175 C-183.42140488 106.50295938 -183.43477322 111.40957863 -183.44454956 116.31626892 C-183.45909245 125.93002538 -183.44682564 135.543571 -183.42543632 145.15730751 C-183.40145169 156.3473603 -183.40313913 167.53736452 -183.40574223 178.72743732 C-183.40943432 198.69024295 -183.38859028 218.65294911 -183.35449219 238.61572266 C-183.32139962 257.99693313 -183.30723368 277.37803918 -183.31347656 296.75927734 C-183.32023738 317.85226637 -183.31778911 338.94521162 -183.29811716 360.03819418 C-183.29707768 361.15312245 -183.29603819 362.26805073 -183.2949672 363.41676471 C-183.29287627 365.65618746 -183.2907653 367.8956102 -183.28863403 370.13503292 C-183.28173229 377.93939596 -183.28107014 385.74374552 -183.28251648 393.54811096 C-183.28395475 403.05599363 -183.27429164 412.56379102 -183.25057012 422.07164538 C-183.23869292 426.92487319 -183.2315964 431.777982 -183.23740768 436.63122368 C-183.24256708 441.07116544 -183.23393541 445.51085547 -183.21413308 449.95075411 C-183.20938055 451.55969352 -183.2097095 453.16865734 -183.21554345 454.7775932 C-183.22269378 456.95991776 -183.21149558 459.14140108 -183.19561005 461.3236618 C-183.19403884 462.53719566 -183.19246764 463.75072951 -183.19084883 465.00103712 C-182.77561879 468.49811445 -181.91320881 470.38816971 -179.8125 473.1875 C-177.38249477 474.40250262 -175.84281944 474.31345022 -173.12662697 474.31499195 C-171.63520241 474.31950342 -171.63520241 474.31950342 -170.11364806 474.32410604 C-169.01328195 474.32235567 -167.91291585 474.32060529 -166.77920532 474.31880188 C-165.61650631 474.32091759 -164.4538073 474.32303331 -163.25587499 474.32521313 C-160.01865741 474.33018457 -156.78147293 474.33070801 -153.54425287 474.32947242 C-150.05678518 474.32925763 -146.56932676 474.3348299 -143.0818634 474.33987427 C-137.03539665 474.34799493 -130.98893412 474.35293372 -124.94246292 474.35616493 C-115.38898182 474.36165543 -105.83553653 474.37854644 -96.28207397 474.39750671 C-93.01553542 474.40386374 -89.74899676 474.41017212 -86.48245811 474.41648388 C-85.25787817 474.41885952 -85.25787817 474.41885952 -84.00855923 474.42128316 C-74.71111238 474.43922743 -65.41366298 474.45545036 -56.11621094 474.47045898 C-55.26606597 474.47183486 -54.41592101 474.47321073 -53.54001407 474.47462829 C-39.75944408 474.49656407 -25.97888326 474.50731569 -12.19829889 474.51482973 C1.94054023 474.52289467 16.07930041 474.54616477 30.21809447 474.5827834 C38.94435548 474.60483588 47.67045429 474.6144647 56.39674176 474.60828307 C62.37485885 474.60511368 68.35283722 474.61640396 74.33091138 474.63917748 C77.78257393 474.65187246 81.23392754 474.65798277 84.68560219 474.64676094 C88.42413152 474.63794162 92.16178056 474.65345532 95.90023804 474.67524719 C96.9961427 474.66680466 98.09204736 474.65836212 99.22116125 474.64966375 C106.53951845 474.72896784 106.53951845 474.72896784 109.83826637 477.0632658 C111.41948862 479.55274302 112.03995989 481.23669775 112.1875 484.1875 C111.21019781 486.89387529 110.78237555 487.89006222 108.1875 489.1875 C106.60558258 489.28458617 105.01960389 489.3184846 103.43471336 489.32172108 C102.42548014 489.32617892 101.41624692 489.33063676 100.37643087 489.33522969 C99.2593385 489.33504533 98.14224614 489.33486097 96.99130249 489.33467102 C95.81100798 489.33834771 94.63071347 489.3420244 93.41465247 489.3458125 C90.12814568 489.3549512 86.84168887 489.35955163 83.55517411 489.36220181 C80.0144563 489.36610065 76.473753 489.3756794 72.93304443 489.38441467 C64.37611173 489.40419284 55.81917781 489.41424782 47.26222795 489.42314246 C43.23364175 489.42752388 39.20505687 489.43289113 35.17647171 489.43813133 C21.78559072 489.45514633 8.39471056 489.46964013 -4.99617958 489.47688007 C-8.47255072 489.47879001 -11.94892185 489.48071033 -15.42529297 489.48266602 C-16.72136616 489.48339163 -16.72136616 489.48339163 -18.04362266 489.4841319 C-32.03816171 489.49243075 -46.03261525 489.51776399 -60.02711697 489.55024669 C-74.39193828 489.58331728 -88.75671613 489.6013289 -103.12157571 489.60452431 C-111.1880952 489.60668961 -119.25449004 489.61544085 -127.32097244 489.64098549 C-134.19160807 489.66269265 -141.0620888 489.67074294 -147.93275483 489.66101871 C-151.4375921 489.65647375 -154.94210979 489.65837103 -158.44690323 489.67778015 C-162.24967296 489.6954264 -166.05163085 489.68842735 -169.85440063 489.67524719 C-171.50996269 489.69170106 -171.50996269 489.69170106 -173.19897044 489.70848733 C-180.67961813 489.64585497 -186.01235668 488.46677425 -191.8359375 483.44140625 C-192.28195313 482.88324219 -192.72796875 482.32507813 -193.1875 481.75 C-193.64898437 481.19441406 -194.11046875 480.63882812 -194.5859375 480.06640625 C-197.56326181 475.50560053 -198.06363113 471.59037745 -198.06976891 466.1914854 C-198.07327498 465.49587974 -198.07678105 464.80027408 -198.08039337 464.08358946 C-198.08971453 461.74727178 -198.08478227 459.41120298 -198.07992554 457.07487488 C-198.08366144 455.38509093 -198.08826272 453.6953087 -198.09365618 452.00552922 C-198.10590902 447.35760585 -198.10562303 442.70975433 -198.10326743 438.06181848 C-198.10285984 433.0507886 -198.11389287 428.03978193 -198.12338257 423.02876282 C-198.14000602 413.20953339 -198.14549272 403.39032797 -198.14660732 393.57108565 C-198.14755715 385.59072001 -198.15166419 377.6103623 -198.15800858 369.62999916 C-198.17562459 347.01167454 -198.18484687 324.3933689 -198.18334763 301.77503737 C-198.18326772 300.55529799 -198.1831878 299.3355586 -198.18310547 298.07885742 C-198.18302371 296.85763136 -198.18294195 295.63640529 -198.18285771 294.37817238 C-198.18204469 274.58335807 -198.20118549 254.78861984 -198.2293822 234.99382754 C-198.25809593 214.67600223 -198.27192333 194.35821403 -198.27019465 174.0403679 C-198.26953023 162.63049344 -198.2750453 151.22069872 -198.29655075 139.81084251 C-198.31474265 130.09663647 -198.31912625 120.38254632 -198.3055319 110.66833063 C-198.29899223 105.71139641 -198.29892112 100.75468465 -198.3162384 95.79777145 C-198.33192995 91.25956204 -198.32914564 86.72175222 -198.31167014 82.18355278 C-198.3085916 80.54225002 -198.31226473 78.90091772 -198.32339029 77.25964978 C-198.38261323 67.90287144 -198.2509943 60.80738458 -192.2421875 53.19921875 C-183.12785164 45.43600303 -172.35843373 45.76910137 -160.9609375 45.89453125 C-159.4506574 45.90013835 -157.94037178 45.90440317 -156.43008423 45.90739441 C-152.48777752 45.91875565 -148.54581141 45.94814564 -144.6036377 45.98150635 C-140.56783656 46.01239726 -136.53197947 46.02594006 -132.49609375 46.04101562 C-124.60140758 46.07302545 -116.70699636 46.12411367 -108.8125 46.1875 C-108.85890625 45.23488281 -108.9053125 44.28226563 -108.953125 43.30078125 C-108.98921875 42.04652344 -109.0253125 40.79226562 -109.0625 39.5 C-109.10890625 38.25863281 -109.1553125 37.01726563 -109.203125 35.73828125 C-108.74681785 31.59044929 -107.84658237 30.0071481 -104.8125 27.1875 C-102.85089111 26.58622742 -102.85089111 26.58622742 -100.77832031 26.61987305 C-99.99781311 26.6202507 -99.21730591 26.62062836 -98.41314697 26.62101746 C-97.58071472 26.64682388 -96.74828247 26.67263031 -95.890625 26.69921875 C-95.03063904 26.70629349 -94.17065308 26.71336823 -93.28460693 26.72065735 C-90.5430125 26.74860389 -87.803475 26.8113402 -85.0625 26.875 C-83.20185245 26.90008266 -81.34117283 26.92289589 -79.48046875 26.94335938 C-74.92368894 26.99843113 -70.36844296 27.08470345 -65.8125 27.1875 C-65.68235504 26.57012466 -65.55221008 25.95274933 -65.41812134 25.31666565 C-65.24356415 24.50648483 -65.06900696 23.69630402 -64.88916016 22.86157227 C-64.7177652 22.05857193 -64.54637024 21.25557159 -64.36978149 20.42823792 C-62.37785489 12.41902621 -56.22083349 5.15874874 -49.8125 0.1875 C-33.71488688 -9.30967792 -16.07694237 -9.92831044 0 0 Z " fill="#010101" transform="translate(205.8125,14.8125)"/>
<path d="M0 0 C0.72293664 -0.00438225 1.44587329 -0.00876451 2.1907171 -0.01327956 C4.62571299 -0.02668911 7.06067266 -0.0328513 9.49569702 -0.03897095 C11.23668584 -0.04687037 12.97767301 -0.05513922 14.71865845 -0.06375122 C20.44819571 -0.08999514 26.17774036 -0.10528364 31.90731812 -0.11953735 C33.87901184 -0.12489652 35.85070551 -0.13027403 37.82239914 -0.13566971 C46.02508473 -0.15730407 54.22776833 -0.17604007 62.43047523 -0.1872921 C74.18757767 -0.20352522 85.94434926 -0.23668119 97.70132697 -0.29369295 C105.96639213 -0.33240495 114.23136886 -0.35192643 122.49652231 -0.35721266 C127.43322228 -0.36086508 132.36956959 -0.37287434 137.30617142 -0.4053154 C141.95361858 -0.43541725 146.60050011 -0.44170032 151.24802399 -0.42993164 C152.95077245 -0.42971107 154.6535473 -0.43800283 156.35620499 -0.45558548 C172.21168372 -0.61036061 172.21168372 -0.61036061 177.68225002 3.76925278 C182.72773335 8.85566469 182.50113293 13.58223093 182.49154663 20.43270874 C182.50162247 21.46582687 182.5116983 22.49894501 182.52207947 23.56336975 C182.55056165 26.97646931 182.55643618 30.38912666 182.55966187 33.80233765 C182.56930256 36.17739036 182.579395 38.55244128 182.58992004 40.92749023 C182.60788195 45.90567149 182.61344097 50.88369658 182.61166382 55.86190796 C182.61135893 62.23663143 182.65232075 68.61035259 182.70398045 74.98483849 C182.73735843 79.89026476 182.74342094 84.79544911 182.74183464 89.70097733 C182.7453721 92.05090415 182.75862693 94.4008374 182.78183174 96.75065231 C182.81127353 100.03991385 182.80258625 103.32700496 182.78451538 106.61630249 C182.80980316 108.06756279 182.80980316 108.06756279 182.83560181 109.54814148 C182.75463199 115.35674597 181.76004367 118.55120499 177.73326015 122.79780006 C173.51083991 126.21121821 170.24198794 126.40744007 164.8263092 126.42132568 C164.09687459 126.4258568 163.36743998 126.43038791 162.61590129 126.43505633 C160.17090232 126.44771976 157.72612555 126.44607872 155.28109741 126.44442749 C153.52833774 126.45041157 151.77558071 126.45721684 150.02282715 126.46478271 C145.26033512 126.48246319 140.49791495 126.48713899 135.73539329 126.48841429 C131.75931946 126.49031314 127.78326239 126.49767061 123.80719501 126.50475848 C114.42527755 126.52104819 105.04339848 126.52592694 95.66146851 126.52450562 C85.98548493 126.52330434 76.30972447 126.54440202 66.63379735 126.57599294 C58.32538513 126.60215184 50.01704579 126.61287306 41.70859271 126.6115948 C36.74687378 126.611085 31.78535305 126.61677758 26.82367516 126.6379509 C22.15572363 126.65732648 17.4881595 126.6574624 12.82019424 126.64291763 C11.10897696 126.64082752 9.39773548 126.64554253 7.68655968 126.65763855 C5.34597052 126.67310931 3.00671406 126.66377212 0.66615295 126.64837646 C-0.64220677 126.649466 -1.9505665 126.65055553 -3.29857349 126.65167809 C-9.05492317 125.8657092 -12.73740188 123.71421864 -16.34939575 119.04429626 C-18.61832398 114.47994958 -18.50503993 109.91352646 -18.46182251 104.90756226 C-18.46883179 103.90180649 -18.47584106 102.89605072 -18.48306274 101.8598175 C-18.50060434 98.55000846 -18.48903399 95.24106096 -18.47549438 91.9312439 C-18.47819018 89.62391496 -18.48207332 87.31658714 -18.48709106 85.00926208 C-18.49298076 80.18000442 -18.48443906 75.35104321 -18.46572876 70.52182007 C-18.44292714 64.33555761 -18.45607391 58.14998888 -18.48001862 51.96375179 C-18.4944797 47.20162234 -18.4898693 42.43965709 -18.47950745 37.67752266 C-18.47684171 35.39658081 -18.48010452 33.11562399 -18.48942566 30.83469963 C-18.49959737 27.64634628 -18.48408087 24.4591135 -18.46182251 21.27084351 C-18.46991943 20.33093567 -18.47801636 19.39102783 -18.48635864 18.42263794 C-18.41410466 12.82898635 -17.69869414 9.57851477 -13.94424438 5.15390015 C-9.00356706 0.80139869 -6.56025746 0.02811116 0 0 Z " fill="#040404" transform="translate(98.94424438476563,129.84609985351563)"/>
<path d="M0 0 C1.73301682 1.66689771 3.36446399 3.26977965 4.8203125 5.18359375 C4.8203125 5.84359375 4.8203125 6.50359375 4.8203125 7.18359375 C5.65949219 6.85875 5.65949219 6.85875 6.515625 6.52734375 C15.17671015 3.51963572 24.9789157 2.25351334 33.6953125 5.74609375 C41.67014225 9.98550138 47.3846761 15.79618992 50.8203125 24.18359375 C51.69133022 27.18883289 52.28070828 30.09313323 52.8203125 33.18359375 C53.7896875 33.43109375 54.7590625 33.67859375 55.7578125 33.93359375 C65.27181178 36.71490402 73.92381739 40.95378456 79.1953125 49.74609375 C84.43096557 60.82151371 83.61920677 70.69646107 79.8203125 82.18359375 C80.40683594 82.43753906 80.99335938 82.69148438 81.59765625 82.953125 C84.06463081 84.31884905 85.52617824 85.75693975 87.3828125 87.87109375 C88.25099609 88.83595703 88.25099609 88.83595703 89.13671875 89.8203125 C93.01017746 95.25753412 94.35871896 100.46074154 94.2578125 107.05859375 C94.24951416 107.76113281 94.24121582 108.46367187 94.23266602 109.1875 C93.9124976 119.05005453 89.80589874 125.43888979 82.8203125 132.18359375 C82.1603125 132.51359375 81.5003125 132.84359375 80.8203125 133.18359375 C81.38030219 137.66302855 81.38030219 137.66302855 82.3359375 142.06640625 C84.26289665 150.48908253 83.07101881 158.72599362 78.8203125 166.18359375 C74.74090468 172.19702134 69.64997587 176.55777123 62.8203125 179.18359375 C61.5003125 179.18359375 60.1803125 179.18359375 58.8203125 179.18359375 C62.75373778 187.28355602 66.98836761 195.12140817 71.5703125 202.87109375 C72.47740967 204.42268188 72.47740967 204.42268188 73.40283203 206.00561523 C76.20495784 210.79100615 79.03382933 215.55461464 81.953125 220.26953125 C82.42008789 221.03305908 82.88705078 221.79658691 83.36816406 222.58325195 C84.22402646 223.97804315 85.09232806 225.36531386 85.97558594 226.74291992 C88.60761109 231.05266544 89.36817745 234.1604724 88.8203125 239.18359375 C87.3828125 241.62109375 87.3828125 241.62109375 84.8203125 243.18359375 C76.41142945 243.83385695 68.43677973 241.91158541 60.2578125 240.18359375 C58.85368257 239.89372141 57.44938654 239.6046524 56.04492188 239.31640625 C52.63475435 238.61471871 49.22696195 237.90219133 45.8203125 237.18359375 C43.59343331 242.583034 41.49858974 248.01115461 39.56640625 253.5234375 C39.18677734 254.60560547 38.80714844 255.68777344 38.41601562 256.80273438 C37.63494667 259.04056937 36.85901495 261.28020317 36.08789062 263.52148438 C35.70955078 264.59462891 35.33121094 265.66777344 34.94140625 266.7734375 C34.43758423 268.22544556 34.43758423 268.22544556 33.92358398 269.70678711 C32.81166993 272.20299603 32.00783888 273.56603566 29.8203125 275.18359375 C24.24638933 275.89139352 24.24638933 275.89139352 21.8203125 275.18359375 C17.52296704 270.88624829 14.86446874 265.14859182 11.9453125 259.87109375 C6.47907546 250.07428641 0.87132279 240.37101823 -4.86083984 230.72729492 C-5.42625488 229.76799072 -5.99166992 228.80868652 -6.57421875 227.8203125 C-7.32989136 226.54740356 -7.32989136 226.54740356 -8.10083008 225.2487793 C-9.1796875 223.18359375 -9.1796875 223.18359375 -9.1796875 221.18359375 C-9.685 221.34601563 -10.1903125 221.5084375 -10.7109375 221.67578125 C-14.05965958 222.36460066 -17.26310104 222.31531931 -20.6796875 222.30859375 C-21.989375 222.31117188 -23.2990625 222.31375 -24.6484375 222.31640625 C-27.40204674 222.2128413 -29.58321597 222.01817389 -32.1796875 221.18359375 C-32.44974609 221.89805664 -32.71980469 222.61251953 -32.99804688 223.34863281 C-34.1916225 226.21222789 -35.56795273 228.83828268 -37.0859375 231.54296875 C-37.66029541 232.5685791 -38.23465332 233.59418945 -38.82641602 234.65087891 C-39.43799561 235.7341748 -40.0495752 236.8174707 -40.6796875 237.93359375 C-41.61929321 239.60301025 -41.61929321 239.60301025 -42.57788086 241.30615234 C-46.25948798 247.83000721 -49.96344626 254.34045152 -53.7421875 260.80859375 C-54.12246094 261.46311523 -54.50273437 262.11763672 -54.89453125 262.79199219 C-55.96442902 264.60645534 -57.05969787 266.39965079 -58.1796875 268.18359375 C-58.79517456 269.16694702 -58.79517456 269.16694702 -59.4230957 270.17016602 C-62.63865145 275.0220183 -62.63865145 275.0220183 -65.11962891 275.76293945 C-68.51032713 275.9357114 -70.68103706 275.58233408 -73.34375 273.453125 C-75.39802237 270.91369468 -75.88597274 269.36737816 -76.4921875 266.18359375 C-78.02879572 259.217061 -80.39849275 252.63951903 -82.84301758 245.95117188 C-83.14361084 245.11908203 -83.4442041 244.28699219 -83.75390625 243.4296875 C-84.02807373 242.68388428 -84.30224121 241.93808105 -84.5847168 241.16967773 C-85.1796875 239.18359375 -85.1796875 239.18359375 -85.1796875 236.18359375 C-86.17299072 236.39564453 -87.16629395 236.60769531 -88.18969727 236.82617188 C-91.89881978 237.61603161 -95.60986147 238.39653202 -99.3215332 239.17431641 C-100.92330339 239.51131011 -102.52455249 239.8507911 -104.12524414 240.19287109 C-106.43501177 240.68602409 -108.74654702 241.17000364 -111.05859375 241.65234375 C-111.76617325 241.80546021 -112.47375275 241.95857666 -113.20277405 242.11633301 C-117.59277899 243.02086012 -121.70128436 243.51458046 -126.1796875 243.18359375 C-128.80910581 240.82385937 -130.05331305 239.35517767 -130.43579102 235.80932617 C-130.13371992 232.71230556 -129.24843188 231.01745543 -127.64453125 228.359375 C-127.08926758 227.42512695 -126.53400391 226.49087891 -125.96191406 225.52832031 C-125.3531543 224.52768555 -124.74439453 223.52705078 -124.1171875 222.49609375 C-122.83900289 220.35206356 -121.56169113 218.20751283 -120.28515625 216.0625 C-119.61532715 214.94375488 -118.94549805 213.82500977 -118.25537109 212.67236328 C-115.08838553 207.36636697 -112.00563341 202.01152849 -108.9223938 196.65658569 C-107.94364756 194.95782354 -106.96195687 193.26075895 -105.98022461 191.5637207 C-105.38089111 190.52562256 -104.78155762 189.48752441 -104.1640625 188.41796875 C-103.63522461 187.50241211 -103.10638672 186.58685547 -102.56152344 185.64355469 C-101.36676933 183.51663908 -100.24626616 181.37693019 -99.1796875 179.18359375 C-100.0046875 179.12171875 -100.8296875 179.05984375 -101.6796875 178.99609375 C-109.70783925 177.13241567 -115.55405714 171.85855401 -120.1796875 165.18359375 C-123.97481389 158.44416576 -125.20393756 151.85958273 -124.1796875 144.18359375 C-123.37387866 141.6970979 -122.3350609 139.54248111 -121.1796875 137.18359375 C-121.1796875 135.86359375 -121.1796875 134.54359375 -121.1796875 133.18359375 C-122.7649689 131.52408316 -122.7649689 131.52408316 -124.8671875 130.05859375 C-130.4517821 125.47407726 -133.80088815 119.28649948 -135.1796875 112.18359375 C-135.90783239 104.07598049 -135.1743871 96.99552822 -130.046875 90.46875 C-127.18961502 87.2669651 -124.21305394 84.21696019 -121.1796875 81.18359375 C-121.51134162 78.28162016 -122.33426162 75.71077879 -123.2421875 72.93359375 C-125.13177022 65.37526286 -124.59290692 59.1765311 -121.1796875 52.18359375 C-120.86257813 51.51328125 -120.54546875 50.84296875 -120.21875 50.15234375 C-116.40615703 43.12203047 -110.42094693 38.5923513 -102.86328125 36.08203125 C-99.97768994 35.35296804 -97.10807972 34.71191193 -94.1796875 34.18359375 C-94.03273438 33.50554687 -93.88578125 32.8275 -93.734375 32.12890625 C-91.16855666 21.48223476 -87.25733745 13.53404537 -77.82421875 7.5234375 C-71.22608139 4.18051119 -63.50041084 3.3960027 -56.1796875 4.18359375 C-54.67755285 4.69823814 -53.17754105 5.21911928 -51.6796875 5.74609375 C-49.45197051 6.43668796 -49.45197051 6.43668796 -47.1796875 6.18359375 C-44.59451719 4.19534644 -42.59635573 1.96406382 -40.44140625 -0.48046875 C-29.64728579 -11.62880041 -11.10516587 -9.25430489 0 0 Z M-35.8046875 15.30859375 C-39.22025568 19.44322892 -42.18081807 20.95730665 -47.4921875 21.55859375 C-50.61575919 21.24094239 -52.77506907 20.71919625 -55.6796875 19.68359375 C-59.75847296 18.25739681 -62.81585272 17.48226316 -67.1796875 18.18359375 C-71.67036095 20.37618766 -75.2261416 22.83017376 -78.1171875 26.93359375 C-79.03402627 29.73804175 -79.56492717 32.2883734 -80.0546875 35.18359375 C-80.97811689 40.25100794 -82.40640184 42.67356058 -86.1796875 46.18359375 C-88.53085517 47.48979801 -90.61505538 48.08025542 -93.25 48.5625 C-98.86905399 49.61964406 -103.03736878 51.1198556 -107.1796875 55.18359375 C-110.13603671 59.57043452 -110.73134022 62.94289294 -110.1796875 68.18359375 C-109.6846875 69.29734375 -109.1896875 70.41109375 -108.6796875 71.55859375 C-106.84333086 75.99645562 -106.31626253 79.45104744 -107.1796875 84.18359375 C-109.02233735 88.56973035 -111.57403652 91.88003273 -115.3046875 94.80859375 C-119.02920715 97.88537085 -120.79237445 100.52500044 -121.49609375 105.35546875 C-121.8479569 112.12032162 -119.52656516 115.56061283 -115.0546875 120.55859375 C-113.341321 122.40190393 -113.341321 122.40190393 -111.1796875 122.18359375 C-110.51302083 123.51692708 -109.84635417 124.85026042 -109.1796875 126.18359375 C-108.6228125 127.04984375 -108.6228125 127.04984375 -108.0546875 127.93359375 C-105.76549688 133.82008392 -107.22810378 138.7139067 -109.5 144.2421875 C-110.99208104 148.50405116 -110.56939293 152.06032516 -109.1171875 156.24609375 C-106.16220733 160.72622497 -103.03743335 164.39680929 -97.7109375 165.86328125 C-95.99064292 166.15863303 -94.26789361 166.44004743 -92.54296875 166.70703125 C-87.76391166 167.67074194 -84.97991645 170.22776473 -81.9296875 173.87109375 C-80.09944587 177.33547969 -79.4053702 180.27562303 -78.66015625 184.078125 C-77.59478224 188.74671516 -74.84819208 192.2678119 -71.12109375 195.23828125 C-67.09286911 197.19971055 -62.52332159 196.78424184 -58.1796875 196.18359375 C-56.51107452 195.5218136 -54.84434851 194.85525286 -53.1796875 194.18359375 C-48.32169828 193.52149062 -43.82383968 193.31221558 -39.6796875 196.18359375 C-38.8546875 196.84359375 -38.0296875 197.50359375 -37.1796875 198.18359375 C-36.5196875 198.18359375 -35.8596875 198.18359375 -35.1796875 198.18359375 C-34.9734375 198.74046875 -34.7671875 199.29734375 -34.5546875 199.87109375 C-32.35452081 203.57137409 -29.0430003 206.25193735 -25.1796875 208.18359375 C-20.5852646 208.74411334 -17.10727874 208.64738937 -12.9296875 206.55859375 C-10.07400343 204.23252478 -10.07400343 204.23252478 -7.7421875 201.18359375 C-4.22053458 197.06068302 -1.03276566 194.53582562 4.3515625 193.87109375 C10.90339692 193.71693294 10.90339692 193.71693294 13.78515625 195.18359375 C17.83746001 197.17474493 22.42802021 196.68155712 26.8203125 196.18359375 C32.306951 193.74508775 35.42352551 189.58370158 37.8203125 184.18359375 C38.27930252 182.04811713 38.27930252 182.04811713 38.4453125 179.93359375 C38.82726098 176.11410897 39.36384223 174.96047318 41.8203125 172.18359375 C41.8203125 171.52359375 41.8203125 170.86359375 41.8203125 170.18359375 C46.24221813 167.89075379 50.35033383 166.25213438 55.2578125 165.37109375 C60.02965152 164.36105449 62.4206557 162.66616901 65.8203125 159.18359375 C67.8375552 155.97528284 68.09097642 153.44442718 68.0703125 149.68359375 C68.07546875 148.74515625 68.080625 147.80671875 68.0859375 146.83984375 C67.81117804 144.09224919 67.07241696 142.60078382 65.8203125 140.18359375 C64.81211142 133.94335968 65.60483657 129.16181107 69.25 123.99609375 C71.36551175 121.55430904 73.69307679 119.54780692 76.26953125 117.60546875 C78.67969258 115.39564828 79.65373191 113.24893472 80.15625 110.03515625 C80.25339649 104.49780607 79.52577579 101.53751312 75.8203125 97.18359375 C73.78726508 95.12242117 71.73492739 93.0958168 69.625 91.11328125 C66.39174546 87.65607834 65.54133461 84.94775635 65.5703125 80.24609375 C65.56257813 78.99505859 65.56257813 78.99505859 65.5546875 77.71875 C65.8203125 75.18359375 65.8203125 75.18359375 66.8125 72.70703125 C68.57502224 68.29389417 68.35600771 63.85375708 67.8203125 59.18359375 C65.65818209 54.22871156 62.79502052 52.14819517 58.03515625 49.9765625 C55.75859387 49.16149695 53.57136152 48.682838 51.1953125 48.24609375 C46.41974886 47.29098102 44.1586697 45.76040504 40.8203125 42.18359375 C38.75807589 38.35372576 37.71892551 34.7923668 36.9453125 30.55859375 C36.02641928 26.12982969 34.46521728 24.00011108 30.8203125 21.18359375 C26.32812125 18.35156014 23.10384251 17.63702168 17.8203125 18.18359375 C16.49469293 18.64769396 15.18190298 19.14972095 13.8828125 19.68359375 C9.56450989 21.42929055 6.47996473 21.70968352 1.8203125 21.18359375 C-3.07252212 18.73717644 -6.5435626 14.9328833 -10.25 10.98828125 C-14.15211589 7.338934 -17.58974324 6.67602934 -22.8046875 6.8046875 C-28.31077557 7.68312589 -32.43117844 11.01112998 -35.8046875 15.30859375 Z " fill="#020201" transform="translate(410.1796875,228.81640625)"/>
<path d="M0 0 C1.02456299 -0.00021904 1.02456299 -0.00021904 2.06982422 -0.0004425 C4.33157507 0.00025517 6.59324397 0.00804074 8.85498047 0.01586914 C10.42153885 0.01773384 11.98809781 0.0191575 13.55465698 0.02015686 C17.68106695 0.02397796 21.80744181 0.03380479 25.93383789 0.04486084 C30.14322434 0.05508369 34.35261644 0.05965636 38.56201172 0.06469727 C46.82374839 0.07542741 55.08544977 0.09302094 63.34716797 0.11352539 C63.34716797 6.05352539 63.34716797 11.99352539 63.34716797 18.11352539 C60.91700317 18.13539917 60.91700317 18.13539917 58.43774414 18.15771484 C52.43849386 18.21559812 46.43962285 18.29283184 40.44067383 18.37597656 C37.84210354 18.40927283 35.2434601 18.43728993 32.64477539 18.45996094 C28.91374478 18.4934199 25.18338736 18.54573268 21.45263672 18.60180664 C19.70408638 18.61139153 19.70408638 18.61139153 17.92021179 18.62117004 C16.29887077 18.65086128 16.29887077 18.65086128 14.64477539 18.68115234 C13.69213303 18.6922554 12.73949066 18.70335846 11.75798035 18.71479797 C8.80945353 19.20245869 8.11104505 19.72721542 6.34716797 22.11352539 C5.89324913 24.94673088 5.89324913 24.94673088 5.96685123 28.23430538 C5.95841129 29.5231847 5.94997135 30.81206402 5.94127566 32.14000028 C5.94707149 33.57868113 5.95315255 35.01736085 5.95948792 36.45603943 C5.95531779 37.97783317 5.94984205 39.4996238 5.9431681 41.02140862 C5.92865245 45.21415036 5.93297719 49.40669655 5.94033492 53.59944928 C5.94504924 58.1169167 5.93257218 62.63434074 5.9223175 67.15179443 C5.90508995 76.00609591 5.90429767 84.86032654 5.90953041 93.71464043 C5.913566 100.90895547 5.91213584 108.10324952 5.90678215 115.29756355 C5.90565952 116.83138396 5.90565952 116.83138396 5.9045142 118.39619063 C5.90298278 120.47325611 5.90144444 122.55032159 5.89989924 124.62738705 C5.88615988 144.1214905 5.89162196 163.61555386 5.90308445 183.1096564 C5.91301837 200.95764957 5.90007595 218.8055391 5.87615026 236.65351629 C5.85178835 254.96436232 5.84214421 273.27516003 5.84880298 291.58602196 C5.85230168 301.87238043 5.85002038 312.15865916 5.83255196 322.44500542 C5.81786628 331.20162064 5.81714676 339.95809998 5.83462287 348.71471243 C5.84316534 353.18507719 5.84520373 357.65519882 5.82997131 362.12555122 C5.81621024 366.21461868 5.82077561 370.30323278 5.84021055 374.39227343 C5.84399744 375.87474712 5.8409719 377.35725638 5.8305989 378.83969861 C5.81753638 380.84873177 5.83132976 382.85788664 5.84659672 384.86690426 C5.84670405 385.98469357 5.84681139 387.10248289 5.84692198 388.25414461 C6.46790535 391.80365416 7.47852817 392.98490966 10.34716797 395.11352539 C13.37865502 395.50624241 16.04619868 395.65389637 19.07739258 395.62145996 C19.96820243 395.62769992 20.85901228 395.63393989 21.77681637 395.64036894 C24.7679824 395.65635026 27.75833934 395.64367453 30.74951172 395.63110352 C32.89137244 395.63652234 35.03322944 395.64364365 37.17507935 395.65234375 C42.99733205 395.67060838 48.81930183 395.6634965 54.6415596 395.65082741 C60.7282514 395.64071605 66.81491861 395.6500879 72.90161133 395.65637207 C83.12406778 395.6636539 93.34640873 395.65404666 103.56884766 395.63500977 C115.39548086 395.61324009 127.22183826 395.62029107 139.04846478 395.64231539 C149.19377094 395.66045406 159.33899397 395.66303519 169.4843111 395.65256071 C175.54751928 395.64631737 181.61059772 395.64551328 187.67379761 395.65870667 C193.37346209 395.67024218 199.0727702 395.66228127 204.77239609 395.63912964 C206.86703779 395.63383027 208.96170936 395.63537718 211.05633926 395.6441803 C213.91028198 395.65507079 216.76307444 395.6414508 219.61694336 395.62145996 C220.45079024 395.63038285 221.28463713 395.63930573 222.1437521 395.64849901 C225.78844159 395.5987947 227.89400835 395.46149634 230.83030701 393.20677948 C232.37316751 391.19710942 232.37316751 391.19710942 233.34716797 389.11352539 C237.40134777 388.76930258 241.30686827 388.56035684 245.34716797 389.11352539 C247.65966797 392.11352539 247.65966797 392.11352539 249.34716797 395.11352539 C254.16618977 395.5223313 258.49897505 394.83147071 263.19873047 393.80102539 C264.46201172 393.53032227 265.72529297 393.25961914 267.02685547 392.98071289 C268.3420996 392.6922879 269.6572028 392.40321954 270.97216797 392.11352539 C273.56728774 391.54488885 276.16371441 390.98377424 278.76123047 390.42602539 C279.90543457 390.1746582 281.04963867 389.92329102 282.22851562 389.66430664 C285.02222559 389.17091305 287.52073217 389.00250336 290.34716797 389.11352539 C291.77724818 393.1865916 293.20123892 397.26171965 294.61962891 401.33886719 C295.10298589 402.72551782 295.58800108 404.1115916 296.07470703 405.49707031 C296.7740675 407.48882037 297.46743515 409.48256994 298.15966797 411.47680664 C298.78808594 413.27565308 298.78808594 413.27565308 299.42919922 415.11083984 C300.34716797 418.11352539 300.34716797 418.11352539 300.34716797 421.11352539 C294.40716797 421.11352539 288.46716797 421.11352539 282.34716797 421.11352539 C281.68716797 419.46352539 281.02716797 417.81352539 280.34716797 416.11352539 C277.91783123 414.89885702 276.37948588 414.98757569 273.66408825 414.98603344 C272.17358874 414.98152197 272.17358874 414.98152197 270.65297812 414.97691935 C269.00345215 414.97954491 269.00345215 414.97954491 267.32060242 414.98222351 C266.15860897 414.9801078 264.99661553 414.97799208 263.79941016 414.97581226 C260.56412319 414.9708408 257.32886934 414.97031738 254.09357989 414.97155297 C250.60813808 414.97176777 247.12270554 414.96619545 243.63726807 414.96115112 C237.5940775 414.95303027 231.55089117 414.94809159 225.50769615 414.94486046 C215.958141 414.93936944 206.40862168 414.92247768 196.85908508 414.90351868 C193.59364992 414.89716161 190.32821467 414.89085323 187.06277943 414.88454151 C186.2466596 414.88295775 185.43053977 414.88137399 184.58968904 414.87974223 C175.29506545 414.86179764 166.00043933 414.84557512 156.70581055 414.83056641 C155.85592789 414.82919053 155.00604524 414.82781466 154.13040856 414.8263971 C140.35698066 414.80446575 126.58356193 414.79371082 112.81011965 414.78619566 C98.67692577 414.77812861 84.54381082 414.75485126 70.410662 414.71824199 C61.6890103 414.69619769 52.96752082 414.68655821 44.24584267 414.69274233 C38.26958725 414.69591352 32.29347048 414.68460938 26.31725796 414.66184791 C22.8674968 414.64916228 19.41804446 414.64303141 15.96827126 414.65426445 C12.23009255 414.66309463 8.49279158 414.64755207 4.75468445 414.6257782 C3.66169263 414.63422074 2.56870081 414.64266327 1.44258803 414.65136164 C-5.86926044 414.5722856 -5.86926044 414.5722856 -9.80330181 412.26900959 C-13.01013281 408.53169648 -12.78005962 405.24379235 -12.78705311 400.49578285 C-12.78940534 399.81678145 -12.79175757 399.13778006 -12.79418108 398.43820286 C-12.80087653 396.14641826 -12.80041269 393.85469029 -12.80000305 391.56289673 C-12.80330132 389.9098252 -12.80702681 388.25675447 -12.81114453 386.60368478 C-12.82117654 382.04808358 -12.82488324 377.49249556 -12.82753384 372.93688488 C-12.83143323 368.02881496 -12.84101169 363.12075551 -12.8497467 358.21269226 C-12.86951948 346.3547166 -12.87957748 334.49674007 -12.88847449 322.63875204 C-12.89285529 317.0587013 -12.89822256 311.47865152 -12.90346336 305.89860153 C-12.920475 287.35722615 -12.93497078 268.81585136 -12.9422121 250.27446938 C-12.94412208 245.46170679 -12.94604241 240.64894421 -12.94799805 235.83618164 C-12.94848179 234.63995317 -12.94896553 233.44372471 -12.94946393 232.21124689 C-12.95777027 212.81843985 -12.98311767 193.42569437 -13.01557872 174.03291424 C-13.04861194 154.13666553 -13.0666574 134.24044816 -13.06985635 114.34417188 C-13.0720247 103.16742407 -13.0808211 91.99076609 -13.10631752 80.81404495 C-13.12797334 71.29880217 -13.13610017 61.78367103 -13.12635074 52.26840641 C-13.1217914 47.41108971 -13.12378677 42.55400361 -13.14311218 37.69671822 C-13.16064018 33.25296178 -13.15983112 28.80960592 -13.14421489 24.36584584 C-13.14182299 22.75548899 -13.14624365 21.14510515 -13.15804354 19.53478976 C-13.17306312 17.35035174 -13.16356111 15.16735148 -13.14781666 12.98295021 C-13.14879347 11.76833221 -13.14977028 10.55371421 -13.15077668 9.30228961 C-12.55548937 5.49015731 -11.32919771 3.83986051 -8.65283203 1.11352539 C-5.75368292 -0.33604917 -3.23854903 -0.00580385 0 0 Z " fill="#C8CED5" transform="translate(34.65283203125,75.886474609375)"/>
<path d="M0 0 C13.31611223 9.10215267 22.97097219 22.56077119 26.36938477 38.41894531 C27.05424597 42.58139316 27.06619859 46.6891627 27.02734375 50.8984375 C27.03894531 52.15527344 27.03894531 52.15527344 27.05078125 53.4375 C27.02322589 62.33788152 25.24883978 69.91075047 21.21484375 77.8359375 C20.69083984 78.8712561 20.69083984 78.8712561 20.15625 79.92749023 C16.88936107 86.12024312 12.84123463 91.05900987 7.77734375 95.8984375 C7.1534375 96.54167969 6.52953125 97.18492187 5.88671875 97.84765625 C0.36628919 103.1941227 -6.1872921 105.98880546 -13.22265625 108.8984375 C-14.46982422 109.44564453 -14.46982422 109.44564453 -15.7421875 110.00390625 C-28.63655595 114.65400133 -45.7784443 113.04886969 -58.22265625 107.8984375 C-61.7890506 106.17144425 -64.99514528 104.19237091 -68.22265625 101.8984375 C-69.05410156 101.32351563 -69.88554687 100.74859375 -70.7421875 100.15625 C-83.75675604 90.52027145 -91.65673779 76.80085445 -94.22265625 60.8984375 C-95.92313057 41.01582432 -92.12150464 25.29828398 -79.16015625 9.7109375 C-58.45540044 -12.23045048 -25.33619335 -15.78101925 0 0 Z " fill="#F2F4F6" transform="translate(423.22265625,285.1015625)"/>
<path d="M0 0 C7.24573737 4.86269486 10.4476463 11.02656433 12.1875 19.4296875 C12.51589496 21.17193556 12.82493843 22.91800664 13.109375 24.66796875 C13.49610116 26.97141077 13.49610116 26.97141077 15.63671875 28.76953125 C18.57332085 29.01547215 21.42233987 29.14328377 24.36328125 29.18359375 C25.22609711 29.2029599 26.08891296 29.22232605 26.97787476 29.24227905 C29.73905491 29.30215329 32.50027659 29.34849123 35.26171875 29.39453125 C37.1315288 29.43270384 39.00132113 29.47175514 40.87109375 29.51171875 C45.45954425 29.60951876 50.04780152 29.68902393 54.63671875 29.76953125 C54.63671875 42.30953125 54.63671875 54.84953125 54.63671875 67.76953125 C8.76671875 67.76953125 -37.10328125 67.76953125 -84.36328125 67.76953125 C-84.36328125 55.55953125 -84.36328125 43.34953125 -84.36328125 30.76953125 C-66.61328125 30.39453125 -66.61328125 30.39453125 -61.02832031 30.29150391 C-59.56183069 30.25628668 -58.09535775 30.22036417 -56.62890625 30.18359375 C-55.49364502 30.16655396 -55.49364502 30.16655396 -54.33544922 30.14916992 C-49.0359909 30.01828578 -49.0359909 30.01828578 -44.36328125 27.76953125 C-43.0934548 25.22987834 -42.97009789 22.96338274 -42.61328125 20.14453125 C-41.0065698 10.39947704 -36.26114142 4.53283462 -28.36328125 -1.23046875 C-18.93918808 -6.84867814 -9.18599766 -5.12734771 0 0 Z " fill="#EDC5A2" transform="translate(196.36328125,26.23046875)"/>
<path d="M0 0 C31.35 0 62.7 0 95 0 C96.32 2.64 97.64 5.28 99 8 C102.01009453 10.39578952 104.36636238 11.78878746 108 13 C108.19844229 17.18064472 108.34321495 21.35876999 108.43945312 25.54272461 C108.47957871 26.9641088 108.53409912 28.38516486 108.60351562 29.80541992 C109.1682947 41.6616277 109.1682947 41.6616277 106.26928711 44.98266602 C104.22155077 46.235418 102.21564065 47.0940882 100 48 C96.96983962 51.18555322 96.08111608 52.67553569 95 57 C63.65 57 32.3 57 0 57 C-1.32 54.36 -2.64 51.72 -4 49 C-7.31054162 45.77434407 -9.58049273 44.76780291 -14 43 C-14 33.1 -14 23.2 -14 13 C-11.36 11.68 -8.72 10.36 -6 9 C-3.2273151 6.08138431 -1.8164947 3.63298939 0 0 Z " fill="#E1E5E8" transform="translate(134,165)"/>
<path d="M0 0 C1.75666992 -0.00483398 1.75666992 -0.00483398 3.54882812 -0.00976562 C21.68778744 0.10277163 39.83433114 7.45787867 53.09375 19.97265625 C67.38930345 35.04842476 75.92066635 52.72616725 75.6875 73.75 C75.69910156 74.79220703 75.71070313 75.83441406 75.72265625 76.90820312 C75.64934344 96.61712977 67.27594399 114.54620228 53.625 128.5625 C37.67006022 144.22771642 18.4555916 149.64250386 -3.35107422 149.6953125 C-22.7183798 149.41432998 -39.1458368 140.99210884 -52.6875 127.3125 C-53.45707031 126.57644531 -54.22664063 125.84039062 -55.01953125 125.08203125 C-61.86816496 118.11672576 -65.91053561 110.20692879 -69.6875 101.3125 C-70.37392578 99.73275391 -70.37392578 99.73275391 -71.07421875 98.12109375 C-76.96989981 81.59250018 -76.00495635 60.16280032 -68.66308594 44.26318359 C-58.90664131 24.75517744 -43.1200222 9.77284744 -22.35327148 2.49438477 C-14.85100426 0.17878574 -7.81122395 -0.10854953 0 0 Z M-23.6875 18.3125 C-24.67363281 18.79847656 -25.65976562 19.28445313 -26.67578125 19.78515625 C-42.52504509 28.30388383 -53.11231049 41.20895252 -58.6875 58.3125 C-63.10093286 73.56758246 -59.6948844 91.75785126 -52.40234375 105.43359375 C-45.00793912 117.84743478 -34.08992221 126.87908559 -20.6875 132.3125 C-19.90761719 132.63089844 -19.12773437 132.94929688 -18.32421875 133.27734375 C-12.099025 135.37822562 -6.00857663 135.58874218 0.5 135.625 C1.34353027 135.63055908 2.18706055 135.63611816 3.05615234 135.6418457 C18.91372327 135.45970003 33.16296924 128.35886759 44.5 117.5625 C57.80610401 103.76205157 61.77062581 87.83496925 61.5234375 69.23828125 C61.0669887 54.2853567 53.61755019 40.88748216 43.3125 30.3125 C27.62866014 16.20816742 11.56293564 13.49243357 -8.89697266 14.13769531 C-14.35730178 14.47974218 -18.84315747 15.84269148 -23.6875 18.3125 Z " fill="#040403" transform="translate(388.6875,261.6875)"/>
<path d="M0 0 C0.95618225 -0.00997513 1.9123645 -0.01995026 2.89752197 -0.03022766 C3.95003143 -0.03089233 5.00254089 -0.03155701 6.08694458 -0.03224182 C7.19271851 -0.04056534 8.29849243 -0.04888885 9.43777466 -0.0574646 C13.10878984 -0.08164465 16.77962764 -0.09034648 20.45071411 -0.09693909 C22.99418188 -0.10589919 25.53764909 -0.1150209 28.08111572 -0.1242981 C33.41933812 -0.14081236 38.75749364 -0.14852591 44.09573364 -0.15138245 C50.26593271 -0.1550176 56.4356343 -0.18490782 62.6056813 -0.22678703 C68.53984133 -0.26565379 74.47385172 -0.27697484 80.4081459 -0.2781086 C82.93359195 -0.28232403 85.45903792 -0.29481083 87.9844017 -0.31562614 C91.51381808 -0.34240109 95.04185443 -0.33775538 98.57131958 -0.32521057 C99.61978058 -0.34004486 100.66824158 -0.35487915 101.74847412 -0.37016296 C108.80266295 -0.29855452 108.80266295 -0.29855452 112.0960083 2.57723999 C113.73248974 5.81642641 114.11302577 8.6809459 114.45852661 12.27415466 C116.30884651 14.12447456 118.88324743 13.56555598 121.35305786 13.69993591 C124.54089171 14.56934515 125.50138419 15.56119192 127.45852661 18.27415466 C128.07377213 21.8519869 128.01862735 25.40130595 127.98977661 29.02415466 C127.99360352 30.07441833 127.99743042 31.12468201 128.00137329 32.20677185 C128.00409357 34.42585713 127.99672438 36.64497441 127.98001099 38.86399841 C127.95860407 42.26186062 127.97980987 45.65760827 128.00540161 49.05540466 C128.00275836 51.21165933 127.99763343 53.36791269 127.98977661 55.52415466 C127.99787354 56.54090271 128.00597046 57.55765076 128.01431274 58.60520935 C127.92126145 65.59981243 127.92126145 65.59981243 125.65188599 68.90696716 C122.68051099 70.75911542 119.90380104 70.89134639 116.45852661 71.27415466 C114.11068693 73.1969492 114.11068693 73.1969492 114.14602661 76.58665466 C113.27407401 81.26349132 112.27959441 82.45518122 108.45852661 85.27415466 C104.86573295 86.01487893 101.33104493 85.95731653 97.67312622 85.92112732 C96.58642136 85.92988892 95.49971649 85.93865051 94.38008118 85.94767761 C90.78993749 85.96967488 87.20102645 85.95511736 83.61087036 85.93821716 C81.11652897 85.94158492 78.62218917 85.9464372 76.12785339 85.95271301 C70.23231405 85.96102863 64.337222 85.94353611 58.4417482 85.91695917 C53.07195735 85.89550792 47.70276059 85.91067494 42.33300775 85.93514216 C36.51781636 85.96057647 30.70294531 85.9578721 24.88772774 85.94323349 C22.41533859 85.93989447 19.94292795 85.94400387 17.47056389 85.95563126 C14.01796985 85.96830606 10.5670049 85.94900796 7.11453247 85.92112732 C5.57696289 85.93630905 5.57696289 85.93630905 4.0083313 85.95179749 C-2.88741406 85.84844012 -2.88741406 85.84844012 -6.1723175 82.96418762 C-7.81106323 79.74448118 -8.07132319 76.83386328 -8.54147339 73.27415466 C-11.4216773 71.00945238 -11.4216773 71.00945238 -14.97897339 70.96165466 C-18.54147339 70.27415466 -18.54147339 70.27415466 -20.72872925 68.37962341 C-23.33970051 63.90668678 -23.1340754 59.9942703 -23.10787964 54.89915466 C-23.11407822 53.8970697 -23.12027679 52.89498474 -23.12666321 51.86253357 C-23.13375446 49.74779734 -23.13059954 47.63300521 -23.1178894 45.51829529 C-23.10401917 42.2848281 -23.13811138 39.05425277 -23.17623901 35.82102966 C-23.1771902 33.76373729 -23.1753314 31.7064413 -23.17037964 29.64915466 C-23.18363785 28.68445251 -23.19689606 27.71975037 -23.21055603 26.72581482 C-23.14680449 22.12525336 -23.04459054 19.95086506 -20.2326355 16.16868591 C-16.96729739 13.86994476 -14.47187496 13.64494726 -10.54147339 13.27415466 C-8.22960508 10.96228635 -8.11300734 9.9175914 -7.54147339 6.77415466 C-6.59816257 1.58594514 -5.37201823 0.02996823 0 0 Z M1.53090954 20.31804657 C-0.63102114 24.2615727 -4.4378982 25.90629627 -8.54147339 27.27415466 C-8.54147339 37.17415466 -8.54147339 47.07415466 -8.54147339 57.27415466 C-4.58147339 59.25415466 -4.58147339 59.25415466 -0.54147339 61.27415466 C1.29837036 63.09056091 1.29837036 63.09056091 2.39602661 64.83665466 C2.96643677 65.70483826 2.96643677 65.70483826 3.54837036 66.59056091 C4.45852661 68.27415466 4.45852661 68.27415466 5.45852661 71.27415466 C36.80852661 71.27415466 68.15852661 71.27415466 100.45852661 71.27415466 C101.44852661 68.96415466 102.43852661 66.65415466 103.45852661 64.27415466 C106.22399185 61.05146584 109.67458693 59.1661245 113.45852661 57.27415466 C113.45852661 47.37415466 113.45852661 37.47415466 113.45852661 27.27415466 C110.81852661 25.95415466 108.17852661 24.63415466 105.45852661 23.27415466 C103.06273709 20.26406014 101.66973915 17.90779229 100.45852661 14.27415466 C88.15867824 14.08883355 75.85916164 13.94666732 63.55820179 13.85965729 C57.84633404 13.81789713 52.135421 13.76125277 46.42410278 13.67063904 C40.91270758 13.58374398 35.40223078 13.53588677 29.89020348 13.51513672 C27.78691837 13.50034918 25.68368385 13.47147128 23.58078957 13.42831421 C20.63503906 13.37026132 17.69308675 13.36223995 14.74685669 13.36595154 C13.87651291 13.33718933 13.00616913 13.30842712 12.10945129 13.27879333 C6.10437916 13.36070625 4.15765873 14.92682376 1.53090954 20.31804657 Z " fill="#040403" transform="translate(128.54147338867188,150.72584533691406)"/>
<path d="M0 0 C56.76 0 113.52 0 172 0 C172 32.34 172 64.68 172 98 C115.24 98 58.48 98 0 98 C0 65.66 0 33.32 0 0 Z M27.24337769 8.80476284 C25.5630282 11.77149264 25.43483832 14.64553299 25 18 C22.29729975 20.70270025 19.87964287 20.6710273 16.19140625 21.2421875 C13.32152458 22.2346243 12.58615222 23.44077948 11 26 C10.54512916 28.21694817 10.54512916 28.21694817 10.59594727 30.59741211 C10.58326309 31.50192612 10.57057892 32.40644012 10.55751038 33.33836365 C10.56044601 34.30822708 10.56338165 35.27809052 10.56640625 36.27734375 C10.5611644 37.28084366 10.55592255 38.28434357 10.55052185 39.31825256 C10.54410297 41.43896561 10.5454369 43.55971427 10.55395508 45.68041992 C10.56246028 48.92235857 10.53370858 52.16253249 10.50195312 55.40429688 C10.50034087 57.46614531 10.5009191 59.52799685 10.50390625 61.58984375 C10.49267227 62.55768295 10.48143829 63.52552216 10.46986389 64.52268982 C10.51465878 68.8568778 10.59113628 71.32895322 12.88574219 75.0949707 C15.23089476 77.20804524 16.59653107 77.77996836 19.6875 78.25 C23.94716243 78.94716243 23.94716243 78.94716243 25 80 C25.49277063 82.24882595 25.89872541 84.5074309 26.3046875 86.7734375 C27.11821029 89.37853857 27.87508888 90.31067595 30 92 C32.15363291 92.4553604 32.15363291 92.4553604 34.57907104 92.39440918 C35.51835449 92.40575897 36.45763794 92.41710876 37.42538452 92.42880249 C38.96834702 92.42440659 38.96834702 92.42440659 40.54248047 92.41992188 C41.62728699 92.42839142 42.71209351 92.43686096 43.82977295 92.44558716 C47.42569617 92.4690389 51.0211935 92.46997727 54.6171875 92.46875 C57.1119911 92.4758471 59.60679305 92.48354543 62.10159302 92.49182129 C67.33550379 92.50528525 72.56930442 92.50700706 77.80322266 92.50097656 C83.1810238 92.49507202 88.55833239 92.50914983 93.93603516 92.54199219 C100.42347511 92.58108316 106.91049134 92.59579562 113.39804459 92.59120178 C115.8724156 92.59289713 118.34679434 92.60257923 120.82110214 92.62034607 C124.28080541 92.64245189 127.73903275 92.63287446 131.19873047 92.61523438 C132.22332367 92.62849762 133.24791687 92.64176086 134.30355835 92.65542603 C138.99329259 92.59979578 141.27004475 92.53788797 145.1321106 89.6920166 C147.39754575 86.427054 147.63086766 83.91280278 148 80 C150.71697481 77.28302519 153.20422849 77.27916309 156.90625 76.66015625 C159.37015172 76.12373978 159.37015172 76.12373978 161 73 C161.31596328 70.7879572 161.31596328 70.7879572 161.29052734 68.31665039 C161.30328705 67.36879166 161.31604675 66.42093292 161.32919312 65.4443512 C161.33141876 64.42244186 161.33364441 63.40053253 161.3359375 62.34765625 C161.3425943 61.29597763 161.3492511 60.24429901 161.35610962 59.16075134 C161.36623846 56.93571727 161.37092657 54.71065281 161.37060547 52.4855957 C161.37497871 49.07908165 161.41129727 45.67386287 161.44921875 42.26757812 C161.45508677 40.10677527 161.45905626 37.94596625 161.4609375 35.78515625 C161.48249405 34.2553286 161.48249405 34.2553286 161.50448608 32.69459534 C161.55496652 27.15923591 161.55496652 27.15923591 159.1027832 22.36181641 C156.84104538 20.89705691 155.48313875 20.4578068 152.8125 20.3125 C149 20 149 20 148 19 C147.50722937 16.75117405 147.10127459 14.4925691 146.6953125 12.2265625 C145.88098743 9.61889232 145.13040903 8.68777038 143 7 C140.80656855 6.54707374 140.80656855 6.54707374 138.33154297 6.61231995 C137.37254089 6.60241531 136.41353882 6.59251068 135.42547607 6.58230591 C133.84974823 6.58905838 133.84974823 6.58905838 132.2421875 6.59594727 C131.13466125 6.58908401 130.02713501 6.58222076 128.88604736 6.57514954 C125.2155688 6.55680888 121.54551466 6.56072921 117.875 6.56640625 C115.33056498 6.56184824 112.7861312 6.55654382 110.24169922 6.55052185 C104.90521672 6.54157664 99.56888979 6.54379752 94.23242188 6.55395508 C88.06166665 6.565441 81.8913458 6.55135446 75.72064781 6.5245586 C69.78592642 6.49975136 63.85134036 6.49721967 57.91656494 6.50367546 C55.39031247 6.50382923 52.86405185 6.49773921 50.33782959 6.48538399 C46.81082501 6.47056466 43.28478612 6.48108494 39.7578125 6.49829102 C38.18208466 6.48378906 38.18208466 6.48378906 36.57452393 6.46899414 C35.61552185 6.47882828 34.65651978 6.48866241 33.66845703 6.49879456 C32.83444366 6.49900384 32.0004303 6.49921312 31.1411438 6.49942875 C28.84688376 6.83293652 28.84688376 6.83293652 27.24337769 8.80476284 Z " fill="#BDDF8D" transform="translate(95,144)"/>
<path d="M0 0 C8.9101199 -0.06781972 17.82006792 -0.12284133 26.73038769 -0.15543652 C30.86796356 -0.17108182 35.00535343 -0.19229917 39.14282227 -0.22631836 C43.13691851 -0.25895259 47.13083602 -0.27686156 51.12505531 -0.28463173 C52.64767584 -0.29016797 54.17028675 -0.300979 55.69283104 -0.31719017 C57.8282307 -0.33901914 59.9628951 -0.34196474 62.09838867 -0.34057617 C63.3130632 -0.34723801 64.52773773 -0.35389984 65.77922058 -0.36076355 C69.30726439 0.03441707 71.18183 0.87929514 74 3 C75.28610688 5.57221376 75.13635424 7.41947546 75.15148926 10.30075073 C75.15983292 11.42521606 75.16817657 12.5496814 75.17677307 13.70822144 C75.18095749 14.94774567 75.18514191 16.1872699 75.18945312 17.46435547 C75.20218345 19.46116839 75.214914 21.45798131 75.2276535 23.45479417 C75.24041253 25.60500842 75.25072755 27.75522231 75.26036072 29.90545273 C75.28056175 34.38460767 75.30821789 38.8636973 75.33703613 43.34280396 C75.39716779 52.85350537 75.44897331 62.36424605 75.5 71.875 C75.55507498 82.1348846 75.6115934 92.39474938 75.67754889 102.6545707 C75.70589226 107.10752192 75.72949093 111.56046558 75.74947357 116.01346183 C75.75964303 118.11708293 75.77202906 120.22067688 75.78541565 122.32427979 C75.80172733 124.88973944 75.81453788 127.45522464 75.82322693 130.02072144 C75.83157059 131.15082642 75.83991425 132.2809314 75.84851074 133.44528198 C75.85624134 134.91809789 75.85624134 134.91809789 75.86412811 136.42066765 C75.99019143 138.81379849 76.12134323 140.76971653 77 143 C79.99615946 144.3045656 79.99615946 144.3045656 83 145 C83 148.96 83 152.92 83 157 C82.16597656 157.14695313 81.33195312 157.29390625 80.47265625 157.4453125 C71.87305738 159.1593219 64.84758017 161.17995451 59.22265625 168.2265625 C55.80209946 173.4953908 53.97885699 178.73124977 52.640625 184.84765625 C52.42921875 185.55792969 52.2178125 186.26820313 52 187 C51.34 187.33 50.68 187.66 50 188 C50 177.77 50 167.54 50 157 C52.475 156.01 52.475 156.01 55 155 C56.27425437 152.45149127 56.13160074 150.66056907 56.14044189 147.80641174 C56.14615204 146.70574371 56.15186218 145.60507568 56.15774536 144.47105408 C56.15886322 143.25801102 56.15998108 142.04496796 56.16113281 140.79516602 C56.16609772 139.5219751 56.17106262 138.24878418 56.17617798 136.93701172 C56.18930853 133.43910692 56.195748 129.94122132 56.20018864 126.44329572 C56.20311781 124.25926723 56.20722228 122.07524402 56.21169281 119.89121819 C56.22536837 113.06164402 56.2350352 106.23208188 56.2388947 99.40249497 C56.24337824 91.51148896 56.26093948 83.62065593 56.2898953 75.72970253 C56.31148736 69.63454537 56.32159762 63.53943696 56.32293582 57.44424194 C56.32398547 53.80166889 56.32992719 50.15925842 56.34775543 46.51672554 C56.36724493 42.45578577 56.3629571 38.39520978 56.35644531 34.33422852 C56.3656601 33.12320969 56.37487488 31.91219086 56.3843689 30.66447449 C56.37601517 29.00924271 56.37601517 29.00924271 56.36749268 27.3205719 C56.36895924 26.35989587 56.3704258 25.39921984 56.3719368 24.40943241 C55.93396091 21.57219418 55.2907054 20.68051667 53 19 C50.56247751 18.52778579 50.56247751 18.52778579 47.79418945 18.56762695 C46.20287956 18.53793571 46.20287956 18.53793571 44.579422 18.50764465 C43.43559555 18.50125473 42.2917691 18.49486481 41.11328125 18.48828125 C39.94113571 18.47033005 38.76899017 18.45237885 37.56132507 18.43388367 C33.81175349 18.37963346 30.06231026 18.34583698 26.3125 18.3125 C23.77276854 18.27934001 21.23305405 18.2448516 18.69335938 18.20898438 C12.46233199 18.12389815 6.23134366 18.0571567 0 18 C0 12.06 0 6.12 0 0 Z " fill="#C7CDD4" transform="translate(265,76)"/>
<path d="M0 0 C1.12396683 -0.00700928 2.24793365 -0.01401855 3.40596008 -0.02124023 C7.1264405 -0.03886488 10.84616204 -0.02718004 14.56665039 -0.01367188 C17.14970547 -0.01636567 19.73275956 -0.02024715 22.31581116 -0.02526855 C27.73213273 -0.03116986 33.14816858 -0.02296177 38.56445312 -0.00390625 C44.82097728 0.01785161 51.0769798 0.0108191 57.33349127 -0.01121187 C63.35742122 -0.03157275 69.38109658 -0.02938972 75.40506172 -0.01768494 C77.96593867 -0.01501497 80.52682892 -0.01829685 83.08769035 -0.02760315 C86.66689242 -0.03775424 90.24509144 -0.0222854 93.82421875 0 C95.41485641 -0.01214539 95.41485641 -0.01214539 97.03762817 -0.02453613 C101.50346077 0.02701404 104.22542862 0.07917487 108.13868713 2.36242676 C109.97680664 4.51757812 109.97680664 4.51757812 110.53930664 7.51757812 C109.81525282 11.37919851 109.21983685 12.26880935 105.97680664 14.51757812 C102.2728405 15.13142933 98.592973 15.06342176 94.84594727 15.03515625 C93.71062057 15.04216553 92.57529388 15.0491748 91.40556335 15.05639648 C87.64781328 15.07402042 83.89081455 15.06233731 80.13305664 15.04882812 C77.5251857 15.05152175 74.91731574 15.05540309 72.30944824 15.0604248 C66.84187662 15.06769972 61.37452121 15.05811784 55.90698242 15.0390625 C49.58795613 15.01729374 43.26944608 15.02434524 36.9504323 15.04636812 C30.86883737 15.06671428 24.78747113 15.06455196 18.70585632 15.05284119 C16.11903308 15.0501693 13.5321967 15.05345979 10.94538879 15.0627594 C7.33245746 15.0728969 3.72052294 15.0574613 0.10766602 15.03515625 C-1.50239067 15.04730164 -1.50239067 15.04730164 -3.14497375 15.05969238 C-10.3596614 14.97700721 -10.3596614 14.97700721 -13.68762207 12.67272949 C-15.52805589 9.70290415 -15.59498636 7.94833614 -15.02319336 4.51757812 C-11.53606531 -1.0812347 -5.89329494 -0.04491279 0 0 Z " fill="#020202" transform="translate(166.023193359375,400.482421875)"/>
<path d="M0 0 C1.4868203 -0.01485695 1.4868203 -0.01485695 3.00367737 -0.03001404 C4.08999451 -0.02551239 5.17631165 -0.02101074 6.29554749 -0.01637268 C7.44048172 -0.02323593 8.58541595 -0.03009918 9.76504517 -0.03717041 C13.56057537 -0.05551474 17.35569523 -0.05158987 21.15126038 -0.0459137 C23.78298071 -0.05047184 26.41469985 -0.05577631 29.04641724 -0.0617981 C34.56700077 -0.07183384 40.08746721 -0.06852174 45.60804749 -0.05836487 C51.9889513 -0.04688456 58.36943477 -0.06095571 64.75028318 -0.08776134 C70.88898773 -0.11258406 77.02749826 -0.1150974 83.16624641 -0.10864449 C85.77819582 -0.10849081 88.39015314 -0.11457337 91.00207329 -0.12693596 C94.65099958 -0.14177211 98.29899458 -0.13122189 101.94789124 -0.11402893 C103.03218414 -0.1236969 104.11647705 -0.13336487 105.23362732 -0.14332581 C112.5004472 -0.07143395 112.5004472 -0.07143395 115.88882446 2.19638062 C117.18641663 4.38768005 117.18641663 4.38768005 117.18641663 7.95018005 C116.07137626 11.78313131 115.52359111 12.43791761 112.18641663 14.38768005 C109.89378357 14.76799679 109.89378357 14.76799679 107.32850647 14.77536011 C106.35274658 14.78526474 105.37698669 14.79516937 104.37165833 14.80537415 C103.30763794 14.8008725 102.24361755 14.79637085 101.14735413 14.79173279 C100.02178101 14.79859604 98.89620789 14.80545929 97.73652649 14.81253052 C94.01136201 14.83085048 90.28661654 14.82695377 86.56141663 14.8212738 C83.97596601 14.82583278 81.3905166 14.83113749 78.80506897 14.8371582 C73.38460286 14.84609932 67.96429811 14.8438876 62.5438385 14.83372498 C56.27935861 14.82223943 50.01530661 14.83632677 43.7508831 14.86312145 C37.72162957 14.88794395 31.69259636 14.89045782 25.6632843 14.88400459 C23.09878324 14.88385094 20.53427411 14.88993152 17.96980286 14.90229607 C14.38803533 14.9171327 10.80721646 14.90658212 7.22547913 14.88938904 C5.62944855 14.90389099 5.62944855 14.90389099 4.00117493 14.91868591 C-3.13780448 14.84673614 -3.13780448 14.84673614 -6.47618103 12.57897949 C-8.43067288 9.37659473 -8.28062722 7.05731027 -7.81358337 3.38768005 C-5.54856649 0.26555617 -3.7540867 0.01057981 0 0 Z " fill="#060606" transform="translate(158.81358337402344,280.61231994628906)"/>
<path d="M0 0 C0.98417404 -0.01134979 1.96834808 -0.02269958 2.98234558 -0.03439331 C4.05571671 -0.03146271 5.12908783 -0.0285321 6.23498535 -0.0255127 C7.37031204 -0.03398224 8.50563873 -0.04245178 9.67536926 -0.05117798 C13.43298503 -0.07460176 17.19019269 -0.0755689 20.94787598 -0.07434082 C23.55574712 -0.08143848 26.1636167 -0.08913689 28.77148438 -0.09741211 C34.23900682 -0.11201537 39.7064152 -0.11260076 45.1739502 -0.10656738 C51.49303405 -0.09992273 57.81153475 -0.12280862 64.13050032 -0.15988111 C70.21208742 -0.19426548 76.29339873 -0.20091616 82.37507629 -0.1967926 C84.96191649 -0.19848921 87.54876399 -0.20818329 90.13554382 -0.22593689 C93.74859251 -0.24800672 97.36022385 -0.23848427 100.9732666 -0.2208252 C102.04663773 -0.23408844 103.12000885 -0.24735168 104.22590637 -0.26101685 C111.46312836 -0.17859181 111.46312836 -0.17859181 114.76464844 2.77270508 C116.27839716 5.73550298 116.85555385 7.13822171 116.10412598 10.39440918 C113.92698914 12.90540993 112.12256746 14.23024696 108.80332756 14.76527405 C105.84605815 14.91667359 102.91266964 14.93459716 99.95153809 14.9119873 C98.82581894 14.91899658 97.70009979 14.92600586 96.54026794 14.93322754 C92.82041741 14.95082836 89.10132795 14.93917733 85.38146973 14.92565918 C82.79744826 14.92835328 80.21342778 14.93223502 77.62940979 14.93725586 C72.21486826 14.94315362 66.80061283 14.93495958 61.3861084 14.91589355 C55.12897564 14.89411465 48.87236404 14.90118544 42.61524385 14.92319918 C36.59077441 14.94354469 30.56655971 14.94138377 24.54205513 14.92967224 C21.98035166 14.92700071 19.41863492 14.9302896 16.85694695 14.93959045 C13.28004373 14.94972783 9.70414738 14.93429311 6.12731934 14.9119873 C5.06487 14.92008423 4.00242065 14.92818115 2.90777588 14.93652344 C-4.22092712 14.85399697 -4.22092712 14.85399697 -7.55357361 12.5847168 C-9.53252917 9.35554292 -9.43407023 7.0945081 -8.89587402 3.39440918 C-6.0310374 0.58779842 -3.94907943 0.01724407 0 0 Z " fill="#010101" transform="translate(159.8958740234375,340.6055908203125)"/>
<path d="M0 0 C0.66 0 1.32 0 2 0 C4.26378916 3.93072314 6.52402771 7.86345779 8.78100586 11.7980957 C9.54923914 13.13621957 10.31843826 14.47378943 11.08862305 15.81079102 C12.19574539 17.73308661 13.29937462 19.65735036 14.40234375 21.58203125 C14.74716293 22.17901321 15.09198212 22.77599518 15.44725037 23.3910675 C16.88923191 25.9141101 18.07767445 28.23302335 19 31 C13.56669996 30.60748023 8.25986521 30.13058982 2.9375 28.9375 C-0.52893275 28.21763377 -3.89855973 27.73688256 -7.4375 27.5625 C-8.24058594 27.52253906 -9.04367187 27.48257812 -9.87109375 27.44140625 C-12.22060625 27.81011151 -12.22060625 27.81011151 -13.50537109 30.18994141 C-14.96600529 32.93608639 -16.04056294 35.57804536 -17.04296875 38.51953125 C-17.56987305 40.0519043 -17.56987305 40.0519043 -18.10742188 41.61523438 C-18.46384766 42.67033203 -18.82027344 43.72542969 -19.1875 44.8125 C-19.55552734 45.88693359 -19.92355469 46.96136719 -20.30273438 48.06835938 C-21.20694696 50.71053902 -22.10584377 53.35440372 -23 56 C-25.57558802 53.55770787 -27.58895701 51.32996104 -29.26171875 48.19921875 C-29.65456055 47.47629639 -30.04740234 46.75337402 -30.45214844 46.00854492 C-30.85981445 45.2426001 -31.26748047 44.47665527 -31.6875 43.6875 C-34.25051997 38.9314054 -36.81510611 34.2124977 -39.72265625 29.65625 C-40.14780518 28.98505127 -40.5729541 28.31385254 -41.01098633 27.62231445 C-41.82022191 26.3586313 -42.64377433 25.10397182 -43.4831543 23.86010742 C-45.33284975 20.94884763 -46.12747332 19.58319046 -45.375 16.140625 C-44 14 -44 14 -41.75 13.0625 C-39 13 -39 13 -36.28125 13.96875 C-28.71501254 16.34671034 -19.76996171 16.31162366 -12.5 13 C-7.24079876 9.93579093 -2.73868042 5.47736083 0 0 Z " fill="#C1E591" transform="translate(458,423)"/>
<path d="M0 0 C0.66 0 1.32 0 2 0 C2.91584006 1.4246401 3.83095772 2.84975042 4.7421875 4.27734375 C8.37612202 9.25425407 13.8958942 13.7583101 20 15 C27.43608806 15.51311451 33.9495415 15.53328163 41 13 C43.75 13.125 43.75 13.125 46 14 C47.30224609 15.71704102 47.30224609 15.71704102 48 18 C47.06884766 20.54272461 47.06884766 20.54272461 45.4140625 23.40234375 C44.81609863 24.45236572 44.21813477 25.5023877 43.60205078 26.58422852 C42.94962402 27.69080811 42.29719727 28.7973877 41.625 29.9375 C40.97901855 31.06019287 40.33303711 32.18288574 39.66748047 33.33959961 C35.25258196 40.97745146 30.75681153 48.56932857 26 56 C23.66827385 53.66827385 23.16475985 51.99200955 22.125 48.87890625 C21.77953125 47.86119141 21.4340625 46.84347656 21.078125 45.79492188 C20.72234375 44.72822266 20.3665625 43.66152344 20 42.5625 C19.29562468 40.45830634 18.58745358 38.35537846 17.875 36.25390625 C17.56304687 35.31877197 17.25109375 34.3836377 16.9296875 33.42016602 C16.02419677 30.79856771 16.02419677 30.79856771 14 28 C7.24798765 27.46275737 1.19163861 28.57986848 -5.375 30.0625 C-7.1312363 30.45631496 -8.88900965 30.84335448 -10.6484375 31.22265625 C-11.41333496 31.39547119 -12.17823242 31.56828613 -12.96630859 31.74633789 C-15 32 -15 32 -18 31 C-15.91926635 27.38842724 -13.83794837 23.77719205 -11.75610352 20.16625977 C-11.04891404 18.93946294 -10.34188043 17.71257625 -9.63500977 16.4855957 C-8.61516264 14.71541709 -7.59474343 12.94556931 -6.57421875 11.17578125 C-5.65515747 9.58117065 -5.65515747 9.58117065 -4.7175293 7.9543457 C-4.15074463 6.97941162 -3.58395996 6.00447754 -3 5 C-2.20879761 3.57143677 -2.20879761 3.57143677 -1.40161133 2.11401367 C-0.93907959 1.41638916 -0.47654785 0.71876465 0 0 Z " fill="#C1E590" transform="translate(319,423)"/>
<path d="M0 0 C3.82703811 0.74673914 5.27817514 2.40944284 7.5625 5.5 C7.50359736 9.41434834 6.89368004 11.11313995 4.33203125 14.10546875 C3.35621094 14.95753906 2.38039063 15.80960937 1.375 16.6875 C0.84398682 17.15526855 0.31297363 17.62303711 -0.23413086 18.10498047 C-5.3420372 22.5485101 -10.66719509 26.72230589 -16.0390625 30.83984375 C-18.26732668 32.55733285 -20.41683101 34.32682089 -22.5234375 36.19140625 C-23.46445312 37.01511719 -24.40546875 37.83882813 -25.375 38.6875 C-26.18839844 39.42355469 -27.00179687 40.15960938 -27.83984375 40.91796875 C-31.48323756 43.13687776 -33.22567067 43.3087773 -37.4375 42.5 C-40.65559779 40.29630672 -43.3226633 37.63904021 -46.0625 34.875 C-46.79984375 34.16214844 -47.5371875 33.44929688 -48.296875 32.71484375 C-52.26009984 28.84395211 -56.14242743 24.96072077 -59.4375 20.5 C-59.4375 17.20546598 -59.00358099 15.39381209 -57.25 12.625 C-54.32177586 10.80748157 -52.84505683 10.85706475 -49.4375 11.5 C-46.47823346 13.53900682 -43.98126459 15.97088281 -41.4375 18.5 C-40.75558594 19.16773438 -40.07367188 19.83546875 -39.37109375 20.5234375 C-37.71038387 22.16737253 -36.06673069 23.8249472 -34.4375 25.5 C-30.5202188 23.84813443 -27.54668398 21.19573147 -24.375 18.4375 C-23.21937516 17.44588556 -22.06311403 16.45501221 -20.90625 15.46484375 C-20.32746094 14.96839355 -19.74867188 14.47194336 -19.15234375 13.96044922 C-3.63586708 0.74581889 -3.63586708 0.74581889 0 0 Z " fill="#050505" transform="translate(415.4375,314.5)"/>
<path d="M0 0 C2.3125 1.5625 2.3125 1.5625 4 4 C4.40625 7.34765625 4.40625 7.34765625 4 11 C1.98046875 13.5546875 1.98046875 13.5546875 -0.8125 15.875 C-1.81667969 16.72449219 -2.82085937 17.57398438 -3.85546875 18.44921875 C-4.9029592 19.30032493 -5.95112618 20.15059922 -7 21 C-7.94488281 21.79019531 -8.88976562 22.58039063 -9.86328125 23.39453125 C-11.68464568 24.9067532 -13.51913829 26.40332011 -15.3671875 27.8828125 C-17.08471153 29.26396684 -18.77909536 30.67455221 -20.4453125 32.1171875 C-21.20585938 32.75914062 -21.96640625 33.40109375 -22.75 34.0625 C-23.40484375 34.63097656 -24.0596875 35.19945312 -24.734375 35.78515625 C-28.06668688 37.57196486 -30.27209089 37.51238578 -34 37 C-36.33398868 35.38049765 -38.04523918 33.98589689 -40 32 C-40.51328857 31.49960205 -41.02657715 30.9992041 -41.55541992 30.48364258 C-43.0554354 29.00630808 -44.52783712 27.50500304 -46 26 C-46.77988281 25.24074219 -47.55976562 24.48148437 -48.36328125 23.69921875 C-52.94506465 18.97052446 -52.94506465 18.97052446 -53.1875 14.6875 C-51.80606527 11.56109508 -51.12992456 10.40022941 -48 9 C-43.697917 9.15237602 -41.53101085 9.57735871 -38.12890625 12.28515625 C-36.85853516 13.65994141 -36.85853516 13.65994141 -35.5625 15.0625 C-34.69753906 15.98160156 -33.83257812 16.90070313 -32.94140625 17.84765625 C-32.30074219 18.55792969 -31.66007812 19.26820313 -31 20 C-26.74814759 18.27400051 -23.64524349 15.24438776 -20.25 12.25 C-18.9973881 11.16517033 -17.74349049 10.08182335 -16.48828125 9 C-15.88709473 8.48179687 -15.2859082 7.96359375 -14.66650391 7.4296875 C-12.61503561 5.66974048 -10.55299702 3.93268979 -8.4375 2.25 C-7.87933594 1.80140625 -7.32117188 1.3528125 -6.74609375 0.890625 C-4.37648388 -0.31803507 -2.62359793 -0.25729819 0 0 Z " fill="#050505" transform="translate(136,329)"/>
<path d="M0 0 C3.0625 0.6875 3.0625 0.6875 5 1.75 C6.79017424 5.01443537 6.67310014 7.02389913 6.0625 10.6875 C2.436106 15.83651456 -3.19585695 19.5983835 -8.12109375 23.42578125 C-10.21727958 25.10912605 -12.22430782 26.81282411 -14.22265625 28.60546875 C-14.78710449 29.10530273 -15.35155273 29.60513672 -15.93310547 30.12011719 C-17.03492171 31.10014537 -18.12702311 32.09124176 -19.20751953 33.09472656 C-22.9913327 36.43037838 -25.87056839 37.77456068 -30.9375 37.6875 C-33.4921875 36.1328125 -33.4921875 36.1328125 -35.8125 33.8125 C-36.65425781 32.98363281 -37.49601562 32.15476562 -38.36328125 31.30078125 C-39.21277344 30.43839844 -40.06226562 29.57601563 -40.9375 28.6875 C-41.79730469 27.89730469 -42.65710938 27.10710937 -43.54296875 26.29296875 C-44.75919922 25.15794922 -44.75919922 25.15794922 -46 24 C-46.73347656 23.31550781 -47.46695313 22.63101562 -48.22265625 21.92578125 C-50.35986746 19.13620945 -50.79223582 17.17852621 -50.9375 13.6875 C-48.76486663 10.74805485 -47.3011242 8.97187975 -43.65234375 8.2109375 C-39.64768858 8.91391294 -37.4156916 11.42732629 -34.625 14.1875 C-34.07521484 14.71214844 -33.52542969 15.23679687 -32.95898438 15.77734375 C-31.60786829 17.06971566 -30.27121783 18.37718073 -28.9375 19.6875 C-25.42334063 18.13473191 -22.75169888 16.02182968 -19.8125 13.5625 C-18.84570312 12.76714844 -17.87890625 11.97179687 -16.8828125 11.15234375 C-14.98352588 9.5628877 -13.10168895 7.95222854 -11.2421875 6.31640625 C-4.86994431 0.85030774 -4.86994431 0.85030774 0 0 Z " fill="#050505" transform="translate(133.9375,389.3125)"/>
<path d="M0 0 C3.1875 0.9375 3.1875 0.9375 5.1875 2.9375 C5.89578339 6.30184612 6.15905068 7.74290963 5.1875 10.9375 C2.26238397 14.43774455 -1.23365563 17.1299996 -4.8125 19.9375 C-6.64645603 21.45758237 -8.47979458 22.97841005 -10.3125 24.5 C-11.22515625 25.2321875 -12.1378125 25.964375 -13.078125 26.71875 C-14.90920675 28.20454205 -16.71168328 29.72625726 -18.484375 31.28125 C-22.14057244 34.42779568 -24.78122059 36.67531032 -29.5 37.875 C-33.5592762 36.72614824 -35.21373488 35.03029557 -37.984375 31.94140625 C-39.86909294 29.87546543 -41.86275591 28.11332604 -44 26.3125 C-49.92654851 21.13541774 -49.92654851 21.13541774 -51.8125 17.9375 C-51.74822343 14.72367168 -51.34362958 12.77612565 -49.625 10.0625 C-46.69677586 8.24498157 -45.22005683 8.29456475 -41.8125 8.9375 C-38.28865341 11.44023195 -35.07958478 14.34409749 -32.38671875 17.73046875 C-30.84824249 19.15184595 -30.84824249 19.15184595 -28.5859375 19.015625 C-24.46849204 17.41504057 -21.66487123 14.64916396 -18.4375 11.6875 C-5.41740013 -0.08880984 -5.41740013 -0.08880984 0 0 Z " fill="#050505" transform="translate(134.8125,269.0625)"/>
<path d="M0 0 C1.703125 1.234375 1.703125 1.234375 3 3 C3.29296875 5.26171875 3.29296875 5.26171875 3.1875 7.6875 C3.16042969 8.49574219 3.13335937 9.30398437 3.10546875 10.13671875 C3.05326172 11.05904297 3.05326172 11.05904297 3 12 C4.216875 11.896875 5.43375 11.79375 6.6875 11.6875 C10.26295245 11.6875 10.92756607 11.94718359 14 14.1875 C16 17 16 17 16.5625 19.5625 C15.77478637 22.97592574 14.94500146 24.0606088 12 26 C8.96988757 26.32856641 6.03477003 26.23344385 3 26 C3.04640625 26.60328125 3.0928125 27.2065625 3.140625 27.828125 C3.43175822 34.2746462 3.43175822 34.2746462 1.4375 37.625 C-1 39 -1 39 -4.5625 39 C-8 38 -8 38 -9.9375 36.4375 C-11.49883222 32.8556202 -11.19450345 29.89006898 -11 26 C-12.2375 26.0825 -13.475 26.165 -14.75 26.25 C-17.8510592 26.23900334 -18.81412391 26.12081946 -21.5 24.375 C-23.45562482 21.27859404 -23.60024477 19.60146865 -23 16 C-21.5 13.625 -21.5 13.625 -19 12 C-16.24150058 11.67361266 -13.79515088 11.81365661 -11 12 C-11.12375 10.14375 -11.12375 10.14375 -11.25 8.25 C-11.23373935 5.19299695 -11.10738813 4.171821 -9.4375 1.5 C-6.08965651 -0.56021138 -3.85985753 -0.49125459 0 0 Z " fill="#040404" transform="translate(185,174)"/>
<path d="M0 0 C2.4375 1.5625 2.4375 1.5625 4 4 C4.70476018 8.93332128 4.77041398 10.84437903 2 15 C-1.30984986 17.20656657 -3.14807289 17.81400735 -7.05859375 17.546875 C-10.81838767 16.48777812 -12.15396038 14.27523158 -14 11 C-14.07144479 6.8562023 -13.68996523 4.84576383 -11.0625 1.625 C-7.11963259 -1.4815016 -4.88477503 -1.09486337 0 0 Z " fill="#080705" transform="translate(186,41)"/>
</svg>
