<?xml version="1.0" encoding="UTF-8"?>
<svg version="1.1" xmlns="http://www.w3.org/2000/svg" width="512" height="512">
<path d="M0 0 C0.98793295 -0.00445784 1.9758659 -0.00891569 2.99373621 -0.01350862 C4.6336357 -0.01323207 4.6336357 -0.01323207 6.30666447 -0.01294994 C7.46190194 -0.01662663 8.61713941 -0.02030332 9.80738407 -0.02409142 C13.02372532 -0.03322943 16.24003658 -0.03783038 19.45638859 -0.04048073 C22.92134562 -0.04437964 26.38628781 -0.05395811 29.85123539 -0.0626936 C38.2227485 -0.08246752 46.59426283 -0.09252441 54.96579346 -0.10142139 C58.9048682 -0.1058019 62.84394158 -0.11116924 66.78301525 -0.11641026 C79.87109028 -0.13342183 92.95916445 -0.1479178 106.04724884 -0.155159 C109.44459821 -0.15706898 112.84194757 -0.15898931 116.23929691 -0.16094494 C117.50593598 -0.16167055 117.50593598 -0.16167055 118.79816372 -0.16241082 C132.48892141 -0.17071788 146.17959191 -0.19606648 159.87031149 -0.22852562 C173.91531519 -0.26155428 187.96027451 -0.27960386 202.00531727 -0.28280324 C209.8956207 -0.284972 217.78579691 -0.29377418 225.67606258 -0.31926441 C232.39313131 -0.34091408 239.11004192 -0.34905021 245.82714158 -0.33929763 C249.25642697 -0.33473642 252.68538577 -0.3367437 256.11462688 -0.35605907 C259.8271947 -0.37360042 263.5389222 -0.36675911 267.25148869 -0.35352612 C268.34252429 -0.36449536 269.43355989 -0.37546461 270.55765718 -0.38676625 C272.04346823 -0.37389492 272.04346823 -0.37389492 273.55929565 -0.36076355 C274.41675918 -0.36174036 275.2742227 -0.36271717 276.15766996 -0.36372358 C278.3425684 0.13422108 278.3425684 0.13422108 280.11845148 1.85523516 C281.53926158 4.50041239 281.71564032 6.1021276 281.71171188 9.09298038 C281.71768503 10.09719571 281.72365817 11.10141104 281.72981232 12.13605714 C281.7210738 13.23721699 281.71233528 14.33837683 281.70333195 15.47290516 C281.70589522 16.64421883 281.7084585 17.81553251 281.71109945 19.02234054 C281.7151904 22.27428655 281.7058001 25.52587492 281.69076526 28.77777863 C281.67782163 32.28421682 281.68219317 35.79063803 281.68447208 39.29709339 C281.68604588 45.3724943 281.6766256 51.44779863 281.65975857 57.52317524 C281.63538751 66.30715648 281.62756524 75.09109098 281.62379459 83.87510237 C281.61722713 98.1262153 281.59725798 112.37727674 281.56888676 126.6283617 C281.54135381 140.47276012 281.52011649 154.31714456 281.50736332 168.16156483 C281.50657515 169.01479467 281.50578698 169.86802451 281.50497492 170.7471098 C281.50105984 175.02747155 281.49726871 179.30783341 281.49353921 183.58819532 C281.46243413 219.10357395 281.40959032 254.61889276 281.3425684 290.13422108 C281.90522404 290.12832966 282.46787968 290.12243824 283.04758549 290.11636829 C285.64068993 290.09272691 288.23377158 290.07826697 290.8269434 290.06390858 C291.71172367 290.05448231 292.59650394 290.04505604 293.50809574 290.03534412 C318.8724539 289.93033988 341.34145498 300.95924291 360.3425684 317.13422108 C361.01932621 317.70656483 361.69608402 318.27890858 362.39334965 318.86859608 C379.24435935 334.47287236 391.15199411 359.18512248 392.51957035 382.10004139 C393.19221504 416.262888 385.83992117 442.80067213 361.6550684 468.19672108 C340.90345398 488.37979812 314.47681482 496.58520609 286.05057621 496.49774647 C269.68914415 496.25663288 255.88918448 492.4888062 241.3425684 485.13422108 C240.28424809 484.59926014 239.22592777 484.0642992 238.13553715 483.51312733 C226.89481352 477.36976985 212.18917503 466.82743434 206.3425684 455.13422108 C205.75199549 455.13324427 205.16142259 455.13226746 204.55295354 455.13126105 C169.56420758 455.07301088 134.57552801 454.9992307 99.58685936 454.9052348 C95.38734666 454.8939664 91.18783362 454.88282798 86.98832035 454.87176991 C86.15225977 454.86956622 85.31619918 454.86736254 84.45480343 454.86509208 C70.91081802 454.82970302 57.36683267 454.80484797 43.82281814 454.78387406 C29.92925447 454.7621248 16.03575089 454.72908274 2.14223832 454.68551952 C-6.43337732 454.65898768 -15.00891805 454.64130361 -23.58457271 454.63487504 C-29.46225217 454.62962583 -35.33983731 454.61342464 -41.21746626 454.58855542 C-44.61045315 454.57452429 -48.00327115 454.56537556 -51.39628887 454.56921291 C-55.07315052 454.57085659 -58.74948644 454.55424299 -62.42627621 454.53294849 C-63.50117752 454.53779607 -64.57607884 454.54264365 -65.68355292 454.54763812 C-71.341072 454.4933397 -75.44476687 454.34688581 -79.6574316 450.13422108 C-79.76155299 448.15064468 -79.79405367 446.16330404 -79.80003262 444.17700577 C-79.80634056 442.87367497 -79.8126485 441.57034417 -79.81914759 440.2275185 C-79.82113152 438.76212893 -79.82300843 437.29673921 -79.82479 435.83134937 C-79.83023244 434.28938622 -79.83609545 432.74742451 -79.84234571 431.20546442 C-79.85824959 426.94758344 -79.86772921 422.68970825 -79.87611055 418.43180668 C-79.88409764 414.78469473 -79.89579177 411.13759852 -79.90752536 407.49049699 C-79.94949758 394.42253999 -79.97664565 381.3545645 -80.0011816 368.28656483 C-80.0031565 367.25566098 -80.0051314 366.22475714 -80.00716615 365.16261378 C-80.04632394 344.70335361 -80.08004529 324.24408745 -80.10224819 303.78480148 C-80.10721776 299.28351743 -80.11226204 294.78223347 -80.11739254 290.28094959 C-80.11929855 288.60272476 -80.11929855 288.60272476 -80.12124306 286.8905964 C-80.14260243 268.76706672 -80.19159396 250.64371838 -80.25163668 232.52027994 C-80.3127367 213.92472744 -80.34743328 195.32926851 -80.3567214 176.73361689 C-80.36263664 166.28826484 -80.38043141 155.84321976 -80.42810726 145.39796734 C-80.46867527 136.50157109 -80.48559853 127.60553185 -80.47145444 118.70904719 C-80.46497987 114.1691342 -80.46988654 109.62998183 -80.50532818 105.09018612 C-80.53752439 100.93271909 -80.53733129 96.77654986 -80.51151115 92.61904997 C-80.50786151 91.11623554 -80.51602742 89.6133355 -80.53729266 88.1106671 C-80.7049973 75.49868438 -80.7049973 75.49868438 -76.31277084 70.40104389 C-75.12023571 69.28378654 -73.90222682 68.19294149 -72.6574316 67.13422108 C-71.53693372 65.98949939 -70.42427102 64.83699597 -69.323493 63.67329884 C-68.16347307 62.50745921 -67.00083242 61.34422271 -65.8358984 60.18329334 C-65.19435314 59.53999577 -64.55280788 58.89669819 -63.89182186 58.23390675 C-61.79924969 56.13698099 -59.7030984 54.04367752 -57.60665035 51.95062733 C-56.14156393 50.4848665 -54.67662592 49.01895732 -53.21182919 47.55290699 C-50.15649952 44.4961096 -47.09938468 41.44111209 -44.04097652 38.38739491 C-40.11552064 34.46766618 -36.19461207 30.54342411 -32.27500343 26.61784935 C-29.25803429 23.59727542 -26.2386984 20.57907639 -23.21862888 17.56160259 C-21.77096061 16.11460225 -20.32403714 14.66685636 -18.87786579 13.21835995 C-16.86497885 11.20294459 -14.84893387 9.19074345 -12.83199215 7.17938709 C-12.23303127 6.57840199 -11.6340704 5.97741688 -11.01695919 5.3582201 C-7.13733389 1.49855924 -5.42724756 0.01132276 0 0 Z M-13.81001949 30.15741444 C-14.69085705 31.03509983 -15.5716946 31.91278522 -16.47922421 32.81706715 C-17.44630634 33.78593904 -18.41325776 34.75494142 -19.38008785 35.72406483 C-20.36500287 36.70830683 -21.35006634 37.69240031 -22.33527279 38.67635059 C-24.40238092 40.74198161 -26.46766213 42.80941797 -28.53169918 44.87811756 C-31.18389111 47.53600678 -33.84054588 50.18938262 -36.49858093 52.84142685 C-38.53433377 54.87357445 -40.56770893 56.90808764 -42.60036182 58.94333553 C-43.57928539 59.92292847 -44.55895862 60.90177282 -45.53937626 61.87987041 C-46.90674323 63.2447115 -48.27058457 64.61308203 -49.63423824 65.98163319 C-50.41287731 66.76106785 -51.19151638 67.54050251 -51.99375057 68.3435564 C-53.77087384 69.84894849 -53.77087384 69.84894849 -53.6574316 71.13422108 C-38.8074316 71.13422108 -23.9574316 71.13422108 -8.6574316 71.13422108 C-8.6574316 56.28422108 -8.6574316 41.43422108 -8.6574316 26.13422108 C-10.70113377 26.13422108 -12.49294948 28.8416888 -13.81001949 30.15741444 Z M89.3425684 76.13422108 C89.30518559 78.12066639 89.26780277 80.1071117 89.22928715 82.15375233 C89.18061024 84.07996721 89.13183032 86.00618102 89.08011723 87.93231678 C89.03055521 89.92712738 88.99605706 91.92229365 88.96170902 93.9174242 C88.9262598 95.17103748 88.89081059 96.42465076 88.85428715 97.71625233 C88.82810307 98.87358875 88.80191898 100.03092518 88.77494144 101.22333241 C88.3425684 104.13422108 88.3425684 104.13422108 87.21170902 106.0033617 C84.45144091 107.67336717 82.13312442 107.57334877 78.92459965 107.64593983 C77.67098637 107.68138905 76.41737309 107.71683826 75.12577152 107.7533617 C73.81543949 107.7759203 72.50510746 107.79847889 71.1550684 107.82172108 C69.81974827 107.85489774 68.48446008 107.88938774 67.14920902 107.9252367 C63.88063015 108.00783617 60.61161196 108.07270111 57.3425684 108.13422108 C57.3425684 115.72422108 57.3425684 123.31422108 57.3425684 131.13422108 C59.32901371 131.17160389 61.31545902 131.2089867 63.36209965 131.24750233 C65.28831453 131.29617924 67.21452834 131.34495915 69.1406641 131.39667225 C71.1354747 131.44623426 73.13064097 131.48073241 75.12577152 131.51508045 C76.3793848 131.55052967 77.63299809 131.58597889 78.92459965 131.62250233 C80.08193607 131.64868641 81.2392725 131.67487049 82.43167973 131.70184803 C85.3425684 132.13422108 85.3425684 132.13422108 87.21170902 133.26508045 C88.88171449 136.02534856 88.78169609 138.34366505 88.85428715 141.55218983 C88.90746098 143.43260975 88.90746098 143.43260975 88.96170902 145.35101795 C88.98426762 146.66134998 89.00682621 147.97168201 89.0300684 149.32172108 C89.06324506 150.65704121 89.09773506 151.99232939 89.13358402 153.32758045 C89.21618349 156.59615933 89.28104843 159.86517751 89.3425684 163.13422108 C96.9325684 163.13422108 104.5225684 163.13422108 112.3425684 163.13422108 C112.37995121 161.14777576 112.41733402 159.16133045 112.45584965 157.11468983 C112.50452656 155.18847495 112.55330647 153.26226113 112.60501957 151.33612537 C112.65458158 149.34131478 112.68907973 147.3461485 112.72342777 145.35101795 C112.75887699 144.09740467 112.79432621 142.84379139 112.83084965 141.55218983 C112.85703373 140.3948534 112.88321781 139.23751698 112.91019535 138.04510975 C113.3425684 135.13422108 113.3425684 135.13422108 114.47342777 133.26508045 C117.23369588 131.59507498 119.55201237 131.69509339 122.76053715 131.62250233 C124.01415043 131.58705311 125.26776371 131.55160389 126.55936527 131.51508045 C128.52486332 131.48124256 128.52486332 131.48124256 130.5300684 131.44672108 C131.86538853 131.41354442 133.20067671 131.37905441 134.53592777 131.34320545 C137.80450665 131.26060599 141.07352483 131.19574104 144.3425684 131.13422108 C144.3425684 123.54422108 144.3425684 115.95422108 144.3425684 108.13422108 C142.35612309 108.09683826 140.36967777 108.05945545 138.32303715 108.02093983 C136.39682227 107.97226292 134.47060845 107.923483 132.54447269 107.87176991 C130.5496621 107.82220789 128.55449582 107.78770974 126.55936527 107.7533617 C125.30575199 107.71791248 124.05213871 107.68246326 122.76053715 107.64593983 C121.60320072 107.61975574 120.4458643 107.59357166 119.25345707 107.56659412 C116.3425684 107.13422108 116.3425684 107.13422108 114.47342777 106.0033617 C112.8034223 103.24309359 112.90344071 100.9247771 112.83084965 97.71625233 C112.79540043 96.46263905 112.75995121 95.20902576 112.72342777 93.9174242 C112.68958988 91.95192616 112.68958988 91.95192616 112.6550684 89.94672108 C112.62189174 88.61140095 112.58740173 87.27611276 112.55155277 85.9408617 C112.46895331 82.67228283 112.40408836 79.40326464 112.3425684 76.13422108 C104.7525684 76.13422108 97.1625684 76.13422108 89.3425684 76.13422108 Z M220.86991215 336.94281483 C205.22336086 356.7224174 199.19752576 380.30557886 201.54471684 405.28558826 C203.47025284 419.9123957 209.49193759 436.81913643 220.3425684 447.13422108 C220.86206059 446.48195545 221.38155277 445.82968983 221.91678715 445.15765858 C223.36508646 443.34259955 224.81847687 441.53159457 226.27616215 439.72406483 C227.75471587 437.87098143 229.18895518 435.98219462 230.5925684 434.07172108 C241.53117452 421.25586242 260.81627115 412.08806903 277.3425684 410.13422108 C301.42747508 408.2425594 322.43081904 413.1097951 341.80741215 427.92718983 C348.28734449 433.56842522 353.70568275 439.93067663 358.3425684 447.13422108 C370.46370402 436.43910141 376.44530686 418.19910868 377.52713871 402.44672108 C378.81409327 374.59665409 371.69474932 352.41512077 353.05741215 331.57953358 C338.14880984 315.96099783 316.53240723 305.81609692 294.91678715 304.89593983 C265.67876546 304.23184725 240.36018366 314.80457594 220.86991215 336.94281483 Z " fill="#A3D3FE" transform="translate(99.65743160247803,7.865778923034668)"/>
<path d="M0 0 C0.98793295 -0.00445784 1.9758659 -0.00891569 2.99373621 -0.01350862 C4.6336357 -0.01323207 4.6336357 -0.01323207 6.30666447 -0.01294994 C7.46190194 -0.01662663 8.61713941 -0.02030332 9.80738407 -0.02409142 C13.02372532 -0.03322943 16.24003658 -0.03783038 19.45638859 -0.04048073 C22.92134562 -0.04437964 26.38628781 -0.05395811 29.85123539 -0.0626936 C38.2227485 -0.08246752 46.59426283 -0.09252441 54.96579346 -0.10142139 C58.9048682 -0.1058019 62.84394158 -0.11116924 66.78301525 -0.11641026 C79.87109028 -0.13342183 92.95916445 -0.1479178 106.04724884 -0.155159 C109.44459821 -0.15706898 112.84194757 -0.15898931 116.23929691 -0.16094494 C117.50593598 -0.16167055 117.50593598 -0.16167055 118.79816372 -0.16241082 C132.48892141 -0.17071788 146.17959191 -0.19606648 159.87031149 -0.22852562 C173.91531519 -0.26155428 187.96027451 -0.27960386 202.00531727 -0.28280324 C209.8956207 -0.284972 217.78579691 -0.29377418 225.67606258 -0.31926441 C232.39313131 -0.34091408 239.11004192 -0.34905021 245.82714158 -0.33929763 C249.25642697 -0.33473642 252.68538577 -0.3367437 256.11462688 -0.35605907 C259.8271947 -0.37360042 263.5389222 -0.36675911 267.25148869 -0.35352612 C268.34252429 -0.36449536 269.43355989 -0.37546461 270.55765718 -0.38676625 C272.04346823 -0.37389492 272.04346823 -0.37389492 273.55929565 -0.36076355 C274.41675918 -0.36174036 275.2742227 -0.36271717 276.15766996 -0.36372358 C278.3425684 0.13422108 278.3425684 0.13422108 280.11845148 1.85523516 C281.53926158 4.50041239 281.71564032 6.1021276 281.71171188 9.09298038 C281.71768503 10.09719571 281.72365817 11.10141104 281.72981232 12.13605714 C281.7210738 13.23721699 281.71233528 14.33837683 281.70333195 15.47290516 C281.70589522 16.64421883 281.7084585 17.81553251 281.71109945 19.02234054 C281.7151904 22.27428655 281.7058001 25.52587492 281.69076526 28.77777863 C281.67782163 32.28421682 281.68219317 35.79063803 281.68447208 39.29709339 C281.68604588 45.3724943 281.6766256 51.44779863 281.65975857 57.52317524 C281.63538751 66.30715648 281.62756524 75.09109098 281.62379459 83.87510237 C281.61722713 98.1262153 281.59725798 112.37727674 281.56888676 126.6283617 C281.54135381 140.47276012 281.52011649 154.31714456 281.50736332 168.16156483 C281.50657515 169.01479467 281.50578698 169.86802451 281.50497492 170.7471098 C281.50105984 175.02747155 281.49726871 179.30783341 281.49353921 183.58819532 C281.46243413 219.10357395 281.40959032 254.61889276 281.3425684 290.13422108 C281.90522404 290.12832966 282.46787968 290.12243824 283.04758549 290.11636829 C285.64068993 290.09272691 288.23377158 290.07826697 290.8269434 290.06390858 C291.71172367 290.05448231 292.59650394 290.04505604 293.50809574 290.03534412 C318.8724539 289.93033988 341.34145498 300.95924291 360.3425684 317.13422108 C361.01932621 317.70656483 361.69608402 318.27890858 362.39334965 318.86859608 C379.24435935 334.47287236 391.15199411 359.18512248 392.51957035 382.10004139 C393.19221504 416.262888 385.83992117 442.80067213 361.6550684 468.19672108 C340.90345398 488.37979812 314.47681482 496.58520609 286.05057621 496.49774647 C269.68914415 496.25663288 255.88918448 492.4888062 241.3425684 485.13422108 C240.28424809 484.59926014 239.22592777 484.0642992 238.13553715 483.51312733 C226.89481352 477.36976985 212.18917503 466.82743434 206.3425684 455.13422108 C205.75199549 455.13324427 205.16142259 455.13226746 204.55295354 455.13126105 C169.56420758 455.07301088 134.57552801 454.9992307 99.58685936 454.9052348 C95.38734666 454.8939664 91.18783362 454.88282798 86.98832035 454.87176991 C86.15225977 454.86956622 85.31619918 454.86736254 84.45480343 454.86509208 C70.91081802 454.82970302 57.36683267 454.80484797 43.82281814 454.78387406 C29.92925447 454.7621248 16.03575089 454.72908274 2.14223832 454.68551952 C-6.43337732 454.65898768 -15.00891805 454.64130361 -23.58457271 454.63487504 C-29.46225217 454.62962583 -35.33983731 454.61342464 -41.21746626 454.58855542 C-44.61045315 454.57452429 -48.00327115 454.56537556 -51.39628887 454.56921291 C-55.07315052 454.57085659 -58.74948644 454.55424299 -62.42627621 454.53294849 C-63.50117752 454.53779607 -64.57607884 454.54264365 -65.68355292 454.54763812 C-71.341072 454.4933397 -75.44476687 454.34688581 -79.6574316 450.13422108 C-79.76155299 448.15064468 -79.79405367 446.16330404 -79.80003262 444.17700577 C-79.80634056 442.87367497 -79.8126485 441.57034417 -79.81914759 440.2275185 C-79.82113152 438.76212893 -79.82300843 437.29673921 -79.82479 435.83134937 C-79.83023244 434.28938622 -79.83609545 432.74742451 -79.84234571 431.20546442 C-79.85824959 426.94758344 -79.86772921 422.68970825 -79.87611055 418.43180668 C-79.88409764 414.78469473 -79.89579177 411.13759852 -79.90752536 407.49049699 C-79.94949758 394.42253999 -79.97664565 381.3545645 -80.0011816 368.28656483 C-80.0031565 367.25566098 -80.0051314 366.22475714 -80.00716615 365.16261378 C-80.04632394 344.70335361 -80.08004529 324.24408745 -80.10224819 303.78480148 C-80.10721776 299.28351743 -80.11226204 294.78223347 -80.11739254 290.28094959 C-80.11929855 288.60272476 -80.11929855 288.60272476 -80.12124306 286.8905964 C-80.14260243 268.76706672 -80.19159396 250.64371838 -80.25163668 232.52027994 C-80.3127367 213.92472744 -80.34743328 195.32926851 -80.3567214 176.73361689 C-80.36263664 166.28826484 -80.38043141 155.84321976 -80.42810726 145.39796734 C-80.46867527 136.50157109 -80.48559853 127.60553185 -80.47145444 118.70904719 C-80.46497987 114.1691342 -80.46988654 109.62998183 -80.50532818 105.09018612 C-80.53752439 100.93271909 -80.53733129 96.77654986 -80.51151115 92.61904997 C-80.50786151 91.11623554 -80.51602742 89.6133355 -80.53729266 88.1106671 C-80.7049973 75.49868438 -80.7049973 75.49868438 -76.31277084 70.40104389 C-75.12023571 69.28378654 -73.90222682 68.19294149 -72.6574316 67.13422108 C-71.53693372 65.98949939 -70.42427102 64.83699597 -69.323493 63.67329884 C-68.16347307 62.50745921 -67.00083242 61.34422271 -65.8358984 60.18329334 C-65.19435314 59.53999577 -64.55280788 58.89669819 -63.89182186 58.23390675 C-61.79924969 56.13698099 -59.7030984 54.04367752 -57.60665035 51.95062733 C-56.14156393 50.4848665 -54.67662592 49.01895732 -53.21182919 47.55290699 C-50.15649952 44.4961096 -47.09938468 41.44111209 -44.04097652 38.38739491 C-40.11552064 34.46766618 -36.19461207 30.54342411 -32.27500343 26.61784935 C-29.25803429 23.59727542 -26.2386984 20.57907639 -23.21862888 17.56160259 C-21.77096061 16.11460225 -20.32403714 14.66685636 -18.87786579 13.21835995 C-16.86497885 11.20294459 -14.84893387 9.19074345 -12.83199215 7.17938709 C-12.23303127 6.57840199 -11.6340704 5.97741688 -11.01695919 5.3582201 C-7.13733389 1.49855924 -5.42724756 0.01132276 0 0 Z M5.3425684 14.13422108 C5.0125684 36.57422108 4.6825684 59.01422108 4.3425684 82.13422108 C-12.17173517 98.64852464 -42.3052045 84.79080597 -65.6574316 85.13422108 C-65.6574316 201.95422108 -65.6574316 318.77422108 -65.6574316 439.13422108 C21.1325684 439.13422108 107.9225684 439.13422108 197.3425684 439.13422108 C195.3625684 433.85422108 193.3825684 428.57422108 191.3425684 423.13422108 C190.22002739 418.10214069 189.17525476 413.20222587 188.3425684 408.13422108 C188.15823246 407.17386951 187.97389652 406.21351795 187.78397465 405.22406483 C185.38767863 388.44999267 188.1960694 371.65532302 194.2566309 355.98968983 C195.13105426 353.69039674 195.77718311 351.51746382 196.3425684 349.13422108 C195.63504051 349.13275452 194.92751263 349.13128796 194.1985445 349.12977695 C176.98921034 349.09273828 159.78009181 349.03376283 142.57091999 348.95031834 C134.24870572 348.91049525 125.92658645 348.87811943 117.60428715 348.86322498 C110.35123939 348.85022534 103.09840039 348.82330412 95.84547019 348.77960801 C92.00442708 348.75695491 88.16364182 348.74131268 84.32252598 348.74233723 C80.70757728 348.74308159 77.09319937 348.72522192 73.47839832 348.69305325 C71.51827548 348.68046401 69.55805701 348.68763569 67.59790897 348.69536304 C65.8479311 348.67449383 65.8479311 348.67449383 64.06260014 348.65320301 C63.04862785 348.64951584 62.03465557 348.64582867 60.98995686 348.64202976 C57.61579516 347.9948151 56.39391867 346.84839239 54.3425684 344.13422108 C54.49050841 340.43572068 54.70062413 338.77616534 57.3425684 336.13422108 C59.88048172 335.89764786 59.88048172 335.89764786 63.15462589 335.91631031 C65.01151791 335.91907475 65.01151791 335.91907475 66.90592289 335.92189503 C68.28544046 335.93388461 69.66495703 335.9459887 71.04447269 335.95819569 C72.49151627 335.96362902 73.9385639 335.96806065 75.38561344 335.97156239 C78.50680728 335.98041003 81.62791381 335.99470345 84.74906826 336.0126524 C89.68690401 336.03931456 94.62459478 336.04351495 99.56249332 336.04256153 C101.25265503 336.04248583 102.94281673 336.04242011 104.63297844 336.04236412 C105.47954085 336.04231444 106.32610326 336.04226475 107.19831908 336.04221356 C118.69637746 336.04314955 130.19406856 336.06189452 141.69193363 336.13055897 C149.44427181 336.17667861 157.19595943 336.19085125 164.94841224 336.16870981 C169.05103861 336.15832744 173.15217278 336.16444666 177.25459194 336.20985699 C181.11710869 336.2524409 184.97738292 336.25307166 188.83998775 336.22200489 C190.25453112 336.21806628 191.66921588 336.22942984 193.0834856 336.25752926 C200.93666481 336.55938264 200.93666481 336.55938264 207.69111919 333.17691708 C209.47782674 330.90639226 210.92336636 328.64614748 212.3425684 326.13422108 C225.20272264 308.45700135 246.97436513 298.6891856 267.3425684 293.13422108 C267.3425684 201.06422108 267.3425684 108.99422108 267.3425684 14.13422108 C180.8825684 14.13422108 94.4225684 14.13422108 5.3425684 14.13422108 Z M-13.81001949 30.15741444 C-14.69085705 31.03509983 -15.5716946 31.91278522 -16.47922421 32.81706715 C-17.44630634 33.78593904 -18.41325776 34.75494142 -19.38008785 35.72406483 C-20.36500287 36.70830683 -21.35006634 37.69240031 -22.33527279 38.67635059 C-24.40238092 40.74198161 -26.46766213 42.80941797 -28.53169918 44.87811756 C-31.18389111 47.53600678 -33.84054588 50.18938262 -36.49858093 52.84142685 C-38.53433377 54.87357445 -40.56770893 56.90808764 -42.60036182 58.94333553 C-43.57928539 59.92292847 -44.55895862 60.90177282 -45.53937626 61.87987041 C-46.90674323 63.2447115 -48.27058457 64.61308203 -49.63423824 65.98163319 C-50.41287731 66.76106785 -51.19151638 67.54050251 -51.99375057 68.3435564 C-53.77087384 69.84894849 -53.77087384 69.84894849 -53.6574316 71.13422108 C-38.8074316 71.13422108 -23.9574316 71.13422108 -8.6574316 71.13422108 C-8.6574316 56.28422108 -8.6574316 41.43422108 -8.6574316 26.13422108 C-10.70113377 26.13422108 -12.49294948 28.8416888 -13.81001949 30.15741444 Z M220.86991215 336.94281483 C205.22336086 356.7224174 199.19752576 380.30557886 201.54471684 405.28558826 C203.47025284 419.9123957 209.49193759 436.81913643 220.3425684 447.13422108 C220.86206059 446.48195545 221.38155277 445.82968983 221.91678715 445.15765858 C223.36508646 443.34259955 224.81847687 441.53159457 226.27616215 439.72406483 C227.75471587 437.87098143 229.18895518 435.98219462 230.5925684 434.07172108 C241.53117452 421.25586242 260.81627115 412.08806903 277.3425684 410.13422108 C301.42747508 408.2425594 322.43081904 413.1097951 341.80741215 427.92718983 C348.28734449 433.56842522 353.70568275 439.93067663 358.3425684 447.13422108 C370.46370402 436.43910141 376.44530686 418.19910868 377.52713871 402.44672108 C378.81409327 374.59665409 371.69474932 352.41512077 353.05741215 331.57953358 C338.14880984 315.96099783 316.53240723 305.81609692 294.91678715 304.89593983 C265.67876546 304.23184725 240.36018366 314.80457594 220.86991215 336.94281483 Z " fill="#1F4571" transform="translate(99.65743160247803,7.865778923034668)"/>
<path d="M0 0 C0.9170874 0.00091644 1.8341748 0.00183289 2.77905273 0.0027771 C4.71571028 0.00881216 6.65235853 0.02455534 8.58886719 0.04931641 C11.55178253 0.08580551 14.513446 0.0903358 17.4765625 0.08984375 C19.3593858 0.09967599 21.24220063 0.11133345 23.125 0.125 C24.45325806 0.12833847 24.45325806 0.12833847 25.80834961 0.13174438 C27.04983765 0.15088394 27.04983765 0.15088394 28.31640625 0.17041016 C29.04158447 0.17803375 29.7667627 0.18565735 30.51391602 0.19351196 C32.90551137 0.50571477 34.51401711 1.19928103 36.5625 2.4609375 C37.99759221 5.33112191 37.67408506 7.79637473 37.66015625 11 C37.65532227 12.95292969 37.65532227 12.95292969 37.65039062 14.9453125 C37.64203466 16.32552149 37.63356971 17.70572982 37.625 19.0859375 C37.61998501 20.47395676 37.6154221 21.86197772 37.61132812 23.25 C37.59950976 26.65368882 37.58303434 30.05729189 37.5625 33.4609375 C38.42004883 33.43999023 39.27759766 33.41904297 40.16113281 33.39746094 C43.35168472 33.32917223 46.54186346 33.27908237 49.73291016 33.24121094 C51.1122668 33.22113108 52.49153869 33.19386084 53.87060547 33.15917969 C55.85606979 33.11050933 57.84216254 33.09007332 59.828125 33.0703125 C61.02211914 33.04936523 62.21611328 33.02841797 63.44628906 33.00683594 C66.5625 33.4609375 66.5625 33.4609375 68.95019531 34.89770508 C71.39402871 38.78289691 71.13508195 42.35910081 71.09375 46.86328125 C71.09949036 48.23535484 71.09949036 48.23535484 71.10534668 49.63514709 C71.10806574 51.56756695 71.10070493 53.50002362 71.08398438 55.43237305 C71.06259885 58.38479063 71.08377311 61.33476804 71.109375 64.28710938 C71.10673124 66.16667202 71.10160527 68.04623316 71.09375 69.92578125 C71.10184692 70.80612534 71.10994385 71.68646942 71.11828613 72.5934906 C71.05805372 76.54691653 70.81616081 78.97865931 68.95019531 82.52636719 C65.76312885 85.10860795 63.89936825 85.0385004 59.828125 84.94921875 C57.88486328 84.92504883 57.88486328 84.92504883 55.90234375 84.90039062 C54.53904572 84.85861689 53.17576448 84.8162922 51.8125 84.7734375 C50.43363376 84.7483466 49.05472403 84.72553479 47.67578125 84.70507812 C44.30358644 84.64612367 40.93359259 84.56386921 37.5625 84.4609375 C37.58868408 85.31848633 37.61486816 86.17603516 37.6418457 87.05957031 C37.72720597 90.25009939 37.78981513 93.44004557 37.8371582 96.63134766 C37.8622593 98.01077452 37.89634873 99.39006892 37.93969727 100.76904297 C38.00052875 102.75429622 38.02607937 104.74053109 38.05078125 106.7265625 C38.07696533 107.92055664 38.10314941 109.11455078 38.13012695 110.34472656 C37.5625 113.4609375 37.5625 113.4609375 35.62792969 115.84863281 C31.36528156 118.09063092 27.77798055 118.03588126 23.02734375 117.9921875 C22.1116713 117.9960144 21.19599884 117.99984131 20.25257874 118.00378418 C18.32193905 118.00649978 16.39126236 117.99916324 14.46069336 117.98242188 C11.50616552 117.96098224 8.55406246 117.98224772 5.59960938 118.0078125 C3.7213488 118.00516964 1.84308974 118.00004553 -0.03515625 117.9921875 C-1.35870872 118.00433289 -1.35870872 118.00433289 -2.70899963 118.01672363 C-6.47501312 117.95912716 -8.76810152 117.88199737 -12.00073242 115.84863281 C-13.92636671 112.64851331 -13.89345662 110.45046463 -13.828125 106.7265625 C-13.81523437 105.43105469 -13.80234375 104.13554687 -13.7890625 102.80078125 C-13.75564366 101.43748926 -13.72178391 100.07420801 -13.6875 98.7109375 C-13.66742707 97.33205686 -13.64917767 95.95314838 -13.6328125 94.57421875 C-13.58565448 91.20242006 -13.51984538 87.83203063 -13.4375 84.4609375 C-14.30028564 84.47664795 -15.16307129 84.4923584 -16.05200195 84.50854492 C-19.25559267 84.55969705 -22.45897515 84.5972991 -25.6628418 84.62573242 C-27.04897919 84.64081147 -28.43506894 84.661278 -29.82104492 84.68725586 C-31.81408146 84.72367466 -33.80746723 84.73906768 -35.80078125 84.75390625 C-37.00001221 84.7696167 -38.19924316 84.78532715 -39.43481445 84.80151367 C-42.4375 84.4609375 -42.4375 84.4609375 -44.28979492 83.06762695 C-46.20385642 80.38810373 -46.57072991 78.68613066 -46.61450195 75.44189453 C-46.62733719 74.61408478 -46.64017242 73.78627502 -46.65339661 72.93338013 C-46.66078354 72.03755219 -46.66817047 71.14172424 -46.67578125 70.21875 C-46.683853 69.2988327 -46.69192474 68.37891541 -46.70024109 67.43112183 C-46.71408357 65.48258348 -46.72480499 63.53402087 -46.73266602 61.58544922 C-46.74989171 58.60467688 -46.79377737 55.62500994 -46.83789062 52.64453125 C-46.84801635 50.75261233 -46.85653283 48.86068398 -46.86328125 46.96875 C-46.88078934 46.07697052 -46.89829742 45.18519104 -46.91633606 44.26638794 C-46.90301572 40.4686011 -46.87292197 38.15779802 -44.83178711 34.89111328 C-41.62740758 32.97704626 -39.42527025 33.00501171 -35.703125 33.0703125 C-33.75986328 33.08964844 -33.75986328 33.08964844 -31.77734375 33.109375 C-30.41405176 33.14279384 -29.05077051 33.17665359 -27.6875 33.2109375 C-26.30861936 33.23101043 -24.92971088 33.24925983 -23.55078125 33.265625 C-20.17898256 33.31278302 -16.80859313 33.37859212 -13.4375 33.4609375 C-13.45844727 32.60338867 -13.47939453 31.74583984 -13.50097656 30.86230469 C-13.56926527 27.67175278 -13.61935513 24.48157404 -13.65722656 21.29052734 C-13.67730642 19.9111707 -13.70457666 18.53189881 -13.73925781 17.15283203 C-13.78792817 15.16736771 -13.80836418 13.18127496 -13.828125 11.1953125 C-13.84907227 10.00131836 -13.87001953 8.80732422 -13.89160156 7.57714844 C-13.4375 4.4609375 -13.4375 4.4609375 -12.00292969 2.06884766 C-8.10215329 -0.37600516 -4.51484152 -0.07327221 0 0 Z M0.5625 15.4609375 C0.52511719 17.44738281 0.48773438 19.43382813 0.44921875 21.48046875 C0.40054184 23.40668363 0.35176192 25.33289745 0.30004883 27.2590332 C0.25048681 29.2538438 0.21598867 31.24901007 0.18164062 33.24414062 C0.14619141 34.49775391 0.11074219 35.75136719 0.07421875 37.04296875 C0.04803467 38.20030518 0.02185059 39.3576416 -0.00512695 40.55004883 C-0.4375 43.4609375 -0.4375 43.4609375 -1.56835938 45.33007812 C-4.32862748 47.0000836 -6.64694398 46.90006519 -9.85546875 46.97265625 C-11.10908203 47.00810547 -12.36269531 47.04355469 -13.65429688 47.08007812 C-14.96462891 47.10263672 -16.27496094 47.12519531 -17.625 47.1484375 C-18.96032013 47.18161416 -20.29560832 47.21610416 -21.63085938 47.25195312 C-24.89943825 47.33455259 -28.16845644 47.39941754 -31.4375 47.4609375 C-31.4375 55.0509375 -31.4375 62.6409375 -31.4375 70.4609375 C-29.45105469 70.49832031 -27.46460938 70.53570312 -25.41796875 70.57421875 C-23.49175387 70.62289566 -21.56554005 70.67167558 -19.6394043 70.72338867 C-17.6445937 70.77295069 -15.64942743 70.80744883 -13.65429688 70.84179688 C-12.40068359 70.87724609 -11.14707031 70.91269531 -9.85546875 70.94921875 C-8.69813232 70.97540283 -7.5407959 71.00158691 -6.34838867 71.02856445 C-3.4375 71.4609375 -3.4375 71.4609375 -1.56835938 72.59179688 C0.1016461 75.35206498 0.00162769 77.67038148 0.07421875 80.87890625 C0.12739258 82.75932617 0.12739258 82.75932617 0.18164062 84.67773438 C0.20419922 85.98806641 0.22675781 87.29839844 0.25 88.6484375 C0.28317666 89.98375763 0.31766666 91.31904582 0.35351562 92.65429688 C0.43611509 95.92287575 0.50098004 99.19189394 0.5625 102.4609375 C8.1525 102.4609375 15.7425 102.4609375 23.5625 102.4609375 C23.59988281 100.47449219 23.63726562 98.48804688 23.67578125 96.44140625 C23.72445816 94.51519137 23.77323808 92.58897755 23.82495117 90.6628418 C23.87451319 88.6680312 23.90901133 86.67286493 23.94335938 84.67773438 C23.97880859 83.42412109 24.01425781 82.17050781 24.05078125 80.87890625 C24.07696533 79.72156982 24.10314941 78.5642334 24.13012695 77.37182617 C24.5625 74.4609375 24.5625 74.4609375 25.69335938 72.59179688 C28.45362748 70.9217914 30.77194398 71.02180981 33.98046875 70.94921875 C35.23408203 70.91376953 36.48769531 70.87832031 37.77929688 70.84179688 C39.74479492 70.80795898 39.74479492 70.80795898 41.75 70.7734375 C43.08532013 70.74026084 44.42060832 70.70577084 45.75585938 70.66992188 C49.02443825 70.58732241 52.29345644 70.52245746 55.5625 70.4609375 C55.5625 62.8709375 55.5625 55.2809375 55.5625 47.4609375 C53.57605469 47.42355469 51.58960938 47.38617188 49.54296875 47.34765625 C47.61675387 47.29897934 45.69054005 47.25019942 43.7644043 47.19848633 C41.7695937 47.14892431 39.77442743 47.11442617 37.77929688 47.08007812 C36.52568359 47.04462891 35.27207031 47.00917969 33.98046875 46.97265625 C32.82313232 46.94647217 31.6657959 46.92028809 30.47338867 46.89331055 C27.5625 46.4609375 27.5625 46.4609375 25.69335938 45.33007812 C24.0233539 42.56981002 24.12337231 40.25149352 24.05078125 37.04296875 C24.01533203 35.78935547 23.97988281 34.53574219 23.94335938 33.24414062 C23.90952148 31.27864258 23.90952148 31.27864258 23.875 29.2734375 C23.84182334 27.93811737 23.80733334 26.60282918 23.77148438 25.26757812 C23.68888491 21.99899925 23.62401996 18.72998106 23.5625 15.4609375 C15.9725 15.4609375 8.3825 15.4609375 0.5625 15.4609375 Z " fill="#1F4571" transform="translate(188.4375,68.5390625)"/>
<path d="M0 0 C9.11367468 6.86428045 14.85695242 15.72354707 17.0625 26.94921875 C18.73739465 39.37693704 15.91007493 50.71114039 8.453125 60.84765625 C2.65467822 68.15747763 -6.10887568 73.79282339 -15.33984375 75.59765625 C-28.57629855 77.09700688 -40.56357384 75.02386281 -51.328125 66.828125 C-59.4108655 59.61342529 -65.08655968 50.03913984 -65.78515625 39.125 C-66.14081669 25.24463054 -63.30280651 14.47308681 -53.8046875 3.91015625 C-39.11316341 -10.23272172 -16.65236756 -10.65646792 0 0 Z " fill="#1F4571" transform="translate(413.546875,336.15234375)"/>
<path d="M0 0 C6.8679374 5.89658623 15.02680275 13.2188065 16.7734375 22.45703125 C-1.70196885 39.15595622 -25.36609191 45.35514054 -49.83007812 44.58886719 C-69.24897712 43.52059035 -86.45644663 34.59158741 -101.2265625 22.45703125 C-95.91902778 7.65461029 -83.00967812 -2.38706843 -69.27734375 -8.953125 C-46.16843983 -19.10210585 -19.82139315 -16.12658965 0 0 Z " fill="#A2D2FD" transform="translate(431.2265625,445.54296875)"/>
<path d="M0 0 C1.02994835 -0.00701996 1.02994835 -0.00701996 2.08070374 -0.01418173 C4.38082206 -0.02614504 6.68034603 -0.01666969 8.98046875 -0.00723267 C10.62972359 -0.01129779 12.27897571 -0.01663934 13.92822266 -0.02316284 C18.40751817 -0.03684935 22.88660659 -0.03153231 27.36590576 -0.02202559 C32.05123456 -0.0144359 36.73654551 -0.02147267 41.421875 -0.02618408 C49.290397 -0.03164365 57.15883456 -0.02444474 65.02734375 -0.01016235 C74.12737292 0.00616455 83.22720045 0.00087618 92.32722473 -0.01564157 C100.13708727 -0.0292507 107.94688908 -0.0311789 115.75675964 -0.02332556 C120.42267157 -0.01864589 125.08848868 -0.01803226 129.75439453 -0.02793503 C134.14078216 -0.03659409 138.52690956 -0.03060226 142.91326904 -0.01325226 C144.52414518 -0.00928173 146.13504317 -0.01043113 147.74591064 -0.01704025 C149.94288303 -0.02522376 152.13901861 -0.01497384 154.3359375 0 C155.56594482 0.00113108 156.79595215 0.00226215 158.06323242 0.00342751 C161.40832717 0.41017754 162.80111051 1.02723234 165.16796875 3.38095093 C165.69921875 5.31845093 165.69921875 5.31845093 165.66796875 7.38095093 C165.6834375 8.40188843 165.6834375 8.40188843 165.69921875 9.44345093 C164.92228654 12.27696839 163.68535465 12.90639285 161.16796875 14.38095093 C158.04761505 14.76406097 158.04761505 14.76406097 154.29797363 14.77536011 C153.60725785 14.78145121 152.91654206 14.78754231 152.2048955 14.793818 C149.89098705 14.81046399 147.57762792 14.80567014 145.26367188 14.8008728 C143.60456266 14.80821214 141.94545855 14.81679798 140.28636169 14.82653809 C135.78023021 14.84877485 131.27428147 14.85168377 126.76810265 14.84979057 C123.00796076 14.84967099 119.24785777 14.85822979 115.48772669 14.86656809 C106.61890735 14.88580919 97.75018215 14.88868308 88.88134766 14.88192749 C79.72669437 14.87528269 70.57244359 14.89816702 61.41787195 14.93524122 C53.56129456 14.96590633 45.70484688 14.97730183 37.84821081 14.97340441 C33.15426354 14.97133395 28.46062959 14.97686199 23.76673889 15.001297 C19.3539647 15.02350967 14.94184671 15.02173248 10.5290699 15.00136948 C8.90850887 14.99794988 7.28790413 15.0030893 5.66740227 15.01735306 C3.45681828 15.03547017 1.24847862 15.02285719 -0.96203613 15.00241089 C-2.1994178 15.0031234 -3.43679947 15.00383591 -4.71167755 15.00457001 C-7.83203125 14.38095093 -7.83203125 14.38095093 -10.26140594 12.03742218 C-11.83203125 9.38095093 -11.83203125 9.38095093 -11.83203125 6.25595093 C-9.75035318 0.27112647 -5.86850136 0.00539649 0 0 Z " fill="#204672" transform="translate(164.83203125,290.6190490722656)"/>
<path d="M0 0 C0.6955049 -0.0055344 1.39100981 -0.01106879 2.10759062 -0.0167709 C4.43784895 -0.03038317 6.76703725 -0.0154063 9.09727478 -0.00050354 C10.76785741 -0.0042865 12.43843692 -0.00978635 14.10900879 -0.01687622 C18.64615186 -0.03085015 23.18291655 -0.01964804 27.72003865 -0.00316501 C32.46455648 0.01067218 37.20905205 0.00422702 41.95358276 0.0007019 C49.92048756 -0.00200101 57.88724175 0.01148327 65.85411072 0.03465271 C75.07118208 0.06127209 84.28800177 0.06300696 93.5050984 0.05126435 C102.36526279 0.04049437 111.22533595 0.0466669 120.08549309 0.06081963 C123.8593759 0.0665853 127.63319207 0.06649222 131.40707588 0.06175423 C135.84846595 0.05699039 140.28957953 0.06706133 144.73091698 0.08870888 C146.36317131 0.09428471 147.99545217 0.09473477 149.62770844 0.08975601 C151.85131736 0.08382286 154.07407531 0.0962691 156.29760742 0.11352539 C158.16612413 0.11717023 158.16612413 0.11717023 160.07238865 0.12088871 C163.08531189 0.50120544 163.08531189 0.50120544 164.98610592 1.80668545 C166.84558062 4.6732247 166.43885907 7.20143172 166.08531189 10.50120544 C164.54268376 12.60478925 163.40422872 13.34174703 161.08531189 14.50120544 C158.90496812 14.60638653 156.72133931 14.64516138 154.53848267 14.65510559 C153.51828127 14.66167897 153.51828127 14.66167897 152.47746974 14.66838515 C150.18748664 14.681791 147.89754204 14.68795597 145.60752869 14.69407654 C143.97004522 14.70197605 142.3325635 14.71024491 140.69508362 14.71885681 C135.30824958 14.74509269 129.9214077 14.76038524 124.53453064 14.77464294 C122.68163866 14.78000184 120.82874674 14.78537934 118.97585487 14.7907753 C111.26985059 14.81240564 103.56384843 14.83114337 95.85782146 14.84239769 C84.80586737 14.85864361 73.7542645 14.8918351 62.70244282 14.94879854 C54.93593418 14.98746721 47.1695196 15.00702668 39.40291721 15.01231825 C34.7619689 15.01597573 30.12139505 15.02803885 25.48055077 15.06042099 C21.11462841 15.090448 16.74930812 15.09683286 12.3833046 15.08503723 C10.78088578 15.08481605 9.17843947 15.09315811 7.57611656 15.11069107 C5.38771445 15.13333365 3.20150472 15.12511401 1.01309204 15.10920715 C-0.21121678 15.1125173 -1.43552561 15.11582745 -2.6969347 15.1192379 C-6.82873972 14.32564396 -8.31808714 12.74009346 -10.91468811 9.50120544 C-11.47718811 6.93870544 -11.47718811 6.93870544 -10.91468811 4.50120544 C-7.68488978 0.22764839 -5.22251438 0.00087716 0 0 Z " fill="#224975" transform="translate(163.91468811035156,239.49879455566406)"/>
<path d="M0 0 C6.47229148 4.38086269 11.79084545 10.42357216 13.9375 18 C14.94299711 26.86094326 13.87648266 34.80453173 8.39453125 42.03515625 C3.58867995 47.21491818 -1.28814496 50.61152837 -8.40234375 51.34375 C-18.62452033 51.60557736 -25.68784013 50.22206726 -33.23046875 43.140625 C-38.56065375 36.912605 -40.91716757 29.78010012 -40.4765625 21.62890625 C-39.09940131 12.88523188 -34.09712027 6.18569133 -27.39453125 0.61328125 C-20.07043631 -3.99459305 -7.59643672 -3.85042755 0 0 Z " fill="#A2D2FD" transform="translate(402.0625,346)"/>
<path d="M0 0 C2.375 1.0625 2.375 1.0625 4 3 C4.75 6.25 4.75 6.25 4 10 C1.74997308 12.86305821 -1.07265858 14.86278171 -4 17 C-5.01835938 17.75152344 -6.03671875 18.50304687 -7.0859375 19.27734375 C-10.03641946 21.42811812 -13.02256796 23.52430541 -16.01904297 25.61035156 C-18.12072489 27.08468894 -20.20307819 28.58406456 -22.28515625 30.0859375 C-23.71052088 31.09954445 -25.13629368 32.11257771 -26.5625 33.125 C-27.22894531 33.6106543 -27.89539063 34.09630859 -28.58203125 34.59667969 C-31.32170403 36.51918381 -33.38816941 37.87390429 -36.69140625 38.5546875 C-39.85666008 37.79416966 -41.16058987 36.36630108 -43.375 34 C-44.1484375 33.18144531 -44.921875 32.36289062 -45.71875 31.51953125 C-46.4715625 30.68808594 -47.224375 29.85664063 -48 29 C-49.00546875 27.89205078 -49.00546875 27.89205078 -50.03125 26.76171875 C-51.71855487 24.86350077 -53.38198178 22.95755054 -55 21 C-55.56074219 20.33742188 -56.12148437 19.67484375 -56.69921875 18.9921875 C-58 17 -58 17 -57.9375 13.4375 C-57 10 -57 10 -55.3125 8 C-51.89065233 6.52028209 -50.53758409 6.7074212 -47 8 C-42.77128044 11.53061974 -39.23034005 15.54953151 -36 20 C-32.56346463 18.73968719 -29.76669542 17.30256378 -26.8203125 15.13671875 C-26.05589844 14.57919922 -25.29148438 14.02167969 -24.50390625 13.44726562 C-23.71886719 12.86654297 -22.93382812 12.28582031 -22.125 11.6875 C-20.56519268 10.54545202 -19.00529804 9.40352329 -17.4453125 8.26171875 C-15.28356607 6.67877522 -13.12475286 5.09367407 -10.98217773 3.48486328 C-7.10205311 0.6132337 -4.90615455 -0.87220525 0 0 Z " fill="#214874" transform="translate(128,331)"/>
<path d="M0 0 C2.99948609 2.10774698 3.87017778 3.32203951 4.5625 6.9375 C3.33875097 13.60013363 -4.21950774 17.49813878 -9.4375 21.1875 C-11.04575419 22.33047414 -12.65382492 23.47370647 -14.26171875 24.6171875 C-15.05884277 25.18276367 -15.8559668 25.74833984 -16.67724609 26.33105469 C-18.83575896 27.88198952 -20.96328658 29.46566343 -23.08203125 31.0703125 C-24.01607788 31.76797729 -24.01607788 31.76797729 -24.96899414 32.47973633 C-26.12353223 33.34370116 -27.27044502 34.21798882 -28.40795898 35.10424805 C-32.03205307 37.78317032 -34.51474028 38.63440732 -39 38 C-41.4375 35.9375 -41.4375 35.9375 -44 33 C-45.12044356 31.91195481 -46.2457734 30.82892697 -47.375 29.75 C-57.74592671 19.31069355 -57.74592671 19.31069355 -58.2890625 14.37109375 C-58 12 -58 12 -56.4375 9.6875 C-53.02748227 7.3267185 -51.08914551 7.47167553 -47 8 C-44.6250598 9.68033091 -42.89168784 11.75336266 -41.0625 14 C-40.56943359 14.57234375 -40.07636719 15.1446875 -39.56835938 15.734375 C-38.36096553 17.14104744 -37.17794329 18.56857524 -36 20 C-32.72684107 19.3837416 -30.6532234 18.24576263 -27.98828125 16.26953125 C-27.22966797 15.71330078 -26.47105469 15.15707031 -25.68945312 14.58398438 C-24.90505859 13.99939453 -24.12066406 13.41480469 -23.3125 12.8125 C-20.21889483 10.52682878 -17.11611951 8.25489022 -14 6 C-13.20384277 5.41782715 -12.40768555 4.8356543 -11.58740234 4.23583984 C-10.42072021 3.4133374 -10.42072021 3.4133374 -9.23046875 2.57421875 C-8.53719482 2.07881592 -7.8439209 1.58341309 -7.12963867 1.07299805 C-4.54304775 -0.23023102 -2.86224579 -0.31561332 0 0 Z " fill="#214773" transform="translate(128,279)"/>
<path d="M0 0 C1.9375 1.0625 1.9375 1.0625 3 3 C3.625 6.3125 3.625 6.3125 3 10 C1.71533203 11.44848633 1.71533203 11.44848633 0.0078125 12.83203125 C-0.62785645 13.34822021 -1.26352539 13.86440918 -1.91845703 14.39624023 C-5.47368883 17.13542833 -9.09216881 19.77478454 -12.75 22.375 C-19.12827162 26.88361733 -19.12827162 26.88361733 -25.3359375 31.62109375 C-26.25632813 32.34425781 -27.17671875 33.06742187 -28.125 33.8125 C-28.89070313 34.43769531 -29.65640625 35.06289063 -30.4453125 35.70703125 C-34.0341505 37.52340033 -37.13870121 38.03677105 -41 37 C-43.86229275 34.99698692 -46.001496 32.53141844 -48.25 29.875 C-48.848125 29.20984375 -49.44625 28.5446875 -50.0625 27.859375 C-59.03405112 17.73660714 -59.03405112 17.73660714 -58.9375 12.8125 C-57.52173913 8.56521739 -57.52173913 8.56521739 -55 7 C-52.125 6.5 -52.125 6.5 -49 7 C-46.5625 9 -46.5625 9 -44 12 C-42.72957751 13.43786311 -41.45872783 14.87534886 -40.1875 16.3125 C-39.12324005 17.54014315 -38.06012706 18.76878615 -37 20 C-31.99757032 18.41008049 -28.33915722 15.41908484 -24.25 12.25 C-22.81998843 11.16537601 -21.38900594 10.08203087 -19.95703125 9 C-17.70396287 7.29227719 -15.45146013 5.58381355 -13.19921875 3.875 C-8.73782967 0.66958056 -5.70343297 -1.02661793 0 0 Z " fill="#214773" transform="translate(129,228)"/>
</svg>
