<?xml version="1.0" encoding="UTF-8"?>
<svg version="1.1" xmlns="http://www.w3.org/2000/svg" width="512" height="512">
<path d="M0 0 C3.56125684 1.70068184 5.5748587 4.00981815 7.14404297 7.66455078 C8.14731342 11.57404336 8.25156604 15.23885602 8.1953125 19.2421875 C8.19106766 20.39474533 8.19106766 20.39474533 8.18673706 21.57058716 C8.17561311 24.00555521 8.1505236 26.44014462 8.125 28.875 C8.11496011 30.53384882 8.10583603 32.19270346 8.09765625 33.8515625 C8.07569937 37.90118579 8.04122406 41.95052887 8 46 C9.76201091 45.99308655 9.76201091 45.99308655 11.559618 45.98603344 C39.44414471 45.87774369 67.32865505 45.79529724 95.21334792 45.74467335 C98.64548752 45.73841982 102.07762668 45.73194821 105.50976562 45.7253418 C106.19304255 45.72403024 106.87631947 45.72271869 107.58030175 45.7213674 C118.64377737 45.69961096 129.70712309 45.66018819 140.77052166 45.61423602 C152.12265317 45.56747785 163.4746884 45.54008026 174.8269223 45.52955753 C181.20332896 45.52303287 187.57944099 45.50767305 193.95575333 45.47134972 C199.95575324 45.43744656 205.95533675 45.42693577 211.95542336 45.43446159 C214.15890451 45.43308453 216.3623994 45.42311862 218.56579781 45.40397263 C221.57262756 45.37912401 224.57788171 45.38506555 227.58474731 45.39872742 C228.89507248 45.37688111 228.89507248 45.37688111 230.23186886 45.35459346 C234.42559856 45.40615884 237.16316378 45.69560763 240.50355339 48.35850239 C245.02927875 53.14718591 245.25389804 57.76673354 245.265625 64.15625 C245.26753845 64.82160767 245.2694519 65.48696533 245.27142334 66.17248535 C245.27277655 67.57088604 245.26914084 68.96929966 245.26074219 70.36767578 C245.2500297 72.49410529 245.26066631 74.61969016 245.2734375 76.74609375 C245.27211575 78.11198101 245.26955304 79.47786775 245.265625 80.84375 C245.26336914 82.07287109 245.26111328 83.30199219 245.25878906 84.56835938 C244.76419394 91.12687731 242.94233542 94.6754565 238 99 C234.81175432 100.59412284 231.37103338 100.10174735 227.875 100.0625 C227.12089844 100.05798828 226.36679687 100.05347656 225.58984375 100.04882812 C223.72652873 100.03703499 221.86325445 100.01909942 220 100 C220.00170874 100.97098654 220.00170874 100.97098654 220.003452 101.96158898 C220.07056617 140.3155679 220.12204953 178.66953926 220.15319599 217.023565 C220.15694817 221.62736375 220.16083113 226.23116237 220.16479492 230.83496094 C220.16558185 231.75150581 220.16636878 232.66805068 220.16717956 233.61236964 C220.18023838 248.45871274 220.20389484 263.30502104 220.23145839 278.15134348 C220.25949934 293.38167741 220.27617349 308.6119931 220.28226548 323.84235179 C220.28638465 333.24254459 220.29940114 342.64263902 220.3237494 352.04280154 C220.33959042 358.48625121 220.34440407 364.92964991 220.34050413 371.37311764 C220.33858003 375.09231783 220.34155811 378.81134597 220.35761642 382.53051567 C220.37489473 386.56164532 220.36897228 390.5924075 220.36076355 394.62356567 C220.36950207 395.80060975 220.3782406 396.97765383 220.38724393 398.19036591 C220.35601559 403.84379033 220.32212397 408.18102037 217 413 C211.89386971 417.72337783 207.17526201 417.55179752 200.58837891 417.45410156 C199.55362427 417.45468567 198.51886963 417.45526978 197.45275879 417.45587158 C194.04368159 417.45309214 190.63548635 417.42200553 187.2265625 417.390625 C184.85859657 417.38316215 182.49062446 417.37746942 180.12265015 417.37347412 C173.89840564 417.35822148 167.67453609 417.31894221 161.45043945 417.2746582 C155.09591748 417.23369792 148.74133476 417.21546145 142.38671875 417.1953125 C129.92431467 417.15244812 117.46218855 417.08420075 105 417 C105.17459747 417.64827759 105.34919495 418.29655518 105.52908325 418.96447754 C107.20699343 425.1960739 108.88277477 431.4282388 110.55639839 437.66098785 C111.41605929 440.86217986 112.27666296 444.06311083 113.13867188 447.26367188 C115.12759584 454.64944215 117.10030377 462.03922767 119.05334473 469.43457031 C119.67831433 471.78842103 120.30930071 474.14068347 120.94665527 476.49121094 C121.83044681 479.75090349 122.69461878 483.01523093 123.5546875 486.28125 C123.81887482 487.23664673 124.08306213 488.19204346 124.35525513 489.1763916 C125.99454458 495.51270294 127.17848536 502.26259851 123.72265625 508.19140625 C119.42895263 511.7375003 116.07718139 512.67223413 110.52734375 512.69921875 C106.90561565 511.69722597 104.41198735 509.80770056 102 507 C100.86009024 504.43664963 100.06954307 502.29407154 99.375 499.625 C99.17753174 498.93180664 98.98006348 498.23861328 98.77661133 497.52441406 C98.16441789 495.35460209 97.58226375 493.1780075 97 491 C96.60205212 489.58543223 96.2023489 488.17135695 95.80078125 486.7578125 C93 476.72347968 93 476.72347968 93 472 C92.34 472.33 91.68 472.66 91 473 C88.48547791 473.0976925 85.99866967 473.13456574 83.48388672 473.12698364 C82.30737706 473.12932363 82.30737706 473.12932363 81.10709953 473.13171089 C78.46461005 473.13571684 75.82217747 473.13253279 73.1796875 473.12939453 C71.29103563 473.13074875 69.40238402 473.1325288 67.51373291 473.13470459 C62.37337857 473.13927646 57.23304422 473.13749037 52.09268951 473.1343255 C46.72308802 473.13180064 41.35348828 473.1341398 35.98388672 473.13571167 C26.96516613 473.13753299 17.94645372 473.13512803 8.92773438 473.13037109 C-1.51166247 473.12492855 -11.9510398 473.12669123 -22.39043617 473.1321975 C-31.33990458 473.13672968 -40.2893671 473.13737866 -49.23883629 473.13475883 C-54.58991186 473.13319664 -59.94097824 473.13300072 -65.29205322 473.13629532 C-70.32180957 473.13917555 -75.35154064 473.13719551 -80.38129425 473.13140106 C-82.23167122 473.13007429 -84.08205031 473.13046619 -85.93242645 473.13266373 C-88.44960898 473.13537844 -90.96670948 473.13199011 -93.48388672 473.12698364 C-94.59369494 473.13032973 -94.59369494 473.13032973 -95.72592354 473.13374341 C-100.77169985 473.11415008 -100.77169985 473.11415008 -103 472 C-103.09796875 473.05960937 -103.1959375 474.11921875 -103.296875 475.2109375 C-104.04559209 481.15617009 -105.65958661 486.85890549 -107.25 492.625 C-107.53746094 493.73101562 -107.82492188 494.83703125 -108.12109375 495.9765625 C-109.81702082 502.13818398 -111.34496502 506.54272795 -116 511 C-119.77309037 512.88654518 -123.90033031 512.62412882 -128 512 C-131.10439599 510.54238038 -133.26737922 508.97247785 -135 506 C-136.41326175 499.60062317 -135.76215733 494.25443152 -134.04296875 488.015625 C-133.82111404 487.16168152 -133.59925934 486.30773804 -133.37068176 485.42791748 C-132.65750012 482.69787157 -131.92294024 479.97412324 -131.1875 477.25 C-130.73622665 475.53292034 -130.28635009 473.81547297 -129.83789062 472.09765625 C-128.25300676 466.05758712 -126.62776293 460.02863424 -125 454 C-124.58219605 452.45142095 -124.16441169 450.90283662 -123.74664307 449.35424805 C-120.83624166 438.5681053 -117.9199205 427.78356939 -115 417 C-116.3146524 417.00888245 -117.62930481 417.01776489 -118.98379517 417.0269165 C-131.37287246 417.10800166 -143.76189592 417.16796528 -156.15117836 417.20724869 C-162.52065719 417.22812364 -168.8899218 417.2564403 -175.25927734 417.30175781 C-181.40602092 417.34521779 -187.55255845 417.3691378 -193.69944382 417.37950897 C-196.04461282 417.38689998 -198.38977055 417.4013328 -200.73485184 417.42292023 C-204.01960881 417.45195529 -207.30351426 417.45595583 -210.58837891 417.45410156 C-211.55798553 417.46848267 -212.52759216 417.48286377 -213.52658081 417.49768066 C-219.1496099 417.46333176 -222.69025914 416.98668528 -227 413 C-230.9593074 407.25674 -230.41052369 401.32605583 -230.36076355 394.62356567 C-230.36332682 393.36478855 -230.3658901 392.10601143 -230.36853105 390.80908954 C-230.37522988 387.32225835 -230.36325186 383.83570431 -230.34819686 380.34890842 C-230.33523198 376.58619775 -230.33962628 372.82350249 -230.34190369 369.06077576 C-230.34347614 362.54397 -230.33406991 356.02725442 -230.31719017 349.51047134 C-230.29280088 340.0883316 -230.28499497 330.66623542 -230.2812262 321.24406753 C-230.2746616 305.95695781 -230.25470022 290.66989614 -230.22631836 275.3828125 C-230.198778 260.53353109 -230.1775443 245.68426273 -230.16479492 230.83496094 C-230.16400675 229.91952964 -230.16321858 229.00409833 -230.16240653 228.06092669 C-230.15849139 223.4684407 -230.15470027 218.87595463 -230.15097082 214.28346848 C-230.11987466 176.18894535 -230.06703863 138.09447585 -230 100 C-231.08539063 100.04640625 -232.17078125 100.0928125 -233.2890625 100.140625 C-234.73434731 100.17816487 -236.17966211 100.21456264 -237.625 100.25 C-238.33785156 100.28351563 -239.05070312 100.31703125 -239.78515625 100.3515625 C-244.99725084 100.44719726 -247.87033714 99.44758641 -252 96 C-256.20436208 89.69345688 -255.21999405 82.08632043 -255.24023438 74.76269531 C-255.24993936 72.63827337 -255.28100127 70.51482042 -255.3125 68.390625 C-255.31903167 67.02344318 -255.3242815 65.65625452 -255.328125 64.2890625 C-255.3374707 63.05881348 -255.34681641 61.82856445 -255.35644531 60.56103516 C-254.84369355 55.43843436 -253.51131654 51.61904485 -249.96893787 47.82416153 C-245.82412074 45.27752152 -242.48046804 45.4554987 -237.70500183 45.51898193 C-236.76559622 45.51556423 -235.8261906 45.51214653 -234.85831815 45.50862527 C-231.70886509 45.50203388 -228.56026328 45.52404372 -225.41088867 45.54589844 C-223.15402242 45.54702664 -220.8971547 45.54639359 -218.64028931 45.54412842 C-212.51048732 45.54297929 -206.3809975 45.56652112 -200.25126815 45.59442425 C-193.84642726 45.61940461 -187.44157947 45.62177725 -181.03669739 45.62652588 C-170.28554856 45.63755159 -159.53453639 45.66254785 -148.78344727 45.69824219 C-137.71053643 45.73496673 -126.63765672 45.7632763 -115.56469727 45.78027344 C-114.8819889 45.78132433 -114.19928053 45.78237523 -113.49588402 45.78345796 C-110.07088507 45.78867817 -106.6458859 45.79373299 -103.22088659 45.79870558 C-74.81384547 45.84016229 -46.40692888 45.9109037 -18 46 C-18.02094727 44.91058105 -18.04189453 43.82116211 -18.06347656 42.69873047 C-18.13611865 38.63978322 -18.18188718 34.58089294 -18.21972656 30.52148438 C-18.2397871 28.76780521 -18.26704251 27.01419247 -18.30175781 25.26074219 C-18.35052302 22.73355682 -18.37302392 20.20725909 -18.390625 17.6796875 C-18.41127014 16.90132538 -18.43191528 16.12296326 -18.45318604 15.3210144 C-18.45532782 10.07285834 -17.41937898 7.19480975 -14 3 C-9.81838292 -0.96329973 -5.4981834 -0.91925464 0 0 Z M-88 417 C-94.56935075 435.78593711 -94.56935075 435.78593711 -98 456 C-36.62 456 24.76 456 88 456 C86.30983313 447.54234855 86.30983313 447.54234855 84.30859375 439.1875 C83.85129883 437.42212891 83.85129883 437.42212891 83.38476562 435.62109375 C83.07216797 434.42613281 82.75957031 433.23117187 82.4375 432 C81.96280273 430.16115234 81.96280273 430.16115234 81.47851562 428.28515625 C80.12741803 422.5034481 80.12741803 422.5034481 78 417 C23.22 417 -31.56 417 -88 417 Z " fill="#E3E9F7" transform="translate(261,0)"/>
<path d="M0 0 C3.56125684 1.70068184 5.5748587 4.00981815 7.14404297 7.66455078 C8.14731342 11.57404336 8.25156604 15.23885602 8.1953125 19.2421875 C8.19106766 20.39474533 8.19106766 20.39474533 8.18673706 21.57058716 C8.17561311 24.00555521 8.1505236 26.44014462 8.125 28.875 C8.11496011 30.53384882 8.10583603 32.19270346 8.09765625 33.8515625 C8.07569937 37.90118579 8.04122406 41.95052887 8 46 C9.76201091 45.99308655 9.76201091 45.99308655 11.559618 45.98603344 C39.44414471 45.87774369 67.32865505 45.79529724 95.21334792 45.74467335 C98.64548752 45.73841982 102.07762668 45.73194821 105.50976562 45.7253418 C106.19304255 45.72403024 106.87631947 45.72271869 107.58030175 45.7213674 C118.64377737 45.69961096 129.70712309 45.66018819 140.77052166 45.61423602 C152.12265317 45.56747785 163.4746884 45.54008026 174.8269223 45.52955753 C181.20332896 45.52303287 187.57944099 45.50767305 193.95575333 45.47134972 C199.95575324 45.43744656 205.95533675 45.42693577 211.95542336 45.43446159 C214.15890451 45.43308453 216.3623994 45.42311862 218.56579781 45.40397263 C221.57262756 45.37912401 224.57788171 45.38506555 227.58474731 45.39872742 C228.89507248 45.37688111 228.89507248 45.37688111 230.23186886 45.35459346 C234.42559856 45.40615884 237.16316378 45.69560763 240.50355339 48.35850239 C245.02927875 53.14718591 245.25389804 57.76673354 245.265625 64.15625 C245.26753845 64.82160767 245.2694519 65.48696533 245.27142334 66.17248535 C245.27277655 67.57088604 245.26914084 68.96929966 245.26074219 70.36767578 C245.2500297 72.49410529 245.26066631 74.61969016 245.2734375 76.74609375 C245.27211575 78.11198101 245.26955304 79.47786775 245.265625 80.84375 C245.26336914 82.07287109 245.26111328 83.30199219 245.25878906 84.56835938 C244.76419394 91.12687731 242.94233542 94.6754565 238 99 C234.90511006 100.54744497 231.63972488 100.14079704 228.24309158 100.13422108 C227.42878536 100.13657331 226.61447913 100.13892554 225.77549696 100.14134905 C223.01741211 100.14806309 220.2593741 100.1475801 217.50128174 100.14717102 C215.51567727 100.15046815 213.53007348 100.15419339 211.54447055 100.1583125 C206.06501335 100.16835777 200.5855671 100.17205334 195.10610199 100.17470181 C189.20548535 100.17859737 183.30487744 100.18817618 177.40426636 100.19691467 C163.81743203 100.21576449 150.23059617 100.22593813 136.64375219 100.23437535 C129.9322726 100.23857958 123.2207939 100.24380187 116.50931506 100.24905988 C93.54341939 100.2669512 70.57752346 100.28194814 47.61162186 100.28938007 C46.16939053 100.28985483 44.72715921 100.29033072 43.28492789 100.29080774 C42.56969775 100.29104411 41.85446761 100.29128049 41.11756383 100.29152403 C37.49374047 100.29272525 33.86991711 100.29394069 30.24609375 100.29516602 C29.5269299 100.29540617 28.80776605 100.29564632 28.06680935 100.29589374 C4.74421764 100.30378854 -18.57832325 100.32722351 -41.90089276 100.35972196 C-66.54823878 100.39400381 -91.19555505 100.41372968 -115.84292531 100.41702431 C-118.54757898 100.41744187 -121.25223264 100.41792143 -123.95688629 100.41844749 C-124.95585778 100.41863228 -124.95585778 100.41863228 -125.97501051 100.4188208 C-136.03746953 100.42101024 -146.09987547 100.43432063 -156.16231537 100.45348549 C-167.60552097 100.47514183 -179.04863373 100.48326792 -190.4918575 100.47351871 C-196.33355595 100.46895934 -202.17506266 100.47095506 -208.01673508 100.49028015 C-213.36110059 100.5078079 -218.70513302 100.506999 -224.04950157 100.49138286 C-225.98628267 100.48899092 -227.92308622 100.49341171 -229.85983285 100.50521151 C-232.48687298 100.52022973 -235.11271746 100.51072828 -237.73972702 100.49498463 C-238.87516811 100.51031794 -238.87516811 100.51031794 -240.0335474 100.52596101 C-245.15477 100.45869408 -248.06904099 99.24960921 -252 96 C-256.20436208 89.69345688 -255.21999405 82.08632043 -255.24023438 74.76269531 C-255.24993936 72.63827337 -255.28100127 70.51482042 -255.3125 68.390625 C-255.31903167 67.02344318 -255.3242815 65.65625452 -255.328125 64.2890625 C-255.3374707 63.05881348 -255.34681641 61.82856445 -255.35644531 60.56103516 C-254.84369355 55.43843436 -253.51131654 51.61904485 -249.96893787 47.82416153 C-245.82412074 45.27752152 -242.48046804 45.4554987 -237.70500183 45.51898193 C-236.76559622 45.51556423 -235.8261906 45.51214653 -234.85831815 45.50862527 C-231.70886509 45.50203388 -228.56026328 45.52404372 -225.41088867 45.54589844 C-223.15402242 45.54702664 -220.8971547 45.54639359 -218.64028931 45.54412842 C-212.51048732 45.54297929 -206.3809975 45.56652112 -200.25126815 45.59442425 C-193.84642726 45.61940461 -187.44157947 45.62177725 -181.03669739 45.62652588 C-170.28554856 45.63755159 -159.53453639 45.66254785 -148.78344727 45.69824219 C-137.71053643 45.73496673 -126.63765672 45.7632763 -115.56469727 45.78027344 C-114.8819889 45.78132433 -114.19928053 45.78237523 -113.49588402 45.78345796 C-110.07088507 45.78867817 -106.6458859 45.79373299 -103.22088659 45.79870558 C-74.81384547 45.84016229 -46.40692888 45.9109037 -18 46 C-18.02094727 44.91058105 -18.04189453 43.82116211 -18.06347656 42.69873047 C-18.13611865 38.63978322 -18.18188718 34.58089294 -18.21972656 30.52148438 C-18.2397871 28.76780521 -18.26704251 27.01419247 -18.30175781 25.26074219 C-18.35052302 22.73355682 -18.37302392 20.20725909 -18.390625 17.6796875 C-18.41127014 16.90132538 -18.43191528 16.12296326 -18.45318604 15.3210144 C-18.45532782 10.07285834 -17.41937898 7.19480975 -14 3 C-9.81838292 -0.96329973 -5.4981834 -0.91925464 0 0 Z " fill="#6F7386" transform="translate(261,0)"/>
<path d="M0 0 C1.5272747 -0.01441132 1.5272747 -0.01441132 3.08540344 -0.02911377 C4.72765144 -0.03548859 4.72765144 -0.03548859 6.40307617 -0.04199219 C8.10097542 -0.0505423 8.10097542 -0.0505423 9.83317566 -0.05926514 C12.22796699 -0.06870851 14.62277128 -0.07524648 17.01757812 -0.07910156 C20.67169999 -0.08880256 24.32525825 -0.11983117 27.97924805 -0.15136719 C30.30802076 -0.15789802 32.63679748 -0.16314818 34.96557617 -0.16699219 C36.59871513 -0.18551239 36.59871513 -0.18551239 38.2648468 -0.20440674 C44.24504053 -0.1869423 48.65111902 0.16113247 53.88354492 3.16113281 C57.88012127 8.07999601 58.51581228 12.22218151 58.27416992 18.50488281 C57.54078068 23.49192969 55.4853164 26.78182959 51.63354492 30.09863281 C51.05604492 30.44925781 50.47854492 30.79988281 49.88354492 31.16113281 C50.83229492 31.90363281 51.78104492 32.64613281 52.75854492 33.41113281 C55.31261949 35.40997378 56.72186704 37.11104017 57.88354492 40.16113281 C58.6002404 46.32285235 58.56366984 51.95819758 54.88354492 57.16113281 C52.19604492 59.53613281 52.19604492 59.53613281 49.88354492 61.16113281 C50.64666992 61.69738281 51.40979492 62.23363281 52.19604492 62.78613281 C55.91201414 66.07001259 57.58686208 68.76596161 58.20385742 73.74707031 C58.46623424 80.131573 57.72837682 84.03469028 53.88354492 89.16113281 C51.63354492 91.09863281 51.63354492 91.09863281 49.88354492 92.16113281 C50.83229492 92.90363281 51.78104492 93.64613281 52.75854492 94.41113281 C55.31261949 96.40997378 56.72186704 98.11104017 57.88354492 101.16113281 C58.6002404 107.32285235 58.56366984 112.95819758 54.88354492 118.16113281 C52.19604492 120.53613281 52.19604492 120.53613281 49.88354492 122.16113281 C50.64666992 122.69738281 51.40979492 123.23363281 52.19604492 123.78613281 C55.91201414 127.07001259 57.58686208 129.76596161 58.20385742 134.74707031 C58.46479317 141.09650678 57.85746335 145.14144638 53.88354492 150.16113281 C48.22878487 154.10026088 42.31665281 153.59510605 35.69604492 153.55957031 C34.52017822 153.56244049 33.34431152 153.56531067 32.1328125 153.56826782 C29.65160642 153.57030544 27.17038416 153.56479679 24.68920898 153.55224609 C20.89685052 153.53618915 17.10555784 153.55210609 13.31323242 153.57128906 C10.89916758 153.56930658 8.48510339 153.5654628 6.07104492 153.55957031 C4.93965088 153.56564301 3.80825684 153.5717157 2.64257812 153.57797241 C-2.96960402 153.52796635 -7.34789197 153.48746259 -12.11645508 150.16113281 C-13.99145508 147.47363281 -13.99145508 147.47363281 -15.11645508 145.16113281 C-15.65270508 145.92425781 -16.18895508 146.68738281 -16.74145508 147.47363281 C-19.96678525 151.12334854 -22.76344411 152.90822706 -27.70535278 153.43939209 C-30.92047702 153.55839123 -34.12181413 153.57679122 -37.33911133 153.55957031 C-38.5173497 153.56244049 -39.69558807 153.56531067 -40.90953064 153.56826782 C-43.39493288 153.5703053 -45.88035127 153.56479766 -48.36572266 153.55224609 C-52.16906556 153.5361746 -55.97134805 153.55211395 -59.7746582 153.57128906 C-62.19197825 153.56930686 -64.60929765 153.56546365 -67.02661133 153.55957031 C-68.16316666 153.56564301 -69.29972198 153.5717157 -70.47071838 153.57797241 C-71.53209518 153.56851593 -72.59347198 153.55905945 -73.68701172 153.54931641 C-74.61711563 153.54692963 -75.54721954 153.54454285 -76.50550842 153.54208374 C-80.98658062 152.8882716 -83.52428764 150.8493274 -86.42895508 147.47363281 C-86.98583008 146.71050781 -87.54270508 145.94738281 -88.11645508 145.16113281 C-88.83833008 146.10988281 -89.56020508 147.05863281 -90.30395508 148.03613281 C-92.55644174 150.99654386 -94.60347427 151.9767666 -98.11645508 153.16113281 C-100.72740173 153.42855835 -100.72740173 153.42855835 -103.54589844 153.45166016 C-104.60727524 153.46441986 -105.66865204 153.47717957 -106.76219177 153.49032593 C-108.46702477 153.4936644 -108.46702477 153.4936644 -110.20629883 153.49707031 C-111.9722213 153.50705551 -111.9722213 153.50705551 -113.77381897 153.51724243 C-116.26098063 153.52735741 -118.74816936 153.53205981 -121.23535156 153.53173828 C-125.03666918 153.53611292 -128.83682704 153.57245119 -132.63793945 153.61035156 C-135.05655528 153.61621963 -137.47517661 153.62018909 -139.89379883 153.62207031 C-141.59559547 153.64362686 -141.59559547 153.64362686 -143.33177185 153.6656189 C-150.92915543 153.62170401 -154.48123948 152.68852422 -159.96020508 147.37207031 C-162.62794789 142.27091345 -161.77223329 135.74131967 -161.11645508 130.16113281 C-159.31238649 126.04470648 -156.21819143 123.83799701 -152.11645508 122.16113281 C-149.67045593 121.9004364 -149.67045593 121.9004364 -146.90820312 121.88647461 C-145.86999924 121.8769426 -144.83179535 121.86741058 -143.76213074 121.85758972 C-142.08707207 121.85895683 -142.08707207 121.85895683 -140.37817383 121.86035156 C-139.22404495 121.85606644 -138.06991608 121.85178131 -136.8808136 121.84736633 C-134.438941 121.84162366 -131.99705129 121.8411223 -129.55517578 121.84545898 C-125.82855819 121.848612 -122.10273975 121.82518197 -118.3762207 121.79980469 C-116.00187274 121.79753094 -113.62752266 121.79682855 -111.25317383 121.79785156 C-110.14254074 121.78864182 -109.03190765 121.77943207 -107.88761902 121.76994324 C-101.85828814 121.8057902 -97.40005022 122.15715512 -92.11645508 125.16113281 C-89.67895508 127.84863281 -89.67895508 127.84863281 -88.11645508 130.16113281 C-87.33270508 129.21238281 -86.54895508 128.26363281 -85.74145508 127.28613281 C-84.25280603 125.48408397 -82.7726666 123.81734433 -81.11645508 122.16113281 C-81.90020508 121.56300781 -82.68395508 120.96488281 -83.49145508 120.34863281 C-86.92586529 117.4866243 -88.03495578 116.03867177 -88.45239258 111.54394531 C-88.47626579 110.12481554 -88.48889773 108.70546107 -88.49145508 107.28613281 C-88.51594727 106.5784375 -88.54043945 105.87074219 -88.56567383 105.14160156 C-88.58639075 101.4332733 -88.26532961 99.38626756 -86.20239258 96.26660156 C-85.5140332 95.57179688 -84.82567383 94.87699219 -84.11645508 94.16113281 C-83.53895508 93.56300781 -82.96145508 92.96488281 -82.36645508 92.34863281 C-81.95395508 91.95675781 -81.54145508 91.56488281 -81.11645508 91.16113281 C-82.08583008 90.37738281 -83.05520508 89.59363281 -84.05395508 88.78613281 C-85.95607854 87.24824576 -87.01275464 86.36853368 -88.11645508 84.16113281 C-89.31615136 71.60228695 -89.31615136 71.60228695 -86.88208008 66.64941406 C-84.42618384 63.7497544 -82.75661202 62.37451846 -79.11645508 61.16113281 C-77.42045311 61.05871842 -75.72077242 61.01269592 -74.02172852 61 C-72.9834491 60.99039246 -71.94516968 60.98078491 -70.87542725 60.97088623 C-69.19262665 60.96451141 -69.19262665 60.96451141 -67.47583008 60.95800781 C-66.32028625 60.95230774 -65.16474243 60.94660767 -63.97418213 60.94073486 C-61.52633582 60.93128213 -59.07847677 60.9247498 -56.63061523 60.92089844 C-52.89519875 60.91120738 -49.16033581 60.88019167 -45.42504883 60.84863281 C-43.04614584 60.84210122 -40.66723892 60.83685136 -38.28833008 60.83300781 C-37.17455994 60.82066101 -36.06078979 60.80831421 -34.91326904 60.79559326 C-27.61099125 60.81644692 -22.30369997 61.30078484 -16.67895508 66.34863281 C-16.16333008 66.94675781 -15.64770508 67.54488281 -15.11645508 68.16113281 C-14.33270508 67.37738281 -13.54895508 66.59363281 -12.74145508 65.78613281 C-11.19978841 64.24446615 -9.65812174 62.70279948 -8.11645508 61.16113281 C-8.87958008 60.64550781 -9.64270508 60.12988281 -10.42895508 59.59863281 C-14.04678076 56.31734905 -15.70165946 53.04765572 -16.40161133 48.17675781 C-16.62184184 43.23593422 -15.51492189 39.54453768 -13.11645508 35.16113281 C-10.42895508 32.22363281 -10.42895508 32.22363281 -8.11645508 30.16113281 C-9.06520508 29.45988281 -10.01395508 28.75863281 -10.99145508 28.03613281 C-14.68279602 24.92809339 -15.85815135 22.01370447 -16.29614258 17.17675781 C-16.49682209 11.24556339 -15.58967637 7.86696799 -11.74145508 3.41113281 C-7.9307286 0.14479583 -4.91161934 0.03752222 0 0 Z " fill="#E59F24" transform="translate(379.116455078125,222.8388671875)"/>
<path d="M0 0 C1.1446875 1.175625 1.1446875 1.175625 2.3125 2.375 C6.86788621 6.824447 9.77776891 7.29011692 15.88274956 7.25726891 C17.10638906 7.26252802 17.10638906 7.26252802 18.35474855 7.26789337 C21.11179955 7.27726094 23.8686418 7.27227034 26.6257019 7.26742554 C28.61288315 7.2711591 30.60006292 7.27575944 32.58724034 7.28115618 C38.06638451 7.29343791 43.54546787 7.29311965 49.02462268 7.29076743 C54.92657086 7.29036057 60.82849921 7.30138588 66.73043823 7.31088257 C78.30021978 7.32752171 89.8699825 7.33301929 101.43977486 7.33410732 C110.8404083 7.3350256 120.24103512 7.33913804 129.64166641 7.34550858 C132.345377 7.3473036 135.0490876 7.34908323 137.7527982 7.35085833 C138.42490469 7.35130043 139.09701118 7.35174252 139.78948454 7.35219802 C158.70042963 7.36451031 177.61137242 7.37239875 196.5223217 7.37151146 C197.23563621 7.3714803 197.94895071 7.37144914 198.68388081 7.37141704 C202.29944527 7.37125082 205.91500973 7.37105274 209.53057419 7.37084763 C210.60771506 7.37078779 210.60771506 7.37078779 211.70661635 7.37072675 C213.15877782 7.37064587 214.61093928 7.37056228 216.06310075 7.37047596 C238.66041971 7.36925023 261.25767868 7.38426606 283.85498047 7.41162109 C309.22922158 7.4423249 334.60342327 7.45955462 359.97768414 7.45769465 C362.68202345 7.45754538 365.38636275 7.45744797 368.09070206 7.45738602 C369.08955493 7.45735105 369.08955493 7.45735105 370.10858665 7.45731538 C380.17194837 7.45725759 390.23526298 7.46790977 400.29861069 7.48405075 C411.74072788 7.50221765 423.18274674 7.50664693 434.62487207 7.4930319 C440.46644985 7.4864796 446.30783873 7.48646638 452.1493988 7.5037384 C457.49244476 7.51937444 462.83515056 7.51670301 468.17818774 7.49917014 C470.11559157 7.49607925 472.0530202 7.49981039 473.99039482 7.51089029 C476.61586972 7.52491611 479.24013567 7.51450087 481.86556816 7.49777794 C483.004521 7.51268248 483.004521 7.51268248 484.16648299 7.52788812 C489.08013943 7.46132213 491.5150672 6.44086717 495 3 C495.598125 2.4225 496.19625 1.845 496.8125 1.25 C497.204375 0.8375 497.59625 0.425 498 0 C498.11654436 3.5622231 498.1873639 7.12395342 498.25 10.6875 C498.28351563 11.69490234 498.31703125 12.70230469 498.3515625 13.74023438 C498.45022732 21.21409435 498.45022732 21.21409435 496.234375 25.08203125 C491.66148975 29.00735757 487.90482365 29.28917779 481.99699593 29.25726891 C480.77207505 29.26252802 480.77207505 29.26252802 479.52240831 29.26789337 C476.76846286 29.27724477 474.01472716 29.27227445 471.26077271 29.26742554 C469.2734411 29.27115991 467.28611097 29.27576057 465.29878318 29.28115618 C459.82382894 29.29342785 454.34893561 29.29312083 448.87397075 29.29076743 C442.9747477 29.29036032 437.07554445 29.30138828 431.17633057 29.31088257 C419.61370324 29.32751612 408.05109475 29.33301905 396.48845662 29.33410732 C387.09309978 29.33502584 377.69774956 29.33913957 368.30239487 29.34550858 C365.59952447 29.34730362 362.89665405 29.34908324 360.19378364 29.35085833 C359.52187356 29.35130043 358.84996348 29.35174252 358.15769248 29.35219802 C339.25424864 29.364509 320.35080711 29.37239888 301.44735909 29.37151146 C300.37797418 29.37146472 300.37797418 29.37146472 299.28698554 29.37141704 C295.67345987 29.37125082 292.0599342 29.37105274 288.44640853 29.37084763 C287.72872815 29.37080774 287.01104777 29.37076785 286.27161951 29.37072675 C284.82029464 29.37064587 283.36896977 29.37056228 281.91764491 29.37047596 C259.33357998 29.36925025 236.74957509 29.38426636 214.16552734 29.41162109 C188.80225634 29.44232935 163.43902479 29.45955436 138.07573402 29.45769465 C135.3722349 29.45754538 132.66873579 29.45744797 129.96523666 29.45738602 C129.29954867 29.45736271 128.63386068 29.4573394 127.94800032 29.45731538 C117.89083119 29.45725761 107.83370922 29.46790596 97.77655411 29.48405075 C86.34071136 29.50222319 74.90496701 29.50664231 63.46911611 29.4930319 C57.63145796 29.48648248 51.79398882 29.48645613 45.95634842 29.5037384 C40.61575729 29.51938695 35.27550629 29.51668996 29.93492387 29.49917014 C27.99955096 29.49608206 26.06415318 29.49980006 24.12880959 29.51089029 C21.50368629 29.52494075 18.87976779 29.5144812 16.25468636 29.49777794 C15.49829732 29.5077143 14.74190829 29.51765066 13.96259838 29.52788812 C8.84355846 29.45873608 5.92954971 28.24774651 2 25 C-0.20192224 21.69711664 -0.23959968 20.72537273 -0.1953125 16.89453125 C-0.18886719 15.91162109 -0.18242188 14.92871094 -0.17578125 13.91601562 C-0.15902344 12.89185547 -0.14226563 11.86769531 -0.125 10.8125 C-0.11597656 9.77673828 -0.10695313 8.74097656 -0.09765625 7.67382812 C-0.0740786 5.11565315 -0.0411703 2.55794252 0 0 Z " fill="#5B5D6E" transform="translate(7,71)"/>
<path d="M0 0 C8.91 0 17.82 0 27 0 C24.00526184 13.130775 20.55111745 25.979236 17 39 C78.38 39 139.76 39 203 39 C199.7 26.79 196.4 14.58 193 2 C193 1.34 193 0.68 193 0 C201.91 0 210.82 0 220 0 C221.85204775 6.88038094 223.70360955 13.76087074 225.5513916 20.64239502 C226.41273814 23.84978013 227.27499377 27.0569133 228.13867188 30.26367188 C230.12759584 37.64944215 232.10030377 45.03922767 234.05334473 52.43457031 C234.67831433 54.78842103 235.30930071 57.14068347 235.94665527 59.49121094 C236.83044681 62.75090349 237.69461878 66.01523093 238.5546875 69.28125 C238.81887482 70.23664673 239.08306213 71.19204346 239.35525513 72.1763916 C240.99454458 78.51270294 242.17848536 85.26259851 238.72265625 91.19140625 C234.42895263 94.7375003 231.07718139 95.67223413 225.52734375 95.69921875 C221.90561565 94.69722597 219.41198735 92.80770056 217 90 C215.86009024 87.43664963 215.06954307 85.29407154 214.375 82.625 C214.17753174 81.93180664 213.98006348 81.23861328 213.77661133 80.52441406 C213.16441789 78.35460209 212.58226375 76.1780075 212 74 C211.60205212 72.58543223 211.2023489 71.17135695 210.80078125 69.7578125 C208 59.72347968 208 59.72347968 208 55 C207.01 55.495 207.01 55.495 206 56 C203.48547791 56.0976925 200.99866967 56.13456574 198.48388672 56.12698364 C197.30737706 56.12932363 197.30737706 56.12932363 196.10709953 56.13171089 C193.46461005 56.13571684 190.82217747 56.13253279 188.1796875 56.12939453 C186.29103563 56.13074875 184.40238402 56.1325288 182.51373291 56.13470459 C177.37337857 56.13927646 172.23304422 56.13749037 167.09268951 56.1343255 C161.72308802 56.13180064 156.35348828 56.1341398 150.98388672 56.13571167 C141.96516613 56.13753299 132.94645372 56.13512803 123.92773438 56.13037109 C113.48833753 56.12492855 103.0489602 56.12669123 92.60956383 56.1321975 C83.66009542 56.13672968 74.7106329 56.13737866 65.76116371 56.13475883 C60.41008814 56.13319664 55.05902176 56.13300072 49.70794678 56.13629532 C44.67819043 56.13917555 39.64845936 56.13719551 34.61870575 56.13140106 C32.76832878 56.13007429 30.91794969 56.13046619 29.06757355 56.13266373 C26.55039102 56.13537844 24.03329052 56.13199011 21.51611328 56.12698364 C20.40630506 56.13032973 20.40630506 56.13032973 19.27407646 56.13374341 C14.22830015 56.11415008 14.22830015 56.11415008 12 55 C11.90203125 56.05960937 11.8040625 57.11921875 11.703125 58.2109375 C10.95440791 64.15617009 9.34041339 69.85890549 7.75 75.625 C7.31880859 77.28402344 7.31880859 77.28402344 6.87890625 78.9765625 C5.18297918 85.13818398 3.65503498 89.54272795 -1 94 C-4.77309037 95.88654518 -8.90033031 95.62412882 -13 95 C-16.10439599 93.54238038 -18.26737922 91.97247785 -20 89 C-21.41326603 82.60060378 -20.76220856 77.25451212 -19.04296875 71.015625 C-18.71487717 69.75190819 -18.71487717 69.75190819 -18.38015747 68.46266174 C-17.66423866 65.72091736 -16.92624533 62.98567327 -16.1875 60.25 C-15.68582344 58.34758371 -15.18543162 56.4448282 -14.6862793 54.54174805 C-13.4000703 49.65606494 -12.09410329 44.77593191 -10.78015137 39.89764404 C-10.01516562 37.05632826 -9.25360344 34.21411762 -8.49316406 31.37158203 C-5.69189484 20.9061599 -2.85896735 10.44980473 0 0 Z " fill="#E3E9F8" transform="translate(146,417)"/>
<path d="M0 0 C6.93 0 13.86 0 21 0 C21.00238835 1.57151133 21.00477671 3.14302265 21.00723743 4.76215553 C21.06458043 42.05527296 21.13729898 79.34833327 21.22898628 116.64138273 C21.24025463 121.23015983 21.25139305 125.81893723 21.26245117 130.40771484 C21.26465486 131.3212691 21.26685854 132.23482336 21.269129 133.17606108 C21.30451449 147.97387788 21.32937156 162.77169463 21.35034702 177.56953807 C21.37209911 192.75018754 21.40514389 207.93078203 21.44870156 223.11138475 C21.47522849 232.48083614 21.49291619 241.85021901 21.49934604 251.2197061 C21.50459674 257.64216417 21.520803 264.06453598 21.54566566 270.48694785 C21.5596916 274.19397101 21.56884741 277.90083972 21.56500816 281.60789108 C21.56097297 285.62593513 21.579987 289.64353999 21.60127258 293.66152954 C21.59642501 294.83468267 21.59157743 296.0078358 21.58658296 297.21653903 C21.63609792 302.86030066 21.70083386 307.17887828 25 312 C26.92022703 313.77409808 26.92022703 313.77409808 29 315 C29.99 315.66 30.98 316.32 32 317 C28.29193404 317.11674705 24.5843446 317.18743274 20.875 317.25 C19.82828125 317.28351563 18.7815625 317.31703125 17.703125 317.3515625 C11.67852181 317.4278233 7.56094087 317.40065221 3 313 C-0.95178688 307.24561694 -0.41057481 301.33294214 -0.36076355 294.62356567 C-0.36332682 293.36478855 -0.3658901 292.10601143 -0.36853105 290.80908954 C-0.37522988 287.32225835 -0.36325186 283.83570431 -0.34819686 280.34890842 C-0.33523198 276.58619775 -0.33962628 272.82350249 -0.34190369 269.06077576 C-0.34347614 262.54397 -0.33406991 256.02725442 -0.31719017 249.51047134 C-0.29280088 240.0883316 -0.28499497 230.66623542 -0.2812262 221.24406753 C-0.2746616 205.95695781 -0.25470022 190.66989614 -0.22631836 175.3828125 C-0.198778 160.53353109 -0.1775443 145.68426273 -0.16479492 130.83496094 C-0.16400675 129.91952964 -0.16321858 129.00409833 -0.16240653 128.06092669 C-0.15849139 123.4684407 -0.15470027 118.87595463 -0.15097082 114.28346848 C-0.11987466 76.18894503 -0.0668155 38.09447645 0 0 Z " fill="#D8DCE5" transform="translate(31,100)"/>
<path d="M0 0 C1.03827942 -0.00960754 2.07655884 -0.01921509 3.14630127 -0.02911377 C4.82910187 -0.03548859 4.82910187 -0.03548859 6.54589844 -0.04199219 C7.70144226 -0.04769226 8.85698608 -0.05339233 10.04754639 -0.05926514 C12.4953927 -0.06871787 14.94325175 -0.0752502 17.39111328 -0.07910156 C21.12652977 -0.08879262 24.8613927 -0.11980833 28.59667969 -0.15136719 C30.97558267 -0.15789878 33.35448959 -0.16314864 35.73339844 -0.16699219 C36.84716858 -0.17933899 37.96093872 -0.19168579 39.10845947 -0.20440674 C45.93861226 -0.18490137 51.56167835 0.08420482 56.81542969 4.91894531 C58.31585655 8.00584502 58.28028042 10.61739709 58.34277344 14.03613281 C58.70166986 21.22901525 59.86771886 24.12357824 64.90527344 29.16113281 C67.35658005 29.45122584 67.35658005 29.45122584 70.23779297 29.38476562 C71.35300323 29.38526917 72.4682135 29.38577271 73.61721802 29.3862915 C74.82860443 29.37902039 76.03999084 29.37174927 77.28808594 29.36425781 C79.84277852 29.37481072 82.39746636 29.38656792 84.95214844 29.39941406 C88.98776576 29.41205472 93.02301123 29.41330365 97.05859375 29.39111328 C100.94816039 29.37631861 104.83612211 29.39884893 108.72558594 29.42675781 C109.92482697 29.41138977 111.12406799 29.39602173 112.35964966 29.38018799 C119.97944551 29.46828437 124.45219248 30.70792252 129.90527344 36.16113281 C128.56614335 39.24682451 128.05666599 40.07002841 125.04589844 41.88183594 C119.76216794 43.89044255 114.23390158 43.62888234 108.65527344 43.62988281 C106.89715332 43.6413031 106.89715332 43.6413031 105.10351562 43.6529541 C102.63250859 43.6637298 100.1614561 43.66661855 97.69042969 43.66210938 C93.91752105 43.66113597 90.14663942 43.70281387 86.37402344 43.74707031 C83.96777766 43.7522769 81.56152485 43.75496551 79.15527344 43.75488281 C78.03217773 43.77127808 76.90908203 43.78767334 75.75195312 43.80456543 C68.78356487 43.7432763 65.1260268 42.86353995 59.90527344 38.16113281 C58.91527344 39.15113281 58.91527344 39.15113281 57.90527344 40.16113281 C57.90527344 39.17113281 57.90527344 38.18113281 57.90527344 37.16113281 C57.24527344 37.16113281 56.58527344 37.16113281 55.90527344 37.16113281 C55.57527344 38.15113281 55.24527344 39.14113281 54.90527344 40.16113281 C51.38814942 42.79243992 48.82875809 43.53814617 44.47583008 43.54931641 C42.88376488 43.56350113 42.88376488 43.56350113 41.25953674 43.57797241 C40.12298141 43.57189972 38.98642609 43.56582703 37.81542969 43.55957031 C36.63814804 43.56244049 35.46086639 43.56531067 34.24790955 43.56826782 C31.76072712 43.57030732 29.27352861 43.56478554 26.78637695 43.55224609 C22.98514803 43.53620613 19.18498473 43.55209235 15.38378906 43.57128906 C12.96516693 43.56930633 10.54654546 43.56546204 8.12792969 43.55957031 C6.42613304 43.56867935 6.42613304 43.56867935 4.68995667 43.57797241 C-2.07026477 43.51791964 -7.08530495 43.17055442 -12.09472656 38.16113281 C-11.84212409 34.37209574 -9.81623214 32.61926688 -7.09472656 30.16113281 C-8.06410156 29.37738281 -9.03347656 28.59363281 -10.03222656 27.78613281 C-11.93435002 26.24824576 -12.99102613 25.36853368 -14.09472656 23.16113281 C-15.29442284 10.60228695 -15.29442284 10.60228695 -12.86035156 5.64941406 C-9.05771288 1.15966493 -5.86237863 0.04380599 0 0 Z " fill="#E59F23" transform="translate(305.0947265625,283.8388671875)"/>
<path d="M0 0 C0.928125 0.639375 1.85625 1.27875 2.8125 1.9375 C6.85997073 4.55645165 9.50536965 5.12681011 14.21826172 5.16113281 C15.28301727 5.17074036 16.34777283 5.1803479 17.4447937 5.19024658 C19.16981613 5.1966214 19.16981613 5.1966214 20.9296875 5.203125 C22.11217072 5.20882507 23.29465393 5.21452515 24.51296997 5.22039795 C27.01628728 5.22984965 29.51961703 5.2363826 32.02294922 5.24023438 C35.85275961 5.24994362 39.68203426 5.2809678 43.51171875 5.3125 C45.94270514 5.31902969 48.37369538 5.32428029 50.8046875 5.328125 C51.95065399 5.3404718 53.09662048 5.3528186 54.27731323 5.36553955 C55.34837311 5.36253845 56.41943298 5.35953735 57.52294922 5.35644531 C58.46210175 5.36009094 59.40125427 5.36373657 60.36886597 5.36749268 C63.53588421 4.92515261 65.42152794 3.86136542 68 2 C68.33 1.34 68.66 0.68 69 0 C73 0 73 0 75.984375 2.46508789 C80.97028308 6.21187158 86.23842457 5.66314406 92.25 5.55859375 C94.00812012 5.55509666 94.00812012 5.55509666 95.80175781 5.55152893 C98.27286079 5.54181192 100.74394218 5.52007246 103.21484375 5.48706055 C106.98731662 5.43766607 110.75848289 5.42557709 114.53125 5.41992188 C116.93751381 5.40583394 119.34376634 5.38962884 121.75 5.37109375 C122.8730957 5.36573105 123.99619141 5.36036835 125.15332031 5.35484314 C130.7456864 5.27033696 135.79455355 5.16696702 141 3 C141.33 2.01 141.66 1.02 142 0 C144.2255844 1.76044903 144.94223506 2.63925229 145.3984375 5.48828125 C145.3524798 11.02618425 145.30747869 15.32390944 142 20 C138.37349475 23.42955799 136.16832924 24.50179324 131.1875 24.51757812 C130.0428125 24.53018677 128.898125 24.54279541 127.71875 24.55578613 C126.4915625 24.54768921 125.264375 24.53959229 124 24.53125 C122.7315625 24.5350769 121.463125 24.53890381 120.15625 24.54284668 C117.47600514 24.54556715 114.79722295 24.54021686 112.1171875 24.52148438 C108.69048492 24.49869395 105.26503556 24.51182313 101.83837891 24.53577423 C98.55887498 24.55374422 95.27952031 24.54114439 92 24.53125 C90.15921875 24.54339539 90.15921875 24.54339539 88.28125 24.55578613 C87.1365625 24.54317749 85.991875 24.53056885 84.8125 24.51757812 C83.80832031 24.51439575 82.80414063 24.51121338 81.76953125 24.50793457 C77.09881801 23.65132148 74.1805355 20.34793211 71 17 C70.21625 17.969375 69.4325 18.93875 68.625 19.9375 C67.08711295 21.83962346 66.20740087 22.89629957 64 24 C62.17846808 24.11129206 60.35291825 24.1592305 58.52807617 24.17700195 C57.38316208 24.18983719 56.23824799 24.20267242 55.05863953 24.21589661 C53.19463249 24.22697701 53.19463249 24.22697701 51.29296875 24.23828125 C50.02028641 24.246353 48.74760406 24.25442474 47.43635559 24.26274109 C44.73870188 24.27659227 42.04117082 24.28760561 39.34350586 24.29516602 C35.89331751 24.30622269 32.44377551 24.34061336 28.99381542 24.38033772 C25.69776401 24.41281973 22.40165583 24.41728435 19.10546875 24.42578125 C17.86887009 24.44328934 16.63227142 24.46079742 15.35820007 24.47883606 C14.2038295 24.47591049 13.04945892 24.47298492 11.86010742 24.4699707 C10.84687912 24.47583694 9.83365082 24.48170319 8.78971863 24.48774719 C5.22674783 23.86480659 3.59145821 22.47602086 1 20 C-1.5139603 16.22905955 -1.26026442 13.23320555 -1.1875 8.875 C-1.18685547 8.13378906 -1.18621094 7.39257812 -1.18554688 6.62890625 C-1.14039459 1.14039459 -1.14039459 1.14039459 0 0 Z " fill="#E59F24" transform="translate(292,321)"/>
<path d="M0 0 C8.91 0 17.82 0 27 0 C28.85204775 6.88038094 30.70360955 13.76087074 32.5513916 20.64239502 C33.41273814 23.84978013 34.27499377 27.0569133 35.13867188 30.26367188 C37.12759584 37.64944215 39.10030377 45.03922767 41.05334473 52.43457031 C41.67831433 54.78842103 42.30930071 57.14068347 42.94665527 59.49121094 C43.83044681 62.75090349 44.69461878 66.01523093 45.5546875 69.28125 C45.81887482 70.23664673 46.08306213 71.19204346 46.35525513 72.1763916 C47.99454458 78.51270294 49.17848536 85.26259851 45.72265625 91.19140625 C41.42895263 94.7375003 38.07718139 95.67223413 32.52734375 95.69921875 C28.92218729 94.7018107 26.44770214 92.74790493 24 90 C22.6015625 87.13671875 22.6015625 87.13671875 21.625 83.6875 C21.43276855 83.02290771 21.24053711 82.35831543 21.04248047 81.67358398 C18.49706719 72.63375288 16.33229201 63.479542 14.09130859 54.35986328 C11.70947402 44.68733396 9.1156934 35.09321145 6.37915039 25.51416016 C3.97813609 17.06118778 1.93075691 8.5725607 0 0 Z " fill="#E59770" transform="translate(339,417)"/>
<path d="M0 0 C8.91 0 17.82 0 27 0 C23.47159857 15.47068318 19.62731577 30.8729926 14.8125 46 C13.51302448 50.1211938 12.48777951 54.20339709 11.625 58.4375 C10.29722944 64.83822002 8.76832193 71.17284632 7.125 77.5 C6.77622803 78.91623657 6.77622803 78.91623657 6.42041016 80.36108398 C4.89780786 86.09929528 3.24045011 89.80045455 -1 94 C-4.77309037 95.88654518 -8.90033031 95.62412882 -13 95 C-16.10439599 93.54238038 -18.26737922 91.97247785 -20 89 C-21.41326603 82.60060378 -20.76220856 77.25451212 -19.04296875 71.015625 C-18.71487717 69.75190819 -18.71487717 69.75190819 -18.38015747 68.46266174 C-17.66423866 65.72091736 -16.92624533 62.98567327 -16.1875 60.25 C-15.68582344 58.34758371 -15.18543162 56.4448282 -14.6862793 54.54174805 C-13.4000703 49.65606494 -12.09410329 44.77593191 -10.78015137 39.89764404 C-10.01516562 37.05632826 -9.25360344 34.21411762 -8.49316406 31.37158203 C-5.69189484 20.9061599 -2.85896735 10.44980473 0 0 Z " fill="#E59770" transform="translate(146,417)"/>
<path d="M0 0 C0.598125 0.763125 1.19625 1.52625 1.8125 2.3125 C2.8953125 3.6428125 2.8953125 3.6428125 4 5 C4.42779251 5.5434758 4.85558502 6.0869516 5.29634094 6.64689636 C7.70656641 8.56117894 9.39261365 8.35891015 12.44604492 8.3371582 C14.11874702 8.33780022 14.11874702 8.33780022 15.82524109 8.3384552 C17.63457878 8.31980659 17.63457878 8.31980659 19.48046875 8.30078125 C22.03190363 8.30842588 24.58333608 8.31691622 27.13476562 8.32617188 C31.15938952 8.32718306 35.18373454 8.31381437 39.20825195 8.28491211 C43.09115425 8.26415558 46.97259543 8.28025304 50.85546875 8.30078125 C52.05157272 8.28227615 53.2476767 8.26377106 54.48002625 8.2447052 C62.09664084 8.31127754 66.54997321 9.54984407 72 15 C70.66086991 18.08569169 70.15139255 18.9088956 67.140625 20.72070312 C61.85689451 22.72930974 56.32862814 22.46774953 50.75 22.46875 C48.99187988 22.48017029 48.99187988 22.48017029 47.19824219 22.49182129 C44.72723515 22.50259699 42.25618267 22.50548573 39.78515625 22.50097656 C36.01224761 22.50000316 32.24136598 22.54168106 28.46875 22.5859375 C26.06250422 22.59114409 23.65625141 22.5938327 21.25 22.59375 C20.1269043 22.61014526 19.00380859 22.62654053 17.84667969 22.64343262 C10.87829143 22.58214349 7.22075336 21.70240714 2 17 C1.34 17.66 0.68 18.32 0 19 C0 18.01 0 17.02 0 16 C-0.66 16 -1.32 16 -2 16 C-2.495 17.485 -2.495 17.485 -3 19 C-6.51712401 21.63130711 -9.07651535 22.37701336 -13.42944336 22.38818359 C-15.02150856 22.40236832 -15.02150856 22.40236832 -16.64573669 22.4168396 C-17.78229202 22.41076691 -18.91884735 22.40469421 -20.08984375 22.3984375 C-21.2671254 22.40130768 -22.44440704 22.40417786 -23.65736389 22.40713501 C-26.14454632 22.4091745 -28.63174483 22.40365273 -31.11889648 22.39111328 C-34.92012541 22.37507332 -38.7202887 22.39095954 -42.52148438 22.41015625 C-44.94010651 22.40817352 -47.35872798 22.40432923 -49.77734375 22.3984375 C-51.4791404 22.40754654 -51.4791404 22.40754654 -53.21531677 22.4168396 C-59.9755382 22.35678683 -64.99057839 22.00942161 -70 17 C-70 15.125 -70 15.125 -69 13 C-63.40463827 7.7810106 -57.44895233 8.47813732 -50.12109375 8.56640625 C-47.56575459 8.55680364 -45.01041606 8.54703292 -42.45507812 8.53710938 C-39.10886551 8.54428261 -35.7627886 8.55513506 -32.41662598 8.57373047 C-27.85942728 8.59856534 -23.30328246 8.58704989 -18.74609375 8.56640625 C-17.54391708 8.58288712 -16.34174042 8.59936798 -15.10313416 8.61634827 C-8.4835334 8.6589434 -8.4835334 8.6589434 -2.76586914 5.65209961 C-0.87582695 3.06508715 -0.87582695 3.06508715 0 0 Z " fill="#F7B32A" transform="translate(363,305)"/>
<path d="M0 0 C0.5775 0.763125 1.155 1.52625 1.75 2.3125 C4.42051053 5.50227647 6.30038202 7.74488814 10.52192688 8.37854004 C11.9425367 8.3816217 11.9425367 8.3816217 13.3918457 8.38476562 C14.47009109 8.39487671 15.54833649 8.40498779 16.65925598 8.41540527 C17.81970932 8.41238403 18.98016266 8.40936279 20.17578125 8.40625 C21.37430222 8.41708618 22.57282318 8.42792236 23.80766296 8.43908691 C27.64266339 8.47339078 31.47736624 8.48894705 35.3125 8.5 C40.35054628 8.51458006 45.38792925 8.54831011 50.42578125 8.59375 C52.15735222 8.58921814 52.15735222 8.58921814 53.92390442 8.58459473 C60.02994992 8.64135544 64.65488421 8.92836184 70 12 C71.4375 14.1875 71.4375 14.1875 72 16 C68.98527532 19.22263673 67.10901925 20.87277344 62.56036377 21.14717102 C61.59330505 21.15701523 60.62624634 21.16685944 59.62988281 21.17700195 C58.53154114 21.18983719 57.43319946 21.20267242 56.30157471 21.21589661 C54.5203421 21.22697701 54.5203421 21.22697701 52.703125 21.23828125 C51.48099304 21.246353 50.25886108 21.25442474 48.99969482 21.26274109 C46.41061827 21.27658129 43.82152348 21.28730372 41.23242188 21.29516602 C37.27959466 21.31237119 33.32760535 21.35625912 29.375 21.40039062 C26.85938115 21.41051825 24.34375519 21.41903414 21.828125 21.42578125 C20.05903778 21.45204338 20.05903778 21.45204338 18.25421143 21.47883606 C11.60212456 21.46131851 7.42032574 20.96421399 2 17 C1.34 17.66 0.68 18.32 0 19 C0 18.01 0 17.02 0 16 C-0.8880835 16.81202881 -1.77616699 17.62405762 -2.69116211 18.46069336 C-8.0031843 22.22725504 -13.64990776 21.69889301 -19.94140625 21.62890625 C-21.18244614 21.63131821 -22.42348602 21.63373016 -23.70213318 21.63621521 C-26.98654744 21.63498872 -30.2697512 21.61001181 -33.55395508 21.57647705 C-35.56253328 21.56249977 -37.57026574 21.56608702 -39.57885742 21.57641602 C-43.45009819 21.59520498 -47.32018602 21.58575661 -51.19140625 21.56640625 C-52.38528458 21.57136612 -53.5791629 21.57632599 -54.80921936 21.58143616 C-65.47207927 21.43041639 -65.47207927 21.43041639 -70 17 C-70 16.01 -70 15.02 -70 14 C-65.74155388 10.18981137 -63.35484316 8.87828653 -57.71166992 8.8581543 C-56.60679733 8.85111984 -55.50192474 8.84408539 -54.36357117 8.83683777 C-52.56518547 8.83059135 -52.56518547 8.83059135 -50.73046875 8.82421875 C-48.20767394 8.80102109 -45.68488745 8.77690378 -43.16210938 8.75195312 C-39.17230399 8.71681473 -35.18305747 8.68748507 -31.19311523 8.67407227 C-27.35102025 8.65861734 -23.50982639 8.61841957 -19.66796875 8.57421875 C-17.87869209 8.57708138 -17.87869209 8.57708138 -16.05326843 8.58000183 C-9.61410903 8.54697977 -9.61410903 8.54697977 -3.7902832 6.10473633 C-2.11038175 4.12976968 -0.94653981 2.40937407 0 0 Z " fill="#F8B42A" transform="translate(363,336)"/>
<path d="M0 0 C1.9765625 1.07421875 1.9765625 1.07421875 3.625 2.6875 C4.27984375 3.31527344 4.9346875 3.94304687 5.609375 4.58984375 C6.39828125 5.38519531 7.1871875 6.18054688 8 7 C9.10840588 8.08562576 10.21786084 9.17018102 11.328125 10.25390625 C20.54410894 19.31616341 20.54410894 19.31616341 23 23 C22.85038064 26.51605497 22.35854657 28.4953789 20.3125 31.375 C18 33 18 33 15.125 33.5625 C10.86939743 32.79649154 9.22517378 30.83437974 6 28 C5.98541748 28.76143311 5.97083496 29.52286621 5.95581055 30.30737305 C5.88119459 33.76791888 5.78457741 37.22751445 5.6875 40.6875 C5.66494141 41.88568359 5.64238281 43.08386719 5.61914062 44.31835938 C5.58369141 45.47529297 5.54824219 46.63222656 5.51171875 47.82421875 C5.48553467 48.88729248 5.45935059 49.95036621 5.43237305 51.0456543 C4.90320374 54.66139559 3.60585051 57.39414949 1 60 C-6.30434783 60.47124825 -6.30434783 60.47124825 -8.9375 58.6875 C-11.12201588 55.21797477 -11.18004932 52.01284146 -11.31640625 48.01953125 C-11.35830078 46.85615234 -11.40019531 45.69277344 -11.44335938 44.49414062 C-11.48267578 43.27919922 -11.52199219 42.06425781 -11.5625 40.8125 C-11.60568359 39.58595703 -11.64886719 38.35941406 -11.69335938 37.09570312 C-11.7995309 34.06391619 -11.90157952 31.03204685 -12 28 C-12.92683594 28.81210937 -13.85367188 29.62421875 -14.80859375 30.4609375 C-17.10738238 32.4751751 -17.94122566 32.98800524 -21.0625 33.625 C-25.1326611 32.75900828 -26.6204147 31.38910633 -29 28 C-28.7817165 20.15036538 -24.68869654 16.73366956 -19.33691406 11.49975586 C-17.87635013 10.06382736 -16.45384828 8.59648733 -15.03125 7.12304688 C-14.11085937 6.20716797 -13.19046875 5.29128906 -12.2421875 4.34765625 C-10.98704346 3.09480835 -10.98704346 3.09480835 -9.70654297 1.81665039 C-6.25109374 -0.50267107 -4.08274697 -0.41976687 0 0 Z " fill="#04C3FE" transform="translate(247,267)"/>
<path d="M0 0 C3.02771961 1.9408459 5.4490112 4.48094846 8 7 C9.1956845 8.12468753 10.39238215 9.2482985 11.58984375 10.37109375 C12.87394423 11.59994653 14.15648522 12.83043088 15.4375 14.0625 C16.06527344 14.6517627 16.69304687 15.24102539 17.33984375 15.84814453 C20.18038643 18.63807447 21.81355102 20.38780137 22.9921875 24.2578125 C23.00198527 27.69683104 22.0808031 29.30266265 20 32 C17.09704195 33.45147903 15.22738221 33.37239025 12 33 C9.83404489 31.49784719 7.97900622 29.75236025 6 28 C5.9906543 28.82725586 5.98130859 29.65451172 5.97167969 30.50683594 C5.91799681 34.25516415 5.8343429 38.00224162 5.75 41.75 C5.73582031 43.05195313 5.72164063 44.35390625 5.70703125 45.6953125 C5.67480469 46.94570312 5.64257812 48.19609375 5.609375 49.484375 C5.58842773 50.63647461 5.56748047 51.78857422 5.54589844 52.97558594 C4.89455416 56.58419634 3.85957508 57.77737129 1 60 C-1.90784881 60.70882303 -3.942539 60.33971789 -7 60 C-9.67431489 58.18836733 -9.95920359 57.12238923 -11 54 C-11.14986411 52.0093556 -11.24828038 50.01464609 -11.31640625 48.01953125 C-11.35830078 46.85615234 -11.40019531 45.69277344 -11.44335938 44.49414062 C-11.48267578 43.27919922 -11.52199219 42.06425781 -11.5625 40.8125 C-11.60568359 39.58595703 -11.64886719 38.35941406 -11.69335938 37.09570312 C-11.7995309 34.06391619 -11.90157952 31.03204685 -12 28 C-12.92554688 28.81339844 -13.85109375 29.62679687 -14.8046875 30.46484375 C-17.14565702 32.52215819 -17.91627005 32.98492861 -21.125 33.5625 C-24 33 -24 33 -26.375 31.4375 C-28.72165562 27.91751657 -28.7642966 26.16889057 -28 22 C-26.05749175 18.95124976 -23.55902064 16.53769547 -21 14 C-19.98852643 12.96587645 -18.97818441 11.93064537 -17.96875 10.89453125 C-6.23181684 -1.05823305 -6.23181684 -1.05823305 0 0 Z " fill="#04C3FE" transform="translate(396,130)"/>
<path d="M0 0 C4.15754322 1.03196862 5.69599389 2.2554675 8.64990234 5.30249023 C9.9628125 6.63763672 9.9628125 6.63763672 11.30224609 7.99975586 C12.19298828 8.93625977 13.08373047 9.87276367 14.00146484 10.83764648 C14.91541016 11.7702832 15.82935547 12.70291992 16.77099609 13.66381836 C24.51522872 21.62093108 24.51522872 21.62093108 24.87646484 25.77514648 C24.59267969 29.32246086 24.30322591 30.56877394 21.62646484 32.90014648 C18.37646484 34.02514648 18.37646484 34.02514648 14.62646484 33.90014648 C12.72900391 32.57543945 12.72900391 32.57543945 10.89208984 30.89233398 C10.27624023 30.33658691 9.66039062 29.78083984 9.02587891 29.20825195 C8.56407227 28.77657715 8.10226562 28.34490234 7.62646484 27.90014648 C7.61711914 28.75769531 7.60777344 29.61524414 7.59814453 30.4987793 C7.55405193 33.68987328 7.49240428 36.88001404 7.41894531 40.07055664 C7.39077385 41.449663 7.36954013 42.82892967 7.35546875 44.20825195 C7.3339894 46.19437598 7.28523352 48.18014557 7.23583984 50.16577148 C7.21489258 51.35976562 7.19394531 52.55375977 7.17236328 53.78393555 C6.52424807 57.48364154 5.61664361 58.68663753 2.62646484 60.90014648 C-0.87353516 61.46264648 -0.87353516 61.46264648 -4.37353516 60.90014648 C-8.18209746 57.19434543 -8.88733015 54.51987068 -8.98291016 49.28686523 C-9.01513672 48.03969727 -9.04736328 46.7925293 -9.08056641 45.50756836 C-9.09474609 44.21399414 -9.10892578 42.92041992 -9.12353516 41.58764648 C-9.15318359 40.27473633 -9.18283203 38.96182617 -9.21337891 37.60913086 C-9.28399105 34.37274113 -9.33673393 31.13706838 -9.37353516 27.90014648 C-10.30037109 28.70194336 -11.22720703 29.50374023 -12.18212891 30.32983398 C-15.16620386 32.91132859 -17.29302524 34.0737852 -21.37353516 33.90014648 C-24.62814042 31.56532097 -26.08694182 29.9748715 -27.12353516 26.08764648 C-25.95347179 21.11487718 -22.91643336 18.46601323 -19.37353516 14.90014648 C-18.28878721 13.7895793 -17.20416082 12.67889338 -16.11962891 11.56811523 C-4.59948859 -0.1361406 -4.59948859 -0.1361406 0 0 Z " fill="#03C3FE" transform="translate(319.37353515625,198.099853515625)"/>
<path d="M0 0 C0.84125931 -0.0087616 1.68251862 -0.01752319 2.54927063 -0.02655029 C5.32308922 -0.04851168 8.09530655 -0.03400365 10.86914062 -0.01708984 C12.80058091 -0.02045893 14.73201912 -0.02531232 16.66345215 -0.03158569 C20.70862033 -0.03895259 24.75323596 -0.02825737 28.79833984 -0.00488281 C33.9805474 0.02360483 39.16146024 0.00719988 44.3436203 -0.02274513 C48.33113337 -0.04082302 52.31834007 -0.03505782 56.30586243 -0.02210617 C58.21641697 -0.01877352 60.12699943 -0.02285429 62.03752136 -0.03450394 C64.70935614 -0.04722086 67.37910189 -0.02782516 70.05078125 0 C71.23230522 -0.01518173 71.23230522 -0.01518173 72.43769836 -0.03067017 C76.45656137 0.0467715 78.31666907 0.48254056 81.51208496 2.99990845 C83.52539062 5.64697266 83.52539062 5.64697266 84.21289062 8.64697266 C83.4201048 12.10640171 82.1067018 13.42790229 79.35289001 15.59626389 C76.12681449 17.45107482 72.74695504 17.34178382 69.13671875 17.29394531 C67.9062809 17.30708771 67.9062809 17.30708771 66.65098572 17.32049561 C63.952325 17.34241683 61.2553166 17.32796353 58.55664062 17.31103516 C56.67386563 17.3144054 54.79109276 17.31925976 52.9083252 17.32553101 C48.96748079 17.33289245 45.02720406 17.32222037 41.08642578 17.29882812 C36.04221663 17.27034069 30.99933769 17.28674858 25.95517731 17.31669044 C22.06884795 17.33478316 18.18283249 17.32899636 14.29649353 17.31605148 C12.43700502 17.31272292 10.57748774 17.31678518 8.71803284 17.32844925 C6.1159448 17.34119078 3.51599201 17.32173671 0.9140625 17.29394531 C0.15024765 17.30406647 -0.6135672 17.31418762 -1.40052795 17.32461548 C-5.31586539 17.24738499 -7.91317414 16.68991615 -10.95593262 14.29403687 C-13.47460938 11.64697266 -13.47460938 11.64697266 -14.16210938 8.64697266 C-12.41728713 1.03320288 -6.95870866 -0.0894144 0 0 Z " fill="#C4C9D2" transform="translate(92.474609375,335.35302734375)"/>
<path d="M0 0 C0.85086685 -0.0087616 1.7017337 -0.01752319 2.5783844 -0.02655029 C5.39009655 -0.04855068 8.20023484 -0.03398839 11.01196289 -0.01708984 C12.96725262 -0.02045812 14.92254031 -0.02531083 16.87782288 -0.03158569 C20.976043 -0.03895814 25.07371822 -0.02824063 29.171875 -0.00488281 C34.42248705 0.02358626 39.67182024 0.00721509 44.92238522 -0.02274513 C48.96051139 -0.04082409 52.99833506 -0.03505699 57.03647041 -0.02210617 C58.97214471 -0.01877284 60.90784656 -0.02285668 62.84348869 -0.03450394 C65.55134532 -0.04722043 68.25714048 -0.02782462 70.96484375 0 C71.76344818 -0.01012115 72.56205261 -0.02024231 73.38485718 -0.03067017 C77.42619323 0.04616914 79.32503982 0.47292745 82.54444885 2.9960022 C84.54711914 5.64697266 84.54711914 5.64697266 85.17211914 8.70947266 C84.54711914 11.64697266 84.54711914 11.64697266 82.54544067 13.79920959 C78.66299556 16.1918278 75.3710033 16.20210997 70.94897461 16.14868164 C70.09474915 16.15408463 69.24052368 16.15948761 68.3604126 16.16505432 C65.54468857 16.17753383 62.72998837 16.16105871 59.91430664 16.14306641 C57.95565741 16.14322138 55.99700788 16.14471016 54.0383606 16.1474762 C49.937789 16.14885974 45.83756737 16.13630719 41.73706055 16.11352539 C36.47645419 16.08510345 31.21642764 16.08788886 25.95577812 16.1006155 C21.91349314 16.107563 17.87134267 16.09979466 13.82907486 16.08735847 C11.88896322 16.08283758 9.94883718 16.08251273 8.00872421 16.08642387 C5.30100521 16.08932794 2.5940919 16.07286929 -0.11352539 16.05102539 C-1.3198613 16.05777786 -1.3198613 16.05777786 -2.55056763 16.06466675 C-7.93720395 15.99230884 -7.93720395 15.99230884 -10.41549683 14.33265686 C-12.197523 11.43697572 -12.39488072 9.01098049 -12.45288086 5.64697266 C-9.4067894 0.07247297 -5.87385595 -0.07425441 0 0 Z " fill="#C3C8D1" transform="translate(91.452880859375,297.35302734375)"/>
<path d="M0 0 C0.86222672 -0.00700928 1.72445343 -0.01401855 2.61280823 -0.02124023 C5.46160125 -0.03883876 8.30940008 -0.027191 11.15820312 -0.01367188 C13.1383076 -0.01636626 15.11841079 -0.02024823 17.09851074 -0.02526855 C21.24793091 -0.03116612 25.3970066 -0.02259225 29.54638672 -0.00390625 C34.86643645 0.01888335 40.18567904 0.00576167 45.50569916 -0.01819611 C49.59436123 -0.03264704 53.6828318 -0.02805131 57.77149963 -0.01768494 C59.73311966 -0.01501571 61.69475705 -0.01829429 63.65635681 -0.02760315 C66.39767543 -0.0377571 69.13768518 -0.02228414 71.87890625 0 C73.09623192 -0.01214539 73.09623192 -0.01214539 74.33815002 -0.02453613 C77.90359325 0.02918667 80.03745636 0.22998406 82.9744873 2.33117676 C84.43945312 4.51757812 84.43945312 4.51757812 84.43945312 8.01757812 C83.32146616 11.9305325 82.67956706 13.1276115 79.43945312 15.51757812 C76.52677584 15.9173002 73.99085432 16.07504543 71.07836914 16.05102539 C70.23725586 16.05964096 69.39614258 16.06825653 68.52954102 16.07713318 C65.75050031 16.09982672 62.9724653 16.09304794 60.19335938 16.08398438 C58.26048991 16.08921872 56.327623 16.0954945 54.39476013 16.10276794 C50.34369895 16.11317859 46.29298888 16.10860151 42.24194336 16.09399414 C37.05189705 16.07681125 31.86295831 16.10029196 26.67303562 16.13548374 C22.68125581 16.1574514 18.68974122 16.15601769 14.69791985 16.14771843 C12.78456343 16.14689845 10.87118763 16.15377079 8.95788765 16.16848946 C6.28121145 16.18592253 3.60652789 16.17140396 0.92993164 16.14868164 C0.14067795 16.16037384 -0.64857574 16.17206604 -1.46174622 16.18411255 C-5.4851952 16.11466651 -7.35105559 15.681789 -10.55604553 13.16954041 C-12.56054688 10.51757812 -12.56054688 10.51757812 -13.12304688 7.45507812 C-11.71644531 0.10949217 -6.49729458 -0.06482419 0 0 Z " fill="#C3C8D1" transform="translate(91.560546875,259.482421875)"/>
<path d="M0 0 C4 2 4 2 5.79690552 3.05215454 C8.49724992 4.21393366 10.56210791 4.26739 13.49951172 4.29052734 C14.60100555 4.30328705 15.70249939 4.31604675 16.83737183 4.32919312 C18.022836 4.33141876 19.20830017 4.33364441 20.4296875 4.3359375 C22.26432053 4.3459227 22.26432053 4.3459227 24.13601685 4.35610962 C26.72331234 4.36623501 29.31063394 4.37092667 31.89794922 4.37060547 C35.85297775 4.37497567 39.80688788 4.41129099 43.76171875 4.44921875 C46.27603785 4.45508748 48.79036225 4.45905649 51.3046875 4.4609375 C53.07681107 4.48249405 53.07681107 4.48249405 54.88473511 4.50448608 C61.30374945 4.4688317 65.05337599 4.18209867 70 0 C70.66 0 71.32 0 72 0 C73.70569046 5.11707137 74.04733695 11.07056743 72.2109375 16.20703125 C70.49718085 19.31403281 68.96706345 21.0219577 66 23 C63.40177917 23.28761292 63.40177917 23.28761292 60.24682617 23.33813477 C58.47434761 23.37179893 58.47434761 23.37179893 56.6660614 23.40614319 C55.38794083 23.41778 54.10982025 23.42941681 52.79296875 23.44140625 C51.47968094 23.45517807 50.16639313 23.46894989 48.81330872 23.48313904 C46.03170213 23.50865293 43.25020458 23.5243457 40.46850586 23.53540039 C36.91359555 23.55193863 33.36067826 23.61034607 29.80643749 23.67854404 C26.40617718 23.73422458 23.00615475 23.74057053 19.60546875 23.75390625 C18.33342087 23.78376114 17.06137299 23.81361603 15.7507782 23.84437561 C7.11402927 23.80140126 7.11402927 23.80140126 3.86050415 21.46090698 C0.00552701 17.05708467 -1.13904462 13.84256283 -1.125 8 C-1.12757813 6.9275 -1.13015625 5.855 -1.1328125 4.75 C-1 2 -1 2 0 0 Z " fill="#E59F24" transform="translate(364,291)"/>
<path d="M0 0 C3.56125684 1.70068184 5.5748587 4.00981815 7.14404297 7.66455078 C8.14731342 11.57404336 8.25156604 15.23885602 8.1953125 19.2421875 C8.1924826 20.01055939 8.18965271 20.77893127 8.18673706 21.57058716 C8.17561311 24.00555521 8.1505236 26.44014462 8.125 28.875 C8.11496011 30.53384882 8.10583603 32.19270346 8.09765625 33.8515625 C8.07740755 37.90130209 8.03824546 41.95023118 8 46 C-0.58 46 -9.16 46 -18 46 C-18.09205878 40.83959367 -18.17162277 35.682059 -18.21972656 30.52148438 C-18.2397871 28.76780521 -18.26704251 27.01419247 -18.30175781 25.26074219 C-18.35052302 22.73355682 -18.37302392 20.20725909 -18.390625 17.6796875 C-18.41127014 16.90132538 -18.43191528 16.12296326 -18.45318604 15.3210144 C-18.45532782 10.07285834 -17.41937898 7.19480975 -14 3 C-9.81838292 -0.96329973 -5.4981834 -0.91925464 0 0 Z " fill="#E59770" transform="translate(261,0)"/>
<path d="M0 0 C4.29 0 8.58 0 13 0 C14.85440744 6.88638619 16.70690467 13.77328022 18.55639839 20.66098785 C19.41605929 23.86217986 20.27666296 27.06311083 21.13867188 30.26367188 C23.12759584 37.64944215 25.10030377 45.03922767 27.05334473 52.43457031 C27.67831433 54.78842103 28.30930071 57.14068347 28.94665527 59.49121094 C29.83044681 62.75090349 30.69461878 66.01523093 31.5546875 69.28125 C31.81887482 70.23664673 32.08306213 71.19204346 32.35525513 72.1763916 C33.82407537 77.85379187 34.72840061 83.26267944 33 89 C30.4375 91.5625 30.4375 91.5625 28 93 C24.60176911 90.01968668 23.26751383 87.68424462 22.04785156 83.35253906 C21.55146179 81.6162323 21.55146179 81.6162323 21.04504395 79.84484863 C20.70017944 78.57604858 20.35531494 77.30724854 20 76 C19.62734654 74.64966892 19.25458152 73.29936863 18.88171387 71.94909668 C17.64209948 67.42548785 16.43748479 62.89280282 15.234375 58.359375 C14.79186931 56.69878361 14.34917792 55.03824168 13.90631104 53.37774658 C12.98710173 49.92916089 12.069547 46.48014101 11.15332031 43.03076172 C9.97674549 38.60145461 8.79681303 34.17305044 7.61577988 29.74493027 C6.70547025 26.33099821 5.79645447 22.91672279 4.88788605 19.50232697 C4.45278067 17.86749561 4.01737191 16.23274498 3.58165741 14.59807587 C2.97733529 12.32971307 2.37464991 10.06092206 1.77246094 7.79199219 C1.59173035 7.11470566 1.41099976 6.43741913 1.22479248 5.73960876 C0 1.11449147 0 1.11449147 0 0 Z " fill="#EFA378" transform="translate(353,417)"/>
<path d="M0 0 C4.29 0 8.58 0 13 0 C9.5108148 15.47556257 5.62563359 30.8782776 0.8125 46 C-0.48697552 50.1211938 -1.51222049 54.20339709 -2.375 58.4375 C-3.70277056 64.83822002 -5.23167807 71.17284632 -6.875 77.5 C-7.10751465 78.44415771 -7.3400293 79.38831543 -7.57958984 80.36108398 C-9.10304612 86.10251364 -10.82050213 89.74966318 -15 94 C-18.23580609 92.38209695 -18.72679445 90.35663282 -20 87 C-21.11383706 77.85105494 -18.58505582 69.39171502 -16.125 60.6875 C-15.72178245 59.22095876 -15.32012385 57.75398812 -14.91992188 56.28662109 C-14.06919346 53.17029233 -13.21245757 50.05569885 -12.35253906 46.94189453 C-10.22392084 39.20102476 -8.19978816 31.43235977 -6.16595459 23.66616821 C-5.5083328 21.15679653 -4.84856233 18.64800029 -4.18798828 16.1394043 C-3.78157107 14.59554154 -3.37515809 13.05167766 -2.96875 11.5078125 C-2.78371918 10.80514755 -2.59868835 10.1024826 -2.40805054 9.37852478 C-1.58729159 6.25639517 -0.78297896 3.13191584 0 0 Z " fill="#EFA479" transform="translate(160,417)"/>
<path d="M0 0 C0.95769287 -0.00145523 1.91538574 -0.00291046 2.90209961 -0.00440979 C4.92271981 -0.00275311 6.94335294 0.00878231 8.96386719 0.02954102 C12.05197905 0.05849511 15.13837324 0.0501449 18.2265625 0.03710938 C20.19271665 0.04334722 22.1588654 0.05173853 24.125 0.0625 C25.04595459 0.05956436 25.96690918 0.05662872 26.91577148 0.05360413 C32.25228117 0.13191215 36.09524131 0.52883506 40.0625 4.49609375 C40.53374825 11.80044158 40.53374825 11.80044158 38.75 14.43359375 C35.7776318 16.30508484 33.1815448 16.62880024 29.76220703 16.6730957 C28.897659 16.68593094 28.03311096 16.69876617 27.1423645 16.71199036 C26.21108734 16.71937729 25.27981018 16.72676422 24.3203125 16.734375 C22.87952835 16.74648262 22.87952835 16.74648262 21.40963745 16.75883484 C19.37711385 16.77266441 17.34456714 16.7833916 15.31201172 16.79125977 C12.20625858 16.80848968 9.10156538 16.85238796 5.99609375 16.89648438 C4.02084115 16.90661013 2.04557952 16.9151266 0.0703125 16.921875 C-1.32053055 16.94813713 -1.32053055 16.94813713 -2.73947144 16.97492981 C-7.00871107 16.9605876 -9.31585304 16.87940662 -13.02148438 14.59448242 C-15.07612076 12.34427858 -15.62110234 11.49653351 -15.5625 8.49609375 C-15.57539062 7.83609375 -15.58828125 7.17609375 -15.6015625 6.49609375 C-13.24073885 -0.6141516 -6.17196094 -0.07528675 0 0 Z " fill="#C4C9D2" transform="translate(114.9375,220.50390625)"/>
<path d="M0 0 C1.17112335 -0.00857025 2.3422467 -0.0171405 3.54885864 -0.02597046 C6.02164123 -0.03743616 8.49449125 -0.03847292 10.96728516 -0.02978516 C14.73848335 -0.02346987 18.50653391 -0.07038303 22.27734375 -0.12109375 C24.68489189 -0.12564072 27.09244843 -0.12704627 29.5 -0.125 C31.18160721 -0.15262924 31.18160721 -0.15262924 32.89718628 -0.18081665 C40.31105371 -0.0937801 44.54847785 1.37966258 49.8828125 6.6015625 C48.54411546 9.68574064 48.03413605 10.5104296 45.02563477 12.32226562 C39.73139991 14.33489785 34.18714506 14.06931287 28.59765625 14.0703125 C27.4232045 14.07792603 26.24875275 14.08553955 25.03871155 14.09338379 C22.56350831 14.10415873 20.0882597 14.10704854 17.61303711 14.10253906 C13.82914653 14.10156477 10.04727109 14.14326175 6.26367188 14.1875 C3.85417088 14.19270586 1.44466286 14.19539521 -0.96484375 14.1953125 C-2.09310074 14.21170776 -3.22135773 14.22810303 -4.38380432 14.24499512 C-13.12198844 14.16814557 -13.12198844 14.16814557 -16.87670898 11.06445312 C-17.61606689 10.25169922 -18.3554248 9.43894531 -19.1171875 8.6015625 C-18.8977608 5.52958864 -18.11953297 4.60370957 -15.81982422 2.49853516 C-11.01342449 -0.54641266 -5.50590364 -0.00892015 0 0 Z " fill="#F7B329" transform="translate(385.1171875,313.3984375)"/>
<path d="M0 0 C1.17445175 -0.00241196 2.3489035 -0.00482391 3.5589447 -0.00730896 C6.03420397 -0.0063322 8.50948555 0.00702011 10.98461914 0.03198242 C14.76849668 0.06632595 18.55004215 0.05262056 22.33398438 0.03320312 C24.7434995 0.04010093 27.15300862 0.0497727 29.5625 0.0625 C31.25488548 0.0550602 31.25488548 0.0550602 32.98146057 0.04747009 C39.17051025 0.14010246 43.05707016 0.39128893 47.71484375 4.62890625 C48.70484375 6.11390625 48.70484375 6.11390625 49.71484375 7.62890625 C44.90108029 11.80083458 42.15070623 13.73561361 35.60424805 13.8059082 C34.56274094 13.81874344 33.52123383 13.83157867 32.44816589 13.84480286 C31.32316177 13.85218979 30.19815765 13.85957672 29.0390625 13.8671875 C27.30218925 13.87929512 27.30218925 13.87929512 25.53022766 13.89164734 C23.07819109 13.9054848 20.62613528 13.91620846 18.17407227 13.92407227 C14.42752553 13.94129052 10.68185989 13.98518201 6.93554688 14.02929688 C4.55339191 14.03942339 2.17122944 14.04793962 -0.2109375 14.0546875 C-1.88933464 14.08094963 -1.88933464 14.08094963 -3.60163879 14.10774231 C-9.72761407 14.09068943 -13.76263537 13.9858932 -18.28515625 9.62890625 C-18.92939758 7.48994446 -18.92939758 7.48994446 -19.28515625 5.62890625 C-13.10067026 0.05894518 -8.12943828 -0.09570117 0 0 Z " fill="#F7B32A" transform="translate(385.28515625,252.37109375)"/>
<path d="M0 0 C1.58745026 -0.01925285 1.58745026 -0.01925285 3.20697021 -0.03889465 C4.35071106 -0.04628159 5.4944519 -0.05366852 6.67285156 -0.0612793 C7.85059143 -0.06935104 9.0283313 -0.07742279 10.24176025 -0.08573914 C12.73667937 -0.09957824 15.2316174 -0.11030117 17.7265625 -0.11816406 C21.53454654 -0.13536735 25.34166036 -0.17925581 29.14941406 -0.22338867 C31.57388685 -0.23351652 33.99836701 -0.24203233 36.42285156 -0.2487793 C37.55849548 -0.26628738 38.6941394 -0.28379547 39.86419678 -0.30183411 C46.36723578 -0.28406875 50.59980742 0.1361801 55.81347656 4.17700195 C56.30847656 5.66200195 56.30847656 5.66200195 56.81347656 7.17700195 C52.36241441 10.8081316 50.27688103 12.29592995 44.54101562 12.35400391 C43.43937073 12.36683914 42.33772583 12.37967438 41.20269775 12.39289856 C39.40901764 12.40397896 39.40901764 12.40397896 37.57910156 12.4152832 C36.35318298 12.42335495 35.1272644 12.4314267 33.86419678 12.43974304 C31.2649477 12.45359433 28.66568036 12.46431179 26.06640625 12.47216797 C22.09379585 12.48538252 18.12179874 12.53324949 14.14941406 12.57739258 C11.62598269 12.58752004 9.10254424 12.59603597 6.57910156 12.6027832 C5.39141174 12.62029129 4.20372192 12.63779938 2.9800415 12.65583801 C-7.65061362 12.62792632 -7.65061362 12.62792632 -12.18652344 8.17700195 C-12.18652344 5.17700195 -12.18652344 5.17700195 -10.37402344 3.05200195 C-7.01708318 0.17462459 -4.26298217 0.04505033 0 0 Z " fill="#F8B42A" transform="translate(378.1865234375,283.822998046875)"/>
<path d="M0 0 C1.03827942 -0.00960754 2.07655884 -0.01921509 3.14630127 -0.02911377 C4.82910187 -0.03548859 4.82910187 -0.03548859 6.54589844 -0.04199219 C7.70144226 -0.04769226 8.85698608 -0.05339233 10.04754639 -0.05926514 C12.4953927 -0.06871787 14.94325175 -0.0752502 17.39111328 -0.07910156 C21.12652977 -0.08879262 24.8613927 -0.11980833 28.59667969 -0.15136719 C30.97558267 -0.15789878 33.35448959 -0.16314864 35.73339844 -0.16699219 C36.84716858 -0.17933899 37.96093872 -0.19168579 39.10845947 -0.20440674 C45.13983285 -0.1871825 49.62145394 0.14258906 54.90527344 3.16113281 C56.34277344 5.34863281 56.34277344 5.34863281 56.90527344 7.16113281 C53.8878479 10.38665666 52.01128809 12.03443697 47.45890808 12.30830383 C46.48883316 12.31814804 45.51875824 12.32799225 44.51928711 12.33813477 C43.41771774 12.35097 42.31614838 12.36380524 41.18119812 12.37702942 C39.39525993 12.38810982 39.39525993 12.38810982 37.57324219 12.39941406 C35.73648674 12.41152168 35.73648674 12.41152168 33.86262512 12.4238739 C31.26935238 12.43771308 28.67606143 12.44843597 26.08276367 12.45629883 C22.11895232 12.47351908 18.15597329 12.51740961 14.19238281 12.56152344 C11.67350874 12.5716497 9.15462758 12.58016601 6.63574219 12.58691406 C5.45118942 12.60442215 4.26663666 12.62193024 3.04618835 12.63996887 C-7.55429256 12.61205555 -7.55429256 12.61205555 -12.09472656 8.16113281 C-12.09472656 5.16113281 -12.09472656 5.16113281 -10.28222656 3.03613281 C-6.94831818 0.17849706 -4.23299131 0.03163057 0 0 Z " fill="#F8B42A" transform="translate(378.0947265625,344.8388671875)"/>
<path d="M0 0 C1.03827942 -0.00960754 2.07655884 -0.01921509 3.14630127 -0.02911377 C4.82910187 -0.03548859 4.82910187 -0.03548859 6.54589844 -0.04199219 C7.70144226 -0.04769226 8.85698608 -0.05339233 10.04754639 -0.05926514 C12.4953927 -0.06871787 14.94325175 -0.0752502 17.39111328 -0.07910156 C21.12652977 -0.08879262 24.8613927 -0.11980833 28.59667969 -0.15136719 C30.97558267 -0.15789878 33.35448959 -0.16314864 35.73339844 -0.16699219 C36.84716858 -0.17933899 37.96093872 -0.19168579 39.10845947 -0.20440674 C45.13983285 -0.1871825 49.62145394 0.14258906 54.90527344 3.16113281 C56.34277344 5.34863281 56.34277344 5.34863281 56.90527344 7.16113281 C53.8878479 10.38665666 52.01128809 12.03443697 47.45890808 12.30830383 C46.48883316 12.31814804 45.51875824 12.32799225 44.51928711 12.33813477 C43.41771774 12.35097 42.31614838 12.36380524 41.18119812 12.37702942 C39.39525993 12.38810982 39.39525993 12.38810982 37.57324219 12.39941406 C35.73648674 12.41152168 35.73648674 12.41152168 33.86262512 12.4238739 C31.26935238 12.43771308 28.67606143 12.44843597 26.08276367 12.45629883 C22.11895232 12.47351908 18.15597329 12.51740961 14.19238281 12.56152344 C11.67350874 12.5716497 9.15462758 12.58016601 6.63574219 12.58691406 C5.45118942 12.60442215 4.26663666 12.62193024 3.04618835 12.63996887 C-7.55429256 12.61205555 -7.55429256 12.61205555 -12.09472656 8.16113281 C-12.09472656 5.16113281 -12.09472656 5.16113281 -10.28222656 3.03613281 C-6.94831818 0.17849706 -4.23299131 0.03163057 0 0 Z " fill="#F8B42B" transform="translate(305.0947265625,283.8388671875)"/>
<path d="M0 0 C1.03835495 -0.00960754 2.0767099 -0.01921509 3.14653015 -0.02911377 C4.2735585 -0.03336365 5.40058685 -0.03761353 6.56176758 -0.04199219 C7.71872635 -0.04769226 8.87568512 -0.05339233 10.06770325 -0.05926514 C12.52152591 -0.06872663 14.97536134 -0.07525366 17.42919922 -0.07910156 C21.17348648 -0.08878235 24.91721919 -0.11978549 28.66137695 -0.15136719 C31.04483723 -0.1578996 33.42830144 -0.16314914 35.81176758 -0.16699219 C37.48712837 -0.18551239 37.48712837 -0.18551239 39.19633484 -0.20440674 C45.23574904 -0.18721235 49.72858537 0.13658725 55.01879883 3.16113281 C56.45629883 5.34863281 56.45629883 5.34863281 57.01879883 7.16113281 C54.26166508 10.25466693 52.44667798 11.91521521 48.3041687 12.62866211 C44.90699076 12.78950988 41.54063809 12.80134034 38.13989258 12.75488281 C36.89506607 12.7549231 35.65023956 12.75496338 34.36769104 12.75500488 C31.06970948 12.74828446 27.7729408 12.71832509 24.47521973 12.67932129 C22.45643912 12.66113408 20.43828629 12.65856431 18.41943359 12.66210938 C14.53430382 12.66876159 10.64994479 12.65366259 6.76489258 12.62988281 C5.56271591 12.6296814 4.36053925 12.62947998 3.12193298 12.62927246 C1.4397744 12.60540466 1.4397744 12.60540466 -0.27636719 12.58105469 C-1.25976578 12.5726355 -2.24316437 12.56421631 -3.25636292 12.55554199 C-6.46314586 12.09137329 -8.39502997 11.09010617 -10.98120117 9.16113281 C-10.98120117 8.50113281 -10.98120117 7.84113281 -10.98120117 7.16113281 C-11.64120117 6.83113281 -12.30120117 6.50113281 -12.98120117 6.16113281 C-5.76491039 0.04297324 -5.76491039 0.04297324 0 0 Z " fill="#F8B42B" transform="translate(231.981201171875,344.8388671875)"/>
<path d="M0 0 C1.5272747 -0.01441132 1.5272747 -0.01441132 3.08540344 -0.02911377 C4.72765144 -0.03548859 4.72765144 -0.03548859 6.40307617 -0.04199219 C8.10097542 -0.0505423 8.10097542 -0.0505423 9.83317566 -0.05926514 C12.22796699 -0.06870851 14.62277128 -0.07524648 17.01757812 -0.07910156 C20.67169999 -0.08880256 24.32525825 -0.11983117 27.97924805 -0.15136719 C30.30802076 -0.15789802 32.63679748 -0.16314818 34.96557617 -0.16699219 C36.59871513 -0.18551239 36.59871513 -0.18551239 38.2648468 -0.20440674 C44.23993061 -0.18695722 48.64437656 0.18479242 53.88354492 3.16113281 C55.32104492 5.34863281 55.32104492 5.34863281 55.88354492 7.16113281 C51.43248277 10.79226246 49.34694939 12.28006081 43.61108398 12.33813477 C42.50943909 12.35097 41.40779419 12.36380524 40.27276611 12.37702942 C38.479086 12.38810982 38.479086 12.38810982 36.64916992 12.39941406 C35.42325134 12.40748581 34.19733276 12.41555756 32.93426514 12.4238739 C30.33501606 12.43772519 27.73574872 12.44844265 25.13647461 12.45629883 C21.1638642 12.46951338 17.1918671 12.51738035 13.21948242 12.56152344 C10.69605105 12.5716509 8.17261259 12.58016683 5.64916992 12.58691406 C4.4614801 12.60442215 3.27379028 12.62193024 2.05010986 12.63996887 C-8.58054526 12.61205718 -8.58054526 12.61205718 -13.11645508 8.16113281 C-13.11645508 5.16113281 -13.11645508 5.16113281 -11.36645508 3.03613281 C-7.802345 0.06604108 -4.53427197 0.03463948 0 0 Z " fill="#F8B429" transform="translate(379.116455078125,222.8388671875)"/>
<path d="M0 0 C1.875 0.625 1.875 0.625 4 2 C6.06356477 6.73406036 6.26672381 11.16014037 6.1953125 16.2421875 C6.1924826 17.01055939 6.18965271 17.77893127 6.18673706 18.57058716 C6.17561311 21.00555521 6.1505236 23.44014462 6.125 25.875 C6.11496011 27.53384882 6.10583603 29.19270346 6.09765625 30.8515625 C6.07569937 34.90118579 6.04122406 38.95052887 6 43 C2.7 43 -0.6 43 -4 43 C-4.07431132 37.82221598 -4.12867808 32.64474431 -4.16479492 27.46655273 C-4.17985553 25.70608104 -4.20030826 23.9456467 -4.22631836 22.18530273 C-4.26282229 19.65078497 -4.27975354 17.11676448 -4.29296875 14.58203125 C-4.31619453 13.40674614 -4.31619453 13.40674614 -4.33988953 12.2077179 C-4.3412995 7.60065476 -3.81148712 4.68893781 -1 1 C-0.67 0.67 -0.34 0.34 0 0 Z " fill="#F0A479" transform="translate(263,3)"/>
<path d="M0 0 C0.53625 0.7425 1.0725 1.485 1.625 2.25 C4.15264739 5.17674961 6.71827368 6.98621339 10 9 C9.2575 9.53625 8.515 10.0725 7.75 10.625 C4.82325039 13.15264739 3.01378661 15.71827368 1 19 C0.38125 18.13375 0.38125 18.13375 -0.25 17.25 C-3.0915028 13.59663925 -5.70370199 10.84127058 -10 9 C-8.63875 8.443125 -8.63875 8.443125 -7.25 7.875 C-3.54887824 5.73973745 -2.11346343 3.65791748 0 0 Z " fill="#E4E7EE" transform="translate(363,336)"/>
<path d="M0 0 C0.8971875 1.1446875 0.8971875 1.1446875 1.8125 2.3125 C4.41016278 5.50391427 6.57272246 7.7151483 10 10 C9.0925 10.556875 8.185 11.11375 7.25 11.6875 C4.15546609 13.8893799 2.20718532 15.94389725 0 19 C-0.37125 18.2575 -0.7425 17.515 -1.125 16.75 C-3.32362135 13.52535535 -5.67963799 11.99221721 -9 10 C-8.4225 9.5875 -7.845 9.175 -7.25 8.75 C-3.85629125 6.11044875 -1.37875516 4.13626549 0 0 Z " fill="#E4E7EF" transform="translate(363,305)"/>
</svg>
